<?xml version="1.0" standalone="no"?>
<!DOCTYPE svg PUBLIC "-//W3C//DTD SVG 20010904//EN"
 "http://www.w3.org/TR/2001/REC-SVG-20010904/DTD/svg10.dtd">
<svg version="1.0" xmlns="http://www.w3.org/2000/svg"
 width="750.000000pt" height="935.000000pt" viewBox="0 0 750.000000 935.000000"
 preserveAspectRatio="xMidYMid meet">

<g transform="translate(0.000000,935.000000) scale(0.100000,-0.100000)"
fill="#000000" stroke="none">
<path d="M0 4675 l0 -4675 3750 0 3750 0 0 4675 0 4675 -3750 0 -3750 0 0
-4675z m6043 4492 c-3 -5 1 -13 8 -18 8 -5 14 -26 14 -52 0 -25 3 -43 8 -40 4
2 8 -15 9 -39 2 -39 5 -93 7 -125 1 -7 8 -10 16 -7 8 4 15 1 15 -6 0 -6 5 -8
11 -4 6 3 26 -9 45 -27 l33 -32 20 44 20 44 0 -36 c1 -20 -5 -54 -13 -75 -7
-22 -10 -47 -7 -57 4 -10 2 -49 -3 -86 -10 -76 0 -111 50 -171 14 -16 22 -30
17 -30 -12 0 -74 46 -85 62 -14 23 -9 -31 6 -61 37 -70 66 -207 72 -337 3 -79
2 -134 -4 -138 -5 -3 -12 27 -15 72 -7 99 -29 178 -73 272 -41 87 -60 110
-131 156 -47 30 -52 37 -59 80 -5 34 -2 55 10 80 20 43 39 46 24 4 -22 -66 26
-119 78 -85 35 23 47 52 45 113 -1 75 -39 131 -86 132 -18 0 -20 -6 -18 -52
l3 -53 -13 34 c-18 47 -32 49 -56 10 -49 -81 -33 -188 42 -280 67 -82 88 -117
114 -193 29 -87 43 -228 22 -223 -8 2 -11 2 -6 0 4 -3 7 -16 7 -30 0 -35 -43
-172 -48 -151 -2 9 1 25 6 35 14 28 15 176 2 240 -17 81 -70 181 -134 253 -61
68 -94 143 -96 212 0 23 3 113 7 198 7 152 7 154 19 102 7 -30 14 -55 16 -57
2 -2 20 12 40 30 48 45 62 112 53 239 -4 61 -3 86 4 76 5 -8 7 -18 4 -23z
m-5600 -224 c18 -47 16 -66 -5 -45 -16 16 -45 15 -51 0 -2 -7 -8 -10 -12 -6
-11 10 24 98 39 98 6 0 19 -21 29 -47z m222 15 c9 -22 15 -28 18 -18 3 8 8 23
11 33 3 9 12 17 21 17 11 0 15 -12 15 -50 0 -54 -19 -71 -21 -17 l-1 32 -10
-32 c-6 -18 -15 -33 -19 -33 -5 0 -15 15 -23 33 l-14 32 -1 -32 c-2 -54 -21
-37 -21 17 0 60 23 69 45 18z m165 -18 c0 -38 -4 -50 -15 -50 -11 0 -15 11
-15 43 0 24 3 47 7 50 16 17 23 3 23 -43z m115 18 l20 -33 3 33 c5 51 22 37
22 -18 0 -59 -16 -66 -45 -17 l-20 32 -3 -32 c-5 -52 -22 -38 -22 17 0 59 16
66 45 18z m193 20 c7 -7 12 -24 12 -38 0 -35 -17 -50 -57 -50 -33 0 -33 0 -33
50 0 50 0 50 33 50 18 0 38 -5 45 -12z m264 -35 c18 -49 16 -65 -4 -45 -15 15
-48 16 -48 2 0 -5 -5 -10 -11 -10 -11 0 -8 26 11 75 14 38 33 30 52 -22z m108
7 c0 -33 3 -40 19 -40 11 0 23 -4 26 -10 4 -6 -8 -10 -29 -10 l-36 0 0 50 c0
28 5 50 10 50 6 0 10 -18 10 -40z m180 30 c0 -5 -7 -10 -15 -10 -11 0 -15 -11
-15 -40 0 -29 -4 -40 -15 -40 -11 0 -15 11 -15 36 0 23 -6 42 -17 50 -16 12
-12 13 30 14 26 0 47 -4 47 -10z m140 0 c0 -5 -11 -10 -25 -10 -14 0 -25 -4
-25 -10 0 -5 12 -10 26 -10 14 0 23 -4 19 -10 -3 -5 -17 -10 -31 -10 -13 0
-24 -4 -24 -10 0 -5 14 -10 30 -10 17 0 30 -4 30 -10 0 -5 -18 -10 -40 -10
l-40 0 0 50 0 50 40 0 c22 0 40 -4 40 -10z m151 3 c7 -52 3 -93 -8 -93 -7 0
-13 9 -13 20 0 13 -7 20 -20 20 -13 0 -20 -7 -20 -20 0 -11 -4 -20 -10 -20 -5
0 -10 23 -10 50 l0 50 40 0 c22 0 40 -3 41 -7z m99 -43 c0 -27 -4 -50 -10 -50
-5 0 -10 23 -10 50 0 28 5 50 10 50 6 0 10 -22 10 -50z m117 18 l18 -33 3 33
c5 51 22 37 22 -18 0 -38 -4 -50 -15 -50 -8 0 -15 3 -15 8 0 4 -9 18 -20 32
l-20 25 6 -32 c5 -26 3 -33 -10 -33 -12 0 -16 10 -16 43 0 67 19 76 47 25z
m201 15 c2 -9 -5 -11 -26 -7 -17 4 -32 1 -36 -5 -12 -19 4 -51 25 -51 21 0 26
16 7 23 -7 3 -1 6 13 6 21 1 25 -3 24 -21 -1 -18 -9 -23 -38 -26 -32 -3 -39 0
-49 22 -18 42 3 78 44 74 17 -2 33 -9 36 -15z m252 2 c11 -13 8 -15 -21 -13
-29 3 -34 -1 -37 -20 -4 -27 22 -40 43 -22 19 16 28 9 19 -14 -7 -19 -54 -22
-72 -4 -7 7 -12 24 -12 38 0 14 5 31 12 38 17 17 53 15 68 -3z m164 -1 c32
-31 11 -84 -32 -84 -35 0 -52 16 -52 50 0 14 5 31 12 38 17 17 54 15 72 -4z
m106 -24 c0 -36 3 -40 25 -40 14 0 25 -4 25 -10 0 -5 -16 -10 -35 -10 l-35 0
0 50 c0 28 5 50 10 50 6 0 10 -18 10 -40z m140 0 c0 -33 3 -40 19 -40 11 0 23
-4 26 -10 4 -6 -9 -10 -33 -10 -38 0 -39 0 -40 41 -2 43 3 59 19 59 5 0 9 -18
9 -40z m140 -10 c0 -39 -4 -50 -16 -50 -12 0 -15 9 -13 43 3 47 6 57 20 57 5
0 9 -22 9 -50z m141 34 c12 -15 10 -16 -21 -9 -37 8 -36 0 2 -19 13 -7 23 -20
23 -31 0 -26 -56 -33 -75 -11 -10 13 -10 16 2 16 8 0 19 -5 26 -12 9 -9 15 -9
24 0 9 9 4 14 -20 23 -30 10 -42 36 -25 52 12 13 51 7 64 -9z m99 -34 c0 -27
-4 -50 -10 -50 -5 0 -10 23 -10 50 0 28 5 50 10 50 6 0 10 -22 10 -50z m162
25 c17 -37 -3 -75 -40 -75 -35 0 -52 16 -52 50 0 34 17 50 52 50 21 0 32 -7
40 -25z m113 6 c3 -11 12 -24 19 -30 10 -8 11 -4 8 21 -4 23 -1 29 9 26 18 -6
19 -90 2 -95 -6 -2 -20 11 -30 29 l-18 33 -3 -32 c-5 -52 -22 -38 -22 17 0 37
4 50 14 50 8 0 17 -9 21 -19z m303 7 c7 -7 12 -24 12 -38 0 -14 -5 -31 -12
-38 -7 -7 -24 -12 -38 -12 -45 0 -63 37 -40 81 12 22 59 26 78 7z m152 2 c0
-5 -11 -10 -25 -10 -14 0 -25 -4 -25 -10 0 -5 9 -10 20 -10 11 0 20 -4 20 -10
0 -5 -9 -10 -20 -10 -13 0 -20 -7 -20 -20 0 -11 -4 -20 -10 -20 -5 0 -10 23
-10 50 l0 50 35 0 c19 0 35 -4 35 -10z m207 -22 l10 -33 13 33 c19 51 40 41
40 -18 0 -54 -19 -71 -21 -17 l-1 32 -9 -32 c-5 -18 -14 -33 -19 -33 -6 0 -16
15 -24 33 l-14 32 -1 -32 c-2 -54 -21 -37 -21 17 0 42 3 50 19 50 12 0 22 -11
28 -32z m163 -6 c0 -43 6 -53 26 -45 9 3 14 20 14 44 0 21 5 39 11 39 6 0 9
-19 7 -47 -3 -48 -3 -48 -38 -48 -35 0 -35 0 -38 48 -2 28 1 47 7 47 6 0 11
-17 11 -38z m208 20 c3 -9 -3 -11 -22 -6 -16 4 -26 2 -26 -5 0 -6 8 -11 19
-11 29 0 47 -26 31 -46 -16 -18 -71 -15 -78 5 -3 10 0 12 14 7 30 -12 36 -12
41 2 3 6 -2 12 -9 12 -8 0 -23 6 -33 14 -17 12 -17 16 -5 30 15 19 61 18 68
-2z m98 -35 c1 -34 -2 -47 -12 -47 -10 0 -14 14 -14 51 0 67 24 63 26 -4z
m154 38 c11 -13 8 -15 -21 -13 -29 3 -34 -1 -37 -20 -4 -27 22 -40 43 -22 20
17 32 5 15 -15 -18 -22 -56 -19 -74 6 -34 49 36 110 74 64z m338 -33 c8 -24
11 -46 7 -50 -4 -4 -10 -1 -12 6 -6 15 -35 16 -51 0 -21 -21 -23 -2 -5 46 22
57 41 57 61 -2z m165 35 c3 -8 1 -20 -3 -27 -5 -7 -4 -24 1 -37 6 -18 5 -23
-6 -23 -8 0 -15 9 -15 20 0 13 -7 20 -20 20 -13 0 -20 -7 -20 -20 0 -11 -4
-20 -10 -20 -5 0 -10 23 -10 50 l0 50 39 0 c23 0 41 -5 44 -13z m147 3 c0 -5
-7 -10 -15 -10 -11 0 -15 -11 -15 -40 0 -22 -4 -40 -10 -40 -5 0 -10 18 -10
40 0 29 -4 40 -15 40 -8 0 -15 5 -15 10 0 6 18 10 40 10 22 0 40 -4 40 -10z
m217 -20 c-5 -22 -3 -28 7 -24 9 3 14 -3 14 -19 0 -20 -6 -24 -36 -25 -41 -2
-54 12 -42 42 5 12 11 29 14 39 3 9 15 17 27 17 18 0 21 -4 16 -30z m363 15
c11 -13 8 -15 -21 -13 -29 3 -34 -1 -37 -20 -4 -27 22 -40 43 -22 20 17 32 5
15 -15 -15 -18 -51 -20 -68 -3 -7 7 -12 24 -12 38 0 14 5 31 12 38 17 17 53
15 68 -3z m100 -19 c0 -33 20 -62 33 -49 4 3 7 24 7 45 0 27 4 38 15 38 11 0
15 -11 15 -39 0 -45 -18 -64 -57 -59 -26 3 -28 7 -31 51 -2 28 1 47 7 47 6 0
11 -15 11 -34z m160 -6 c0 -36 3 -40 25 -40 14 0 25 -4 25 -10 0 -5 -16 -10
-35 -10 l-35 0 0 50 c0 28 5 50 10 50 6 0 10 -18 10 -40z m180 30 c0 -5 -7
-10 -15 -10 -11 0 -15 -11 -15 -40 0 -22 -4 -40 -10 -40 -5 0 -10 18 -10 40 0
29 -4 40 -15 40 -8 0 -15 5 -15 10 0 6 18 10 40 10 22 0 40 -4 40 -10z m90
-30 c0 -33 3 -40 20 -40 17 0 20 7 20 41 0 28 4 39 12 37 13 -5 15 -54 4 -83
-4 -11 -15 -15 -38 -13 -32 3 -33 5 -36 51 -2 28 1 47 7 47 6 0 11 -18 11 -40z
m217 -12 c2 -48 -10 -65 -20 -28 -3 11 -12 20 -21 20 -9 0 -16 -8 -16 -20 0
-11 -4 -20 -10 -20 -5 0 -10 23 -10 51 l0 50 38 -3 c37 -3 37 -3 39 -50z m153
42 c0 -5 -11 -10 -25 -10 -14 0 -25 -4 -25 -10 0 -5 11 -10 25 -10 14 0 25 -4
25 -10 0 -5 -11 -10 -25 -10 -14 0 -25 -4 -25 -10 0 -5 11 -10 25 -10 14 0 25
-4 25 -10 0 -5 -16 -10 -35 -10 l-35 0 0 50 0 50 35 0 c19 0 35 -4 35 -10z
m-5870 -50 c0 -5 -9 -10 -20 -10 -11 0 -20 5 -20 10 0 6 9 10 20 10 11 0 20
-4 20 -10z m3840 -40 c0 -11 -4 -20 -8 -20 -4 0 -8 9 -9 20 -1 11 2 20 8 20 5
0 9 -9 9 -20z m-2349 -149 c0 -10 2 -11 6 -3 13 33 91 -2 197 -88 97 -79 145
-154 146 -229 0 -14 9 -56 19 -94 14 -52 16 -67 5 -65 -7 2 -12 -1 -11 -7 1
-5 6 -9 11 -7 15 5 -3 -108 -25 -151 -12 -23 -37 -61 -55 -84 -19 -23 -34 -46
-34 -51 0 -5 -9 -17 -19 -26 -15 -13 -20 -14 -24 -4 -3 7 -6 3 -6 -9 -1 -20
-43 -63 -62 -63 -4 0 -30 -13 -57 -29 -94 -55 -198 -60 -360 -17 -62 17 -73
23 -177 107 -56 46 -84 76 -98 108 -25 54 -40 160 -41 286 -1 79 3 97 27 149
45 92 154 218 217 251 18 9 43 15 56 12 13 -2 24 -1 24 4 0 15 73 31 121 27
26 -3 52 -2 58 2 21 12 81 -1 82 -19z m3140 6 c-10 -9 -11 -8 -5 6 3 10 9 15
12 12 3 -3 0 -11 -7 -18z m-4804 -6 c-5 -19 15 -36 27 -24 10 10 7 25 -4 18
-5 -3 -10 -1 -10 4 0 6 17 11 38 10 35 0 36 -1 12 -11 -24 -9 -24 -11 -5 -17
19 -8 19 -8 -1 -19 -12 -6 -25 -8 -29 -4 -5 4 -5 1 -1 -6 4 -7 12 -10 17 -7
26 17 3 -16 -40 -57 -30 -28 -63 -75 -85 -119 -21 -41 -47 -84 -58 -97 l-22
-22 76 -153 c42 -83 83 -168 91 -187 9 -19 23 -46 31 -60 21 -36 66 -129 66
-135 0 -4 -9 -3 -20 0 -33 11 -22 -10 15 -28 19 -9 35 -21 35 -25 0 -13 -162
-22 -248 -15 -74 6 -74 6 -89 42 -7 20 -27 63 -43 96 -15 33 -31 76 -35 95 -4
19 -15 46 -25 60 -9 14 -20 33 -23 44 -6 15 -10 16 -22 6 -11 -9 -15 -9 -15
-1 0 7 -5 9 -11 5 -8 -5 -8 -9 1 -14 15 -9 -8 -54 -53 -108 -26 -31 -27 -37
-21 -96 5 -44 3 -65 -5 -71 -9 -5 -8 -12 5 -26 21 -23 10 -38 -26 -40 -78 -3
-211 4 -216 12 -3 6 -11 5 -20 -2 -10 -8 -14 -8 -14 0 0 6 4 11 9 11 5 0 12 7
15 16 4 11 2 15 -6 11 -17 -6 -18 338 -2 366 6 11 8 37 4 63 -6 36 -4 44 9 44
14 0 14 2 2 9 -20 13 -29 237 -12 270 7 12 8 27 4 34 -4 6 -8 38 -8 69 0 51 2
58 20 59 28 2 240 -2 242 -5 6 -5 4 -232 -3 -311 -7 -83 -6 -89 9 -76 10 7 17
22 17 32 0 10 6 22 13 26 16 11 113 153 121 178 3 11 21 38 41 60 19 22 35 44
35 48 0 5 4 6 10 2 5 -3 7 -13 4 -23 -5 -14 -3 -14 10 2 11 14 13 22 5 27 -6
4 -8 12 -4 18 5 9 10 9 21 0 7 -6 12 -15 9 -18 -2 -4 2 -8 9 -8 17 0 16 25 -1
31 -7 3 -13 12 -13 21 0 12 15 15 86 15 80 0 86 -1 81 -19z m5900 0 c-5 -19
15 -36 27 -24 10 10 7 25 -4 18 -5 -3 -10 -2 -10 4 0 15 39 23 91 19 l44 -3
-3 -105 c-2 -57 -4 -105 -5 -106 -1 -1 -41 -4 -90 -6 -80 -3 -106 3 -74 15 7
4 6 6 -5 6 -9 1 -23 -6 -32 -14 -8 -8 -24 -15 -35 -15 -12 0 -21 -5 -21 -11 0
-5 -4 -7 -10 -4 -14 8 -13 48 2 63 6 6 9 14 6 17 -6 7 -32 -31 -42 -61 -5 -16
1 -29 23 -50 24 -22 28 -32 21 -50 -5 -13 -5 -26 -1 -29 9 -5 7 -162 -3 -226
-3 -20 0 -54 7 -75 13 -41 12 -114 -2 -114 -13 0 -19 46 -9 65 10 17 -6 45
-26 45 -6 0 -3 -7 7 -14 10 -8 14 -17 9 -20 -20 -12 -22 -80 -2 -113 12 -21
19 -51 19 -87 0 -52 -2 -55 -20 -46 -10 6 -26 24 -34 40 -14 27 -14 29 13 49
25 18 25 19 4 14 -12 -3 -25 -9 -28 -14 -8 -14 -24 -10 -24 6 0 8 -5 15 -10
15 -7 0 -7 -6 0 -19 8 -16 7 -20 -9 -18 -11 1 -17 6 -14 14 3 9 0 11 -10 7 -9
-3 -13 -13 -10 -24 3 -11 -2 -27 -11 -35 -18 -19 -21 -35 -6 -35 6 0 10 -4 10
-9 0 -11 -39 -2 -59 13 -11 8 -13 8 -7 -1 4 -7 6 -13 4 -13 -2 -1 -19 -3 -38
-6 l-35 -5 0 98 c0 54 3 103 6 108 4 6 5 80 3 165 -2 85 -5 201 -6 258 l-2
103 -135 -2 -135 -1 -1 102 c0 56 2 105 5 110 7 11 86 14 414 17 251 3 258 2
253 -16z m-5507 -1 c0 -6 8 -5 20 2 17 11 22 10 30 -2 6 -10 10 -11 10 -2 0
22 25 13 57 -20 40 -44 47 -66 28 -94 -13 -21 -13 -24 -1 -24 8 0 17 -8 21
-19 3 -10 21 -32 40 -50 19 -17 35 -37 35 -45 0 -7 9 -21 20 -31 11 -10 20
-24 20 -31 0 -7 12 -26 26 -43 14 -17 39 -58 55 -91 32 -63 54 -79 45 -32 -6
34 -11 246 -8 379 l2 102 38 -1 c20 0 47 -5 60 -9 13 -5 22 -5 22 1 0 21 28 9
34 -15 4 -16 13 -25 26 -25 11 0 20 -7 20 -15 0 -8 -5 -15 -11 -15 -8 0 -8 -4
1 -15 6 -8 9 -18 6 -23 -3 -5 0 -17 7 -26 9 -12 11 -45 9 -104 -7 -152 -6
-195 4 -272 5 -41 8 -109 8 -150 -3 -169 -3 -197 -1 -235 l2 -40 -78 -3 c-53
-2 -77 1 -72 8 3 5 4 10 1 10 -2 0 -13 3 -23 7 -16 6 -16 5 -4 -10 12 -15 10
-17 -21 -17 -26 0 -37 6 -50 28 -9 15 -26 37 -37 49 -12 12 -45 66 -75 120
-55 100 -105 186 -149 258 -14 22 -33 59 -42 83 -10 23 -20 42 -24 42 -4 0 -4
-27 0 -61 9 -81 10 -358 0 -436 -4 -35 -4 -63 1 -63 4 0 5 -6 2 -13 -4 -11
-32 -14 -119 -13 l-113 1 0 65 c0 36 -2 163 -4 283 -2 120 -1 220 1 223 7 7 1
189 -8 239 -5 27 -7 54 -4 58 3 5 5 26 5 48 l-1 38 87 4 c48 1 90 4 95 5 4 1
7 -3 7 -8z m644 -25 c4 -21 2 -43 -6 -57 l-13 -23 -3 22 c-2 13 -15 32 -29 43
-14 11 -20 20 -13 20 10 0 10 3 0 15 -11 13 -7 15 23 15 32 0 35 -3 41 -35z
m1486 17 c0 -7 -4 -10 -10 -7 -5 3 -10 0 -10 -8 0 -10 7 -13 20 -10 11 3 20
13 20 22 0 14 10 17 54 17 35 0 52 -4 48 -11 -3 -6 0 -6 9 1 8 6 49 11 94 10
76 -1 80 -2 83 -24 2 -13 -2 -30 -10 -39 -10 -13 -10 -17 0 -20 8 -3 12 -27
12 -73 l0 -67 -102 2 c-147 3 -156 0 -164 -44 -4 -20 -11 -42 -17 -49 -7 -9
-6 -11 4 -7 13 5 15 -38 14 -290 0 -190 -4 -295 -10 -295 -6 0 -5 -4 1 -8 7
-4 8 -15 3 -28 -6 -18 -15 -22 -51 -20 -24 1 -65 3 -91 4 -39 2 -49 6 -58 25
l-10 22 5 -23 c4 -21 1 -23 -32 -20 l-37 3 3 45 c2 25 3 52 2 60 0 8 -2 150
-3 315 l-3 300 -94 3 c-71 2 -99 7 -114 20 -20 16 -20 16 -7 0 12 -16 10 -18
-23 -18 -23 0 -35 4 -31 10 4 6 6 55 6 110 l0 99 62 3 c34 2 146 3 250 3 147
0 187 -3 187 -13z m669 -5 c12 -9 13 -9 7 1 -4 7 -1 12 8 12 9 0 16 -5 16 -11
0 -6 7 -3 16 5 18 19 34 21 34 4 0 -9 3 -9 12 0 15 15 72 16 63 2 -3 -5 -1
-10 4 -10 6 0 11 4 11 9 0 13 307 13 331 0 10 -5 19 -16 19 -24 0 -8 6 -15 14
-15 23 0 29 -17 34 -104 l4 -82 -128 -3 c-70 -1 -132 -5 -136 -7 -17 -11 -270
0 -289 12 -5 3 -9 -17 -9 -44 0 -27 -3 -64 -6 -82 l-7 -32 84 7 c107 8 190 8
308 0 l94 -7 -7 -67 c-3 -36 -6 -85 -6 -108 0 -42 -1 -43 -35 -43 -21 0 -35 5
-35 13 0 9 -2 9 -8 0 -8 -13 -242 -15 -242 -2 0 4 11 14 25 23 30 20 54 59 30
50 -8 -4 -15 -9 -15 -13 0 -4 -14 -18 -31 -30 l-31 -23 6 43 c4 31 3 38 -3 24
-5 -11 -10 -30 -10 -42 -1 -13 -7 -23 -15 -23 -7 0 -21 10 -30 23 l-17 22 11
-23 c15 -31 3 -45 -36 -40 l-34 4 0 -46 c0 -54 1 -51 -77 -118 -38 -33 -64
-48 -68 -42 -4 6 -13 9 -21 6 -8 -3 -14 1 -14 8 0 7 -7 19 -15 26 -12 10 -15
10 -15 -2 0 -8 -6 -15 -14 -15 -8 0 -12 6 -9 14 3 7 1 13 -5 13 -6 0 -13 -6
-15 -12 -3 -8 -6 -6 -6 5 -1 10 -9 17 -21 17 -24 0 -24 -3 -4 101 13 67 14 98
5 159 -11 77 -16 446 -6 471 7 18 261 14 284 -4z m1027 -3 c14 -17 25 -18 22
-1 -2 9 24 12 100 14 86 1 101 -1 92 -12 -8 -9 -8 -15 0 -20 5 -3 10 0 10 7 0
10 3 9 11 -2 8 -12 9 -10 4 7 -6 21 -4 22 92 21 l98 0 -3 -66 c-2 -37 -8 -73
-14 -79 -8 -10 -6 -13 6 -13 13 0 16 -7 14 -27 l-3 -27 -214 -2 c-201 -1 -214
0 -218 17 -3 10 -9 16 -14 14 -4 -3 -5 -13 -2 -21 5 -13 -1 -15 -28 -14 -52 3
-56 2 -53 -22 1 -13 3 -43 3 -68 l1 -46 53 -3 c72 -4 87 -4 207 3 58 4 121 4
140 1 l35 -6 2 -103 2 -103 -109 -6 c-60 -4 -162 -5 -226 -4 l-116 2 6 -35 c3
-19 6 -53 6 -75 l0 -40 262 0 263 0 -2 -75 c-3 -113 -7 -150 -18 -151 -30 -3
-71 4 -77 15 -6 8 -8 7 -8 -2 0 -10 -43 -13 -197 -12 -109 0 -200 0 -203 0
-31 -4 -234 -4 -269 0 l-46 5 -2 205 c-4 502 -3 633 7 645 7 9 7 21 0 40 -7
19 -7 32 -1 38 6 6 51 11 101 13 76 3 88 1 78 -10 -9 -10 -17 -11 -25 -4 -9 7
-13 7 -13 -1 0 -18 38 -51 58 -50 16 1 16 2 0 6 -23 6 -23 15 2 31 12 7 18 18
14 24 -4 7 7 9 35 6 22 -2 41 0 41 3 0 12 85 -3 96 -17z m579 -92 c1 -61 6
-106 14 -122 l14 -25 -27 25 c-15 14 -31 25 -34 25 -11 0 -6 138 6 168 20 48
27 29 27 -71z m86 -244 c66 -73 102 -126 94 -138 -3 -6 -2 -10 3 -10 12 0 38
-63 48 -115 5 -31 4 -36 -7 -30 -11 6 -12 5 -1 -6 15 -16 16 -115 1 -174 -6
-24 -24 -56 -40 -72 -32 -32 -37 -70 -12 -89 10 -7 15 -15 12 -18 -3 -3 -15 4
-27 16 -12 13 -44 46 -72 74 -59 61 -70 86 -70 165 0 57 24 139 37 126 3 -4 0
-13 -7 -22 -9 -10 -11 -32 -7 -68 10 -83 57 -128 96 -93 10 9 20 14 22 11 3
-2 5 4 6 13 1 9 4 33 8 53 8 42 -16 139 -41 164 -36 35 -100 -20 -129 -112
-32 -101 8 -218 108 -316 58 -57 59 -58 80 -40 14 12 18 13 12 3 -8 -13 -7
-13 8 -1 9 7 17 21 17 30 0 9 7 25 16 36 21 29 62 169 70 243 12 113 -23 265
-88 382 l-30 55 32 -30 c42 -39 104 -171 125 -265 22 -97 42 -325 35 -392 l-6
-53 -9 60 c-4 33 -8 67 -7 75 1 8 -8 -5 -19 -30 -11 -25 -22 -63 -23 -85 -4
-51 -16 -95 -31 -118 -11 -15 -12 -11 -8 27 3 25 3 46 0 46 -4 0 -24 -19 -46
-42 l-40 -43 -1 -130 c-1 -71 -7 -159 -14 -195 l-14 -65 -1 89 c0 49 -6 129
-12 177 l-11 87 -34 -14 c-18 -8 -57 -14 -86 -14 l-53 1 35 15 c19 8 49 26 68
40 33 26 33 26 14 48 -27 30 -39 51 -22 41 8 -5 11 -3 8 6 -3 8 -12 13 -20 11
-16 -2 -108 129 -108 155 0 7 -4 13 -10 13 -14 0 -13 -126 1 -153 10 -20 10
-20 -4 -7 -8 8 -20 32 -25 53 -15 54 -7 243 11 292 37 97 58 135 96 175 l40
42 -26 51 c-35 70 -64 162 -57 181 5 13 12 8 35 -21 16 -21 52 -64 80 -95z
m-1695 -465 c2 -48 1 -100 -2 -115 -5 -27 -7 -28 -73 -28 -39 0 -72 5 -79 12
-9 9 -12 9 -12 -1 0 -10 -10 -12 -42 -6 -24 4 -49 7 -55 8 -15 0 -17 13 -3 22
6 3 10 11 10 16 0 6 -4 8 -9 5 -13 -8 -32 52 -25 80 3 13 10 21 15 19 4 -3 6
-11 3 -18 -2 -7 5 -22 17 -33 13 -10 19 -14 16 -7 -4 6 -4 18 -1 27 6 15 8 15
20 -1 13 -16 13 -15 4 10 -15 43 -11 46 10 7 13 -23 19 -29 20 -17 0 10 5 15
10 12 6 -4 8 -11 5 -16 -12 -19 12 -8 35 16 13 14 27 25 31 25 5 0 27 18 50
40 23 22 44 38 47 36 2 -3 5 -44 8 -93z m-241 9 c-7 -7 -44 37 -45 52 0 5 11
-3 26 -19 14 -15 22 -30 19 -33z m2741 -107 c2 -20 0 -24 -9 -17 -7 6 -16 10
-22 10 -17 1 -17 22 -1 28 14 5 14 9 4 23 -10 14 -9 13 7 -1 10 -9 19 -29 21
-43z m24 37 c0 -12 -3 -12 -15 -2 -8 7 -15 13 -15 15 0 1 7 2 15 2 8 0 15 -7
15 -15z m25 -42 c28 -19 29 -20 7 -20 -21 0 -52 20 -52 34 0 11 15 6 45 -14z
m-2655 -188 c0 -4 -6 -14 -12 -22 -7 -8 -1 -4 14 9 14 13 31 20 37 16 6 -3 21
-8 32 -10 23 -5 59 -33 59 -47 0 -17 -50 -7 -62 12 -16 26 -28 26 -21 0 4 -16
2 -19 -13 -13 -11 3 -22 11 -26 17 -5 7 -8 7 -8 -1 0 -7 -10 -13 -22 -13 -26
0 -75 -65 -58 -75 6 -4 8 -10 5 -14 -2 -5 4 -16 15 -26 11 -10 20 -24 20 -32
0 -7 5 -13 10 -13 6 0 10 5 10 10 0 6 9 10 21 10 25 0 59 17 59 30 0 6 -13 10
-28 10 -22 0 -28 5 -30 25 -1 21 3 25 24 25 14 0 23 -4 20 -9 -3 -5 1 -11 9
-14 9 -4 12 -1 8 9 -4 11 4 14 36 14 l41 0 0 -70 0 -70 -35 0 c-19 0 -35 5
-35 10 0 7 -6 7 -18 1 -17 -9 -62 -14 -115 -12 -18 1 -41 13 -61 34 -26 26
-33 41 -35 81 l-2 49 27 -18 c26 -17 28 -17 41 1 16 23 17 37 1 31 -7 -2 -12
-13 -11 -23 1 -17 -1 -16 -18 5 l-19 24 32 29 32 28 12 -21 c7 -14 14 -18 18
-10 4 6 2 11 -3 11 -6 0 -11 4 -11 9 0 8 10 12 53 20 4 0 7 -3 7 -7z m-3723
-40 c-21 34 -21 33 6 34 21 2 24 -3 25 -38 1 -26 -2 -37 -9 -32 -8 5 -8 1 0
-14 8 -16 7 -21 -4 -26 -8 -3 -15 -11 -15 -18 0 -9 3 -9 10 2 7 12 10 11 15
-5 12 -38 22 -49 51 -57 23 -6 32 -4 47 13 15 18 19 20 35 8 16 -13 16 -13 0
7 -14 15 -18 39 -18 92 l0 72 40 0 c42 0 48 -7 28 -29 -10 -11 -10 -14 0 -18
8 -3 12 -28 12 -74 0 -60 -3 -73 -23 -93 -28 -28 -89 -40 -155 -31 -80 11
-102 42 -102 146 0 46 3 58 13 53 8 -6 8 -3 -1 9 -8 9 -10 22 -6 28 5 9 16 2
37 -22 23 -26 27 -28 14 -7z m468 27 c4 -6 -1 -17 -11 -25 -17 -13 -17 -13 8
-5 24 9 30 6 67 -37 l40 -47 1 63 0 63 42 -3 41 -3 1 -112 1 -113 -34 -6 c-28
-6 -38 -3 -51 14 -10 11 -36 42 -59 68 l-41 47 0 -67 0 -66 -41 0 -41 0 23 21
c22 19 22 19 2 10 -21 -11 -21 -9 -22 51 0 38 5 65 12 70 9 6 9 8 0 8 -8 0
-13 15 -13 40 0 39 1 40 34 40 19 0 38 -5 41 -11z m440 1 c3 -5 1 -10 -6 -10
-10 0 -10 -3 -1 -12 8 -8 12 -47 12 -110 l0 -98 -45 0 -45 0 0 120 0 120 39 0
c22 0 43 -4 46 -10z m173 -17 c-15 -15 -31 -23 -35 -19 -4 5 -3 11 4 13 7 2 9
11 6 19 -4 10 3 14 23 14 l29 0 -27 -27z m122 17 c0 -5 5 -10 11 -10 5 0 7 5
4 10 -4 6 5 10 19 10 24 0 35 -13 19 -23 -5 -2 -2 -2 5 -1 15 4 16 -8 1 -23
-7 -7 -20 -8 -33 -3 -21 7 -21 6 -18 -91 l3 -99 -40 0 -41 0 0 86 c0 65 3 84
13 78 9 -5 9 -4 1 5 -6 6 -21 13 -34 16 -33 6 -35 12 -15 35 13 14 31 20 62
20 23 0 43 -4 43 -10z m98 -26 c-4 -24 -23 -19 -21 6 1 33 3 34 14 23 6 -6 9
-19 7 -29z m152 24 c0 -9 3 -9 12 0 19 19 108 15 124 -5 13 -17 13 -17 14 0 0
12 8 17 30 17 27 0 35 -8 31 -32 0 -5 4 -8 9 -8 6 0 10 -4 10 -9 0 -5 -35 -8
-80 -6 -79 3 -80 2 -80 -22 0 -23 3 -24 58 -23 91 3 92 2 92 -25 0 -24 -2 -25
-75 -25 -68 0 -75 -2 -75 -20 0 -18 7 -20 80 -20 79 0 80 0 80 -25 l0 -25
-124 0 -125 0 1 120 c0 66 4 120 9 120 5 0 9 -5 9 -12z m605 -11 c7 -9 16 -17
20 -17 18 0 34 -38 35 -79 0 -34 -3 -42 -15 -37 -12 4 -14 0 -11 -20 4 -20 -2
-29 -27 -44 -26 -16 -50 -20 -124 -20 l-93 0 0 121 0 121 101 -4 c81 -3 104
-7 114 -21z m515 -17 c0 -22 3 -40 7 -40 3 0 21 18 40 40 31 35 40 40 79 40
24 0 44 -4 44 -8 0 -4 -18 -25 -40 -47 l-39 -38 30 -38 c17 -22 27 -44 23 -50
-4 -7 -3 -9 3 -6 9 6 43 -32 43 -48 0 -3 -22 -5 -49 -5 -46 0 -49 2 -76 45
-27 42 -30 44 -47 28 -10 -9 -18 -29 -18 -45 0 -28 -2 -29 -37 -26 l-38 3 -2
110 c0 60 1 113 3 117 3 5 21 8 40 8 33 0 34 -1 34 -40z m407 -72 c-1 -66 -5
-116 -12 -120 -5 -4 -24 -8 -41 -8 -31 0 -31 0 -33 56 -1 50 0 56 16 50 15 -6
15 -5 2 11 -19 23 -23 71 -7 91 10 13 10 14 1 8 -7 -4 -13 -3 -13 2 0 16 13
22 51 22 l37 0 -1 -112z m287 50 l56 -63 0 63 0 63 42 -3 43 -3 0 -115 0 -115
-35 -3 c-32 -2 -40 3 -85 57 -27 33 -53 60 -57 60 -5 1 -8 -25 -8 -57 l0 -58
-40 -2 -40 -3 0 121 0 120 34 0 c30 0 42 -9 90 -62z m991 36 c25 -17 33 -34
15 -34 -5 0 -10 -4 -10 -9 0 -5 8 -8 18 -7 14 1 17 -7 17 -51 -1 -87 -43 -113
-187 -113 l-78 0 0 46 c0 33 3 43 13 38 9 -6 9 -4 1 7 -13 16 -24 89 -13 89 4
0 9 -6 12 -12 2 -7 8 -9 13 -5 5 5 1 13 -9 18 -9 6 -17 21 -17 35 l0 25 100
-5 c69 -4 107 -10 125 -22z m443 6 c37 -23 52 -54 52 -110 0 -95 -129 -150
-237 -101 -83 38 -97 136 -29 198 33 31 40 33 108 33 55 0 81 -5 106 -20z
m322 11 c0 -6 -5 -13 -10 -16 -6 -4 0 -15 15 -27 14 -10 25 -25 25 -31 1 -7 7
-25 14 -42 l13 -30 29 78 29 77 57 0 58 0 0 -120 0 -120 -46 0 -46 0 4 70 c3
77 -1 78 -27 5 -24 -65 -32 -74 -41 -41 -4 19 -10 24 -17 17 -7 -7 -6 -15 3
-25 10 -13 9 -17 -5 -22 -23 -9 -39 11 -61 76 l-19 55 -3 -68 -3 -68 -41 3
-42 3 -1 60 c0 33 2 79 6 103 3 23 2 45 -2 48 -5 3 -7 10 -4 15 8 12 115 12
115 0z m-1623 -694 c12 -11 20 -24 17 -29 -4 -5 3 -16 15 -24 12 -8 21 -20 21
-25 0 -6 16 -31 36 -55 34 -41 34 -63 0 -29 -8 8 -18 15 -22 15 -13 0 -75 42
-70 47 3 3 17 -2 31 -11 32 -21 32 -14 -5 39 -16 24 -30 48 -30 54 0 6 -3 11
-8 11 -4 0 -13 9 -20 21 -16 25 -2 19 35 -14z m142 -128 c-8 -5 -10 -9 -6 -9
5 0 5 -5 2 -10 -12 -19 -25 1 -15 21 6 11 16 17 22 13 7 -4 6 -9 -3 -15z
m-181 -8 c9 -5 29 -14 45 -22 15 -7 27 -16 27 -21 0 -5 -13 -2 -30 7 -16 8
-38 15 -50 15 -11 0 -20 7 -20 15 0 17 4 18 28 6z m239 -68 c-9 -9 -19 -14
-22 -11 -3 3 1 12 9 21 8 8 14 17 12 20 -2 2 2 1 8 -4 7 -6 5 -15 -7 -26z
m-124 -10 c15 -7 27 -21 27 -30 0 -15 -2 -15 -14 2 -13 19 -72 29 -91 15 -5
-4 -22 -10 -37 -12 -20 -4 -28 -1 -28 9 0 8 6 13 12 11 7 -3 19 1 26 9 17 16
67 14 105 -4z m188 -54 l24 -20 -30 17 c-39 24 -40 24 -28 24 6 0 21 -9 34
-21z m14 -92 c4 5 5 2 0 -5 -5 -10 -20 -2 -56 34 l-48 47 -15 -34 c-15 -34
-15 -34 -10 -4 11 61 13 61 67 7 29 -29 57 -49 62 -45z m-5 56 c26 -15 59 -59
49 -66 -2 -1 -23 17 -47 40 -46 46 -47 53 -2 26z m-1751 -1424 c-18 -11 -19
-8 -12 20 5 21 7 21 16 6 6 -12 5 -20 -4 -26z m742 -57 c-6 -11 -7 -22 -4 -26
6 -6 15 -80 15 -121 -1 -43 -15 -85 -28 -85 -18 0 -17 40 1 64 16 22 21 61 6
52 -5 -4 -8 19 -7 51 3 56 14 99 23 89 3 -2 0 -13 -6 -24z m1337 -865 c2 -97
0 -117 -12 -117 -18 0 -29 80 -23 160 3 30 5 61 6 68 1 8 7 12 14 10 8 -3 13
-39 15 -121z m-4018 52 c0 -5 -4 -9 -10 -9 -5 0 -10 7 -10 16 0 8 5 12 10 9 6
-3 10 -10 10 -16z m2660 -6 c0 -30 -9 -27 -15 6 -2 11 0 21 6 21 5 0 9 -12 9
-27z m3597 -385 c-3 -8 -6 -5 -6 6 -1 11 2 17 5 13 3 -3 4 -12 1 -19z m580 0
c-3 -8 -6 -5 -6 6 -1 11 2 17 5 13 3 -3 4 -12 1 -19z m-703 -14 c3 -8 2 -12
-4 -9 -6 3 -10 10 -10 16 0 14 7 11 14 -7z m413 -6 c-3 -8 -6 -5 -6 6 -1 11 2
17 5 13 3 -3 4 -12 1 -19z m-137 2 c0 -5 -2 -10 -4 -10 -3 0 -8 5 -11 10 -3 6
-1 10 4 10 6 0 11 -4 11 -10z m55 1 c3 -5 1 -12 -5 -16 -5 -3 -10 -1 -10 5 0
6 -4 8 -10 5 -5 -3 -10 -1 -10 4 0 13 27 14 35 2z m120 -19 c-8 -8 -25 10 -19
20 4 6 9 5 15 -3 4 -7 6 -15 4 -17z m165 8 c0 -5 -7 -10 -16 -10 -8 0 -12 5
-9 10 3 6 10 10 16 10 5 0 9 -4 9 -10z m-90 -8 c0 -17 -13 -22 -27 -11 -10 9
-13 8 -13 -5 0 -10 -4 -15 -9 -12 -5 4 -11 0 -14 -6 -2 -7 -8 -10 -12 -6 -10
10 35 47 58 48 9 0 17 -4 17 -8z m-150 -23 c0 -6 -9 -13 -20 -16 -11 -3 -20
-10 -20 -15 0 -5 10 -6 21 -3 15 5 19 4 15 -4 -5 -7 0 -10 14 -8 12 2 26 10
31 18 5 9 9 10 9 2 0 -6 -5 -15 -10 -18 -6 -4 -7 -12 -3 -18 5 -9 2 -8 -8 0
-13 11 -18 9 -29 -12 -16 -31 -4 -47 16 -21 14 19 14 19 14 1 0 -18 1 -18 15
1 17 22 19 15 5 -21 -7 -19 -15 -25 -28 -21 -12 4 -26 -1 -37 -14 -15 -17 -16
-20 -3 -20 9 0 19 7 22 16 4 9 9 14 13 11 5 -6 -4 -30 -43 -111 -7 -16 -11
-32 -9 -37 3 -4 1 -10 -5 -14 -5 -3 -10 1 -10 9 0 20 -16 21 -24 1 -3 -8 -13
-15 -23 -15 -17 1 -17 1 0 11 9 5 17 15 17 21 0 7 -4 7 -13 -1 -11 -8 -13 8
-13 92 1 85 4 106 20 124 10 12 23 20 29 16 5 -3 4 4 -2 15 -15 29 -14 34 8
27 11 -3 22 -1 26 5 8 13 25 13 25 -1z m22 -21 c-7 -7 -12 -8 -12 -2 0 14 12
26 19 19 2 -3 -1 -11 -7 -17z m-112 -15 c0 -5 -5 -15 -10 -23 -8 -12 -10 -11
-10 8 0 12 5 22 10 22 6 0 10 -3 10 -7z m260 -3 c0 -5 -2 -10 -4 -10 -3 0 -8
5 -11 10 -3 6 -1 10 4 10 6 0 11 -4 11 -10z m-66 -6 c19 -7 9 -34 -14 -34 -18
0 -34 23 -23 34 8 8 17 8 37 0z m-449 -14 c3 -6 -1 -7 -10 -4 -11 5 -14 2 -9
-12 5 -15 4 -16 -4 -4 -11 15 -7 30 8 30 5 0 12 -4 15 -10z m610 -10 c3 -5 1
-10 -4 -10 -6 0 -11 5 -11 10 0 6 2 10 4 10 3 0 8 -4 11 -10z m-898 -37 c-3
-10 -5 -4 -5 12 0 17 2 24 5 18 2 -7 2 -21 0 -30z m193 22 c0 -8 -7 -15 -15
-15 -26 0 -18 20 13 29 1 1 2 -6 2 -14z m132 -12 c-5 -10 -7 -23 -5 -29 2 -6
-3 -14 -12 -17 -21 -9 -20 23 2 50 20 25 29 23 15 -4z m-194 3 c-2 0 -14 -10
-27 -21 l-24 -20 18 27 c9 15 21 25 27 22 5 -3 8 -7 6 -8z m108 -23 c-10 -10
-19 5 -10 18 6 11 8 11 12 0 2 -7 1 -15 -2 -18z m559 -4 c4 -6 4 -13 0 -17 -3
-3 -10 0 -15 8 -7 10 -10 11 -10 3 0 -7 -3 -12 -7 -12 -29 5 -51 -25 -44 -60
1 -7 -2 -10 -9 -6 -6 4 -9 13 -6 21 8 22 -2 17 -15 -7 -6 -12 -7 -19 -1 -15 5
3 12 -1 15 -9 4 -9 1 -12 -7 -9 -8 3 -17 1 -21 -5 -3 -6 -1 -11 5 -11 6 0 8
-5 5 -10 -4 -6 -11 -7 -17 -4 -7 5 -9 1 -5 -9 3 -9 2 -19 -4 -23 -22 -13 -19
7 10 68 22 47 39 69 68 85 44 26 49 27 58 12z m39 3 c3 -5 -1 -9 -9 -9 -8 0
-12 4 -9 9 3 4 7 8 9 8 2 0 6 -4 9 -8z m32 -22 c0 -11 -4 -20 -8 -20 -10 0
-11 24 -1 33 9 9 9 10 9 -13z m-639 -16 c-9 -9 -28 6 -21 18 4 6 10 6 17 -1 6
-6 8 -13 4 -17z m54 -4 c6 0 7 -5 4 -10 -3 -6 1 -18 11 -27 16 -16 15 -18 -5
-27 -24 -10 -27 -22 -8 -29 6 -2 1 -2 -11 0 -17 3 -23 0 -19 -9 6 -19 -32 -69
-52 -67 -29 3 -42 -1 -36 -10 3 -5 2 -12 -3 -15 -12 -7 -11 27 0 35 5 3 1 12
-8 20 -12 9 -15 10 -10 2 4 -8 1 -13 -8 -13 -9 0 -16 -4 -16 -9 0 -5 -11 -11
-25 -13 -26 -5 -56 25 -48 50 7 20 26 14 20 -7 -2 -10 -1 -25 4 -32 6 -10 9
-10 9 -2 0 7 7 10 17 6 11 -4 14 -3 9 5 -4 7 -1 15 8 18 21 8 20 30 -1 39 -16
6 -15 8 5 16 26 10 29 29 5 30 -15 0 -15 2 2 9 11 4 24 4 28 0 5 -4 21 -2 35
6 21 11 28 11 31 1 4 -13 21 -27 34 -27 5 0 6 9 2 19 -3 11 -2 32 2 48 5 20 8
23 11 11 2 -10 8 -18 13 -18z m534 -7 c-1 -16 4 -34 9 -42 9 -12 8 -13 -3 -6
-10 6 -13 4 -9 -6 4 -10 -1 -15 -13 -15 -11 0 -19 4 -19 8 0 4 -6 5 -14 2 -17
-7 -31 55 -16 70 8 8 9 6 5 -6 -4 -11 -2 -18 4 -18 6 0 11 5 11 12 0 6 3 8 6
5 4 -4 1 -14 -6 -23 -12 -13 -11 -17 0 -24 16 -10 33 -3 25 10 -5 8 11 60 18
60 1 0 2 -12 2 -27z m-818 -5 c-3 -8 -6 -5 -6 6 -1 11 2 17 5 13 3 -3 4 -12 1
-19z m319 -15 c-11 -11 -17 4 -9 23 7 18 8 18 11 1 2 -10 1 -21 -2 -24z m521
15 c-3 -8 -6 -5 -6 6 -1 11 2 17 5 13 3 -3 4 -12 1 -19z m-157 8 c0 -2 -8 -10
-17 -17 -16 -13 -17 -12 -4 4 13 16 21 21 21 13z m-604 -76 c8 0 14 -2 14 -4
0 -2 3 -13 7 -23 7 -17 6 -17 -11 0 -9 9 -26 17 -37 17 -16 0 -18 2 -7 14 7 8
15 10 16 5 2 -5 10 -9 18 -9z m794 16 c0 -2 -7 -7 -16 -10 -8 -3 -12 -2 -9 4
6 10 25 14 25 6z m-4 -43 c-10 -10 -19 5 -10 18 6 11 8 11 12 0 2 -7 1 -15 -2
-18z m-26 7 c0 -5 -4 -10 -10 -10 -5 0 -10 5 -10 10 0 6 5 10 10 10 6 0 10 -4
10 -10z m-4707 -14 c3 -8 -1 -35 -9 -62 -11 -36 -11 -50 -2 -61 8 -10 14 -11
22 -3 5 5 18 10 28 10 15 0 12 -6 -13 -28 -26 -23 -34 -40 -45 -102 -16 -93
-17 -121 -3 -157 9 -25 12 -26 20 -10 15 25 32 21 23 -5 -4 -13 -8 -54 -10
-93 -2 -38 -3 -74 -3 -79 -1 -5 -7 -3 -15 3 -12 10 -16 3 -25 -39 -8 -35 -8
-57 -1 -70 5 -10 10 -53 10 -95 0 -42 4 -74 9 -71 9 6 21 -39 21 -77 0 -11 -9
-30 -20 -42 -20 -21 -20 -25 -6 -84 8 -34 20 -69 26 -77 9 -10 10 -17 1 -27
-8 -11 -7 -26 3 -60 8 -26 10 -47 5 -47 -5 0 -9 5 -9 10 0 6 -4 10 -9 10 -14
0 -20 -290 -7 -366 8 -45 9 -80 3 -99 -5 -17 -8 -40 -8 -52 0 -13 -2 -23 -5
-23 -8 0 -43 43 -44 53 0 5 -9 22 -20 37 -13 19 -22 51 -26 92 -6 86 -22 159
-38 178 -23 27 -38 182 -25 256 14 81 7 132 -21 151 -20 14 -21 23 -19 103 3
93 -6 120 -42 120 -11 0 -19 5 -19 11 0 6 14 9 31 7 29 -3 32 0 33 25 1 16 -5
32 -13 36 -10 6 -12 18 -7 47 10 51 7 135 -4 149 -14 17 -20 94 -8 101 8 5 7
10 -3 18 -9 7 -15 35 -16 81 -1 38 -4 79 -7 91 -4 16 -1 23 14 27 28 7 37 37
17 52 -24 18 -21 37 14 81 36 46 64 56 101 37 44 -21 63 -16 81 22 18 37 31
44 40 21z m4185 -8 c-3 -23 -35 -35 -35 -13 0 7 6 11 14 8 7 -3 13 2 13 11 0
9 3 16 6 16 3 0 4 -10 2 -22z m482 13 c0 -5 -7 -11 -15 -15 -9 -3 -15 0 -15 9
0 8 7 15 15 15 8 0 15 -4 15 -9z m-5455 -50 c7 -32 49 -48 74 -28 11 9 15 9
18 0 3 -7 11 -13 19 -13 7 0 21 -11 30 -25 15 -23 18 -24 37 -10 29 20 47 19
22 -2 -19 -15 -19 -15 8 -9 25 6 28 4 22 -13 -4 -15 4 -33 31 -65 l36 -44 32
16 c63 31 68 33 72 29 2 -2 -2 -17 -9 -33 -34 -74 -34 -75 -9 -128 23 -47 24
-57 17 -151 -4 -55 -12 -116 -19 -136 -7 -19 -12 -57 -11 -82 2 -26 -1 -47 -4
-47 -4 0 -22 20 -41 45 -18 25 -42 47 -52 51 -10 3 -18 10 -18 15 0 5 -8 9
-18 9 -29 0 -32 10 -17 47 8 19 12 40 9 45 -4 6 -8 41 -9 78 -3 78 -16 107
-49 116 -26 6 -75 56 -60 61 5 2 16 8 24 13 23 16 -21 49 -55 43 -18 -4 -25
-1 -25 10 0 20 -27 29 -50 17 -13 -7 -21 -7 -25 0 -11 18 -26 10 -24 -12 4
-49 0 -60 -21 -53 -11 3 -20 2 -20 -4 0 -5 -3 -17 -7 -27 -5 -15 -2 -16 23
-10 l29 8 -27 -29 c-22 -22 -27 -36 -24 -63 4 -34 27 -105 47 -141 12 -23 37
-14 41 14 2 12 10 22 18 22 12 0 14 -10 12 -44 -5 -63 20 -104 80 -130 26 -11
48 -26 48 -31 0 -6 11 -15 25 -20 14 -5 28 -17 31 -25 11 -29 83 -58 126 -51
39 6 45 2 29 -23 -7 -10 0 -26 22 -53 36 -43 44 -45 63 -20 12 15 15 15 24 2
5 -8 8 -22 5 -30 -19 -66 -18 -70 9 -70 29 0 36 -17 9 -22 -13 -2 -8 -11 23
-40 21 -21 45 -38 52 -38 6 0 12 -11 12 -25 0 -18 -7 -26 -28 -32 l-29 -8 14
-60 c7 -33 16 -82 20 -110 3 -29 16 -63 29 -81 13 -17 24 -38 24 -48 0 -9 7
-19 15 -22 8 -4 15 -12 15 -20 0 -25 -32 -15 -65 21 l-33 34 -38 -19 c-21 -11
-48 -20 -60 -20 -12 0 -27 -7 -34 -15 -7 -8 -20 -15 -29 -15 -12 0 -113 -36
-130 -46 -1 -2 4 -13 13 -26 18 -25 21 -48 6 -48 -5 0 -10 6 -10 13 0 7 -7 22
-15 33 -14 19 -15 19 -21 -3 -3 -13 -13 -23 -20 -23 -21 0 -17 -28 6 -42 11
-7 20 -16 20 -21 0 -4 -10 -1 -22 7 -12 9 -26 16 -30 16 -4 0 -7 -31 -6 -68 1
-102 -19 -143 -42 -89 -6 12 -19 36 -30 52 -11 17 -25 41 -32 55 -6 14 -19 33
-27 43 -8 10 -14 31 -13 48 2 27 0 29 -33 29 -25 0 -34 4 -29 12 5 7 3 8 -5 4
-7 -5 -29 -5 -49 -1 -20 4 -31 10 -24 12 18 7 15 23 -5 23 -10 0 -27 12 -39
28 -20 24 -25 25 -43 15 -27 -17 -41 -16 -19 1 16 12 16 15 -3 54 -12 23 -25
42 -30 42 -5 0 -9 10 -9 21 0 12 -16 36 -34 53 -26 23 -33 35 -26 46 5 8 10
27 10 42 0 15 5 30 11 34 6 3 8 16 5 28 -4 15 1 26 14 34 11 7 20 21 20 31 0
10 9 21 20 24 17 4 20 14 20 55 0 55 7 82 21 82 5 0 9 -9 9 -20 0 -10 9 -24
20 -30 17 -9 21 -8 26 7 16 51 36 63 68 40 21 -15 27 -52 13 -80 -6 -13 -3
-24 10 -39 17 -19 17 -20 0 -33 -9 -6 -17 -19 -17 -28 0 -8 -14 -27 -32 -40
l-32 -25 28 -42 c23 -35 25 -44 14 -57 -11 -13 -7 -20 27 -49 22 -18 47 -31
55 -29 9 3 19 -4 25 -17 6 -13 28 -29 56 -39 l46 -16 39 33 c31 28 40 31 47
19 17 -30 82 -10 70 21 -3 8 2 17 11 20 35 13 11 64 -31 64 -14 0 -23 6 -23
15 0 8 5 15 10 15 6 0 10 17 11 38 0 31 2 33 9 16 5 -12 13 -25 19 -28 6 -4 8
-13 4 -21 -3 -10 2 -15 16 -15 16 0 20 5 18 21 -2 11 -9 24 -17 29 -9 6 -11
21 -7 54 6 39 3 49 -19 76 -14 16 -31 30 -37 30 -19 0 -117 44 -117 53 0 4 21
7 47 7 l47 0 -39 41 c-29 29 -41 36 -43 24 -2 -8 -7 -13 -12 -10 -4 3 -6 14
-3 25 6 22 -17 36 -44 26 -12 -5 -14 -9 -5 -18 26 -26 10 -27 -23 -1 -26 21
-33 33 -29 50 5 18 0 25 -22 35 -16 6 -39 21 -51 32 -19 16 -27 17 -47 8 -29
-13 -53 7 -42 34 4 11 -1 18 -14 21 -11 3 -20 10 -20 15 0 5 5 6 10 3 6 -3 10
-2 10 4 0 12 -42 42 -65 45 -23 3 -19 20 5 24 11 2 20 11 20 21 0 23 -26 46
-35 31 -14 -23 -25 -8 -19 29 5 30 0 52 -20 94 -14 30 -33 58 -42 61 -16 6
-16 8 1 20 16 12 15 15 -15 50 -32 36 -35 61 -5 36 18 -15 29 -7 32 23 5 46
16 87 23 87 4 0 13 14 19 30 12 35 39 50 52 29 6 -9 9 7 9 44 0 43 3 57 13 54
6 -2 11 -12 9 -22 -3 -13 1 -16 13 -11 11 4 25 -2 37 -16 l20 -23 -7 23 c-5
19 -2 25 14 29 11 3 23 14 26 24 4 10 13 19 21 19 8 0 14 5 14 10 0 23 29 8
35 -19z m5302 -3 c-3 -8 -6 -5 -6 6 -1 11 2 17 5 13 3 -3 4 -12 1 -19z m-3453
-55 c17 -3 36 -11 41 -18 6 -6 20 -17 31 -23 20 -11 21 -18 18 -94 -7 -143 -7
-169 4 -180 15 -15 -4 -49 -23 -42 -10 4 -13 -2 -13 -23 1 -15 -2 -39 -7 -52
-5 -15 -3 -26 6 -31 9 -6 10 -12 2 -22 -17 -21 -13 -246 4 -264 12 -12 13 -17
3 -30 -7 -8 -11 -17 -8 -20 3 -2 22 14 42 37 21 22 35 44 31 47 -4 4 -15 -4
-26 -17 -33 -41 -32 -15 1 31 36 50 60 67 60 43 0 -8 4 -15 8 -15 11 0 67 62
67 75 0 6 7 25 15 43 16 34 40 41 63 17 13 -13 17 -11 32 12 16 23 16 25 1 20
-9 -4 -16 -3 -16 2 0 4 23 18 51 30 27 13 76 47 107 75 116 107 239 180 154
93 -38 -39 -39 -43 -12 -50 31 -8 24 -31 -21 -72 -28 -25 -38 -40 -30 -45 8
-4 -1 -16 -26 -35 -21 -15 -56 -47 -79 -69 -23 -23 -64 -61 -93 -85 -39 -32
-50 -48 -46 -62 4 -13 -3 -27 -21 -44 -15 -14 -29 -24 -31 -21 -8 8 -112 -97
-123 -125 -23 -55 25 -159 73 -159 12 0 17 -5 14 -14 -4 -9 7 -22 29 -35 19
-11 34 -27 34 -35 0 -7 7 -16 15 -20 8 -3 15 -16 15 -29 0 -13 9 -32 19 -41
18 -16 20 -16 29 0 6 10 14 14 22 9 10 -6 9 -11 -4 -21 -17 -12 -15 -16 19
-61 20 -26 78 -86 128 -132 51 -47 93 -93 95 -103 7 -37 76 -57 95 -27 14 22
39 26 31 4 -4 -8 -12 -15 -20 -15 -8 0 -13 -3 -13 -7 3 -20 -2 -24 -16 -13
-20 17 -19 8 5 -35 11 -20 20 -45 20 -56 0 -12 9 -34 20 -49 30 -42 6 -49 -34
-11 -33 32 -55 38 -72 21 -17 -17 -37 -3 -66 45 -18 30 -34 45 -48 45 -17 0
-20 4 -15 20 6 20 -9 28 -20 10 -11 -18 -26 -10 -40 23 -7 17 -29 49 -48 69
-19 21 -31 40 -28 44 3 3 -7 0 -23 -7 -19 -9 -31 -10 -33 -3 -16 47 -43 79
-73 85 -41 9 -64 29 -32 29 26 0 25 -2 11 56 -12 48 -29 61 -22 17 4 -27 4
-27 -11 -9 -9 11 -16 25 -16 31 0 7 -9 20 -20 30 -11 10 -20 13 -20 7 0 -7 -4
-12 -10 -12 -5 0 -10 14 -10 31 0 24 -11 41 -52 79 l-53 48 -5 -66 c-3 -42 -1
-74 7 -87 8 -14 9 -34 3 -65 -12 -62 -12 -197 0 -220 14 -26 -7 -102 -42 -159
-16 -25 -28 -52 -28 -62 0 -21 -28 -45 -39 -33 -5 5 -13 27 -19 49 -17 67 -46
139 -61 151 -12 9 -10 17 12 46 23 29 27 44 26 94 l-2 59 -10 -47 c-6 -27 -15
-48 -20 -48 -10 0 -5 69 8 109 l8 25 -36 -22 c-41 -24 -47 -17 -19 19 29 37
34 84 15 124 -11 23 -22 34 -31 30 -28 -10 -32 7 -7 27 15 11 24 27 21 34 -3
8 1 14 10 14 20 0 27 22 15 52 -7 19 -5 32 8 54 23 39 45 109 39 125 -3 8 -1
24 3 37 6 16 4 33 -6 52 -8 16 -15 49 -15 73 0 27 -6 49 -15 57 -19 16 -19 30
1 30 9 0 14 7 12 18 -1 9 1 23 6 30 5 9 -2 24 -23 46 -27 28 -30 35 -18 45 8
6 22 8 32 4 16 -5 17 -2 12 25 -4 19 -2 32 4 32 6 0 7 25 3 68 -7 74 -11 83
-24 62 -5 -8 -12 -11 -17 -7 -4 4 -2 16 5 25 31 44 26 71 -7 34 -10 -12 -22
-22 -27 -22 -4 0 -3 5 4 12 14 14 16 52 2 43 -5 -3 -10 -2 -10 4 0 5 5 13 10
16 6 3 10 14 10 25 0 10 6 20 14 23 8 3 12 15 9 29 -3 15 3 30 16 42 12 11 21
29 21 42 0 13 5 35 12 49 9 21 17 25 36 20 13 -3 38 -9 56 -12z m258 -40 c-3
-16 -7 -22 -10 -15 -4 13 4 42 11 42 2 0 2 -12 -1 -27z m35 -80 c-3 -10 -5 -4
-5 12 0 17 2 24 5 18 2 -7 2 -21 0 -30z m-64 -43 c-3 -12 -8 -19 -11 -16 -5 6
5 36 12 36 2 0 2 -9 -1 -20z m10 -44 c3 -8 0 -19 -7 -25 -10 -9 -12 -6 -8 14
5 29 8 31 15 11z m1141 -23 c5 -12 15 -14 47 -9 22 4 48 2 60 -4 24 -13 59 -4
59 16 0 21 18 17 25 -6 3 -11 11 -20 16 -20 6 0 7 9 4 20 -5 15 -2 20 13 20
11 0 25 -7 32 -15 9 -10 32 -15 74 -15 35 0 67 -5 74 -12 9 -9 15 -9 24 0 18
18 69 16 62 -3 -5 -13 -2 -13 30 0 46 19 57 19 49 -2 -6 -14 -3 -14 24 2 28
17 38 17 100 5 37 -7 106 -16 153 -20 80 -7 87 -6 117 16 39 30 47 30 40 3 -6
-21 -4 -21 116 -19 202 5 193 7 195 -41 2 -32 -1 -40 -13 -35 -8 3 -17 1 -20
-4 -4 -6 -1 -10 4 -10 6 0 11 -4 11 -8 0 -4 -17 -9 -37 -10 -103 -4 -108 -6
-106 -35 2 -29 -11 -37 -21 -12 -3 8 -14 15 -24 15 -10 0 -23 5 -29 11 -7 7
-28 13 -48 15 -30 3 -38 -1 -42 -16 -6 -23 -19 -26 -26 -7 -3 7 -15 12 -29 12
-28 -2 -88 -27 -88 -37 0 -16 -19 -7 -25 12 -7 22 -44 27 -63 8 -9 -9 -18 -9
-38 1 -17 7 -31 8 -36 3 -13 -13 -13 -159 -1 -175 9 -11 33 -73 33 -85 0 -3
-9 3 -19 12 -19 17 -20 17 -31 -3 -7 -15 -8 -27 0 -40 5 -11 10 -41 10 -66 0
-25 5 -56 11 -68 9 -16 9 -22 0 -25 -6 -2 -11 -25 -11 -53 0 -41 3 -49 19 -49
23 0 51 -64 51 -116 0 -27 -4 -34 -16 -32 -21 4 -51 -89 -35 -105 14 -14 14
-30 1 -22 -16 10 -24 -46 -13 -87 6 -22 7 -41 2 -44 -5 -3 -6 -29 -3 -57 25
-221 31 -400 15 -440 -6 -16 -11 -42 -11 -58 0 -18 -5 -29 -14 -29 -16 0 -28
24 -20 43 7 20 -14 107 -31 123 -13 13 -15 12 -21 -11 -10 -39 -24 -30 -24 15
0 22 -4 40 -10 40 -5 0 -10 -7 -10 -15 0 -8 -4 -15 -10 -15 -9 0 -16 80 -12
140 1 14 -5 42 -13 62 -8 21 -12 45 -8 54 5 13 2 16 -9 11 -35 -13 -32 62 3
96 11 10 19 21 19 25 6 92 9 333 5 350 -7 30 -20 20 -20 -16 0 -16 -6 -28 -15
-30 -13 -2 -15 20 -13 155 1 141 -1 160 -18 184 -21 30 -26 95 -7 101 8 3 8
16 -3 51 -8 30 -18 46 -26 43 -17 -7 -29 14 -13 24 9 5 9 9 1 14 -18 12 -12
28 8 21 14 -4 20 1 25 17 5 18 8 20 15 9 13 -20 23 3 12 31 -5 12 -9 28 -10
33 0 6 -4 10 -8 10 -5 0 -14 4 -21 8 -7 5 -14 3 -18 -6 -3 -9 -17 -18 -32 -22
-15 -4 -35 -14 -45 -23 -23 -20 -47 -2 -28 22 17 20 4 26 -72 33 -61 5 -64 5
-71 -18 -6 -24 -6 -24 -24 -4 -14 16 -25 19 -57 14 -32 -4 -36 -7 -20 -13 120
-45 230 -132 250 -198 4 -12 11 -28 16 -33 34 -44 69 -258 65 -401 -2 -84 -7
-110 -30 -159 -15 -33 -31 -62 -36 -65 -5 -3 -12 -19 -14 -36 -7 -44 -17 -74
-27 -74 -5 0 -9 5 -9 10 0 19 -15 9 -40 -26 -37 -51 -118 -114 -138 -107 -9 4
-29 15 -44 25 -14 10 -33 18 -41 18 -8 0 -18 11 -21 24 -3 13 -15 26 -27 29
-12 3 -18 10 -15 16 8 12 -52 98 -74 106 -20 7 -43 56 -31 68 5 5 1 24 -10 45
-30 61 -37 86 -40 142 -1 19 -12 66 -25 103 -13 38 -24 79 -24 93 0 14 -4 33
-9 42 -4 9 -6 34 -3 55 4 32 9 39 32 44 19 3 30 13 32 28 4 18 1 21 -15 17
-19 -5 -19 -2 6 43 15 26 27 52 27 56 0 16 92 104 104 101 13 -2 43 44 35 52
-3 3 -20 1 -40 -3 -19 -4 -46 -4 -59 1 -13 5 -30 6 -37 4 -7 -3 -13 -1 -13 4
0 6 5 10 12 10 6 0 1 11 -11 24 -22 24 -22 24 -3 35 11 6 23 7 27 3 4 -4 5 3
1 14 -4 15 -2 24 9 28 8 3 15 13 15 22 0 13 7 15 36 9 24 -4 34 -3 29 4 -9 15
8 14 23 -1 9 -9 12 -8 12 5 0 20 26 13 34 -10z m-1191 -28 c-3 -9 -8 -14 -10
-11 -3 3 -2 9 2 15 9 16 15 13 8 -4z m-1058 -19 c19 -8 35 -19 35 -25 0 -5 9
-7 20 -4 41 11 50 -1 34 -47 -9 -27 -11 -47 -5 -58 6 -10 6 -23 -1 -35 -9 -17
-11 -17 -27 -3 -15 14 -18 12 -36 -14 -11 -16 -26 -30 -35 -32 -29 -7 -70 7
-100 35 -25 24 -28 32 -19 49 6 11 11 40 12 64 0 24 4 44 9 44 4 0 8 -5 8 -11
0 -5 15 4 33 20 17 17 33 31 35 31 1 0 18 -7 37 -14z m1043 -111 c2 -1 -4 -5
-12 -8 -10 -4 -20 2 -27 14 -10 19 -9 20 13 8 13 -6 24 -13 26 -14z m42 11 c0
-3 -4 -8 -10 -11 -5 -3 -10 -1 -10 4 0 6 5 11 10 11 6 0 10 -2 10 -4z m81 -19
c-10 -9 -11 -8 -5 6 3 10 9 15 12 12 3 -3 0 -11 -7 -18z m-902 -31 c8 -13 11
-28 7 -34 -3 -5 1 -17 8 -27 9 -13 20 -16 40 -11 15 4 24 11 21 16 -9 15 12
21 24 6 10 -12 20 -12 61 -1 45 12 54 11 102 -9 79 -33 134 -71 146 -103 9
-25 14 -48 27 -135 2 -16 8 -43 13 -61 5 -19 7 -47 5 -63 -3 -16 -4 -44 -4
-62 1 -26 -4 -35 -19 -39 -11 -3 -20 -14 -20 -25 0 -14 -5 -18 -19 -13 -12 3
-21 0 -25 -10 -3 -8 -12 -15 -20 -15 -9 0 -24 -9 -35 -21 -19 -21 -66 -37
-134 -46 -20 -3 -39 -9 -42 -13 -15 -24 -14 -148 2 -187 11 -30 13 -47 5 -55
-20 -26 -24 -77 -8 -108 13 -27 13 -32 0 -37 -7 -3 -14 -15 -14 -28 0 -12 -7
-36 -15 -51 -17 -33 -20 -70 -6 -79 5 -3 9 -18 9 -34 -1 -15 10 -42 22 -59 24
-33 22 -54 -4 -33 -11 10 -14 5 -18 -25 -3 -29 -1 -38 14 -42 24 -6 23 -22 -2
-22 -18 0 -20 -7 -20 -60 0 -59 -8 -71 -36 -52 -14 10 -43 99 -48 153 -11 110
-19 149 -31 149 -7 0 -16 -11 -19 -25 -4 -14 -11 -23 -17 -20 -14 9 -3 108 16
145 19 36 19 51 1 119 -11 43 -11 53 0 58 18 6 -22 68 -53 82 -27 12 -29 24
-8 41 18 15 19 36 2 43 -21 8 -20 105 2 147 14 28 16 41 8 55 -17 31 -14 77 6
84 16 6 14 13 -18 66 -28 46 -34 64 -27 80 25 55 32 93 22 119 -22 60 -12 112
43 224 25 48 38 52 56 18z m-272 -108 c4 -7 19 -13 32 -13 22 0 27 -8 42 -59
11 -37 15 -64 9 -71 -10 -12 -3 -53 13 -72 6 -9 6 -17 0 -25 -11 -14 -43 -136
-43 -162 0 -10 6 -13 17 -9 13 5 15 3 8 -13 -13 -31 -14 -332 0 -409 8 -48 9
-98 3 -155 -4 -47 -11 -113 -14 -147 -5 -53 -9 -63 -25 -63 -16 0 -19 8 -19
46 0 49 -27 182 -40 199 -5 6 -11 35 -14 65 -2 30 -11 73 -19 95 -9 22 -13 53
-10 68 7 32 -16 137 -29 137 -4 0 -8 9 -8 20 0 11 5 20 12 20 7 0 5 7 -5 18
-20 22 -33 72 -19 72 6 0 15 20 20 45 8 37 6 52 -8 80 -10 19 -15 46 -13 59 7
32 23 24 23 -11 0 -46 11 -17 12 31 0 26 -5 53 -11 59 -6 6 -11 18 -11 26 0 8
-7 22 -15 31 -13 14 -13 21 5 54 22 44 69 95 87 96 7 0 16 -6 20 -12z m1508
-34 c-22 -18 -35 -34 -29 -34 6 0 17 7 24 15 7 8 18 15 24 15 6 -1 -1 -11 -15
-23 -24 -20 -26 -28 -24 -87 1 -36 0 -59 -2 -52 -6 15 -23 6 -23 -14 0 -29 39
-13 76 32 60 72 97 105 112 99 8 -3 30 8 50 24 36 28 94 61 108 61 3 0 0 -7
-7 -16 -12 -14 -10 -16 16 -12 27 3 30 0 27 -23 -4 -39 20 -55 52 -34 14 10
26 13 26 7 0 -5 -9 -16 -21 -23 -21 -14 -21 -14 9 -51 17 -22 43 -80 62 -140
18 -57 36 -107 40 -113 3 -5 5 -23 4 -40 -1 -16 7 -48 17 -70 32 -72 57 -145
49 -145 -4 0 -18 26 -31 58 l-24 57 -7 -60 c-4 -33 -7 -118 -8 -190 -1 -151
-1 -157 -23 -209 -10 -21 -17 -45 -17 -53 0 -7 -7 -16 -15 -19 -9 -4 -15 -19
-15 -35 0 -30 -30 -54 -38 -31 -2 7 -10 19 -18 26 -8 8 -14 24 -14 35 0 12 -6
21 -15 21 -10 0 -15 10 -15 30 0 19 -5 30 -14 30 -11 0 -14 23 -14 118 1 103
-2 121 -20 152 -27 43 -29 78 -4 76 12 -1 16 5 14 18 -2 11 2 30 9 42 10 19 9
27 -5 48 -20 31 -20 53 -1 72 27 28 -2 100 -37 91 -15 -4 -18 -1 -13 15 7 21
-19 58 -42 58 -15 0 -17 19 -3 54 14 37 -4 33 -37 -9 -15 -19 -34 -35 -41 -35
-17 0 -32 -16 -59 -62 -25 -42 -66 -185 -58 -199 9 -13 12 -129 4 -129 -11 0
-28 -57 -19 -66 4 -5 15 -33 25 -61 9 -29 21 -53 26 -53 5 0 1 -9 -8 -20 -24
-28 -47 -25 -63 8 -11 22 -14 24 -17 10 -8 -31 -58 -14 -58 19 0 11 -7 17 -18
17 -10 -1 -17 5 -17 17 0 11 -5 19 -11 19 -5 0 -7 -5 -3 -12 4 -6 3 -8 -4 -5
-5 4 -8 16 -5 26 3 13 -2 24 -16 33 -12 7 -21 20 -21 28 0 8 -14 35 -30 60
-34 51 -38 72 -12 68 29 -5 28 40 -1 51 -25 10 -42 47 -26 57 13 8 39 -15 40
-35 0 -12 2 -11 9 4 11 26 12 35 3 34 -21 -3 -22 4 -3 41 25 49 25 59 -2 115
-12 24 -18 48 -14 52 5 5 11 3 13 -3 2 -6 11 -20 19 -30 14 -18 14 -16 8 16
-4 19 -6 59 -6 90 1 52 4 57 46 95 28 25 47 52 51 73 7 35 16 40 35 17 17 -21
27 -19 62 10 17 14 33 23 37 19 3 -3 -12 -21 -34 -40z m2302 -370 c-3 -3 -12
-4 -19 -1 -8 3 -5 6 6 6 11 1 17 -2 13 -5z m-1617 -459 c-7 -9 -15 -13 -19
-10 -3 3 1 10 9 15 21 14 24 12 10 -5z m1394 -31 c4 -9 1 -23 -6 -31 -9 -11
-9 -16 3 -24 10 -7 11 -11 2 -17 -6 -4 -11 -14 -11 -22 1 -8 0 -24 -1 -35 -1
-18 -2 -19 -12 -3 -8 15 -13 15 -23 5 -8 -6 -12 -15 -9 -19 2 -5 -3 -8 -12 -8
-10 0 -13 -5 -9 -12 5 -7 2 -9 -7 -6 -10 4 -15 -2 -17 -19 -2 -31 -10 -43 -27
-43 -25 0 -25 31 0 58 37 39 31 51 -7 15 -18 -17 -43 -34 -55 -38 -13 -3 -23
-11 -23 -16 0 -6 4 -8 8 -5 4 2 8 -3 8 -13 0 -9 -7 -17 -16 -17 -8 -1 -24 -4
-35 -8 -18 -7 -18 -6 3 12 31 28 27 36 -8 15 -16 -9 -30 -20 -30 -24 0 -6 -45
-29 -57 -29 -4 0 6 13 21 29 15 16 24 31 19 33 -4 3 -2 3 6 1 27 -7 216 149
258 215 18 26 29 28 37 6z m-1907 -20 c-3 -3 -12 -4 -19 -1 -8 3 -5 6 6 6 11
1 17 -2 13 -5z m1987 -59 c-4 -8 -10 -12 -15 -9 -14 8 -10 24 6 24 9 0 12 -6
9 -15z m-1226 -14 c11 -7 10 -9 -3 -14 -9 -4 -13 -3 -10 3 8 12 8 12 -34 0
-19 -5 -30 -6 -25 -1 7 8 25 14 54 20 3 0 11 -3 18 -8z m1162 -54 c-10 -9 -12
-8 -7 6 4 9 2 17 -4 17 -6 0 -7 5 -3 11 5 8 10 6 16 -6 7 -12 6 -21 -2 -28z
m370 39 c0 -2 -7 -7 -16 -10 -8 -3 -12 -2 -9 4 6 10 25 14 25 6z m-2365 -36
c3 -6 -1 -7 -9 -4 -18 7 -21 14 -7 14 6 0 13 -4 16 -10z m-250 -90 c-3 -5 -11
-10 -16 -10 -6 0 -7 5 -4 10 3 6 11 10 16 10 6 0 7 -4 4 -10z m44 -3 c-2 -1
-13 -9 -24 -17 -19 -14 -19 -14 -6 3 7 9 18 17 24 17 6 0 8 -1 6 -3z m298 -53
c-3 -3 -12 -4 -19 -1 -8 3 -5 6 6 6 11 1 17 -2 13 -5z m-43 -205 c28 -11 40
-17 26 -15 -14 3 -32 1 -40 -4 -12 -8 -12 -10 4 -10 11 0 17 -2 14 -5 -3 -3
-43 2 -89 11 -46 9 -111 19 -144 23 -56 7 -58 7 -25 14 96 19 177 15 254 -14z
m591 -199 c3 -6 -1 -7 -9 -4 -18 7 -21 14 -7 14 6 0 13 -4 16 -10z m-1322
-132 c9 -11 17 -24 17 -29 0 -14 -26 -10 -40 6 -15 18 -51 20 -68 3 -17 -17
-15 -83 3 -98 19 -15 65 -5 65 15 0 8 -7 15 -15 15 -8 0 -15 7 -15 15 0 10 11
15 35 15 l35 0 0 -47 0 -48 -56 -2 c-47 -2 -59 1 -80 22 -47 47 -27 134 36
158 24 9 64 -2 83 -25z m371 -1 c16 -19 16 -22 3 -25 -9 -2 -28 4 -42 14 -24
16 -27 16 -42 1 -15 -15 -14 -17 13 -26 59 -21 79 -37 82 -63 6 -52 -86 -80
-128 -38 -11 11 -20 25 -20 30 0 15 30 12 47 -6 18 -18 58 -15 58 4 0 8 -20
24 -45 35 -38 19 -45 26 -45 52 0 55 78 70 119 22z m-1142 6 c28 -25 22 -53
-24 -95 l-41 -38 41 0 c31 0 42 -4 42 -15 0 -12 -14 -15 -65 -15 -39 0 -65 4
-65 11 0 22 21 48 55 69 26 16 35 28 33 44 -4 28 -38 34 -45 7 -5 -18 -43 -32
-43 -15 0 11 23 49 34 56 19 13 59 9 78 -9z m142 1 c24 -23 19 -60 -11 -89
-15 -14 -31 -25 -35 -25 -5 0 -8 -4 -8 -10 0 -5 16 -10 35 -10 24 0 35 -5 35
-15 0 -12 -13 -15 -60 -15 -52 0 -60 2 -60 19 0 10 21 36 46 57 33 29 44 44
39 57 -9 23 -32 22 -45 -3 -13 -24 -40 -26 -40 -3 0 45 71 71 104 37z m241
-61 c16 -43 30 -84 33 -90 2 -8 -4 -13 -16 -13 -12 0 -23 9 -27 20 -5 15 -15
20 -40 20 -25 0 -35 -5 -40 -20 -4 -11 -15 -20 -27 -20 -12 0 -18 5 -16 13 59
164 61 167 83 167 19 0 27 -12 50 -77z m95 21 c0 -63 13 -94 38 -94 31 0 42
22 42 87 0 56 2 63 20 63 18 0 20 -7 20 -64 0 -82 -23 -116 -80 -116 -57 0
-80 34 -80 116 0 57 2 64 20 64 18 0 20 -7 20 -56z m390 -8 c0 -69 14 -92 50
-81 18 6 20 15 20 76 0 62 2 69 20 69 18 0 20 -7 20 -74 0 -66 -3 -77 -22 -90
-31 -22 -84 -20 -108 4 -16 16 -20 33 -20 90 0 63 2 70 20 70 18 0 20 -7 20
-64z m450 49 c0 -9 -9 -15 -25 -15 -24 0 -25 -2 -25 -75 0 -68 -2 -75 -20 -75
-18 0 -20 7 -20 75 0 73 -1 75 -25 75 -16 0 -25 6 -25 15 0 12 14 15 70 15 56
0 70 -3 70 -15z m204 -7 c24 -34 20 -48 -26 -90 l-41 -38 41 0 c31 0 42 -4 42
-15 0 -12 -14 -15 -65 -15 -39 0 -65 4 -65 11 0 22 21 48 55 69 26 16 35 28
33 44 -4 28 -38 34 -45 7 -5 -18 -43 -32 -43 -15 0 11 23 49 34 56 23 16 65 8
80 -14z m140 3 c24 -26 24 -116 0 -142 -22 -24 -66 -24 -88 0 -24 26 -24 116
0 142 22 24 66 24 88 0z m148 2 c30 -27 22 -58 -24 -97 l-43 -36 43 0 c31 0
42 -4 42 -15 0 -12 -14 -15 -65 -15 -51 0 -65 3 -65 15 0 17 26 45 65 71 17
11 25 24 23 38 -4 29 -38 34 -45 7 -5 -20 -23 -28 -36 -15 -7 8 11 46 27 56
19 13 59 9 78 -9z m142 -5 c23 -33 21 -113 -4 -138 -25 -25 -62 -26 -85 0 -25
27 -25 112 0 140 24 27 70 26 89 -2z m-2206 -250 c2 -12 -5 -17 -25 -20 -27
-3 -28 -5 -33 -77 -5 -72 -6 -74 -23 -56 -14 14 -18 30 -15 74 3 55 2 56 -24
59 -27 3 -36 20 -21 36 4 4 37 6 72 4 52 -2 66 -6 69 -20z m62 -13 c0 -34 1
-35 40 -35 37 0 40 2 35 23 -7 26 17 53 35 42 15 -9 11 -172 -4 -178 -20 -8
-31 6 -31 38 0 27 -3 30 -37 33 -37 3 -38 2 -38 -31 0 -32 -19 -55 -34 -40 -8
9 -8 168 1 176 17 18 33 5 33 -28z m288 13 c3 -15 -4 -18 -48 -18 -44 0 -51
-3 -48 -17 2 -13 15 -19 46 -21 28 -2 42 -8 42 -18 0 -10 -12 -14 -45 -14 -38
0 -45 -3 -45 -20 0 -17 7 -20 51 -20 43 0 50 -3 47 -17 -3 -15 -14 -18 -68
-18 l-65 1 -3 78 c-2 44 -1 85 2 93 4 10 22 13 68 11 50 -2 63 -6 66 -20z
m187 -46 l35 -56 0 57 c0 50 2 57 20 57 18 0 20 -7 20 -84 0 -117 -22 -126
-78 -31 -18 30 -35 55 -36 55 -2 0 -4 -25 -5 -57 -1 -61 -4 -69 -20 -58 -7 3
-11 43 -11 95 0 83 1 88 20 83 11 -3 36 -31 55 -61z m395 48 c0 -15 -7 -20
-25 -20 -23 0 -24 -3 -27 -72 -2 -57 -6 -73 -18 -73 -12 0 -16 16 -18 73 -3
69 -4 72 -27 72 -18 0 -25 5 -25 20 0 18 7 20 70 20 63 0 70 -2 70 -20z m247
-4 c23 -20 28 -32 28 -70 0 -61 -29 -91 -86 -91 -83 0 -120 96 -60 156 37 36
79 38 118 5z m213 -71 c0 -60 -4 -84 -13 -88 -19 -7 -29 1 -62 56 l-30 47 -5
-52 c-4 -38 -9 -53 -20 -53 -12 0 -16 18 -18 88 -3 82 -2 87 18 87 14 0 31
-17 53 -52 l32 -53 3 50 c3 47 16 70 34 59 4 -3 8 -43 8 -89z m258 17 l3 -72
39 0 c28 0 40 -4 40 -15 0 -15 -52 -29 -91 -23 -23 3 -24 7 -27 82 -3 87 1
110 21 104 8 -3 13 -30 15 -76z m505 58 c70 -55 26 -170 -64 -170 -11 0 -34
13 -50 29 -80 81 25 211 114 141z m86 2 c5 -9 12 -34 16 -55 8 -39 25 -51 25
-17 0 33 29 92 42 88 7 -3 20 -31 29 -64 l16 -59 12 45 c7 25 14 51 16 58 5
14 35 16 35 2 0 -21 -40 -154 -49 -163 -16 -16 -39 10 -46 51 -10 63 -22 71
-30 19 -4 -25 -13 -54 -20 -64 -12 -16 -15 -16 -29 -3 -16 16 -57 165 -48 174
10 11 21 6 31 -12z m259 -60 l3 -72 45 0 c38 0 45 -3 42 -17 -3 -15 -14 -18
-63 -18 l-60 0 -3 79 c-3 87 1 110 21 104 8 -3 13 -30 15 -76z m-1742 21 c9
-27 23 -63 31 -82 7 -18 13 -37 13 -42 0 -17 -29 -9 -40 11 -15 28 -66 27 -90
-2 -36 -44 -40 -7 -8 80 26 70 34 82 53 82 19 0 27 -10 41 -47z m242 -40 c-3
-74 -6 -88 -20 -91 -16 -3 -18 6 -18 87 0 85 1 91 20 91 20 0 21 -5 18 -87z
m553 7 c16 -41 29 -80 29 -87 0 -20 -28 -15 -40 7 -13 25 -80 29 -80 5 0 -17
-24 -30 -39 -21 -5 4 3 38 20 83 37 95 37 95 61 91 15 -2 28 -22 49 -78z m423
58 c8 -13 8 -23 0 -35 -8 -14 -8 -23 3 -40 29 -44 -15 -81 -92 -79 l-40 1 -5
78 c-3 42 -3 82 -2 88 3 6 29 9 64 7 45 -2 64 -8 72 -20z m-1313 -254 c33 -35
30 -100 -5 -131 -60 -52 -146 -14 -146 65 0 89 92 129 151 66z m-672 -26 c9
-26 19 -49 23 -53 3 -4 13 19 22 49 15 52 19 56 46 56 l30 0 0 -90 c0 -83 -1
-90 -20 -90 -18 0 -20 7 -21 58 l-1 57 -20 -58 c-25 -74 -45 -73 -73 3 l-20
55 -3 -58 c-3 -49 -6 -58 -20 -55 -14 3 -18 17 -20 77 -4 92 0 103 35 99 22
-2 29 -11 42 -50z m201 -38 c0 -83 -1 -90 -20 -90 -19 0 -20 7 -20 90 0 83 1
90 20 90 19 0 20 -7 20 -90z m80 15 l0 -75 40 0 c29 0 40 -4 40 -15 0 -12 -13
-15 -60 -15 l-60 0 0 90 c0 83 1 90 20 90 18 0 20 -7 20 -75z m220 60 c0 -9
-9 -15 -25 -15 -24 0 -25 -2 -25 -75 0 -68 -2 -75 -20 -75 -17 0 -19 8 -22 73
-3 70 -4 72 -30 75 -16 2 -28 9 -28 18 0 11 17 14 75 14 60 0 75 -3 75 -15z
m300 -42 l35 -58 3 58 c3 49 6 57 22 57 18 0 20 -7 20 -90 0 -84 -1 -90 -20
-90 -14 0 -33 19 -58 58 l-37 57 -3 -57 c-2 -43 -7 -58 -17 -58 -12 0 -15 18
-15 90 0 80 2 90 18 90 11 0 31 -22 52 -57z m230 20 l0 -37 38 37 c22 22 48
37 62 37 23 0 23 -1 -12 -37 l-36 -38 34 -45 c39 -53 41 -60 14 -60 -12 0 -32
16 -48 39 -32 44 -52 40 -52 -11 0 -21 -5 -28 -20 -28 -19 0 -20 7 -20 90 0
83 1 90 20 90 16 0 20 -7 20 -37z m278 20 c-2 -14 -13 -18 -43 -18 -29 0 -41
-4 -43 -17 -3 -13 6 -17 39 -20 61 -4 64 -28 4 -28 -42 0 -46 -2 -43 -22 2
-15 10 -23 23 -24 58 -3 65 -5 65 -19 0 -12 -14 -15 -65 -15 l-65 0 0 90 0 90
66 0 c57 0 65 -2 62 -17z m83 -14 l26 -32 19 31 c12 21 26 32 41 32 22 0 22
-1 -12 -59 -20 -34 -35 -73 -35 -91 0 -25 -4 -31 -17 -28 -12 2 -20 16 -23 43
-3 22 -19 61 -34 88 -25 42 -26 47 -9 47 10 0 30 -14 44 -31z m201 -24 l33
-56 5 53 c4 40 9 54 23 56 15 3 17 -6 17 -87 0 -83 -2 -91 -19 -91 -13 0 -32
20 -55 57 l-36 57 0 -57 c0 -50 -2 -57 -20 -57 -19 0 -20 7 -20 90 0 82 2 90
19 90 13 0 31 -19 53 -55z m248 40 c0 -11 -12 -15 -45 -15 -38 0 -45 -3 -45
-19 0 -16 8 -20 42 -23 59 -4 63 -28 4 -28 -42 0 -46 -2 -46 -25 0 -23 3 -25
51 -25 36 0 49 -4 47 -12 -3 -8 -29 -14 -71 -16 l-67 -3 0 91 0 90 65 0 c51 0
65 -3 65 -15z m154 -1 c31 -31 7 -47 -33 -22 -20 12 -51 5 -51 -11 0 -6 18
-15 40 -21 41 -11 70 -33 70 -53 0 -7 -7 -23 -16 -35 -29 -42 -134 -23 -134
24 0 19 24 18 40 -2 16 -19 65 -15 65 6 0 8 -16 19 -36 25 -66 19 -85 50 -52
87 20 23 85 24 107 2z m236 -40 c0 -63 13 -94 38 -94 31 0 42 22 42 87 0 56 2
63 20 63 18 0 20 -7 20 -70 0 -57 -4 -74 -20 -90 -20 -20 -83 -27 -107 -12
-20 12 -34 64 -32 112 3 53 6 60 25 60 10 0 14 -14 14 -56z m196 36 c1 -8 2
-23 3 -33 1 -14 8 -10 32 18 21 23 40 35 57 35 l26 0 -32 -33 c-18 -18 -32
-36 -32 -40 0 -4 16 -29 36 -57 l36 -50 -25 0 c-17 0 -32 12 -52 40 -30 44
-42 42 -47 -5 -2 -18 -10 -31 -20 -33 -14 -3 -17 9 -20 83 -2 48 -1 89 2 91 9
10 35 -2 36 -16z m-346 -148 c0 -28 -15 -52 -33 -52 -5 0 -4 7 4 16 10 13 10
17 -1 24 -16 10 -6 40 15 40 10 0 15 -10 15 -28z m-2465 -243 c-10 -15 7 -10
27 8 20 18 26 5 6 -15 -9 -9 -7 -16 7 -32 10 -11 15 -23 11 -27 -4 -4 -16 3
-26 17 -15 20 -20 21 -20 8 0 -9 -4 -20 -10 -23 -6 -4 -10 12 -10 40 0 29 4
44 10 40 6 -4 8 -11 5 -16z m155 -5 c0 14 5 26 10 26 6 0 10 -20 10 -45 0 -25
-3 -45 -7 -45 -4 0 -18 12 -31 28 -20 24 -22 24 -17 5 3 -12 1 -24 -5 -28 -6
-4 -10 11 -10 42 l1 48 24 -28 25 -28 0 25z m140 12 c28 -35 -11 -93 -47 -70
-36 22 -23 84 17 84 10 0 23 -7 30 -14z m120 4 c0 -5 -4 -10 -10 -10 -5 0 -10
-16 -10 -35 0 -19 -4 -35 -10 -35 -5 0 -10 16 -10 35 0 25 -4 35 -16 35 -8 0
-12 5 -9 10 3 6 19 10 36 10 16 0 29 -4 29 -10z m105 0 c3 -5 -3 -10 -14 -10
-25 0 -28 -20 -3 -21 16 -1 16 -2 0 -6 -10 -2 -18 -13 -18 -24 0 -10 -4 -19
-10 -19 -5 0 -10 20 -10 45 0 41 2 45 24 45 14 0 28 -4 31 -10z m110 1 c3 -5
-7 -11 -22 -13 l-28 -4 25 -11 c24 -11 24 -12 3 -12 -31 -1 -29 -21 2 -21 14
0 25 -5 25 -11 0 -6 -14 -9 -32 -7 -28 3 -34 7 -36 31 -2 16 -1 35 2 43 6 16
52 19 61 5z m99 3 c27 -10 18 -25 -11 -19 l-28 6 28 -16 c17 -10 27 -23 25
-33 -4 -22 -41 -27 -58 -7 -14 17 0 21 17 4 8 -8 13 -8 18 0 3 6 -2 14 -12 18
-25 9 -34 25 -21 40 12 15 19 16 42 7z m126 -4 c0 -5 -4 -10 -10 -10 -5 0 -10
-13 -10 -29 0 -17 -4 -33 -10 -36 -6 -4 -10 8 -10 29 0 26 -4 36 -16 36 -8 0
-12 5 -9 10 3 6 19 10 36 10 16 0 29 -4 29 -10z m70 -31 c0 -19 5 -29 15 -29
10 0 15 11 15 35 0 19 5 35 11 35 16 0 6 -72 -12 -83 -29 -18 -49 -1 -49 43 0
25 4 39 10 35 6 -3 10 -19 10 -36z m127 11 c3 0 12 8 19 17 7 10 16 15 20 11
4 -4 1 -14 -6 -23 -10 -12 -9 -20 4 -40 20 -31 3 -33 -19 -2 l-15 22 -6 -22
c-9 -32 -24 -18 -24 21 0 35 13 58 18 32 2 -9 6 -16 9 -16z m233 15 c11 -13 8
-14 -19 -9 -29 6 -31 4 -31 -21 0 -25 2 -27 31 -21 27 5 30 4 19 -9 -25 -30
-70 -11 -70 30 0 41 45 60 70 30z m124 -1 c9 -8 16 -22 16 -29 0 -17 -27 -45
-43 -45 -36 1 -56 49 -32 74 21 20 39 20 59 0z m92 -9 c8 -32 20 -32 28 1 4
14 12 24 19 21 16 -5 22 -66 8 -80 -8 -8 -11 -3 -12 19 l-1 29 -10 -27 c-5
-16 -13 -28 -17 -28 -4 0 -12 12 -18 28 l-11 27 -1 -28 c-1 -17 -5 -26 -12
-22 -9 6 -11 59 -1 78 7 15 22 6 28 -18z m405 9 c11 -13 9 -14 -14 -9 -34 9
-35 -2 -1 -15 16 -7 24 -16 22 -28 -4 -20 -45 -29 -61 -13 -15 15 0 26 17 12
10 -8 16 -9 21 -1 3 5 -5 14 -19 20 -29 11 -32 20 -14 38 16 16 33 15 49 -4z
m79 -25 c0 -23 4 -29 21 -29 11 0 17 -4 14 -10 -3 -5 -17 -10 -31 -10 -22 0
-24 4 -24 46 0 27 4 43 10 39 6 -3 10 -19 10 -36z m100 -4 c0 -25 -4 -45 -10
-45 -5 0 -10 20 -10 45 0 25 5 45 10 45 6 0 10 -20 10 -45z m108 36 c21 -13
10 -46 -16 -49 -12 -2 -23 -11 -23 -20 -1 -9 -5 1 -8 23 -4 22 -5 43 -3 48 4
10 34 9 50 -2z m82 -8 c0 -15 1 -15 18 0 25 23 39 22 19 -1 -15 -16 -15 -21
-2 -38 23 -31 17 -40 -10 -14 l-25 23 0 -21 c0 -12 -4 -22 -10 -22 -5 0 -10
20 -10 45 0 25 5 45 10 45 6 0 10 -7 10 -17z m140 -25 c0 -4 4 -8 9 -8 5 0 7
8 4 19 -3 10 0 22 6 25 7 5 11 -8 11 -38 0 -53 -8 -57 -32 -18 l-17 27 -1 -27
c0 -16 -4 -28 -10 -28 -11 0 -14 73 -3 84 7 7 33 -21 33 -36z m148 30 c7 -7
12 -21 12 -33 0 -46 -53 -62 -71 -21 -21 45 26 87 59 54z m122 2 c0 -5 -4 -10
-10 -10 -5 0 -10 -16 -10 -35 0 -19 -4 -35 -10 -35 -5 0 -10 16 -10 35 0 19
-4 35 -10 35 -5 0 -10 5 -10 10 0 6 14 10 30 10 17 0 30 -4 30 -10z m290 -5
c11 -13 8 -14 -19 -9 -29 6 -31 4 -31 -21 0 -25 2 -27 31 -21 27 5 30 4 19 -9
-25 -30 -70 -11 -70 30 0 41 45 60 70 30z m124 -1 c9 -8 16 -22 16 -29 0 -18
-27 -45 -45 -45 -18 0 -45 27 -45 45 0 18 27 45 45 45 7 0 21 -7 29 -16z m92
-9 c8 -31 22 -33 26 -3 2 12 9 23 16 26 8 2 12 -10 11 -45 -1 -42 -2 -44 -9
-18 l-7 30 -7 -27 c-5 -16 -11 -28 -15 -28 -4 0 -12 12 -18 28 l-11 27 -1 -28
c-1 -39 -21 -24 -21 17 0 51 25 65 36 21z m-416 -25 c0 -22 -4 -40 -10 -40 -5
0 -10 14 -10 30 0 17 -5 30 -12 30 -9 0 -8 4 2 10 25 16 30 12 30 -30z m-1050
5 c0 -19 -20 -29 -32 -17 -15 15 -2 43 17 36 8 -3 15 -12 15 -19z m-560 -35
c0 -5 -4 -10 -10 -10 -5 0 -10 5 -10 10 0 6 5 10 10 10 6 0 10 -4 10 -10z
m1690 0 c0 -5 -4 -10 -10 -10 -5 0 -10 5 -10 10 0 6 5 10 10 10 6 0 10 -4 10
-10z"/>
<path d="M406 8951 c-4 -7 -5 -15 -2 -18 9 -9 19 4 14 18 -4 11 -6 11 -12 0z"/>
<path d="M1080 8940 c0 -27 3 -31 23 -28 16 2 22 10 22 28 0 18 -6 26 -22 28
-20 3 -23 -1 -23 -28z"/>
<path d="M1366 8951 c-4 -7 -5 -15 -2 -18 9 -9 19 4 14 18 -4 11 -6 11 -12 0z"/>
<path d="M1923 8958 c2 -7 10 -13 17 -13 7 0 15 6 18 13 2 7 -5 12 -18 12 -13
0 -20 -5 -17 -12z"/>
<path d="M2757 8963 c-12 -11 -8 -40 7 -52 19 -16 46 11 39 39 -5 19 -32 27
-46 13z"/>
<path d="M3534 8955 c-9 -23 3 -45 25 -45 21 0 33 22 25 45 -4 8 -15 15 -25
15 -11 0 -22 -7 -25 -15z"/>
<path d="M3957 8956 c-10 -26 4 -47 27 -44 15 2 21 10 21 28 0 29 -38 41 -48
16z"/>
<path d="M5300 8946 c0 -9 5 -16 10 -16 6 0 10 4 10 9 0 6 -4 13 -10 16 -5 3
-10 -1 -10 -9z"/>
<path d="M5443 8958 c2 -7 10 -13 17 -13 7 0 15 6 18 13 2 7 -5 12 -18 12 -13
0 -20 -5 -17 -12z"/>
<path d="M5830 8916 c0 -9 5 -16 10 -16 6 0 10 4 10 9 0 6 -4 13 -10 16 -5 3
-10 -1 -10 -9z"/>
<path d="M6923 8958 c2 -7 10 -13 17 -13 7 0 15 6 18 13 2 7 -5 12 -18 12 -13
0 -20 -5 -17 -12z"/>
<path d="M2694 8726 c-4 -9 -4 -20 0 -23 3 -4 6 -1 6 5 0 6 8 9 18 6 10 -4 13
-2 7 3 -5 4 -13 12 -17 17 -4 5 -10 1 -14 -8z"/>
<path d="M2657 8713 c-5 -7 -5 -13 0 -13 4 0 1 -4 -7 -10 -8 -5 -11 -12 -7
-16 11 -12 29 12 25 32 -2 14 -6 16 -11 7z"/>
<path d="M2935 8654 c2 -4 -5 -14 -17 -24 -17 -14 -18 -17 -5 -17 10 0 17 4
17 9 0 5 4 7 9 4 11 -7 9 21 -2 29 -4 3 -5 2 -2 -1z"/>
<path d="M2640 8620 c-9 -6 -10 -10 -3 -10 6 0 15 5 18 10 8 12 4 12 -15 0z"/>
<path d="M2336 8585 c-3 -8 -1 -15 4 -15 6 0 10 7 10 15 0 8 -2 15 -4 15 -2 0
-6 -7 -10 -15z"/>
<path d="M2643 8503 c-12 -2 -54 -20 -93 -39 -39 -19 -75 -34 -80 -34 -14 0
-46 -51 -60 -95 -7 -22 -19 -53 -27 -68 -15 -28 -14 -28 8 -25 19 2 24 -3 30
-30 4 -18 13 -41 21 -50 8 -9 20 -30 28 -45 20 -41 84 -74 147 -76 67 -2 152
39 210 102 37 40 42 52 48 109 7 68 10 60 -52 181 -34 66 -89 88 -180 70z"/>
<path d="M3075 8301 c-3 -5 -1 -12 5 -16 5 -3 10 1 10 9 0 18 -6 21 -15 7z"/>
<path d="M2316 7978 c3 -5 10 -6 15 -3 13 9 11 12 -6 12 -8 0 -12 -4 -9 -9z"/>
<path d="M2690 7970 c0 -5 5 -10 11 -10 5 0 7 5 4 10 -3 6 -8 10 -11 10 -2 0
-4 -4 -4 -10z"/>
<path d="M2900 7949 c0 -5 5 -7 10 -4 6 3 10 8 10 11 0 2 -4 4 -10 4 -5 0 -10
-5 -10 -11z"/>
<path d="M2840 7931 c-7 -15 -7 -21 0 -21 12 0 25 28 17 36 -3 3 -10 -4 -17
-15z"/>
<path d="M2790 7920 c0 -5 5 -10 11 -10 5 0 7 5 4 10 -3 6 -8 10 -11 10 -2 0
-4 -4 -4 -10z"/>
<path d="M2935 7919 c-4 -6 -5 -12 -2 -15 2 -3 7 2 10 11 7 17 1 20 -8 4z"/>
<path d="M2635 7910 c3 -5 8 -10 11 -10 2 0 4 5 4 10 0 6 -5 10 -11 10 -5 0
-7 -4 -4 -10z"/>
<path d="M2581 7883 c-7 -8 -11 -16 -8 -19 2 -2 10 2 17 11 17 20 9 27 -9 8z"/>
<path d="M970 8700 c0 -19 3 -21 12 -12 9 9 9 15 0 24 -9 9 -12 7 -12 -12z"/>
<path d="M1016 8691 c-3 -5 1 -11 9 -14 9 -4 12 -1 8 9 -6 16 -10 17 -17 5z"/>
<path d="M985 8670 c-3 -5 -1 -10 4 -10 6 0 11 5 11 10 0 6 -2 10 -4 10 -3 0
-8 -4 -11 -10z"/>
<path d="M811 8146 c-7 -8 -21 -12 -33 -9 -18 5 -19 4 -9 -16 12 -21 41 -30
41 -12 0 5 8 12 18 14 14 4 14 5 -3 6 -16 1 -17 3 -5 11 8 5 12 12 9 15 -4 3
-11 -1 -18 -9z"/>
<path d="M504 8025 c14 -11 17 -18 10 -25 -8 -8 -15 -6 -24 5 -7 8 -17 15 -22
15 -11 0 23 -46 36 -47 5 -1 13 -7 17 -15 6 -8 9 -1 9 23 0 35 -14 59 -34 59
-6 0 -2 -7 8 -15z"/>
<path d="M875 8020 c3 -5 8 -10 11 -10 2 0 4 5 4 10 0 6 -5 10 -11 10 -5 0 -7
-4 -4 -10z"/>
<path d="M455 7940 c3 -5 8 -10 11 -10 2 0 4 5 4 10 0 6 -5 10 -11 10 -5 0 -7
-4 -4 -10z"/>
<path d="M460 7897 c0 -8 9 -22 20 -32 11 -10 20 -13 20 -7 0 7 -4 12 -10 12
-5 0 -10 6 -10 14 0 8 -4 18 -10 21 -5 3 -10 0 -10 -8z"/>
<path d="M555 7899 c-4 -6 -4 -13 0 -17 4 -4 10 -1 12 6 3 6 10 9 15 6 7 -4 8
-2 4 4 -9 15 -23 15 -31 1z"/>
<path d="M415 7889 c-4 -6 -5 -12 -2 -15 2 -3 7 2 10 11 7 17 1 20 -8 4z"/>
<path d="M382 7863 c2 -11 14 -19 28 -20 l25 -3 -23 10 c-13 5 -20 14 -17 20
3 5 1 10 -5 10 -6 0 -10 -8 -8 -17z"/>
<path d="M456 7833 c-6 -14 -5 -15 5 -6 7 7 10 15 7 18 -3 3 -9 -2 -12 -12z"/>
<path d="M510 7806 c0 -2 7 -7 16 -10 8 -3 12 -2 9 4 -6 10 -25 14 -25 6z"/>
<path d="M7035 8730 c-3 -5 1 -10 9 -10 8 0 18 5 21 10 3 6 -1 10 -9 10 -8 0
-18 -4 -21 -10z"/>
<path d="M6825 8710 c10 -11 20 -20 22 -20 7 0 -2 25 -12 32 -21 16 -27 7 -10
-12z"/>
<path d="M6867 8706 c-3 -8 -2 -18 3 -21 13 -8 24 15 12 27 -6 6 -11 4 -15 -6z"/>
<path d="M6912 8693 c2 -9 8 -18 15 -20 7 -3 9 3 6 16 -6 25 -26 28 -21 4z"/>
<path d="M7014 8688 c12 -7 21 -7 28 0 6 6 0 10 -18 10 -23 0 -24 -2 -10 -10z"/>
<path d="M6888 8674 c-5 -4 -8 -16 -8 -28 0 -14 3 -17 11 -9 6 6 9 19 7 28 -1
9 -6 13 -10 9z"/>
<path d="M6846 8651 c-3 -5 0 -11 7 -14 8 -3 14 1 14 9 0 16 -13 19 -21 5z"/>
<path d="M6967 8634 c6 -17 8 -17 21 -1 8 10 6 13 -8 14 -13 1 -17 -3 -13 -13z"/>
<path d="M7020 8620 c-9 -6 -10 -10 -3 -10 6 0 15 5 18 10 8 12 4 12 -15 0z"/>
<path d="M6880 8610 c0 -5 5 -10 10 -10 6 0 10 5 10 10 0 6 -4 10 -10 10 -5 0
-10 -4 -10 -10z"/>
<path d="M6705 8560 c3 -5 14 -10 23 -10 15 0 15 2 2 10 -20 13 -33 13 -25 0z"/>
<path d="M6765 8110 c3 -5 8 -10 11 -10 2 0 4 5 4 10 0 6 -5 10 -11 10 -5 0
-7 -4 -4 -10z"/>
<path d="M6716 8025 c-3 -8 -1 -15 4 -15 6 0 10 7 10 15 0 8 -2 15 -4 15 -2 0
-6 -7 -10 -15z"/>
<path d="M6600 8004 c0 -10 34 -44 73 -73 30 -23 18 -6 -28 39 -25 24 -45 40
-45 34z"/>
<path d="M6759 7953 c-13 -16 -12 -17 4 -4 16 13 21 21 13 21 -2 0 -10 -8 -17
-17z"/>
<path d="M6655 7900 c3 -5 8 -10 11 -10 2 0 4 5 4 10 0 6 -5 10 -11 10 -5 0
-7 -4 -4 -10z"/>
<path d="M6606 7884 c-4 -9 -4 -19 -1 -22 3 -3 11 0 17 6 9 9 9 15 1 23 -7 7
-12 5 -17 -7z"/>
<path d="M6632 7858 c2 -6 14 -15 26 -19 16 -6 20 -5 15 6 -3 8 -9 12 -14 9
-5 -3 -9 0 -9 5 0 6 -5 11 -11 11 -6 0 -9 -5 -7 -12z"/>
<path d="M2060 8410 c0 -5 5 -10 11 -10 5 0 7 5 4 10 -3 6 -8 10 -11 10 -2 0
-4 -4 -4 -10z"/>
<path d="M1835 7870 c-3 -5 -1 -10 4 -10 6 0 11 5 11 10 0 6 -2 10 -4 10 -3 0
-8 -4 -11 -10z"/>
<path d="M3682 8700 c0 -14 2 -19 5 -12 2 6 2 18 0 25 -3 6 -5 1 -5 -13z"/>
<path d="M3871 8681 c-8 -5 -9 -11 -3 -15 5 -3 12 1 16 9 6 17 6 18 -13 6z"/>
<path d="M3296 8648 c-21 -41 -20 -51 7 -75 32 -29 44 -34 44 -18 0 8 -3 12
-7 10 -4 -3 -15 4 -25 15 -16 18 -16 22 -1 54 18 39 20 46 7 46 -5 0 -17 -14
-25 -32z"/>
<path d="M3686 8662 c-3 -5 1 -9 9 -9 8 0 12 4 9 9 -3 4 -7 8 -9 8 -2 0 -6 -4
-9 -8z"/>
<path d="M3805 8640 c4 -12 1 -28 -7 -37 -12 -15 -11 -15 8 -5 16 8 20 18 17
37 -3 14 -10 25 -15 25 -5 0 -6 -9 -3 -20z"/>
<path d="M3770 8595 c0 -5 5 -17 10 -25 5 -8 10 -10 10 -5 0 6 -5 17 -10 25
-5 8 -10 11 -10 5z"/>
<path d="M3740 8560 c0 -5 5 -10 11 -10 5 0 7 5 4 10 -3 6 -8 10 -11 10 -2 0
-4 -4 -4 -10z"/>
<path d="M3571 8354 c0 -11 3 -14 6 -6 3 7 2 16 -1 19 -3 4 -6 -2 -5 -13z"/>
<path d="M3569 8285 c-5 -27 -1 -59 9 -63 8 -2 12 9 12 32 0 20 -4 36 -10 36
-5 0 -10 -2 -11 -5z"/>
<path d="M3488 8203 c7 -3 16 -2 19 1 4 3 -2 6 -13 5 -11 0 -14 -3 -6 -6z"/>
<path d="M3528 8203 c7 -3 16 -2 19 1 4 3 -2 6 -13 5 -11 0 -14 -3 -6 -6z"/>
<path d="M3605 8168 c-11 -6 -38 -30 -60 -52 -22 -22 -31 -33 -20 -24 11 8 42
32 68 52 47 35 53 47 12 24z"/>
<path d="M3512 7965 c-11 -12 -10 -15 3 -15 8 0 15 7 15 15 0 18 -2 18 -18 0z"/>
<path d="M3545 7870 c10 -11 20 -18 23 -16 5 6 -23 36 -34 36 -4 0 1 -9 11
-20z"/>
<path d="M3526 7833 c-6 -14 -5 -15 5 -6 7 7 10 15 7 18 -3 3 -9 -2 -12 -12z"/>
<path d="M3584 7810 c0 -11 6 -20 13 -20 11 0 11 5 3 20 -6 11 -12 20 -13 20
-2 0 -3 -9 -3 -20z"/>
<path d="M4526 8717 c3 -10 9 -15 12 -12 3 3 0 11 -7 18 -10 9 -11 8 -5 -6z"/>
<path d="M4471 8708 c-1 -12 -7 -16 -18 -12 -16 5 -16 4 0 -6 22 -14 30 -8 24
17 -4 16 -5 16 -6 1z"/>
<path d="M4312 8661 c4 -13 18 -16 19 -4 0 4 -5 9 -11 12 -7 2 -11 -2 -8 -8z"/>
<path d="M4390 8661 c0 -13 28 -33 33 -23 3 4 -3 13 -14 20 -10 7 -19 8 -19 3z"/>
<path d="M4462 8640 c0 -14 2 -19 5 -12 2 6 2 18 0 25 -3 6 -5 1 -5 -13z"/>
<path d="M4555 8280 c-3 -5 -2 -10 4 -10 5 0 13 5 16 10 3 6 2 10 -4 10 -5 0
-13 -4 -16 -10z"/>
<path d="M4513 8235 c-3 -9 -3 -18 -1 -21 3 -3 8 4 11 16 6 23 -1 27 -10 5z"/>
<path d="M5151 8714 c0 -11 3 -14 6 -6 3 7 2 16 -1 19 -3 4 -6 -2 -5 -13z"/>
<path d="M4990 8710 c0 -5 5 -10 10 -10 6 0 10 5 10 10 0 6 -4 10 -10 10 -5 0
-10 -4 -10 -10z"/>
<path d="M5487 8713 c-5 -7 -5 -13 0 -13 4 0 1 -5 -7 -10 -12 -7 -12 -12 -3
-21 10 -10 14 -9 19 4 8 23 1 56 -9 40z"/>
<path d="M5056 8681 c-4 -5 -2 -12 3 -15 5 -4 12 -2 15 3 4 5 2 12 -3 15 -5 4
-12 2 -15 -3z"/>
<path d="M5570 8674 c0 -8 5 -12 10 -9 6 4 8 11 5 16 -9 14 -15 11 -15 -7z"/>
<path d="M5690 8680 c0 -5 5 -10 11 -10 5 0 7 5 4 10 -3 6 -8 10 -11 10 -2 0
-4 -4 -4 -10z"/>
<path d="M5607 8660 c7 -25 22 -36 18 -13 -2 10 -4 21 -4 26 -1 4 -5 7 -10 7
-5 0 -7 -9 -4 -20z"/>
<path d="M5199 8653 c-13 -16 -12 -17 4 -4 9 7 17 15 17 17 0 8 -8 3 -21 -13z"/>
<path d="M5544 8654 c3 -9 6 -18 6 -20 0 -3 4 -3 10 1 11 7 2 35 -12 35 -6 0
-7 -7 -4 -16z"/>
<path d="M5336 8647 c3 -10 9 -15 12 -12 3 3 0 11 -7 18 -10 9 -11 8 -5 -6z"/>
<path d="M5460 8635 c-7 -9 -8 -15 -2 -15 5 0 12 7 16 15 3 8 4 15 2 15 -2 0
-9 -7 -16 -15z"/>
<path d="M5647 8639 c7 -7 15 -10 18 -7 3 3 -2 9 -12 12 -14 6 -15 5 -6 -5z"/>
<path d="M4925 8610 c-3 -6 1 -7 9 -4 18 7 21 14 7 14 -6 0 -13 -4 -16 -10z"/>
<path d="M5490 8610 c0 -5 5 -10 10 -10 6 0 10 5 10 10 0 6 -4 10 -10 10 -5 0
-10 -4 -10 -10z"/>
<path d="M5530 8610 c0 -5 5 -10 11 -10 5 0 7 5 4 10 -3 6 -8 10 -11 10 -2 0
-4 -4 -4 -10z"/>
<path d="M5363 8588 c3 -9 1 -19 -6 -22 -9 -3 -9 -5 0 -5 18 -1 23 13 11 29
-8 12 -9 12 -5 -2z"/>
<path d="M5570 8590 c0 -5 4 -10 9 -10 6 0 13 5 16 10 3 6 -1 10 -9 10 -9 0
-16 -4 -16 -10z"/>
<path d="M5403 8579 c9 -6 15 -14 12 -20 -4 -5 -1 -9 4 -9 17 0 13 27 -5 34
-24 9 -31 7 -11 -5z"/>
<path d="M5180 8560 c0 -5 7 -10 16 -10 8 0 12 5 9 10 -3 6 -10 10 -16 10 -5
0 -9 -4 -9 -10z"/>
<path d="M5170 8532 c6 -13 14 -21 18 -18 3 4 -2 14 -12 24 -18 16 -18 16 -6
-6z"/>
<path d="M5151 8514 c0 -11 3 -14 6 -6 3 7 2 16 -1 19 -3 4 -6 -2 -5 -13z"/>
<path d="M5139 8468 c-6 -21 -5 -38 2 -38 5 0 9 9 9 20 0 16 -7 28 -11 18z"/>
<path d="M5132 8400 c0 -14 2 -19 5 -12 2 6 2 18 0 25 -3 6 -5 1 -5 -13z"/>
<path d="M5121 8314 c0 -11 3 -14 6 -6 3 7 2 16 -1 19 -3 4 -6 -2 -5 -13z"/>
<path d="M5230 8290 c-13 -8 -12 -10 3 -10 9 0 17 5 17 10 0 12 -1 12 -20 0z"/>
<path d="M5171 8224 c0 -11 3 -14 6 -6 3 7 2 16 -1 19 -3 4 -6 -2 -5 -13z"/>
<path d="M5582 8224 c10 -10 20 -16 22 -13 3 3 -5 11 -17 18 -21 13 -21 12 -5
-5z"/>
<path d="M5410 8190 c0 -5 5 -10 10 -10 6 0 10 5 10 10 0 6 -4 10 -10 10 -5 0
-10 -4 -10 -10z"/>
<path d="M5137 8133 c3 -10 10 -23 15 -29 4 -6 6 -20 3 -30 -3 -11 0 -8 7 5
10 19 10 25 0 29 -6 2 -12 10 -12 17 0 8 -4 17 -10 20 -6 4 -7 -1 -3 -12z"/>
<path d="M5070 7960 c0 -5 5 -10 11 -10 5 0 7 5 4 10 -3 6 -8 10 -11 10 -2 0
-4 -4 -4 -10z"/>
<path d="M4970 7943 c0 -15 18 -35 23 -27 3 5 -1 15 -9 22 -8 7 -14 9 -14 5z"/>
<path d="M5571 7903 c-1 -6 -4 -20 -7 -30 -5 -17 -5 -17 6 0 6 10 9 23 6 30
-3 9 -5 9 -5 0z"/>
<path d="M5118 7875 c-4 -4 -4 -13 -1 -21 3 -8 0 -14 -6 -14 -6 0 -11 -5 -11
-12 0 -8 6 -7 16 4 9 8 14 23 12 33 -1 9 -6 14 -10 10z"/>
<path d="M5526 7825 c-3 -8 -1 -15 4 -15 6 0 10 7 10 15 0 8 -2 15 -4 15 -2 0
-6 -7 -10 -15z"/>
<path d="M6060 7926 c0 -8 4 -17 9 -20 5 -4 7 3 4 14 -6 23 -13 26 -13 6z"/>
<path d="M5940 7900 c0 -5 5 -10 11 -10 5 0 7 5 4 10 -3 6 -8 10 -11 10 -2 0
-4 -4 -4 -10z"/>
<path d="M6155 7769 c-4 -6 -5 -12 -2 -15 2 -3 7 2 10 11 7 17 1 20 -8 4z"/>
<path d="M4047 7833 c-4 -3 -7 -11 -7 -17 0 -6 5 -5 12 2 6 6 9 14 7 17 -3 3
-9 2 -12 -2z"/>
<path d="M4260 7590 c0 -5 5 -10 10 -10 6 0 10 5 10 10 0 6 -4 10 -10 10 -5 0
-10 -4 -10 -10z"/>
<path d="M4065 7430 c4 -6 11 -8 16 -5 14 9 11 15 -7 15 -8 0 -12 -5 -9 -10z"/>
<path d="M635 7530 c3 -5 8 -10 11 -10 2 0 4 5 4 10 0 6 -5 10 -11 10 -5 0 -7
-4 -4 -10z"/>
<path d="M604 7521 c7 -11 46 -35 46 -28 0 3 -12 12 -26 22 -15 9 -23 12 -20
6z"/>
<path d="M1050 7600 c-8 -5 -12 -12 -9 -15 4 -3 12 1 19 10 14 17 11 19 -10 5z"/>
<path d="M1050 7551 c0 -6 4 -13 10 -16 6 -3 7 1 4 9 -7 18 -14 21 -14 7z"/>
<path d="M980 7500 c0 -5 11 -12 25 -16 14 -3 34 -19 46 -35 11 -16 25 -29 31
-29 6 0 -1 12 -16 27 -15 14 -25 32 -22 38 3 8 -4 10 -20 7 -14 -2 -24 0 -24
7 0 6 -4 11 -10 11 -5 0 -10 -4 -10 -10z"/>
<path d="M2372 7508 c3 -55 6 -63 23 -64 41 -1 75 18 82 44 3 15 11 30 17 34
8 5 7 8 -1 8 -7 0 -22 9 -33 20 -12 12 -33 20 -55 20 l-36 0 3 -62z"/>
<path d="M2525 7530 c3 -5 8 -10 11 -10 2 0 4 5 4 10 0 6 -5 10 -11 10 -5 0
-7 -4 -4 -10z"/>
<path d="M3390 7560 c-9 -6 -10 -10 -3 -10 6 0 15 5 18 10 8 12 4 12 -15 0z"/>
<path d="M3360 7526 c0 -2 8 -10 18 -17 15 -13 16 -12 3 4 -13 16 -21 21 -21
13z"/>
<path d="M3388 7476 c-25 -19 -22 -26 10 -25 17 1 21 3 9 6 -14 4 -16 8 -6 19
14 17 9 17 -13 0z"/>
<path d="M3800 7613 c0 -4 5 -15 10 -23 8 -13 10 -13 10 2 0 9 -4 20 -10 23
-5 3 -10 3 -10 -2z"/>
<path d="M4585 7580 c3 -5 -2 -10 -13 -10 -15 0 -18 -6 -14 -32 5 -30 3 -32
-12 -19 -9 7 -16 9 -16 3 0 -5 7 -12 15 -16 9 -3 15 -18 15 -35 0 -26 3 -29
34 -29 23 0 42 8 57 24 12 13 26 21 30 18 5 -3 -1 14 -14 38 -14 28 -30 44
-45 46 -12 2 -22 8 -22 13 0 5 -5 9 -11 9 -5 0 -7 -4 -4 -10z"/>
<path d="M4994 7556 c-8 -14 -23 -27 -32 -29 -15 -4 -15 -5 1 -6 11 -1 17 -9
17 -24 0 -13 9 -32 20 -42 34 -31 110 -16 110 21 0 14 22 38 47 52 10 6 13 14
8 22 -6 9 -12 7 -25 -10 l-18 -23 -12 24 c-17 32 -29 39 -67 39 -24 0 -37 -7
-49 -24z"/>
<path d="M4930 7539 c0 -5 5 -7 10 -4 6 3 10 8 10 11 0 2 -4 4 -10 4 -5 0 -10
-5 -10 -11z"/>
<path d="M5131 7444 c0 -11 3 -14 6 -6 3 7 2 16 -1 19 -3 4 -6 -2 -5 -13z"/>
<path d="M5600 7560 c-8 -5 -12 -12 -9 -15 4 -3 12 1 19 10 14 17 11 19 -10 5z"/>
<path d="M6890 3783 c-24 -12 -24 -13 -3 -13 12 0 25 5 28 11 11 16 2 17 -25
2z"/>
<path d="M6850 3718 l0 -43 19 35 c20 37 19 50 -5 50 -10 0 -14 -12 -14 -42z"/>
<path d="M6907 3663 c-4 -3 -7 -11 -7 -17 0 -6 5 -5 12 2 6 6 9 14 7 17 -3 3
-9 2 -12 -2z"/>
<path d="M7020 3819 c0 -5 5 -7 10 -4 6 3 10 8 10 11 0 2 -4 4 -10 4 -5 0 -10
-5 -10 -11z"/>
<path d="M6491 3664 c-7 -8 -11 -17 -8 -20 8 -9 37 8 37 22 0 18 -11 17 -29
-2z"/>
<path d="M6500 3620 c-8 -5 -10 -10 -5 -10 6 0 17 5 25 10 8 5 11 10 5 10 -5
0 -17 -5 -25 -10z"/>
<path d="M2410 3103 c0 -21 3 -24 9 -14 5 8 7 20 4 28 -8 21 -13 15 -13 -14z"/>
<path d="M2382 2820 c0 -14 2 -19 5 -12 2 6 2 18 0 25 -3 6 -5 1 -5 -13z"/>
<path d="M1810 3346 c0 -2 7 -6 15 -10 8 -3 15 -1 15 4 0 6 -7 10 -15 10 -8 0
-15 -2 -15 -4z"/>
<path d="M1525 2530 c-3 -5 -1 -10 4 -10 6 0 11 5 11 10 0 6 -2 10 -4 10 -3 0
-8 -4 -11 -10z"/>
<path d="M2160 2500 c0 -5 5 -10 11 -10 5 0 7 5 4 10 -3 6 -8 10 -11 10 -2 0
-4 -4 -4 -10z"/>
<path d="M1981 2384 c0 -11 3 -14 6 -6 3 7 2 16 -1 19 -3 4 -6 -2 -5 -13z"/>
<path d="M1366 2355 c-3 -8 -1 -15 4 -15 13 0 22 18 11 24 -5 3 -11 -1 -15 -9z"/>
<path d="M1491 2334 c0 -11 3 -14 6 -6 3 7 2 16 -1 19 -3 4 -6 -2 -5 -13z"/>
<path d="M1366 2305 c-3 -8 -1 -15 4 -15 6 0 10 7 10 15 0 8 -2 15 -4 15 -2 0
-6 -7 -10 -15z"/>
<path d="M1535 2070 c3 -5 8 -10 11 -10 2 0 4 5 4 10 0 6 -5 10 -11 10 -5 0
-7 -4 -4 -10z"/>
<path d="M1720 1920 c0 -5 5 -10 11 -10 5 0 7 5 4 10 -3 6 -8 10 -11 10 -2 0
-4 -4 -4 -10z"/>
<path d="M3560 3179 c0 -5 5 -7 10 -4 6 3 10 8 10 11 0 2 -4 4 -10 4 -5 0 -10
-5 -10 -11z"/>
<path d="M3720 2850 c-25 -22 -40 -40 -34 -40 6 0 19 10 30 21 10 12 33 30 49
40 17 11 23 19 15 19 -8 0 -35 -18 -60 -40z"/>
<path d="M3352 2339 c-14 -23 -7 -62 11 -56 13 4 22 77 10 77 -5 0 -14 -9 -21
-21z"/>
<path d="M6110 3200 c-8 -5 -12 -11 -9 -14 2 -3 11 -1 19 4 8 5 12 11 9 14 -2
3 -11 1 -19 -4z"/>
<path d="M5970 3180 c0 -5 4 -10 9 -10 6 0 13 5 16 10 3 6 -1 10 -9 10 -9 0
-16 -4 -16 -10z"/>
<path d="M4868 3108 c9 -9 15 -9 24 0 9 9 7 12 -12 12 -19 0 -21 -3 -12 -12z"/>
<path d="M4975 3080 c3 -5 8 -10 11 -10 2 0 4 5 4 10 0 6 -5 10 -11 10 -5 0
-7 -4 -4 -10z"/>
<path d="M5340 2999 c0 -5 5 -7 10 -4 6 3 10 8 10 11 0 2 -4 4 -10 4 -5 0 -10
-5 -10 -11z"/>
<path d="M4983 2890 c-4 -15 -14 -20 -39 -20 -35 0 -61 -28 -50 -56 3 -8 1
-14 -5 -14 -6 0 -7 -5 -4 -10 4 -6 11 -8 16 -5 16 11 22 -25 6 -43 -8 -9 -18
-27 -21 -39 -5 -15 -12 -20 -24 -17 -11 4 -13 3 -5 -3 8 -6 9 -21 3 -53 -5
-25 -9 -81 -10 -126 0 -73 2 -83 25 -104 14 -13 25 -29 25 -35 0 -6 11 -22 25
-35 l25 -23 0 21 c0 26 8 27 34 7 17 -13 18 -15 3 -15 -20 0 -21 -4 -7 -30 13
-25 44 -15 37 11 -3 11 -1 22 4 25 5 3 9 -9 9 -25 0 -17 5 -31 10 -31 6 0 10
7 10 16 0 8 5 12 10 9 6 -3 10 -1 10 4 0 6 -4 11 -10 11 -5 0 -10 11 -10 25 0
30 20 33 27 5 3 -11 9 -20 14 -20 13 0 11 24 -3 39 -11 11 -10 13 5 8 12 -5
17 -1 17 12 0 10 8 36 17 57 13 29 16 61 14 128 -3 87 -13 123 -39 139 -9 6
-9 13 -2 27 13 24 13 80 0 80 -5 0 -10 -4 -10 -10 0 -5 -5 -10 -11 -10 -7 0
-9 10 -5 24 3 14 1 28 -4 31 -6 4 -8 10 -5 15 3 5 1 19 -5 30 -15 28 -70 28
-77 0z"/>
<path d="M4655 2800 c-4 -11 -3 -56 1 -98 6 -66 8 -73 16 -47 8 30 4 152 -5
161 -3 3 -8 -4 -12 -16z"/>
<path d="M5257 2503 c-4 -3 -7 -11 -7 -17 0 -6 5 -5 12 2 6 6 9 14 7 17 -3 3
-9 2 -12 -2z"/>
<path d="M5571 2424 c0 -11 3 -14 6 -6 3 7 2 16 -1 19 -3 4 -6 -2 -5 -13z"/>
<path d="M4770 2281 c0 -5 5 -13 10 -16 6 -3 10 -2 10 4 0 5 -4 13 -10 16 -5
3 -10 2 -10 -4z"/>
<path d="M4826 2215 c4 -8 11 -15 16 -15 6 0 5 6 -2 15 -7 8 -14 15 -16 15 -2
0 -1 -7 2 -15z"/>
<path d="M3021 2869 c-37 -28 -38 -30 -30 -71 4 -25 4 -47 -2 -52 -14 -15 -11
-78 4 -73 6 2 13 9 13 15 3 24 4 26 15 15 8 -8 8 -17 -1 -33 -10 -19 -9 -24 9
-37 12 -8 28 -27 36 -43 21 -41 51 -47 78 -18 27 29 57 92 57 118 0 10 4 21 8
24 11 7 -19 131 -36 148 -7 7 -35 18 -62 24 -48 11 -52 10 -89 -17z"/>
<path d="M3000 2603 c0 -20 46 -70 55 -61 8 8 -28 71 -43 76 -7 2 -12 -5 -12
-15z"/>
<path d="M4555 2710 c3 -5 8 -10 11 -10 2 0 4 5 4 10 0 6 -5 10 -11 10 -5 0
-7 -4 -4 -10z"/>
<path d="M4365 2700 c-4 -6 -2 -17 4 -23 15 -15 25 -2 13 19 -7 12 -11 13 -17
4z"/>
<path d="M4604 2547 c3 -10 6 -23 6 -28 0 -5 5 -9 10 -9 14 0 12 13 -6 36 -14
17 -15 17 -10 1z"/>
<path d="M4615 2390 c3 -5 8 -10 11 -10 2 0 4 5 4 10 0 6 -5 10 -11 10 -5 0
-7 -4 -4 -10z"/>
<path d="M3106 1205 c-10 -28 -7 -45 9 -45 16 0 20 27 6 48 -7 11 -10 10 -15
-3z"/>
<path d="M4374 1216 c-9 -37 -1 -78 19 -90 14 -8 20 -8 27 4 11 17 13 70 4 94
-10 25 -43 19 -50 -8z"/>
<path d="M4666 1224 c-11 -29 -6 -81 9 -94 22 -18 45 5 45 45 0 46 -9 65 -30
65 -10 0 -21 -7 -24 -16z"/>
<path d="M3609 956 c-24 -52 17 -109 61 -86 25 14 34 48 21 83 -14 37 -66 39
-82 3z"/>
<path d="M4601 974 c-42 -30 -20 -104 30 -104 23 0 32 6 40 27 21 56 -26 108
-70 77z"/>
<path d="M3235 937 c-9 -32 -5 -39 15 -27 11 7 11 14 3 32 l-11 23 -7 -28z"/>
<path d="M4016 938 c-8 -33 -8 -36 9 -34 9 1 15 5 15 9 0 4 0 16 0 27 0 27
-16 25 -24 -2z"/>
<path d="M4404 963 c2 -13 12 -18 32 -18 19 0 30 6 32 18 3 13 -4 17 -31 17
-28 0 -35 -4 -33 -17z"/>
<path d="M4407 913 c-3 -5 -1 -18 4 -31 7 -18 14 -22 31 -17 35 11 43 22 28
40 -13 15 -55 21 -63 8z"/>
<path d="M3091 711 c-26 -48 -3 -105 39 -99 36 5 55 49 38 86 -17 35 -62 43
-77 13z"/>
<path d="M2380 325 c0 -18 5 -25 20 -25 15 0 20 7 20 25 0 18 -5 25 -20 25
-15 0 -20 -7 -20 -25z"/>
<path d="M3494 335 c-4 -9 -2 -21 4 -27 15 -15 44 -1 40 19 -4 23 -36 29 -44
8z"/>
<path d="M4290 340 c0 -5 7 -10 15 -10 8 0 15 5 15 10 0 6 -7 10 -15 10 -8 0
-15 -4 -15 -10z"/>
<path d="M4654 335 c-7 -18 3 -35 21 -35 15 0 24 19 18 38 -6 17 -32 15 -39
-3z"/>
<path d="M5184 335 c-4 -9 -2 -21 4 -27 15 -15 44 -1 40 19 -4 23 -36 29 -44
8z"/>
</g>
</svg>
