<?xml version="1.0" standalone="no"?>
<!DOCTYPE svg PUBLIC "-//W3C//DTD SVG 20010904//EN"
 "http://www.w3.org/TR/2001/REC-SVG-20010904/DTD/svg10.dtd">
<svg version="1.0" xmlns="http://www.w3.org/2000/svg"
 width="300.000000pt" height="460.000000pt" viewBox="0 0 300.000000 460.000000"
 preserveAspectRatio="xMidYMid meet">

<g transform="translate(0.000000,460.000000) scale(0.100000,-0.100000)"
fill="#000000" stroke="none">
<path d="M0 4574 c0 -15 23 -61 55 -108 l55 -82 0 -246 c0 -140 -4 -249 -9
-253 -5 -3 -12 3 -14 12 -4 17 -5 17 -6 1 -1 -22 -19 -24 -27 -3 -7 18 -34 20
-34 3 0 -9 -3 -8 -10 2 -6 10 -9 -156 -10 -457 0 -371 2 -472 12 -476 10 -4
10 -6 0 -6 -10 -1 -10 -4 0 -15 7 -8 16 -12 20 -9 4 2 5 -3 2 -11 -3 -9 -12
-16 -18 -16 -9 0 -14 -21 -15 -65 -1 -44 2 -65 10 -65 8 0 8 -4 -1 -15 -8 -10
-9 -15 -1 -15 6 0 13 11 17 23 4 19 11 23 30 19 13 -2 24 -9 25 -16 0 -6 5 0
10 13 5 13 7 32 4 42 -4 11 -2 19 4 19 7 0 11 -27 11 -69 0 -52 -4 -74 -17
-87 -14 -13 -18 -14 -21 -3 -7 27 -26 59 -34 59 -5 0 -6 -5 -2 -11 4 -7 0 -9
-14 -5 l-21 7 -1 -361 c0 -347 0 -361 18 -358 11 2 26 -3 36 -11 15 -12 16
-12 10 5 -4 10 -4 16 1 12 4 -4 16 -3 25 2 17 9 18 4 17 -56 0 -45 -5 -68 -14
-71 -17 -6 -17 -45 0 -62 10 -11 9 -13 -1 -7 -6 4 -12 2 -12 -4 0 -6 7 -13 15
-16 25 -10 18 -62 -11 -87 l-26 -22 24 -20 23 -20 -17 21 c-14 16 -15 23 -6
32 24 24 29 10 26 -64 l-3 -76 -53 -27 -52 -26 1 -461 c1 -443 2 -461 20 -472
16 -10 21 -10 25 3 4 8 10 15 15 15 4 0 6 -7 3 -15 -6 -14 -41 -31 -56 -27 -4
1 -5 -5 -1 -14 5 -13 7 -13 14 -2 5 8 9 9 9 2 0 -6 -7 -17 -15 -24 -17 -14
-21 -80 -5 -80 13 0 24 46 14 61 -4 8 -3 9 4 5 16 -10 15 -38 -2 -71 -8 -15
-12 -34 -9 -43 4 -9 2 -13 -4 -9 -6 4 -10 -14 -10 -51 0 -31 2 -50 5 -42 3 8
13 25 22 37 14 18 19 20 23 8 4 -8 2 -17 -4 -21 -6 -3 -8 -12 -5 -20 3 -9 -4
-16 -19 -20 l-25 -6 0 -139 0 -139 360 0 c273 0 360 3 360 12 0 9 3 9 12 0 9
-9 94 -12 320 -12 l308 0 0 22 c0 19 2 20 17 6 39 -33 71 -23 64 20 -1 7 5 15
14 18 8 3 15 13 15 21 0 9 6 13 15 10 8 -4 17 -2 20 3 4 6 35 10 70 10 l64 0
-1 -38 c-1 -20 -6 -40 -12 -44 -31 -22 38 -28 329 -28 l310 1 12 24 c7 17 8
23 0 18 -6 -4 -8 0 -4 10 6 16 -3 22 -26 18 -5 -1 -6 3 -2 9 3 5 1 10 -5 10
-6 0 -8 4 -5 10 9 14 21 12 40 -6 15 -15 17 -15 34 0 33 30 53 14 44 -37 -4
-19 -13 -28 -34 -32 -84 -19 -1 -25 326 -25 l355 0 0 24 c0 13 -9 35 -20 49
-11 14 -20 30 -20 35 0 5 -7 16 -17 23 -34 29 -53 92 -52 181 0 46 5 91 10 99
8 10 8 7 4 -10 -5 -15 -3 -21 3 -17 6 4 15 -1 20 -10 8 -14 10 -9 14 20 3 27
1 35 -9 32 -8 -3 -13 2 -13 14 0 10 -5 22 -11 26 -6 3 -9 19 -7 35 3 16 1 29
-4 29 -4 0 -8 73 -8 163 l0 162 50 -52 c27 -29 52 -53 55 -53 3 0 5 174 5 388
l0 387 -55 29 -55 28 0 230 c0 128 4 227 9 224 5 -3 29 -8 55 -11 l46 -6 0
320 c0 208 -4 322 -10 326 -6 4 -24 3 -42 0 -19 -5 -26 -10 -19 -14 9 -6 8
-11 -3 -20 -8 -7 -19 -10 -24 -7 -13 8 -16 213 -3 220 5 3 7 -2 4 -13 -5 -21
12 -37 22 -21 3 5 1 10 -4 10 -6 0 -11 5 -11 11 0 5 6 7 13 4 6 -4 2 2 -10 13
-20 18 -23 30 -23 96 0 41 4 77 8 80 5 3 22 7 38 10 16 3 30 10 32 16 2 5 10
10 18 10 12 0 14 60 14 390 0 215 -3 390 -7 390 -4 0 -29 -23 -55 -52 l-47
-52 0 87 c0 62 4 91 15 101 8 8 14 24 14 35 0 11 4 23 10 26 6 4 7 -1 3 -12
-5 -14 0 -12 21 7 22 20 24 26 12 28 -10 2 -13 8 -9 15 4 7 8 15 9 20 1 4 2 8
4 10 1 1 3 10 5 20 2 13 -1 17 -11 13 -8 -3 -14 -1 -14 4 0 6 6 10 13 10 6 0
18 4 26 9 12 8 12 12 0 27 -8 11 -21 20 -29 22 -8 2 -20 10 -26 18 -6 7 -17
14 -25 14 -12 0 -12 2 0 9 7 5 10 14 7 20 -4 6 0 11 8 11 9 0 16 -4 16 -10 0
-5 8 -10 17 -10 15 0 14 -2 -3 -14 -21 -16 -22 -14 30 -30 12 -4 15 21 15 152
0 86 -4 164 -9 172 -8 13 -10 12 -10 -2 0 -10 -5 -18 -10 -18 -7 0 -7 6 0 20
6 11 14 20 18 20 5 0 9 20 11 45 l2 45 -304 0 -304 0 -12 -27 c-12 -25 -14
-26 -25 -11 -7 10 -16 15 -19 11 -4 -3 -7 1 -7 10 0 16 -34 17 -415 17 -347 0
-414 -2 -409 -14 3 -7 -2 -16 -12 -20 -12 -4 -15 -2 -11 9 8 20 -9 28 -34 14
-13 -7 -19 -7 -15 -1 4 8 -73 11 -245 12 l-252 0 6 -32 c4 -18 9 -43 13 -55 5
-20 3 -23 -21 -23 -26 0 -27 2 -22 40 3 22 1 40 -4 40 -4 0 -6 7 -3 15 5 11 0
13 -23 6 -17 -5 -36 -5 -45 0 -16 9 -144 5 -169 -6 -10 -3 -20 -2 -24 4 -4 8
-110 11 -326 11 l-319 0 0 -26z m700 -6 c0 -6 3 -9 6 -5 4 3 20 -1 36 -9 16
-9 36 -13 43 -10 11 4 12 0 5 -19 -10 -27 -2 -33 18 -13 8 8 12 8 12 1 0 -17
-27 -23 -103 -22 -40 0 -65 3 -57 6 8 2 21 7 29 9 11 3 10 9 -3 29 -20 30 -20
45 -1 45 8 0 15 -5 15 -12z m932 -46 l-6 -27 -6 25 -7 25 -8 -27 c-9 -35 -25
-36 -25 -2 0 14 4 23 8 20 5 -3 15 4 22 14 17 24 29 9 22 -28z m-167 6 c20 3
24 1 19 -12 -7 -19 -6 -19 -39 -4 -14 6 -25 18 -25 27 1 14 2 14 10 0 6 -11
18 -15 35 -11z m1508 -387 c19 -2 4 -21 -16 -21 -14 0 -24 6 -24 14 0 7 7 12
16 11 9 -2 19 -4 24 -4z m-2923 -272 c0 -10 -27 -19 -34 -12 -12 12 -5 22 14
20 11 -1 20 -4 20 -8z m48 -20 c3 -12 2 -12 -6 0 -8 11 -10 11 -15 0 -4 -10
-6 -8 -6 4 -1 21 21 18 27 -4z m9 -51 c-3 -8 -6 -5 -6 6 -1 11 2 17 5 13 3 -3
4 -12 1 -19z m3 -38 c0 -5 -2 -10 -4 -10 -3 0 -8 5 -11 10 -3 6 -1 10 4 10 6
0 11 -4 11 -10z m934 -136 c12 -4 16 -20 16 -55 0 -32 4 -49 13 -49 30 -1 42
-21 48 -82 l6 -63 1 58 c1 31 4 57 6 57 27 0 36 -16 36 -69 0 -31 5 -63 11
-71 7 -11 9 2 7 48 -3 64 0 69 31 52 16 -8 19 -5 19 16 0 19 -3 22 -14 13 -11
-9 -14 -8 -14 4 0 21 37 32 55 17 11 -9 16 -39 17 -109 1 -59 3 -76 5 -43 2
29 7 52 11 50 4 -2 26 -12 50 -22 l42 -20 0 -57 c0 -48 4 -60 22 -73 29 -21
35 -13 13 20 -16 24 -30 94 -19 94 3 0 23 -9 45 -20 22 -12 44 -18 49 -15 5 3
12 0 16 -6 4 -8 3 -9 -4 -5 -8 5 -12 0 -12 -13 0 -12 -7 -21 -15 -21 -19 0
-19 -8 0 -54 17 -41 16 -58 -5 -67 -11 -5 -8 -10 12 -19 15 -7 35 -24 44 -37
10 -16 21 -22 31 -19 10 4 22 -2 30 -14 10 -14 21 -19 34 -15 10 4 19 3 19 -2
1 -19 29 -45 41 -37 9 5 8 9 -6 14 -18 6 -22 25 -28 131 -1 17 -7 25 -14 22
-8 -3 -13 -25 -13 -58 0 -30 -5 -57 -10 -60 -13 -8 -30 37 -30 81 0 19 -4 34
-10 34 -5 0 -10 -18 -10 -40 0 -41 -9 -50 -28 -27 -14 17 -21 257 -7 257 23
-2 160 -89 163 -104 4 -17 -24 -23 -30 -6 -2 6 -19 -3 -38 -20 -19 -17 -28
-28 -20 -23 24 12 40 12 65 1 27 -12 35 -34 35 -100 0 -27 5 -48 10 -48 6 0
10 25 10 55 0 30 2 55 5 55 3 0 24 -9 45 -20 48 -25 54 -59 15 -84 -14 -9 -25
-20 -25 -24 0 -7 83 -52 95 -52 2 0 -5 21 -15 46 -19 44 -26 84 -15 84 4 0 20
-7 36 -16 30 -15 31 -15 24 8 -14 43 -36 79 -45 73 -17 -10 -34 6 -19 17 8 6
10 11 4 14 -6 2 -9 24 -7 49 4 40 6 44 23 34 11 -5 19 -20 19 -34 0 -18 10
-31 33 -45 l32 -20 3 26 c2 14 -1 31 -7 38 -11 13 0 14 42 7 4 0 7 -23 7 -49
0 -43 3 -50 25 -60 36 -17 45 -15 45 8 0 18 3 19 20 10 15 -8 20 -21 20 -51 0
-33 -4 -41 -24 -49 -14 -5 -30 -18 -36 -30 -6 -11 -20 -20 -30 -20 -19 0 -20
-7 -20 -100 0 -55 -4 -100 -8 -100 -5 0 -33 13 -63 30 -59 32 -74 37 -63 18 4
-8 3 -10 -2 -5 -5 5 -9 13 -9 18 0 5 -27 25 -61 43 -53 30 -62 32 -79 20 -25
-19 -71 -18 -79 1 -3 8 -16 15 -28 15 -13 0 -29 9 -36 21 -8 12 -19 18 -30 15
-12 -4 -24 5 -39 29 -26 39 -27 45 -12 45 5 0 7 -5 3 -11 -4 -7 -1 -10 7 -7 7
2 22 -5 32 -16 13 -15 12 -11 -3 12 -12 18 -43 43 -69 56 -41 21 -49 22 -66
10 -10 -8 -30 -13 -44 -13 -17 1 -20 3 -8 6 19 5 21 12 8 32 -7 12 -13 12 -24
3 -11 -10 -16 -7 -26 15 -9 20 -15 23 -23 15 -17 -17 -25 -15 -31 8 -3 13 -11
18 -20 14 -10 -3 -20 3 -26 15 -9 16 -18 19 -44 16 -17 -3 -26 -3 -20 1 9 4 4
18 -18 50 -16 24 -31 44 -32 44 -2 0 -3 -10 -3 -22 0 -13 -1 -44 -2 -70 l-2
-48 -77 46 c-43 25 -79 47 -81 49 -8 8 20 45 33 45 9 0 31 10 50 23 l35 22 0
133 c0 72 2 132 4 132 2 0 11 -3 20 -6z m-34 -14 c0 -5 -5 -10 -11 -10 -5 0
-7 5 -4 10 3 6 8 10 11 10 2 0 4 -4 4 -10z m-7 -40 c3 -11 1 -18 -4 -14 -5 3
-9 12 -9 20 0 20 7 17 13 -6z m272 -438 c-8 -8 -25 10 -19 20 4 6 9 5 15 -3 4
-7 6 -15 4 -17z m-1166 -196 c-1 -23 -3 -49 -6 -59 -5 -17 -6 -17 -20 3 -10
15 -12 24 -4 34 6 7 8 24 6 37 -3 18 0 26 10 26 12 0 15 -11 14 -41z m-42 3
c2 -12 -1 -18 -7 -14 -5 3 -10 16 -10 27 0 26 13 16 17 -13z m1834 -95 c17 -8
29 -18 26 -20 -3 -3 -20 4 -38 15 -40 25 -31 28 12 5z m-446 -114 c-4 -14 -2
-20 9 -20 16 0 31 -34 21 -50 -4 -6 -15 -8 -26 -5 -11 4 -19 2 -19 -6 0 -8 -4
-8 -15 1 -14 11 -14 16 1 39 l17 26 -27 -24 c-37 -34 -33 -14 6 26 37 38 42
40 33 13z m-200 -11 c0 -8 -10 -14 -24 -14 -13 0 -26 -6 -29 -14 -3 -10 0 -12
12 -8 9 4 16 2 16 -4 0 -5 -7 -12 -15 -15 -15 -6 -21 -34 -7 -34 4 0 18 7 30
16 12 8 22 11 22 5 0 -5 2 -16 5 -23 5 -12 -23 -31 -97 -66 -11 -5 -10 112 1
142 13 33 86 46 86 15z m48 -30 c-5 -31 -2 -39 10 -39 13 0 27 -19 27 -36 0
-3 -12 -4 -27 -2 -25 3 -29 9 -37 49 -10 53 -3 81 18 73 10 -4 12 -16 9 -45z
m467 25 c0 -10 -7 -13 -25 -8 -15 4 -25 2 -25 -5 0 -6 7 -11 15 -11 8 0 15 -4
15 -10 0 -5 -7 -10 -15 -10 -8 0 -15 -7 -15 -16 0 -11 6 -14 21 -9 15 5 20 3
17 -6 -3 -8 -22 -15 -47 -17 l-42 -3 16 25 c11 17 15 35 10 55 -6 28 -4 30 27
33 40 4 48 1 48 -18z m-685 -1 c-4 -10 -10 -26 -12 -35 -3 -10 -10 -15 -15
-12 -5 3 -3 16 6 29 12 18 12 25 3 28 -6 3 -4 6 7 6 13 1 16 -3 11 -16z m68
-15 c-10 -20 -17 -56 -17 -90 l-1 -58 -34 0 -34 0 7 46 c5 43 4 46 -14 41 -11
-3 -18 -1 -14 4 8 13 42 11 46 -3 3 -7 10 -8 17 -3 11 6 8 11 -10 22 -15 9
-17 12 -5 9 12 -4 17 -2 13 6 -9 26 12 58 38 58 l26 0 -18 -32z m207 13 c-5
-11 -10 -29 -10 -41 0 -17 4 -20 21 -15 15 5 19 4 14 -4 -4 -7 -2 -18 4 -25 7
-8 10 -20 9 -27 -4 -19 92 -15 132 6 24 13 30 20 24 37 -4 14 -2 18 5 14 18
-12 12 16 -6 31 -17 13 -16 13 6 7 21 -5 23 -3 18 15 -3 14 0 21 9 21 7 0 16
-11 20 -25 5 -20 9 -23 20 -14 7 6 18 8 24 4 14 -9 13 8 -2 23 -9 9 -7 12 10
12 19 0 22 -6 22 -38 0 -26 -7 -45 -20 -57 -19 -18 -20 -17 -20 2 0 11 -3 22
-6 25 -11 11 -44 -32 -44 -56 0 -15 -12 -34 -31 -50 -39 -33 -47 -33 -41 2 3
20 2 24 -7 16 -7 -6 -13 -21 -14 -33 -2 -25 -22 -28 -37 -3 -10 15 -11 15 -6
0 4 -14 -1 -16 -31 -12 -19 2 -39 6 -43 9 -11 7 -50 138 -50 169 0 19 5 26 20
26 17 0 19 -3 10 -19z m493 -1 c6 -23 3 -24 -24 -10 -15 9 -19 7 -19 -6 0 -10
5 -14 15 -10 9 3 15 0 15 -9 0 -8 -7 -15 -15 -15 -27 0 -16 -29 13 -32 22 -2
28 -8 30 -35 l3 -32 -50 32 c-40 26 -48 36 -43 52 4 11 6 35 5 53 -1 30 1 32
32 32 24 0 34 -5 38 -20z m53 -12 c9 -18 18 -56 20 -85 4 -50 3 -53 -20 -53
-21 0 -24 5 -29 63 -3 34 -9 72 -13 85 -10 35 23 28 42 -10z m32 7 c-3 -3 -9
2 -12 12 -6 14 -5 15 5 6 7 -7 10 -15 7 -18z m16 -31 c3 -8 2 -12 -4 -9 -6 3
-10 10 -10 16 0 14 7 11 14 -7z m-921 -105 c-5 -18 -15 -34 -23 -37 -10 -2
-11 -1 -3 5 6 4 15 26 19 48 4 22 9 35 11 28 2 -6 0 -26 -4 -44z m919 34 c0
-4 9 -21 20 -38 17 -26 16 -25 -10 5 -17 19 -28 38 -25 43 6 9 15 3 15 -10z
m-986 -264 c3 -6 -10 -27 -30 -48 -20 -20 -36 -44 -36 -52 0 -8 15 -30 33 -48
l33 -34 97 2 c82 2 97 0 97 -13 0 -13 -14 -16 -78 -16 -47 0 -83 5 -90 12 -9
9 -12 9 -12 0 0 -17 -45 -15 -61 4 -11 14 -13 14 -21 0 -17 -31 -38 -18 -38
23 0 22 -6 44 -15 51 -14 12 -14 15 0 30 8 9 15 29 15 44 0 25 3 28 25 24 16
-3 30 1 41 13 19 22 30 24 40 8z m472 -32 l32 -33 -20 -19 -20 -18 20 -22 c19
-20 19 -23 5 -35 -13 -11 -20 -9 -40 10 l-25 23 0 -21 c0 -15 -6 -22 -20 -22
-18 0 -20 7 -20 62 0 50 4 66 22 85 12 13 24 23 28 23 3 0 21 -15 38 -33z
m191 -15 c7 -28 28 -68 51 -96 50 -60 53 -82 4 -30 l-36 39 6 -37 c3 -23 1
-38 -6 -38 -6 0 -9 20 -6 50 1 28 0 50 -3 50 -3 0 -11 11 -17 24 -13 29 -52
25 -52 -5 0 -11 -6 -19 -12 -19 -9 0 -10 -2 -2 -8 17 -11 23 -92 7 -92 -8 0
-12 13 -12 38 1 20 0 42 -2 47 -1 6 4 26 13 46 9 20 19 45 22 57 12 37 32 25
45 -26z m136 34 c16 -11 17 -16 6 -29 -10 -13 -9 -20 5 -42 19 -28 26 -125 9
-125 -5 0 -10 20 -10 45 0 25 4 45 9 45 5 0 -1 11 -14 25 -38 40 -50 33 -45
-27 2 -29 2 -44 -1 -33 -4 11 -10 25 -14 30 -5 6 -8 36 -8 68 1 52 3 57 22 57
12 0 31 -6 41 -14z m169 -1 c-4 -8 -11 -12 -16 -9 -6 4 -5 10 3 15 19 12 19
11 13 -6z m-79 -15 c-10 -11 -20 -18 -23 -15 -7 6 18 35 31 35 5 0 2 -9 -8
-20z m155 0 c0 -16 7 -20 30 -20 23 0 30 4 30 20 0 11 4 20 9 20 15 0 19 -113
4 -137 -8 -14 -9 -24 -3 -28 6 -3 10 -15 10 -26 0 -16 -5 -18 -32 -14 -36 7
-50 15 -25 15 10 0 17 8 17 18 0 25 -28 62 -48 62 -14 0 -17 10 -17 55 0 37 4
55 13 55 6 0 12 -9 12 -20z m-987 -62 c-15 -17 -15 -20 12 -48 l29 -30 -24 0
c-13 0 -34 10 -47 22 l-23 21 0 -23 c0 -21 -1 -22 -17 -7 -26 23 -22 81 7 112
l24 25 28 -27 c26 -25 27 -28 11 -45z m87 62 c0 -6 -7 -13 -15 -16 -8 -4 -12
-10 -9 -15 3 -6 -1 -21 -10 -34 -15 -23 -15 -25 9 -41 14 -9 25 -20 25 -25 0
-18 -35 -8 -62 18 -26 24 -27 28 -12 44 14 16 14 20 0 41 -9 14 -13 28 -9 31
10 11 83 8 83 -3z m74 -9 c13 -14 16 -34 14 -87 -2 -44 -7 -69 -16 -72 -7 -2
-12 0 -11 5 1 4 1 25 0 46 -1 44 -21 51 -21 7 0 -20 -5 -30 -15 -30 -10 0 -15
10 -15 30 0 16 -7 33 -16 38 -14 8 -14 10 0 21 9 8 16 24 16 37 0 18 5 24 23
24 13 0 32 -8 41 -19z m79 0 c-19 -16 -23 -29 -23 -75 0 -43 -3 -56 -15 -56
-12 0 -15 13 -15 57 0 38 -5 62 -17 75 -15 17 -14 18 38 18 l54 -1 -22 -18z
m77 -56 l0 -75 -45 0 -45 0 0 52 c0 59 27 98 67 98 22 0 23 -3 23 -75z m525
-1 c14 -9 36 -14 50 -12 13 3 22 1 19 -3 -3 -5 -12 -9 -20 -9 -11 0 -13 -6 -8
-22 8 -29 16 -36 21 -22 2 6 10 20 18 30 13 18 14 17 20 -11 3 -17 10 -38 16
-47 7 -15 5 -18 -12 -18 -15 0 -19 5 -15 18 3 9 1 24 -4 32 -8 13 -10 13 -10
-1 0 -9 -7 -22 -15 -29 -12 -10 -15 -7 -21 14 -3 14 -10 26 -15 26 -5 0 -9 5
-9 12 0 7 -12 22 -27 35 -32 26 -24 31 12 7z m-445 -99 c-17 -20 -224 -23
-218 -2 3 8 34 13 99 15 51 2 98 7 103 12 16 16 31 -7 16 -25z m460 10 c0 -14
-4 -25 -9 -25 -4 0 -6 11 -3 25 2 14 6 25 8 25 2 0 4 -11 4 -25z m-179 -149
c-9 -11 -8 -15 5 -20 24 -9 54 -7 54 4 0 6 4 10 10 10 5 0 7 -7 4 -15 -4 -8
-12 -15 -19 -15 -7 0 -19 -7 -26 -17 -13 -15 -12 -15 10 -3 21 10 23 10 18 -3
-3 -9 0 -14 10 -13 8 0 22 -10 31 -24 l16 -25 -22 19 c-30 26 -28 8 4 -25 l26
-27 -58 29 c-31 16 -63 34 -70 40 -11 9 -16 6 -23 -12 -5 -13 -7 -27 -4 -31 2
-5 -3 -18 -12 -30 -15 -21 -16 -21 -11 -3 3 11 8 34 12 50 7 28 6 29 -12 15
-18 -14 -18 -14 0 8 27 31 31 62 9 62 -11 0 -4 8 17 19 43 24 46 25 31 7z
m297 -27 c-7 -5 -13 -7 -13 -6 0 1 -9 13 -20 26 l-20 24 32 -18 c22 -13 29
-22 21 -26z m-122 -23 c9 -10 14 -29 11 -42 -2 -13 0 -24 4 -24 5 0 9 4 9 10
0 5 8 7 18 3 16 -6 15 -5 -1 15 -19 21 -30 82 -15 82 4 0 8 -4 8 -10 0 -5 12
-10 27 -10 14 0 23 -3 20 -7 -4 -3 -1 -13 6 -21 10 -13 9 -15 -4 -10 -9 3 -22
2 -30 -4 -11 -8 -11 -9 2 -5 16 5 39 -9 39 -25 0 -4 -6 -8 -13 -8 -7 0 -30 -9
-52 -20 -46 -23 -49 -24 -39 -8 12 18 14 59 3 53 -5 -4 -9 2 -9 12 0 14 -2 15
-9 4 -7 -11 -10 -9 -16 9 -9 29 -26 12 -18 -18 3 -14 11 -21 19 -18 10 4 14
-3 14 -24 0 -44 -15 -44 -30 0 -7 21 -19 41 -26 44 -16 6 -19 42 -5 50 5 4 7
-4 4 -16 -5 -23 -4 -22 16 2 11 14 21 30 21 35 0 6 7 1 16 -10 8 -11 21 -28
30 -39z m353 36 c-14 -2 -16 -11 -12 -45 7 -55 13 -60 14 -11 l2 39 7 -45 c4
-28 3 -48 -3 -52 -18 -11 -35 3 -36 30 0 15 0 38 -1 51 0 29 18 53 34 44 7 -5
5 -9 -5 -11z m-1719 -13 c0 -18 2 -19 15 -9 8 7 27 10 41 7 16 -3 28 0 31 9 4
12 42 16 44 4 6 -37 4 -47 -7 -43 -7 2 -10 11 -7 19 3 8 0 14 -7 14 -6 0 -9
-4 -6 -8 9 -15 -11 -33 -38 -36 -22 -3 -25 0 -21 15 5 14 2 17 -9 13 -9 -3
-16 -10 -16 -16 0 -5 -7 -8 -17 -6 -16 3 -27 58 -11 58 4 0 8 -10 8 -21z m245
11 c3 -5 2 -10 -4 -10 -5 0 -13 5 -16 10 -3 6 -2 10 4 10 5 0 13 -4 16 -10z
m548 -12 c27 1 29 0 14 -9 -9 -5 -26 -7 -37 -4 -12 4 -20 2 -20 -5 0 -6 5 -8
10 -5 14 8 13 2 -5 -31 -8 -16 -15 -24 -15 -19 -1 6 -2 29 -4 52 -2 36 0 40
12 31 8 -7 28 -11 45 -10z m1085 -16 c2 -18 8 -32 13 -32 6 0 8 -4 4 -10 -12
-20 -33 2 -30 30 2 16 0 32 -6 35 -5 4 -10 -13 -11 -37 -1 -38 -2 -39 -5 -10
-3 19 -2 41 1 49 10 24 31 9 34 -25z m45 -43 c-4 -4 -6 13 -3 39 l5 47 3 -39
c2 -21 0 -42 -5 -47z m187 71 c0 -5 -7 -7 -15 -4 -9 4 -15 0 -15 -10 0 -9 6
-16 13 -17 7 0 8 -2 1 -5 -6 -2 -9 -18 -6 -34 2 -16 8 -27 13 -24 5 3 9 1 9
-5 0 -17 -22 -24 -31 -10 -5 8 -9 35 -9 61 0 28 -5 48 -12 51 -7 2 2 4 20 5
17 0 32 -3 32 -8z m-2149 -29 c-7 -12 -17 -18 -26 -15 -12 5 -15 -2 -15 -31 0
-20 -4 -34 -9 -30 -11 6 -5 49 11 79 11 20 11 20 18 1 6 -17 7 -17 13 5 3 13
9 21 12 18 4 -3 2 -16 -4 -27z m639 14 c19 -10 31 -11 35 -4 4 6 12 3 21 -8
13 -17 13 -17 14 2 1 19 2 19 9 1 5 -14 0 -27 -23 -48 l-31 -30 -16 21 c-21
26 -26 26 -32 4 -3 -10 -4 0 -3 21 1 24 -4 41 -12 44 -10 3 -13 -7 -11 -43 3
-40 0 -49 -15 -51 -14 -2 -16 0 -7 9 16 16 15 80 -1 71 -9 -5 -9 -2 1 9 17 21
34 21 71 2z m-410 -4 c0 -5 -10 -11 -22 -14 -22 -6 -22 -6 -4 8 23 17 26 18
26 6z m660 -18 c0 -11 5 -9 20 8 16 20 21 22 29 9 6 -8 8 -17 5 -19 -3 -3 -9
1 -13 8 -10 15 -16 7 -25 -34 -5 -22 -4 -26 4 -15 5 8 10 11 10 5 0 -5 4 -4 9
3 11 18 61 23 61 6 0 -8 -6 -11 -15 -8 -9 4 -15 0 -15 -7 0 -11 -2 -11 -10 1
-8 13 -10 12 -15 -1 -8 -22 -37 -20 -43 3 -6 23 -22 24 -22 0 0 -25 -49 -22
-63 4 -8 16 -7 17 4 7 18 -18 49 -16 49 2 0 8 4 15 9 15 5 0 7 10 3 22 -3 14
-2 19 6 14 7 -4 12 -14 12 -23z m972 -13 c3 -16 3 -30 2 -30 -1 0 -9 -3 -18
-6 -13 -5 -16 1 -16 28 0 57 24 63 32 8z m135 -7 c-3 -10 -5 -2 -5 17 0 19 2
27 5 18 2 -10 2 -26 0 -35z m61 3 c-2 -15 -7 -28 -13 -29 -12 -2 -19 38 -10
60 9 25 27 1 23 -31z m-1684 23 c-16 -8 -20 -19 -19 -43 1 -19 6 -40 11 -47 7
-12 5 -12 -9 -1 -9 8 -25 11 -35 8 -16 -5 -19 -2 -19 19 0 15 4 24 11 22 6 -3
10 -10 9 -16 -2 -6 4 -11 12 -11 18 0 18 1 5 34 -7 20 -6 27 8 35 9 6 24 10
32 10 10 0 8 -4 -6 -10z m376 -26 c0 -23 -4 -33 -9 -27 -9 8 -4 64 5 64 2 0 4
-17 4 -37z m230 22 c0 -8 -4 -15 -10 -15 -5 0 -10 7 -10 15 0 8 5 15 10 15 6
0 10 -7 10 -15z m840 -9 c0 -33 -10 -57 -21 -50 -16 9 -11 74 6 74 9 0 15 -9
15 -24z m197 -38 c-2 -13 -4 -3 -4 22 0 25 2 35 4 23 2 -13 2 -33 0 -45z m80
56 c-3 -3 -12 -4 -19 -1 -8 3 -5 6 6 6 11 1 17 -2 13 -5z m-1073 -20 c8 -22 8
-26 -4 -19 -5 3 -10 -3 -10 -14 0 -12 -5 -21 -11 -21 -6 0 -8 7 -5 16 3 9 6
24 6 35 0 23 15 25 24 3z m22 -42 c-11 -10 -14 3 -8 33 l7 30 3 -28 c2 -16 1
-31 -2 -35z m481 51 c-4 -3 3 -18 15 -32 17 -18 18 -21 4 -11 -21 16 -21 16 0
-65 5 -18 3 -17 -14 4 -11 13 -17 33 -14 46 2 12 -1 26 -7 29 -12 8 -3 36 12
36 6 0 7 -3 4 -7z m-1117 -13 c0 -5 -5 -10 -11 -10 -5 0 -7 5 -4 10 3 6 8 10
11 10 2 0 4 -4 4 -10z m435 0 c-3 -5 -10 -10 -16 -10 -5 0 -9 5 -9 10 0 6 7
10 16 10 8 0 12 -4 9 -10z m1239 -23 c4 -19 3 -26 -4 -22 -5 3 -10 18 -10 32
0 32 5 28 14 -10z m-2163 -20 c-7 -7 -7 -15 1 -26 11 -14 10 -15 -5 -1 -15 14
-15 20 -5 43 9 19 14 22 16 11 2 -9 -1 -21 -7 -27z m299 33 c0 -5 -6 -10 -12
-10 -10 0 -9 -3 1 -9 7 -5 11 -13 7 -19 -13 -22 35 2 55 27 l21 26 -4 -24 c-6
-47 -148 -80 -219 -51 -16 7 -29 17 -29 22 0 6 -7 5 -15 -2 -16 -13 -20 -3 -7
17 6 10 12 10 28 -2 10 -8 33 -15 51 -15 17 0 34 -6 36 -12 3 -7 6 -3 6 9 1
17 -3 21 -16 16 -16 -6 -16 -5 -4 10 11 13 17 14 35 5 12 -7 16 -13 9 -15 -7
-3 -9 -11 -6 -19 4 -12 8 -11 19 5 8 11 14 24 13 28 -3 17 1 23 16 23 8 0 15
-4 15 -10z m497 -32 c-3 -7 -5 -2 -5 12 0 14 2 19 5 13 2 -7 2 -19 0 -25z
m-725 10 c-16 -16 13 -49 36 -41 14 5 15 3 5 -7 -10 -11 -15 -11 -27 -1 -8 7
-19 10 -24 7 -10 -6 -9 24 2 42 4 6 10 12 14 12 3 0 1 -5 -6 -12z m98 2 c0 -5
-8 -10 -17 -10 -15 0 -16 2 -3 10 19 12 20 12 20 0z m300 6 c0 -3 -4 -8 -10
-11 -5 -3 -10 -1 -10 4 0 6 5 11 10 11 6 0 10 -2 10 -4z m50 -10 c0 -3 -4 -8
-10 -11 -5 -3 -10 -1 -10 4 0 6 5 11 10 11 6 0 10 -2 10 -4z m-155 -36 c3 -5
1 -10 -4 -10 -6 0 -11 5 -11 10 0 6 2 10 4 10 3 0 8 -4 11 -10z m754 -6 c2 -2
-106 -3 -240 -2 -149 1 -211 4 -159 7 88 6 392 2 399 -5z m206 -44 c-4 -6 -1
-17 5 -25 10 -12 9 -15 -4 -15 -18 0 -22 -35 -6 -45 6 -3 10 1 10 9 0 8 9 20
20 26 11 6 20 8 20 4 0 -3 7 -1 15 6 10 9 15 9 15 1 0 -6 9 -11 20 -11 37 0
22 -29 -17 -33 -33 -3 -35 -5 -16 -11 19 -7 20 -10 8 -22 -19 -19 -25 -18 -25
5 0 25 -20 38 -30 21 -12 -20 -40 -3 -40 24 0 27 16 76 25 76 4 0 3 -5 0 -10z
m248 -21 c4 -16 2 -19 -11 -14 -11 4 -9 -2 7 -19 13 -13 20 -29 16 -35 -8 -14
-45 -14 -45 -1 0 6 -7 10 -15 10 -8 0 -15 7 -15 15 0 8 7 15 15 15 8 0 15 7
15 15 0 8 5 15 11 15 6 0 8 7 5 16 -3 8 -2 13 3 10 5 -3 11 -15 14 -27z m-86
-39 c-1 -11 -6 -20 -13 -20 -9 0 -12 31 -5 48 4 11 19 -12 18 -28z m462 -16
c3 -5 35 -9 70 -9 53 0 65 -3 69 -17 6 -26 15 -22 30 12 11 24 20 30 43 30 28
0 30 -2 27 -32 -3 -37 4 -34 -131 -43 -84 -6 -88 -5 -97 17 l-9 23 0 -22 c-1
-15 -7 -23 -18 -23 -13 0 -14 3 -6 11 19 19 4 36 -25 32 -22 -4 -24 -2 -12 7
13 10 13 11 0 7 -8 -2 -15 -12 -15 -22 0 -10 -5 -20 -11 -22 -7 -2 -10 11 -10
33 l1 36 44 -5 c24 -3 46 -9 50 -13z m-979 -34 c0 -6 -9 -2 -20 7 -11 10 -20
19 -20 21 0 1 9 -2 20 -8 11 -6 20 -15 20 -20z m-260 -5 c14 -19 14 -19 -2 -6
-10 7 -18 18 -18 24 0 6 1 8 3 6 1 -2 9 -13 17 -24z m96 -23 c-8 -7 -25 8 -37
31 -11 21 -10 21 15 -2 14 -14 24 -26 22 -29z m203 23 c5 2 14 -2 21 -10 11
-13 10 -14 -5 -9 -14 6 -16 4 -11 -7 4 -8 -2 -3 -13 11 -11 14 -21 30 -20 35
0 6 4 2 10 -8 6 -9 14 -15 18 -12z m81 9 c0 -8 4 -13 9 -10 5 3 14 -1 21 -9
14 -17 7 -19 -19 -5 -21 11 -36 40 -21 40 6 0 10 -7 10 -16z m47 10 c-3 -3
-12 -4 -19 -1 -8 3 -5 6 6 6 11 1 17 -2 13 -5z m387 -19 c4 -12 -4 -15 -42
-15 -34 0 -43 3 -32 10 13 8 12 10 -2 10 -10 0 -18 -4 -18 -10 0 -5 -7 -10
-15 -10 -13 0 -14 3 -3 15 18 20 104 20 112 0z m-860 -10 c3 3 2 0 -3 -6 -10
-12 -31 -4 -31 13 0 7 4 7 13 -1 8 -6 17 -9 21 -6z m194 -5 c7 -11 11 -20 9
-20 -2 0 -12 9 -22 20 -10 11 -14 20 -9 20 5 0 15 -9 22 -20z m47 -9 c-6 -5
-25 10 -25 20 0 5 6 4 14 -3 8 -7 12 -15 11 -17z m437 17 c-7 -7 -11 -26 -11
-42 2 -31 2 -31 6 -3 2 15 9 27 14 27 15 0 10 -56 -5 -70 -8 -6 -12 -19 -9
-28 5 -14 3 -15 -7 -5 -8 8 -13 33 -12 63 1 54 7 70 25 70 8 0 8 -3 -1 -12z
m227 -35 c-1 -42 -16 -101 -18 -70 -1 10 -7 20 -14 23 -15 5 -11 64 5 64 5 0
6 5 3 10 -3 6 1 10 9 10 12 0 16 -10 15 -37z m-168 8 c-8 -5 -12 -18 -8 -30 3
-12 1 -21 -4 -21 -5 0 -9 6 -9 14 0 8 -3 21 -6 30 -5 12 0 16 17 16 18 0 20
-3 10 -9z m49 -27 c0 -13 -4 -24 -10 -24 -5 0 -10 14 -10 31 0 17 4 28 10 24
6 -3 10 -17 10 -31z m57 1 c1 -20 0 -23 -4 -7 -6 31 -21 28 -26 -5 -3 -22 -4
-20 -6 10 -1 32 2 38 17 35 11 -2 18 -13 19 -33z m-300 -81 c-3 -3 -12 -4 -19
-1 -8 3 -5 6 6 6 11 1 17 -2 13 -5z m119 -80 c8 3 12 1 9 -4 -3 -5 -20 -14
-38 -19 -20 -6 -25 -9 -12 -10 11 0 26 3 34 8 21 14 51 1 57 -25 3 -13 10 -24
15 -24 5 0 8 -6 7 -12 -2 -7 2 -12 9 -11 7 2 10 -4 7 -12 -4 -8 -10 -15 -16
-15 -5 0 -6 5 -3 10 3 6 -1 10 -9 10 -9 0 -16 5 -16 10 0 6 -5 10 -11 10 -5 0
-7 -4 -4 -10 3 -5 2 -17 -3 -26 -8 -14 -10 -14 -21 0 -8 9 -19 16 -26 16 -8 0
-15 6 -17 12 -3 7 -8 -16 -11 -52 -9 -79 -32 -110 -66 -88 -12 7 -19 19 -16
26 3 7 0 10 -5 7 -5 -3 -21 14 -36 37 -22 34 -28 58 -31 111 -1 37 0 67 3 67
3 0 19 -7 37 -16 24 -13 32 -14 35 -4 3 9 7 9 13 -1 8 -11 12 -10 24 5 10 13
21 17 39 12 20 -5 26 -2 27 11 1 12 3 10 6 -5 3 -16 10 -22 19 -18z m-390 3
c21 -1 45 -6 52 -10 7 -5 12 -4 12 2 0 6 5 11 11 11 5 0 8 -4 5 -9 -3 -5 1
-11 9 -15 8 -3 15 0 15 7 0 7 5 4 11 -7 10 -17 12 -16 30 10 l19 29 0 -53 c0
-63 -18 -109 -67 -173 l-36 -48 -29 20 c-20 15 -28 29 -28 50 0 25 5 30 30 36
17 3 30 11 30 19 0 15 -6 19 -42 28 -27 6 -28 5 -28 -40 0 -31 -8 -59 -26 -90
-39 -66 -56 -56 -44 24 4 24 13 48 21 53 9 6 -1 7 -27 3 -24 -4 -44 -2 -48 4
-4 6 2 8 14 5 11 -3 20 0 20 6 0 10 -16 15 -47 14 -14 -1 -6 24 10 30 7 2 2 2
-11 0 -20 -3 -22 -1 -13 16 6 10 18 21 27 25 9 4 14 13 10 21 -3 8 -4 15 -2
15 3 0 13 3 23 7 16 6 16 5 4 -10 -19 -24 2 -21 23 2 11 12 15 25 10 33 -6 11
-5 11 8 0 8 -6 33 -13 54 -15z m-292 -53 c9 -3 16 -12 16 -20 0 -8 5 -14 10
-14 6 0 10 -5 10 -10 0 -6 -13 -1 -30 12 -39 28 -42 46 -6 32z m2 -98 c-4 -21
-1 -39 10 -54 17 -25 40 -29 42 -7 1 8 3 22 4 30 1 8 8 15 15 15 8 0 11 -5 7
-12 -5 -8 -2 -9 10 -5 14 6 16 3 11 -13 -5 -15 2 -27 24 -46 17 -14 31 -32 31
-39 0 -7 4 -15 9 -17 4 -1 12 -14 16 -27 6 -19 4 -23 -9 -18 -8 3 -18 2 -21
-3 -11 -17 -25 -11 -25 10 0 23 -27 24 -45 4 -17 -20 -52 -26 -67 -11 -7 7
-19 12 -26 9 -9 -3 -12 13 -12 57 0 33 -4 63 -10 66 -6 4 -10 -11 -11 -37 0
-24 -4 -52 -8 -62 -7 -17 -9 -17 -29 9 -29 36 -30 69 -2 60 16 -5 20 -2 19 17
0 13 -4 32 -8 43 -10 25 -3 45 16 45 9 0 12 -6 8 -19 -3 -12 0 -21 10 -25 21
-8 32 21 17 45 -16 26 -15 28 9 22 17 -5 20 -11 15 -37z m478 -133 c4 -61 3
-104 -4 -113 -20 -30 -31 11 -26 95 3 44 6 103 7 130 1 46 2 47 9 18 4 -18 10
-77 14 -130z m184 95 c0 -30 -1 -31 -9 -10 -5 13 -7 28 -3 33 9 15 11 11 12
-23z m-61 -187 l35 -41 -31 0 c-27 0 -34 6 -55 48 -13 26 -29 67 -36 90 -6 24
-13 51 -16 60 -3 9 11 -13 31 -50 20 -36 52 -85 72 -107z m-183 122 c-3 -16
-20 -58 -37 -95 -27 -61 -33 -68 -58 -68 l-28 0 54 75 c30 42 57 84 60 95 9
30 16 24 9 -7z m294 -23 c0 -22 -3 -42 -7 -44 -4 -3 -6 8 -5 22 1 15 3 35 3
45 2 35 10 15 9 -23z m-385 4 c-4 -10 -9 -12 -15 -6 -12 12 -1 35 12 27 5 -3
6 -13 3 -21z m369 -114 c6 0 4 8 -5 18 -10 10 -14 21 -11 24 3 3 0 9 -7 14 -8
4 -10 3 -5 -4 4 -7 3 -12 -3 -12 -5 0 -13 5 -16 10 -3 6 -1 10 6 10 6 0 9 8 6
20 -7 29 0 25 18 -10 8 -16 19 -29 23 -27 4 1 9 -2 10 -8 2 -5 8 -18 14 -29 7
-14 7 -17 -2 -11 -9 5 -10 2 -6 -13 17 -53 -78 24 -150 122 -20 27 -6 17 44
-32 40 -40 78 -72 84 -72z m-512 114 c0 -8 -4 -12 -10 -9 -5 3 -10 10 -10 16
0 5 5 9 10 9 6 0 10 -7 10 -16z m171 -11 c-41 -58 -118 -133 -135 -133 -13 0
-3 13 32 41 28 23 65 59 82 80 35 45 51 53 21 12z m269 16 c0 -15 -18 -19 -23
-6 -3 8 1 14 9 14 8 0 14 -4 14 -8z m20 -21 c0 -21 -3 -29 -10 -22 -5 5 -7 19
-4 32 9 31 14 27 14 -10z m-347 2 c3 -11 1 -23 -4 -26 -5 -3 -9 6 -9 20 0 31
6 34 13 6z m-42 -33 c-10 -9 -11 -8 -5 6 3 10 9 15 12 12 3 -3 0 -11 -7 -18z
m189 -77 c0 -5 -7 -10 -16 -10 -8 0 -12 5 -9 10 3 6 10 10 16 10 5 0 9 -4 9
-10z m60 0 c0 -5 -4 -10 -10 -10 -5 0 -10 5 -10 10 0 6 5 10 10 10 6 0 10 -4
10 -10z m-812 -363 c2 -10 -5 -25 -15 -32 -17 -13 -17 -14 0 -15 37 0 15 -20
-23 -20 -48 0 -51 14 -10 38 36 21 39 36 5 28 -19 -5 -25 -2 -25 9 0 24 64 16
68 -8z m109 7 c2 -7 -8 -9 -27 -6 -18 3 -30 0 -30 -7 0 -6 14 -11 31 -11 26 0
30 -3 27 -22 -2 -19 -9 -23 -38 -23 -31 0 -35 3 -38 28 -5 46 4 59 40 55 17
-2 33 -8 35 -14z m169 -8 c11 -45 2 -61 -39 -64 -35 -3 -37 -1 -38 25 0 15 -2
36 -4 46 -3 14 4 17 36 17 33 0 40 -4 45 -24z m85 15 c-30 -8 -40 -31 -14 -32
17 0 17 -1 1 -12 -15 -10 -14 -13 10 -23 26 -12 26 -12 -15 -13 -41 -1 -43 0
-43 28 0 50 9 61 49 60 30 -1 32 -2 12 -8z m174 -36 c0 -37 -2 -40 -29 -43
-42 -5 -64 26 -50 71 4 14 14 17 42 15 36 -3 37 -4 37 -43z m113 28 c2 -9 -5
-11 -27 -7 -28 6 -31 4 -31 -20 0 -27 22 -36 36 -15 4 7 10 7 16 1 17 -17 -1
-32 -38 -32 -34 0 -34 0 -34 46 l0 45 37 -3 c20 -2 38 -9 41 -15z m102 7 c0
-5 -7 -10 -15 -10 -10 0 -15 -11 -15 -35 0 -19 -4 -35 -10 -35 -5 0 -10 14
-10 30 0 18 -6 33 -15 36 -28 11 -15 24 25 24 22 0 40 -4 40 -10z m100 -32 c0
-32 -3 -39 -10 -28 -13 20 -13 70 0 70 6 0 10 -19 10 -42z m107 -5 l3 -43 -40
0 -40 0 0 46 0 45 38 -3 c36 -3 37 -4 39 -45z m98 37 c-3 -5 -15 -10 -26 -10
-10 0 -19 -4 -19 -10 0 -5 11 -10 25 -10 14 0 25 5 25 12 0 6 2 9 5 6 4 -3 3
-18 -1 -33 -5 -19 -10 -23 -17 -16 -16 16 -37 13 -37 -4 0 -8 -4 -15 -10 -15
-5 0 -10 20 -10 45 0 45 0 45 36 45 21 0 33 -4 29 -10z m115 -1 c0 -5 -4 -8
-9 -5 -12 8 -41 -3 -41 -15 0 -5 7 -9 15 -9 21 0 19 -18 -2 -23 -14 -4 -13 -5
4 -6 38 -2 37 -21 -1 -21 -36 0 -36 0 -36 45 0 45 0 45 35 45 19 0 35 -5 35
-11z m157 -6 c4 -10 -2 -23 -16 -35 -23 -18 -23 -18 -2 -18 12 0 21 -4 21 -10
0 -5 -18 -10 -40 -10 -47 0 -54 19 -15 40 14 7 25 18 25 23 0 5 -11 6 -25 3
-24 -6 -33 3 -18 17 13 14 64 7 70 -10z m111 -6 c2 -10 1 -29 -2 -43 -9 -36
-63 -34 -77 2 -16 45 -3 66 39 62 26 -2 38 -8 40 -21z m62 -22 c0 -25 -4 -45
-10 -45 -5 0 -10 13 -10 29 0 16 -5 31 -12 33 -15 5 -1 28 18 28 10 0 14 -12
14 -45z m105 0 c0 -39 -1 -40 -35 -40 -31 0 -35 3 -38 28 -5 46 4 59 40 55 31
-3 33 -5 33 -43z m-788 -43 c-23 -5 -47 4 -47 17 0 6 13 5 33 -2 23 -8 27 -12
14 -15z m1153 -452 c0 -5 -4 -10 -10 -10 -5 0 -10 5 -10 10 0 6 5 10 10 10 6
0 10 -4 10 -10z m-1915 -25 c0 -22 -31 -33 -47 -17 -17 17 -1 44 24 40 15 -2
23 -10 23 -23z m-325 5 c0 -5 -4 -10 -10 -10 -5 0 -10 5 -10 10 0 6 5 10 10
10 6 0 10 -4 10 -10z m40 0 c0 -5 -4 -10 -10 -10 -5 0 -10 5 -10 10 0 6 5 10
10 10 6 0 10 -4 10 -10z m40 0 c0 -5 -4 -10 -10 -10 -5 0 -10 5 -10 10 0 6 5
10 10 10 6 0 10 -4 10 -10z m32 -12 c-7 -7 -12 -8 -12 -2 0 14 12 26 19 19 2
-3 -1 -11 -7 -17z m58 10 c0 -4 -7 -8 -15 -8 -8 0 -15 4 -15 8 0 5 7 9 15 9 8
0 15 -4 15 -9z m42 3 c8 12 9 12 6 0 -6 -22 -28 -25 -27 -4 0 12 2 14 6 4 5
-11 7 -11 15 0z m1428 -5 c0 -22 -19 -29 -36 -15 -12 10 -12 14 -2 20 20 13
38 10 38 -5z m277 8 c-3 -3 -12 -4 -19 -1 -8 3 -5 6 6 6 11 1 17 -2 13 -5z
m111 -21 c2 -13 -1 -23 -7 -23 -6 0 -11 9 -11 21 0 11 -4 17 -10 14 -5 -3 -10
-16 -10 -28 0 -16 -3 -18 -9 -8 -5 7 -11 9 -14 4 -9 -14 -82 -10 -82 5 0 21
47 40 95 38 39 -1 45 -4 48 -23z m-1060 5 c8 -10 3 -14 -20 -15 -29 -2 -30 -2
-12 12 10 8 20 15 20 15 1 0 6 -6 12 -12z m102 -3 c0 -5 -14 -11 -30 -12 -18
-1 -30 3 -30 10 0 7 13 12 30 12 17 0 30 -4 30 -10z m1180 -4 c0 -24 -25 -34
-40 -16 -15 18 -5 35 21 35 12 0 19 -7 19 -19z m-1150 -1 c0 -5 -4 -10 -10
-10 -5 0 -10 5 -10 10 0 6 5 10 10 10 6 0 10 -4 10 -10z m620 -70 c0 -17 -5
-25 -12 -22 -5 1 -7 -1 -7 -5 3 -21 -2 -26 -12 -13 -9 12 -10 11 -6 -8 3 -12
1 -20 -4 -16 -5 3 -9 -1 -9 -8 0 -9 -3 -9 -8 -2 -11 16 -42 13 -42 -5 0 -24
-17 0 -28 41 -6 20 -7 39 -4 42 10 10 132 6 132 -4z m-1235 -49 c-8 -25 -27
-28 -23 -3 3 17 19 34 26 27 2 -2 1 -13 -3 -24z m1265 13 c0 -8 -5 -12 -10 -9
-6 4 -8 11 -5 16 9 14 15 11 15 -7z m12 -36 c-7 -7 -12 -8 -12 -2 0 14 12 26
19 19 2 -3 -1 -11 -7 -17z"/>
<path d="M1072 3436 c-2 -52 2 -63 33 -107 22 -29 41 -46 50 -43 7 3 18 -4 24
-15 7 -11 17 -18 26 -15 7 3 19 -3 26 -15 10 -14 17 -17 25 -10 9 8 17 3 30
-16 12 -19 20 -23 28 -15 7 7 15 4 27 -11 10 -14 28 -22 48 -23 28 -1 29 0 14
12 -10 7 -25 11 -34 9 -9 -2 -21 4 -28 14 -6 11 -20 19 -30 19 -10 0 -24 7
-31 15 -7 9 -19 14 -27 11 -7 -3 -18 3 -25 13 -6 11 -17 17 -23 15 -6 -3 -19
4 -29 15 -10 11 -23 18 -29 15 -23 -8 -62 66 -68 130 l-6 61 -1 -59z"/>
<path d="M1233 3360 c0 -25 2 -35 4 -22 2 12 2 32 0 45 -2 12 -4 2 -4 -23z"/>
<path d="M1336 3327 c-5 -9 -5 -29 0 -45 7 -25 8 -26 11 -4 3 12 3 32 0 45 -3
19 -4 20 -11 4z"/>
<path d="M991 3299 c-26 -21 -26 -21 7 -38 21 -11 22 -10 22 24 0 19 -1 35 -2
35 -2 -1 -14 -10 -27 -21z"/>
<path d="M1570 3250 c0 -11 4 -20 8 -20 5 0 17 9 27 20 18 20 17 20 -8 20 -20
0 -27 -5 -27 -20z"/>
<path d="M1430 3156 c0 -2 7 -7 16 -10 8 -3 12 -2 9 4 -6 10 -25 14 -25 6z"/>
<path d="M1925 3130 c3 -5 8 -10 11 -10 2 0 4 5 4 10 0 6 -5 10 -11 10 -5 0
-7 -4 -4 -10z"/>
<path d="M1765 3090 c-3 -5 -2 -10 4 -10 5 0 13 5 16 10 3 6 2 10 -4 10 -5 0
-13 -4 -16 -10z"/>
<path d="M1920 3045 c0 -8 -7 -15 -15 -15 -18 0 -18 -8 0 -40 17 -29 20 -80 4
-80 -5 0 -7 -4 -4 -10 3 -5 13 -10 21 -10 11 0 14 18 14 85 0 50 -4 85 -10 85
-5 0 -10 -7 -10 -15z"/>
<path d="M1555 3001 c-3 -6 -5 -11 -3 -12 27 -6 38 -5 35 4 -5 15 -24 20 -32
8z"/>
<path d="M1625 2969 c-4 -6 -3 -15 3 -21 6 -6 11 -4 15 6 7 18 -9 31 -18 15z"/>
<path d="M1790 2966 c0 -3 14 -12 30 -21 17 -9 30 -13 30 -11 0 3 -13 12 -30
21 -16 9 -30 13 -30 11z"/>
<path d="M1560 2589 c0 -5 5 -7 10 -4 6 3 10 8 10 11 0 2 -4 4 -10 4 -5 0 -10
-5 -10 -11z"/>
<path d="M1395 2280 c-3 -5 1 -10 10 -10 9 0 13 5 10 10 -3 6 -8 10 -10 10 -2
0 -7 -4 -10 -10z"/>
<path d="M1590 2294 c0 -8 5 -12 10 -9 6 4 8 11 5 16 -9 14 -15 11 -15 -7z"/>
<path d="M1723 2314 c-8 -21 13 -42 28 -27 13 13 5 43 -11 43 -6 0 -13 -7 -17
-16z"/>
<path d="M2017 2273 c-13 -13 -7 -44 11 -50 9 -4 23 -14 29 -22 11 -14 14 -14
22 -1 7 10 7 16 1 18 -6 2 -10 17 -10 33 0 24 -4 29 -23 29 -13 0 -27 -3 -30
-7z"/>
<path d="M976 2271 c-4 -5 -2 -12 3 -15 5 -4 12 -2 15 3 4 5 2 12 -3 15 -5 4
-12 2 -15 -3z"/>
<path d="M1150 2269 c0 -5 5 -7 10 -4 6 3 10 8 10 11 0 2 -4 4 -10 4 -5 0 -10
-5 -10 -11z"/>
<path d="M1292 2278 c-18 -18 -16 -78 3 -78 11 0 15 12 15 45 0 49 -1 50 -18
33z"/>
<path d="M1680 1954 c0 -14 3 -15 18 -3 9 7 19 15 21 16 2 2 -5 3 -17 3 -14 0
-22 -6 -22 -16z"/>
<path d="M1740 1910 c0 -5 5 -10 11 -10 5 0 7 5 4 10 -3 6 -8 10 -11 10 -2 0
-4 -4 -4 -10z"/>
<path d="M1101 1967 c-1 -4 6 -22 15 -38 12 -25 18 -28 30 -18 16 13 19 49 4
49 -10 0 -14 -13 -11 -40 2 -13 0 -13 -8 -1 -5 8 -7 21 -3 29 3 9 1 13 -5 9
-6 -4 -14 -1 -16 5 -3 7 -6 9 -6 5z"/>
<path d="M2312 1940 c0 -19 2 -27 5 -17 2 9 2 25 0 35 -3 9 -5 1 -5 -18z"/>
<path d="M2512 1940 c0 -19 2 -27 5 -17 2 9 2 25 0 35 -3 9 -5 1 -5 -18z"/>
<path d="M2272 1935 c0 -16 2 -22 5 -12 2 9 2 23 0 30 -3 6 -5 -1 -5 -18z"/>
<path d="M1745 1750 c3 -5 8 -10 11 -10 2 0 4 5 4 10 0 6 -5 10 -11 10 -5 0
-7 -4 -4 -10z"/>
<path d="M1930 1766 c0 -11 30 -39 36 -34 2 3 -5 13 -16 23 -11 10 -20 15 -20
11z"/>
<path d="M1932 1645 c0 -16 2 -22 5 -12 2 9 2 23 0 30 -3 6 -5 -1 -5 -18z"/>
<path d="M1607 1292 c2 -10 10 -19 18 -19 10 0 11 4 2 19 -7 10 -15 18 -18 18
-4 0 -5 -8 -2 -18z"/>
<path d="M1140 1231 c0 -12 0 -24 -1 -28 0 -4 4 -9 10 -11 14 -5 15 45 1 53
-5 3 -10 -3 -10 -14z"/>
<path d="M780 690 c0 -5 10 -10 23 -10 18 0 19 2 7 10 -19 13 -30 13 -30 0z"/>
<path d="M950 721 c0 -5 -3 -16 -6 -25 -4 -12 0 -16 15 -16 16 0 21 6 21 25 0
16 -6 25 -15 25 -8 0 -15 -4 -15 -9z"/>
<path d="M1210 705 c0 -18 5 -25 20 -25 15 0 20 7 20 25 0 18 -5 25 -20 25
-15 0 -20 -7 -20 -25z"/>
<path d="M1638 723 c6 -2 18 -2 25 0 6 3 1 5 -13 5 -14 0 -19 -2 -12 -5z"/>
<path d="M1640 690 c-12 -8 -10 -10 8 -10 13 0 20 4 17 10 -7 12 -6 12 -25 0z"/>
<path d="M2110 705 c0 -16 6 -25 15 -25 9 0 15 9 15 25 0 16 -6 25 -15 25 -9
0 -15 -9 -15 -25z"/>
<path d="M2280 720 c0 -5 9 -10 20 -10 11 0 20 5 20 10 0 6 -9 10 -20 10 -11
0 -20 -4 -20 -10z"/>
<path d="M2280 690 c0 -5 9 -10 21 -10 11 0 17 5 14 10 -3 6 -13 10 -21 10 -8
0 -14 -4 -14 -10z"/>
<path d="M743 190 c5 -21 37 -26 37 -6 0 9 -4 16 -10 16 -5 0 -10 -6 -10 -12
0 -9 -4 -8 -11 2 -9 13 -10 13 -6 0z"/>
<path d="M2411 174 c0 -11 3 -14 6 -6 3 7 2 16 -1 19 -3 4 -6 -2 -5 -13z"/>
<path d="M2680 170 c0 -5 5 -10 10 -10 6 0 10 5 10 10 0 6 -4 10 -10 10 -5 0
-10 -4 -10 -10z"/>
<path d="M2965 3950 c3 -5 8 -10 11 -10 2 0 4 5 4 10 0 6 -5 10 -11 10 -5 0
-7 -4 -4 -10z"/>
<path d="M2945 3850 c3 -5 8 -10 11 -10 2 0 4 5 4 10 0 6 -5 10 -11 10 -5 0
-7 -4 -4 -10z"/>
<path d="M2970 3031 c-16 -31 -12 -37 10 -13 22 23 25 32 10 32 -5 0 -14 -9
-20 -19z"/>
<path d="M2984 2999 c-3 -6 -1 -16 5 -22 8 -8 11 -5 11 11 0 24 -5 28 -16 11z"/>
<path d="M2987 2920 c3 -11 7 -20 9 -20 2 0 4 9 4 20 0 11 -4 20 -9 20 -5 0
-7 -9 -4 -20z"/>
<path d="M2922 2881 c-10 -6 -10 -11 3 -21 19 -16 30 -7 18 14 -5 9 -13 12
-21 7z"/>
<path d="M2955 2800 c3 -5 8 -10 11 -10 2 0 4 5 4 10 0 6 -5 10 -11 10 -5 0
-7 -4 -4 -10z"/>
<path d="M2960 2760 c0 -11 2 -20 4 -20 2 0 6 9 9 20 3 11 1 20 -4 20 -5 0 -9
-9 -9 -20z"/>
<path d="M2980 2731 c0 -6 5 -13 10 -16 6 -3 10 1 10 9 0 9 -4 16 -10 16 -5 0
-10 -4 -10 -9z"/>
<path d="M2942 2693 c-7 -17 -8 -23 -1 -16 6 6 18 9 25 6 16 -6 17 -2 8 21 -9
23 -17 20 -32 -11z"/>
<path d="M76 1977 c3 -10 9 -15 12 -12 3 3 0 11 -7 18 -10 9 -11 8 -5 -6z"/>
<path d="M40 1960 c0 -5 5 -10 11 -10 5 0 7 5 4 10 -3 6 -8 10 -11 10 -2 0 -4
-4 -4 -10z"/>
<path d="M0 1928 c0 -4 7 -8 15 -8 8 0 15 4 15 8 0 5 -7 9 -15 9 -8 0 -15 -4
-15 -9z"/>
<path d="M1 1894 c0 -11 3 -14 6 -6 3 7 2 16 -1 19 -3 4 -6 -2 -5 -13z"/>
<path d="M39 1757 c6 -8 8 -17 4 -20 -3 -4 1 -7 11 -7 14 0 15 4 6 20 -6 11
-16 20 -22 20 -7 0 -7 -4 1 -13z"/>
<path d="M2950 1709 c0 -5 5 -7 10 -4 6 3 10 8 10 11 0 2 -4 4 -10 4 -5 0 -10
-5 -10 -11z"/>
</g>
</svg>
