<?xml version="1.0" standalone="no"?>
<!DOCTYPE svg PUBLIC "-//W3C//DTD SVG 20010904//EN"
 "http://www.w3.org/TR/2001/REC-SVG-20010904/DTD/svg10.dtd">
<svg version="1.0" xmlns="http://www.w3.org/2000/svg"
 width="300.000000pt" height="375.000000pt" viewBox="0 0 300.000000 375.000000"
 preserveAspectRatio="xMidYMid meet">

<g transform="translate(0.000000,375.000000) scale(0.100000,-0.100000)"
fill="#000000" stroke="none">
<path d="M0 1875 l0 -1875 1500 0 1500 0 0 1875 0 1875 -1500 0 -1500 0 0
-1875z m110 1776 c0 -5 3 -18 7 -28 6 -16 5 -16 -10 -4 -9 7 -17 10 -17 6 0
-5 -2 -6 -5 -3 -8 7 5 38 16 38 5 0 9 -4 9 -9z m90 -2 c0 -8 5 -8 15 1 12 10
15 9 15 -7 0 -14 -7 -19 -25 -19 -17 0 -25 5 -25 18 0 10 5 18 10 18 6 0 10
-5 10 -11z m67 -26 c-3 -10 -5 -4 -5 12 0 17 2 24 5 18 2 -7 2 -21 0 -30z m53
25 c0 -9 4 -8 10 2 7 12 10 8 10 -15 0 -21 -3 -26 -9 -16 -5 7 -14 10 -20 7
-7 -5 -11 1 -11 13 0 12 5 21 10 21 6 0 10 -6 10 -12z m88 -10 c-2 -13 -10
-23 -18 -23 -8 0 -16 10 -18 23 -3 17 2 22 18 22 16 0 21 -5 18 -22z m112 -2
c0 -7 -7 -13 -15 -13 -17 0 -17 0 -9 21 7 18 24 12 24 -8z m53 -25 c-9 -12
-25 20 -18 36 7 16 9 15 15 -7 4 -14 5 -27 3 -29z m60 29 c-3 -11 -7 -20 -8
-20 -1 0 -5 9 -8 20 -3 12 0 20 8 20 8 0 11 -8 8 -20z m59 11 c-8 -4 -14 -12
-14 -16 0 -4 6 -12 14 -16 10 -7 9 -9 -4 -9 -13 0 -18 8 -18 25 0 17 5 25 18
25 13 0 14 -2 4 -9z m72 1 c2 -4 1 -14 -5 -22 -5 -8 -9 -10 -9 -5 0 6 -5 3
-10 -5 -8 -12 -10 -9 -10 13 0 26 22 38 34 19z m43 -24 c-3 -7 -5 -2 -5 12 0
14 2 19 5 13 2 -7 2 -19 0 -25z m66 24 c3 7 6 3 6 -9 1 -16 -4 -21 -19 -20
-12 1 -20 8 -20 20 0 16 3 17 14 8 11 -9 15 -9 19 1z m67 -17 c0 -16 -6 -25
-15 -25 -9 0 -15 9 -15 25 0 16 6 25 15 25 9 0 15 -9 15 -25z m93 18 c-21 -8
-16 -33 5 -26 13 5 14 3 5 -7 -14 -16 -33 -5 -33 21 0 12 7 19 18 18 10 0 12
-3 5 -6z m77 -18 c0 -25 -23 -35 -35 -15 -10 16 2 40 20 40 9 0 15 -9 15 -25z
m54 -24 c-7 -9 -24 13 -24 32 0 21 1 21 13 -3 8 -14 12 -27 11 -29z m60 7 c7
-5 5 -8 -6 -8 -13 0 -18 7 -17 28 1 21 2 22 6 7 3 -11 10 -23 17 -27z m43 5
c-3 -10 -5 -4 -5 12 0 17 2 24 5 18 2 -7 2 -21 0 -30z m60 30 c-4 -3 -2 -12 4
-19 11 -13 -6 -32 -19 -20 -14 15 -11 46 5 46 9 0 13 -3 10 -7z m50 -25 c-3
-7 -5 -2 -5 12 0 14 2 19 5 13 2 -7 2 -19 0 -25z m68 7 c0 -11 -8 -21 -17 -23
-14 -3 -18 3 -18 23 0 20 4 26 18 23 9 -2 17 -12 17 -23z m58 16 c3 8 5 1 5
-16 0 -16 -2 -24 -5 -17 -2 6 -9 10 -14 6 -5 -3 -9 5 -9 18 0 17 3 19 9 9 7
-11 9 -11 14 0z m115 -13 c-2 -13 -10 -23 -18 -23 -8 0 -16 10 -18 23 -3 17 2
22 18 22 16 0 21 -5 18 -22z m53 15 c-8 -3 -9 -8 -3 -12 6 -4 5 -11 -4 -19
-12 -11 -14 -9 -14 13 0 17 5 25 18 24 12 0 13 -2 3 -6z m109 -4 c0 6 5 11 10
11 6 0 10 -9 10 -19 0 -13 -6 -18 -17 -17 -10 2 -21 -2 -25 -8 -4 -6 -8 2 -8
18 0 24 2 27 15 16 10 -9 15 -9 15 -1z m72 -9 c5 25 5 25 7 -2 1 -19 -4 -28
-14 -28 -10 0 -15 9 -14 28 l1 27 7 -25 8 -25 5 25z m68 10 c-11 -7 -12 -10
-2 -10 8 0 12 -6 10 -12 -6 -18 -33 -16 -34 2 -1 22 5 30 24 30 15 0 15 -2 2
-10z m47 -22 c-3 -7 -5 -2 -5 12 0 14 2 19 5 13 2 -7 2 -19 0 -25z m56 25 c-7
-2 -13 -11 -13 -19 0 -9 5 -12 10 -9 6 3 10 1 10 -4 0 -6 -7 -11 -15 -11 -9 0
-15 9 -15 25 0 17 5 25 18 24 10 0 12 -3 5 -6z m147 -2 c0 -5 2 -16 5 -23 4
-9 -2 -14 -15 -14 -21 0 -24 5 -14 30 7 17 24 22 24 7z m69 -18 c0 -16 -3 -22
-6 -15 -2 6 -9 10 -14 6 -5 -3 -9 4 -9 15 0 12 7 21 15 21 10 0 15 -9 14 -27z
m53 2 c-2 -14 -6 -25 -7 -25 -1 0 -5 11 -7 25 -3 16 -1 25 7 25 8 0 10 -9 7
-25z m151 13 c6 -19 -3 -38 -19 -38 -8 0 -14 10 -14 25 0 26 25 35 33 13z
m107 2 c0 -5 -7 -7 -16 -3 -12 4 -15 2 -12 -8 3 -8 12 -13 19 -11 11 3 12 1 2
-9 -17 -17 -38 3 -30 25 7 17 37 22 37 6z m52 -10 c5 24 5 24 7 -3 1 -36 -23
-32 -26 4 l-2 24 8 -25 8 -25 5 25z m61 -5 c3 -16 0 -24 -7 -22 -11 4 -16 25
-9 40 7 12 10 8 16 -18z m60 5 c-3 -11 -7 -20 -8 -20 -1 0 -5 9 -8 20 -3 12 0
20 8 20 8 0 11 -8 8 -20z m59 0 c5 25 5 25 7 -2 1 -19 -4 -28 -14 -28 -10 0
-15 9 -14 28 l1 27 7 -25 8 -25 5 25z m78 -4 c0 -19 -4 -23 -19 -19 -16 4 -19
16 -12 41 1 1 8 2 16 2 9 0 15 -9 15 -24z m52 15 c-8 -4 -14 -12 -14 -16 0 -4
6 -12 14 -16 10 -7 9 -9 -4 -9 -13 0 -18 8 -18 25 0 17 5 25 18 25 13 0 14 -2
4 -9z m-2004 -883 c7 -9 19 -15 26 -12 11 4 14 -13 13 -85 0 -50 -1 -91 -3
-91 -2 0 -13 10 -26 23 -16 16 -22 33 -21 56 1 21 -5 38 -17 48 -10 9 -16 21
-14 28 7 18 -47 30 -57 13 -17 -25 -7 -104 11 -93 4 3 10 -5 14 -18 5 -21 79
-74 96 -70 5 2 12 -7 15 -18 4 -12 12 -18 21 -15 9 3 14 -1 14 -12 0 -10 6
-27 14 -38 8 -10 12 -30 9 -45 -2 -14 2 -43 11 -63 20 -49 20 -53 -1 -34 -16
14 -23 14 -71 -9 -36 -18 -51 -30 -48 -40 3 -8 2 -11 -3 -8 -6 3 -11 -9 -13
-27 l-3 -33 -25 42 c-14 24 -30 43 -36 43 -16 0 -59 41 -78 75 -16 28 -16 33
2 82 14 40 21 50 30 41 9 -9 12 -9 12 0 0 7 7 12 15 12 17 0 21 -60 5 -76 -5
-5 -7 -20 -3 -32 7 -28 61 -58 75 -44 6 6 16 8 23 6 7 -3 16 3 19 13 4 10 2
19 -3 21 -6 2 -11 8 -11 14 0 6 6 8 13 5 26 -10 6 43 -22 58 -14 8 -20 14 -12
15 11 0 10 5 -4 20 -12 13 -21 17 -25 10 -4 -7 -13 -1 -24 14 -9 14 -23 26
-31 26 -14 0 -41 38 -37 53 1 4 -3 7 -8 7 -6 0 -10 8 -10 19 0 10 -7 32 -15
47 -9 17 -11 30 -5 32 6 2 10 10 10 19 0 20 33 60 46 56 6 -2 16 3 23 11 10
12 18 11 54 -7 23 -12 48 -30 55 -39z m166 -218 c0 -153 -3 -282 -6 -285 -14
-14 -55 162 -44 190 3 9 2 25 -4 34 -5 10 -12 67 -14 125 -3 59 -8 112 -12
117 -3 6 -2 18 2 27 7 18 10 28 12 51 1 9 11 12 27 9 14 -3 25 -1 25 3 0 5 3
9 8 9 4 0 7 -126 6 -280z m360 244 c18 -7 21 -55 7 -130 -7 -40 1 -148 9 -121
4 13 7 27 9 38 0 6 7 9 15 6 8 -3 18 5 25 19 6 13 16 24 22 24 6 0 32 18 58
39 41 35 47 37 48 20 1 -12 -18 -40 -48 -69 -27 -26 -49 -51 -49 -55 0 -3 -13
-18 -30 -32 -37 -31 -38 -45 -2 -83 15 -16 40 -48 56 -70 17 -22 33 -40 37
-40 9 0 79 -89 79 -101 0 -13 -41 3 -63 25 -12 12 -41 36 -64 55 -23 19 -40
37 -38 41 2 4 -13 24 -35 45 l-38 38 0 -81 c1 -46 -5 -94 -12 -112 l-13 -32
-19 37 c-15 28 -17 40 -8 50 13 16 4 58 -11 50 -5 -3 -6 0 -3 8 11 29 18 146
14 232 -1 28 0 59 3 70 2 11 0 29 -5 39 -7 13 -6 31 2 57 13 39 23 45 54 33z
m671 -78 c50 -3 111 -5 138 -5 35 -1 47 -5 47 -16 0 -13 -18 -20 -42 -16 -5 0
-8 -3 -8 -9 0 -6 -9 -6 -24 0 -13 5 -26 6 -29 4 -3 -3 -27 -7 -54 -8 l-48 -2
-1 -87 c-1 -48 2 -87 6 -87 14 0 20 -33 9 -46 -8 -10 -12 -60 -11 -147 0 -73
-3 -121 -7 -107 -4 14 -13 24 -19 23 -7 -2 -14 9 -17 25 -3 15 -10 42 -16 60
-8 25 -8 37 0 45 6 6 11 38 11 72 0 42 -3 56 -10 45 -7 -11 -10 2 -12 45 -3
93 -4 100 -12 113 -4 7 -2 19 4 27 17 21 3 38 -21 25 -13 -7 -19 -7 -19 0 0 5
-18 9 -40 8 -22 -1 -40 -2 -40 -4 0 -1 16 -11 35 -23 22 -12 42 -36 51 -58 21
-48 22 -160 2 -196 -16 -29 -64 -77 -77 -77 -4 0 -24 18 -43 40 -39 43 -72
145 -62 190 5 20 3 22 -5 10 -9 -13 -11 -13 -11 3 0 9 5 17 10 17 6 0 10 9 10
20 0 12 11 32 25 46 30 30 31 34 7 34 -27 0 -33 9 -19 30 12 20 4 20 292 6z
m-950 -14 c6 -4 12 -18 12 -31 1 -13 -1 -21 -4 -17 -3 3 -12 1 -19 -5 -20 -17
-44 -3 -44 25 0 30 30 46 55 28z m-865 -48 c0 -8 -2 -14 -4 -14 -2 0 -12 -3
-21 -6 -14 -6 -14 -3 -4 19 12 27 29 27 29 1z m982 -8 c55 8 87 -25 95 -98 l6
-57 -49 -23 c-27 -12 -51 -24 -52 -25 -2 -1 -6 -61 -8 -134 -2 -73 -7 -135
-10 -138 -9 -10 -24 23 -24 57 0 17 -4 32 -10 32 -5 0 -8 21 -6 48 2 26 -2 53
-7 60 -15 19 -18 240 -5 276 10 24 13 26 23 13 8 -11 22 -14 47 -11z m-118
-31 c10 -11 14 -27 11 -48 -4 -28 -6 -182 -3 -227 3 -45 -3 -103 -10 -94 -14
14 -44 202 -46 279 -3 96 13 125 48 90z m472 -5 c-3 -11 -9 -30 -12 -42 -6
-20 -3 -19 29 9 48 42 75 50 93 26 20 -24 42 -73 49 -109 15 -68 0 -200 -25
-228 -19 -20 -46 78 -41 149 3 56 -1 82 -17 107 l-18 28 -22 -20 c-12 -11 -24
-31 -26 -43 -11 -49 -13 -103 -5 -124 5 -13 4 -25 -1 -28 -6 -4 -10 -1 -10 5
0 6 -4 9 -9 6 -5 -3 -21 10 -36 29 -27 36 -41 90 -25 100 4 3 8 25 8 50 0 47
28 98 50 90 6 -2 12 0 12 5 0 6 3 10 6 10 3 0 3 -9 0 -20z m-1349 -87 c13 -40
16 -122 4 -103 -15 22 -23 6 -12 -24 13 -33 31 -34 31 -1 0 14 4 25 10 25 5 0
7 7 4 15 -7 17 4 19 26 4 13 -8 12 -12 -7 -25 -20 -14 -22 -51 -2 -38 9 5 11
-2 13 -41 1 -11 7 -19 14 -18 14 3 16 -33 2 -42 -5 -3 -11 -18 -11 -33 -2 -23
-2 -24 -6 -5 -2 12 -15 32 -28 45 -14 13 -25 29 -25 36 0 6 -6 12 -14 12 -8 0
-17 -6 -19 -12 -3 -7 -6 1 -6 17 -1 23 -4 27 -11 15 -10 -16 -13 -8 -10 28 1
12 -3 22 -8 22 -10 0 -11 -12 -12 -90 0 -53 -1 -54 -15 -30 -26 46 -36 73 -30
87 2 8 9 11 15 8 13 -8 30 37 30 78 0 25 3 29 10 17 9 -13 12 -12 25 4 20 26
19 33 -5 41 -31 10 -23 35 11 35 10 0 21 -12 26 -27z m-95 -110 c-3 -16 -7
-22 -10 -15 -4 13 4 42 11 42 2 0 2 -12 -1 -27z m1188 7 c0 -5 -5 -10 -11 -10
-5 0 -7 5 -4 10 3 6 8 10 11 10 2 0 4 -4 4 -10z m-995 -23 c9 -9 10 -19 4 -28
-8 -12 -10 -12 -19 1 -11 16 -13 40 -4 40 3 0 11 -6 19 -13z m665 -384 c6 -70
20 -96 20 -36 0 22 3 55 6 72 6 26 11 31 35 31 27 0 29 -3 28 -37 0 -21 -6
-76 -13 -123 l-11 -85 -43 -6 c-23 -3 -46 -3 -51 0 -8 5 -41 196 -41 237 0 11
9 14 33 12 32 -3 32 -4 37 -65z m240 47 c17 -17 20 -33 20 -109 0 -85 -1 -91
-26 -110 -34 -27 -78 -27 -104 -1 -17 17 -20 33 -20 112 0 71 4 95 17 110 23
25 87 24 113 -2z m100 -80 l0 -100 25 0 c20 0 25 -5 25 -25 0 -24 -3 -25 -55
-25 l-55 0 0 125 0 125 30 0 30 0 0 -100z m187 85 c26 -18 37 -59 22 -86 -8
-15 -8 -24 0 -32 15 -15 14 -90 -1 -105 -7 -7 -39 -12 -75 -12 l-63 0 0 125 0
125 48 0 c26 0 57 -7 69 -15z m153 -15 c0 -23 -4 -30 -20 -30 -13 0 -20 -7
-20 -20 0 -13 7 -20 20 -20 15 0 20 -7 20 -25 0 -18 -5 -25 -20 -25 -15 0 -20
-7 -20 -25 0 -20 5 -25 25 -25 20 0 25 -5 25 -25 0 -24 -3 -25 -55 -25 l-55 0
0 125 0 125 50 0 c49 0 50 -1 50 -30z m164 -82 c10 -62 19 -119 21 -125 3 -9
-7 -13 -29 -13 -25 0 -35 5 -39 20 -3 11 -10 20 -16 20 -6 0 -11 -9 -11 -20 0
-16 -7 -20 -36 -20 l-36 0 6 43 c3 23 10 79 17 125 l11 82 48 0 48 0 16 -112z
m146 82 c0 -23 -4 -30 -20 -30 -19 0 -20 -7 -20 -95 l0 -95 -30 0 -30 0 0 95
c0 88 -1 95 -20 95 -16 0 -20 7 -20 30 l0 30 70 0 70 0 0 -30z m-1536 -247
c-3 -49 -10 -109 -15 -135 -11 -48 -35 -70 -46 -42 -5 13 -8 13 -15 2 -20 -28
6 81 39 170 20 50 37 92 39 92 2 0 1 -39 -2 -87z m-98 -55 c-3 -24 -5 -47 -6
-53 -1 -5 -6 3 -10 18 -8 27 2 77 15 77 3 0 4 -19 1 -42z m924 -25 c0 -8 -7
-13 -16 -11 -12 2 -23 -14 -40 -62 -27 -76 -31 -157 -9 -186 15 -19 15 -19 30
0 19 25 19 54 1 98 -19 43 -7 67 19 38 44 -48 -16 -225 -66 -194 -5 3 -9 54
-9 113 0 101 8 147 39 225 11 28 12 28 31 11 11 -10 20 -24 20 -32z m-1165
-14 c4 -10 3 -23 0 -29 -3 -5 -1 -10 4 -10 6 0 11 6 12 13 1 13 16 -29 18 -50
1 -7 -9 -12 -21 -12 -13 1 -32 -2 -42 -6 -17 -7 -18 -5 -12 16 18 66 19 79 2
79 -9 0 -16 6 -16 14 0 20 48 8 55 -15z m1327 -85 c-3 -77 -18 -172 -33 -221
-7 -22 -17 -33 -30 -33 -24 0 -24 14 1 48 27 37 39 101 40 200 0 62 3 83 13
79 8 -2 11 -24 9 -73z m273 -102 c18 -117 15 -159 -6 -78 -15 59 -34 74 -24
18 4 -25 2 -42 -4 -47 -6 -3 -11 -16 -11 -28 -1 -19 -3 -18 -14 8 -8 19 -10
36 -5 47 5 9 9 42 9 74 0 31 5 86 12 123 12 63 13 64 19 31 4 -19 15 -86 24
-148z m-1406 91 l0 -38 -19 55 c-11 30 -20 56 -20 58 0 1 9 -7 20 -18 13 -13
20 -33 19 -57z m1075 -26 c0 -38 -7 -75 -18 -95 -17 -33 -18 -33 -37 -16 -23
21 -26 104 -5 155 19 46 27 52 45 34 11 -11 16 -34 15 -78z m204 66 c21 -53
23 -78 8 -120 -14 -40 -14 -46 10 -102 13 -34 24 -73 24 -88 0 -21 -8 -11 -35
46 -39 82 -41 94 -20 144 15 37 11 71 -9 64 -7 -2 -13 -47 -16 -119 -3 -64 -8
-120 -12 -124 -5 -4 -8 57 -8 135 0 120 3 146 18 166 22 31 27 31 40 -2z m-97
-123 c-3 -63 -8 -104 -11 -90 -7 37 0 224 9 214 4 -5 5 -61 2 -124z m-1271
-41 c-6 -11 -15 -17 -21 -14 -16 11 -10 31 11 32 17 2 18 -1 10 -18z m-27 -59
c-3 -12 -8 -19 -11 -16 -5 6 5 36 12 36 2 0 2 -9 -1 -20z m-33 -41 c0 -4 -8
-14 -18 -21 -10 -7 -17 -22 -17 -32 0 -11 -6 -21 -14 -24 -10 -3 -11 3 -6 29
4 19 11 39 16 45 5 6 6 13 3 17 -3 3 3 3 15 0 12 -3 21 -9 21 -14z m-80 -41
c0 -4 -4 -8 -9 -8 -6 0 -12 4 -15 8 -3 5 1 9 9 9 8 0 15 -4 15 -9z m1107 -36
c-10 -10 -17 -31 -17 -45 0 -28 15 -37 23 -14 2 6 8 0 12 -15 9 -34 9 -34 36
-7 l22 22 13 -24 c9 -18 10 -27 1 -38 -10 -11 -13 -9 -18 10 -5 16 -7 9 -6
-21 2 -38 5 -45 23 -46 19 -1 21 4 19 61 -2 35 -6 69 -10 76 -5 7 -4 10 2 6 6
-4 16 0 23 8 7 8 17 15 23 15 7 0 7 -4 -1 -12 -7 -7 -12 -26 -12 -42 1 -28 2
-29 14 -14 16 21 26 13 26 -21 1 -25 1 -25 12 -6 6 11 19 25 27 32 13 9 18 7
28 -10 10 -18 8 -26 -9 -44 -16 -17 -18 -25 -9 -41 16 -31 13 -48 -8 -48 -10
0 -17 5 -15 11 3 6 -2 19 -10 30 -15 19 -15 19 -16 -6 0 -14 -10 -34 -21 -45
-22 -19 -22 -19 -10 4 17 31 5 42 -15 14 -8 -12 -21 -22 -27 -21 -9 0 -9 2 1
6 19 7 15 35 -5 31 -10 -2 -17 -11 -15 -20 1 -9 -3 -20 -9 -24 -7 -4 -9 -3 -5
4 3 6 -5 27 -19 48 -14 20 -25 30 -25 21 0 -8 -16 -29 -35 -46 -40 -35 -58
-41 -31 -12 22 25 12 48 -12 29 -15 -12 -15 -10 0 14 12 19 17 44 15 91 -2 52
2 69 17 86 11 11 24 21 29 21 6 0 3 -8 -6 -18z m580 0 c-10 -11 -17 -35 -17
-58 1 -36 2 -38 15 -20 14 18 15 18 25 -8 21 -57 6 -138 -29 -151 -13 -5 -14
-4 -3 6 6 7 12 22 12 33 0 18 -1 19 -20 1 -11 -10 -20 -13 -20 -7 0 7 -5 12
-11 12 -15 0 -39 -26 -32 -34 4 -3 1 -6 -5 -6 -7 0 -12 11 -13 25 -2 86 -1
116 5 122 3 3 6 16 7 27 0 20 1 19 10 -3 6 -16 14 -21 27 -17 11 4 9 0 -5 -10
-27 -19 -32 -78 -8 -87 8 -4 16 -3 19 1 11 18 8 99 -4 122 -7 14 -9 22 -5 18
5 -5 16 6 26 22 11 17 24 30 30 30 8 0 6 -7 -4 -18z m-284 -82 c4 0 7 7 7 17
0 14 2 14 21 -3 16 -14 22 -15 28 -5 13 20 24 -4 25 -51 1 -21 6 -37 11 -36 6
2 8 23 6 47 -2 27 1 41 7 37 5 -3 15 1 22 9 21 25 37 0 39 -57 0 -39 -4 -56
-18 -69 -17 -16 -20 -16 -35 -1 -16 16 -18 16 -30 0 -16 -22 -26 -13 -27 26 0
17 -4 40 -9 51 -7 15 -9 8 -8 -27 1 -26 -1 -50 -5 -54 -3 -4 -2 -16 4 -28 10
-21 10 -21 -6 -1 -9 11 -20 19 -25 18 -5 -2 -5 8 1 20 7 16 7 34 1 58 l-10 34
-1 -47 c-1 -26 -6 -50 -12 -53 -6 -4 -8 -14 -4 -22 4 -12 3 -13 -8 -5 -8 7
-17 9 -20 5 -4 -3 -7 -2 -7 4 0 6 7 13 15 17 21 8 19 27 -2 20 -13 -4 -15 -3
-5 4 9 6 12 26 9 66 -4 52 -3 55 13 41 9 -8 20 -15 23 -15z m1013 -35 c4 -9
19 -15 37 -15 52 0 187 -85 187 -117 0 -8 5 -11 12 -7 8 5 9 2 5 -10 -5 -14
-3 -17 8 -12 8 3 15 1 15 -3 0 -9 71 -100 112 -145 24 -26 23 -42 -2 -49 -21
-5 -50 24 -50 50 0 19 -6 16 -36 -14 l-27 -27 -20 52 c-18 47 -37 69 -37 42 0
-6 -15 -8 -40 -4 -79 13 -123 -23 -83 -68 10 -12 13 -18 6 -15 -23 14 -23 -12
1 -30 l23 -19 -23 -29 c-13 -17 -24 -35 -24 -41 0 -7 -19 -11 -51 -10 -28 1
-53 -2 -55 -6 -2 -3 -12 -5 -22 -4 -19 3 -47 49 -32 54 6 2 10 16 10 31 0 30
36 92 58 99 8 2 12 -9 12 -37 0 -34 3 -41 20 -41 18 0 20 7 20 60 0 64 -9 72
-51 50 -23 -13 -25 -3 -2 22 17 19 8 24 -16 9 -10 -6 -27 -5 -48 4 -30 13 -33
13 -33 -4 0 -13 -9 -20 -30 -23 -16 -3 -30 -4 -30 -2 0 1 10 24 23 51 25 53
91 123 116 123 9 0 25 15 35 33 13 24 14 27 1 12 -14 -17 -17 -18 -25 -5 -11
18 -12 23 -4 44 8 20 33 21 40 1z m154 -295 c0 -5 -9 -10 -20 -10 -11 0 -20 5
-20 10 0 6 9 10 20 10 11 0 20 -4 20 -10z m-262 -15 c1 -1 0 -10 -4 -19 -9
-24 -38 -15 -42 13 -3 20 -1 22 20 16 13 -4 24 -9 26 -10z m-1998 -140 c0 -8
-2 -15 -4 -15 -2 0 -6 7 -10 15 -3 8 -1 15 4 15 6 0 10 -7 10 -15z m27 -7 c-3
-8 -6 -5 -6 6 -1 11 2 17 5 13 3 -3 4 -12 1 -19z m470 0 c-3 -8 -6 -5 -6 6 -1
11 2 17 5 13 3 -3 4 -12 1 -19z m920 0 c-3 -8 -6 -5 -6 6 -1 11 2 17 5 13 3
-3 4 -12 1 -19z m100 0 c-3 -8 -6 -5 -6 6 -1 11 2 17 5 13 3 -3 4 -12 1 -19z
m154 5 c13 -16 12 -17 -3 -4 -17 13 -22 21 -14 21 2 0 10 -8 17 -17z m84 8
c-3 -6 -12 -8 -20 -4 -8 3 -15 0 -15 -7 0 -6 -4 -8 -10 -5 -19 11 -10 21 21
23 18 1 28 -2 24 -7z m363 -42 c17 2 22 -2 21 -21 -1 -17 -3 -18 -6 -5 -2 9
-11 17 -19 17 -15 0 -15 -21 0 -31 5 -4 -6 -5 -25 -4 -19 2 -42 4 -51 4 -10 1
-18 8 -18 17 0 8 5 12 10 9 6 -3 10 0 10 7 0 11 2 10 9 0 7 -11 9 -10 15 3 3
10 11 13 18 8 7 -4 23 -6 36 -4z m47 -8 c3 -5 1 -12 -5 -16 -5 -3 -10 1 -10 9
0 18 6 21 15 7z m-1350 -19 c-3 -3 -11 0 -18 7 -9 10 -8 11 6 5 10 -3 15 -9
12 -12z m472 -4 c-3 -8 -6 -5 -6 6 -1 11 2 17 5 13 3 -3 4 -12 1 -19z m30 0
c-3 -8 -6 -5 -6 6 -1 11 2 17 5 13 3 -3 4 -12 1 -19z m30 0 c-3 -8 -6 -5 -6 6
-1 11 2 17 5 13 3 -3 4 -12 1 -19z m658 12 c3 -5 1 -10 -4 -10 -6 0 -11 5 -11
10 0 6 2 10 4 10 3 0 8 -4 11 -10z m188 -3 c3 -8 -1 -14 -8 -14 -7 0 -11 6 -8
14 3 7 6 13 8 13 2 0 5 -6 8 -13z m-186 -60 c0 -8 -6 -14 -13 -14 -7 0 -10 6
-7 14 3 7 8 13 12 13 4 0 8 -6 8 -13z m51 -9 c11 -14 10 -16 -7 -11 -12 3 -21
9 -21 12 0 8 12 23 14 19 1 -2 7 -11 14 -20z m29 0 c-3 -8 -6 -5 -6 6 -1 11 2
17 5 13 3 -3 4 -12 1 -19z m-46 -61 c-10 -9 -11 -8 -5 6 3 10 9 15 12 12 3 -3
0 -11 -7 -18z m-194 -129 c-3 -8 -6 -5 -6 6 -1 11 2 17 5 13 3 -3 4 -12 1 -19z
m-470 -120 c-3 -8 -6 -5 -6 6 -1 11 2 17 5 13 3 -3 4 -12 1 -19z m-1107 -132
c0 -9 -30 -14 -35 -6 -4 6 3 10 14 10 12 0 21 -2 21 -4z m25 -16 c-3 -4 0 -11
5 -13 6 -3 5 -4 -2 -3 -7 1 -15 11 -16 21 -3 11 0 15 7 10 6 -3 9 -10 6 -15z
m42 -12 c-3 -7 -5 -2 -5 12 0 14 2 19 5 13 2 -7 2 -19 0 -25z m53 18 c0 -8 -7
-16 -15 -20 -10 -4 -15 1 -15 14 0 11 7 20 15 20 8 0 15 -6 15 -14z m47 -6 c1
-9 -5 -17 -13 -17 -8 0 -14 8 -14 17 0 9 6 17 13 17 7 0 14 -8 14 -17z m53 -4
c0 -7 -7 -13 -15 -13 -8 0 -15 8 -15 18 0 12 5 16 15 13 8 -4 15 -12 15 -18z
m60 4 c0 -13 -7 -20 -20 -20 -13 0 -20 7 -20 20 0 13 7 20 20 20 13 0 20 -7
20 -20z m33 0 c-3 -11 -7 -20 -8 -20 -1 0 -5 9 -8 20 -3 12 0 20 8 20 8 0 11
-8 8 -20z m47 0 c0 -11 -2 -20 -4 -20 -2 0 -6 9 -9 20 -3 11 -1 20 4 20 5 0 9
-9 9 -20z m60 10 c-13 -9 -13 -11 0 -20 13 -8 12 -10 -2 -10 -11 0 -18 8 -18
20 0 12 7 20 18 20 14 0 15 -2 2 -10z m59 -12 c-1 -21 -2 -21 -7 -3 l-5 20 -8
-20 c-7 -19 -8 -19 -8 3 -1 13 5 22 14 22 9 0 15 -9 14 -22z m42 10 c0 -10 2
-10 6 0 7 18 19 15 20 -5 1 -13 -6 -18 -23 -18 -16 0 -24 6 -24 18 0 19 20 24
21 5z m162 -9 c3 -12 -1 -17 -14 -16 -11 1 -19 9 -19 17 0 22 27 21 33 -1z
m37 9 c0 -9 4 -8 10 2 8 12 10 11 10 -5 0 -14 -7 -21 -19 -21 -13 0 -19 7 -18
18 1 20 17 25 17 6z m70 -8 c0 -11 -7 -20 -15 -20 -8 0 -15 9 -15 20 0 11 7
20 15 20 8 0 15 -9 15 -20z m43 0 c-3 -11 -7 -20 -8 -20 -1 0 -5 9 -8 20 -3
12 0 20 8 20 8 0 11 -8 8 -20z m37 0 c-6 -11 -12 -20 -14 -20 -3 0 -1 23 3 38
1 1 6 2 11 2 7 0 7 -6 0 -20z m53 14 c-7 -3 -9 -12 -6 -20 3 -8 0 -14 -6 -14
-6 0 -11 9 -11 20 0 13 6 20 18 19 9 0 12 -3 5 -5z m47 -4 c-10 -6 -11 -10 -2
-10 6 0 12 -4 12 -8 0 -17 -26 -8 -27 10 -1 11 5 18 15 18 15 0 15 -2 2 -10z
m50 -10 c0 -11 -2 -20 -4 -20 -2 0 -6 9 -9 20 -3 11 -1 20 4 20 5 0 9 -9 9
-20z m54 12 c6 -10 -5 -26 -21 -29 -7 -2 -13 6 -13 17 0 19 24 28 34 12z m56
-12 c0 -13 -7 -20 -20 -20 -13 0 -20 7 -20 20 0 13 7 20 20 20 13 0 20 -7 20
-20z m44 4 c8 -21 9 -20 -13 -21 -14 -1 -17 3 -14 18 6 23 19 25 27 3z m56 -4
c0 -11 -7 -20 -15 -20 -8 0 -15 9 -15 20 0 11 7 20 15 20 8 0 15 -9 15 -20z
m50 16 c0 -2 -7 -6 -15 -10 -8 -3 -15 -1 -15 4 0 6 7 10 15 10 8 0 15 -2 15
-4z m27 -28 c-3 -7 -5 -2 -5 12 0 14 2 19 5 13 2 -7 2 -19 0 -25z m20 0 c-3
-7 -5 -2 -5 12 0 14 2 19 5 13 2 -7 2 -19 0 -25z m53 12 c0 -11 -7 -20 -15
-20 -8 0 -15 9 -15 20 0 11 7 20 15 20 8 0 15 -9 15 -20z m41 11 c7 12 9 11 9
-1 0 -13 1 -13 11 0 8 12 10 11 7 -5 -2 -12 -11 -20 -23 -20 -12 0 -21 8 -22
20 -2 11 0 14 3 6 5 -11 8 -11 15 0z m89 -1 c-13 -9 -13 -11 0 -20 13 -8 12
-10 -2 -10 -11 0 -18 8 -18 20 0 12 7 20 18 20 14 0 15 -2 2 -10z m60 -10 c0
-11 -7 -20 -15 -20 -8 0 -15 9 -15 20 0 11 7 20 15 20 8 0 15 -9 15 -20z m53
12 c3 7 6 4 6 -7 1 -14 -5 -21 -19 -21 -13 0 -20 7 -20 19 0 16 3 17 14 8 11
-9 15 -9 19 1z m-1623 -22 c0 -5 -10 -10 -22 -10 -19 0 -20 2 -8 10 19 13 30
13 30 0z m1280 0 c0 -5 -7 -10 -16 -10 -8 0 -12 5 -9 10 3 6 10 10 16 10 5 0
9 -4 9 -10z"/>
<path d="M380 3641 c0 -6 5 -13 10 -16 6 -3 10 1 10 9 0 9 -4 16 -10 16 -5 0
-10 -4 -10 -9z"/>
<path d="M921 3634 c0 -11 3 -14 6 -6 3 7 2 16 -1 19 -3 4 -6 -2 -5 -13z"/>
<path d="M1085 3641 c-3 -5 -1 -12 5 -16 5 -3 10 1 10 9 0 18 -6 21 -15 7z"/>
<path d="M1421 3634 c0 -11 3 -14 6 -6 3 7 2 16 -1 19 -3 4 -6 -2 -5 -13z"/>
<path d="M1590 3641 c0 -6 5 -13 10 -16 6 -3 10 1 10 9 0 9 -4 16 -10 16 -5 0
-10 -4 -10 -9z"/>
<path d="M1886 2597 c-9 -7 -16 -17 -15 -22 2 -6 -2 -27 -8 -47 -6 -21 -10
-43 -9 -50 6 -35 19 -58 32 -58 8 0 14 -6 14 -12 1 -8 6 -6 14 4 7 10 16 15
19 12 14 -14 18 86 5 131 -15 53 -25 62 -52 42z"/>
<path d="M1259 2598 c-7 -19 -6 -64 1 -73 6 -7 8 -15 5 -18 -3 -4 -2 -5 2 -2
3 3 12 0 20 -6 10 -9 16 -4 27 22 18 42 7 73 -28 77 -14 2 -27 2 -27 0z"/>
<path d="M1210 1956 c0 -47 5 -88 10 -91 6 -4 10 27 10 84 0 54 -4 91 -10 91
-6 0 -10 -35 -10 -84z"/>
<path d="M1510 2005 c0 -14 5 -25 10 -25 6 0 10 11 10 25 0 14 -4 25 -10 25
-5 0 -10 -11 -10 -25z"/>
<path d="M1517 1933 c-11 -10 -8 -51 3 -58 6 -4 10 8 10 29 0 37 -2 41 -13 29z"/>
<path d="M1816 1952 c-4 -13 -5 -26 -2 -29 10 -11 18 4 14 29 l-4 23 -8 -23z"/>
<path d="M1376 1594 c-11 -28 -6 -62 9 -68 10 -3 17 3 21 19 11 44 -15 87 -30
49z"/>
<path d="M1218 1224 c-5 -4 -8 -30 -8 -58 1 -40 3 -47 11 -33 11 19 8 103 -3
91z"/>
<path d="M1440 1199 c0 -11 4 -18 10 -14 5 3 7 12 3 20 -7 21 -13 19 -13 -6z"/>
<path d="M1360 1176 c0 -19 5 -38 10 -41 6 -4 10 10 10 34 0 23 -4 41 -10 41
-5 0 -10 -15 -10 -34z"/>
<path d="M1790 1181 c0 -17 5 -33 10 -36 6 -4 10 8 10 29 0 20 -4 36 -10 36
-5 0 -10 -13 -10 -29z"/>
<path d="M1651 1178 c0 -31 3 -37 8 -24 7 18 3 66 -5 66 -2 0 -4 -19 -3 -42z"/>
<path d="M950 160 c0 -5 5 -10 10 -10 6 0 10 5 10 10 0 6 -4 10 -10 10 -5 0
-10 -4 -10 -10z"/>
<path d="M1800 160 c0 -5 5 -10 10 -10 6 0 10 5 10 10 0 6 -4 10 -10 10 -5 0
-10 -4 -10 -10z"/>
</g>
</svg>
