<?xml version="1.0" standalone="no"?>
<!DOCTYPE svg PUBLIC "-//W3C//DTD SVG 20010904//EN"
 "http://www.w3.org/TR/2001/REC-SVG-20010904/DTD/svg10.dtd">
<svg version="1.0" xmlns="http://www.w3.org/2000/svg"
 width="300.000000pt" height="424.000000pt" viewBox="0 0 300.000000 424.000000"
 preserveAspectRatio="xMidYMid meet">

<g transform="translate(0.000000,424.000000) scale(0.100000,-0.100000)"
fill="#000000" stroke="none">
<path d="M0 2200 l0 -2040 24 -6 c26 -6 99 -2 231 14 267 33 449 34 721 3 34
-4 96 -3 138 3 55 7 91 6 124 -2 105 -26 1353 -32 1518 -8 44 7 91 9 105 5 14
-3 51 -9 82 -13 l57 -7 0 2045 0 2046 -1500 0 -1500 0 0 -2040z m1471 1890 c4
33 6 35 47 38 29 2 42 0 37 -7 -3 -6 -1 -11 4 -11 18 0 12 -18 -6 -23 -14 -4
-13 -5 3 -6 22 -1 39 23 28 40 -3 5 24 9 63 8 48 0 62 -3 47 -9 -16 -6 -25
-24 -34 -62 -15 -65 -29 -94 -30 -61 l0 21 -47 -24 c-58 -29 -63 -29 -63 -4 0
11 -4 20 -10 20 -5 0 -10 -4 -10 -10 0 -8 -51 -40 -65 -40 -3 0 -5 27 -5 59 0
68 -6 91 -26 91 -21 0 -17 -20 4 -20 16 -1 16 -1 0 -14 -10 -7 -18 -23 -18
-34 0 -11 8 -22 18 -24 14 -3 13 -6 -7 -17 -19 -10 -25 -11 -31 0 -6 8 -10 5
-13 -12 -3 -19 -5 -17 -6 9 -1 22 -5 32 -13 29 -7 -2 -12 -17 -11 -32 3 -43
-12 -17 -31 51 -18 69 -20 84 -7 84 5 0 13 -17 18 -37 12 -52 33 -55 33 -4 0
58 20 62 22 4 l1 -48 4 41 c4 39 6 42 38 46 l34 4 4 -56 3 -55 4 65 3 65 7
-50 c6 -47 6 -48 11 -15z m-101 -220 c-18 -11 -24 -6 -16 16 5 14 9 15 19 5 9
-9 9 -14 -3 -21z m50 12 c0 -10 -7 -19 -15 -19 -15 0 -20 18 -8 30 12 13 23 7
23 -11z m36 -2 c0 -11 -6 -20 -13 -20 -14 0 -18 22 -6 33 12 12 19 7 19 -13z
m29 10 c-3 -5 -1 -10 4 -10 6 0 11 -4 11 -10 0 -5 -7 -10 -15 -10 -15 0 -21
21 -8 33 10 10 15 8 8 -3z m41 -10 c0 -11 -4 -20 -8 -20 -4 0 -8 9 -8 20 0 11
4 20 8 20 4 0 8 -9 8 -20z m110 -17 c-11 -11 -19 6 -11 24 8 17 8 17 12 0 3
-10 2 -21 -1 -24z m-56 10 c0 -15 -2 -15 -24 -7 -23 9 -20 23 4 21 11 -1 20
-7 20 -14z m-469 -885 c22 -18 32 -53 24 -89 -6 -24 -9 -28 -21 -18 -8 6 -14
24 -14 40 0 16 -4 29 -10 29 -5 0 -10 7 -10 15 0 23 -37 18 -43 -6 -7 -25 2
-51 14 -43 5 3 9 -1 9 -9 0 -8 18 -27 41 -42 41 -29 63 -57 65 -86 1 -9 4 -27
7 -41 5 -19 2 -24 -14 -25 -32 -3 -67 -30 -71 -55 -4 -23 -4 -23 -17 3 -7 15
-24 32 -37 38 -36 16 -50 53 -34 91 19 45 43 40 35 -8 -5 -33 -3 -40 18 -51
17 -9 30 -10 43 -3 23 12 29 58 11 69 -8 4 -16 15 -19 24 -4 9 -20 23 -37 30
-20 9 -36 27 -46 52 -21 53 -19 74 11 102 24 23 28 23 53 10 14 -8 33 -20 42
-27z m105 -142 c-1 -101 -4 -183 -7 -180 -7 4 -22 73 -24 114 -1 14 -5 37 -8
52 -5 26 -10 117 -8 165 1 14 9 23 24 26 12 2 22 5 23 6 0 0 0 -82 0 -183z
m237 81 c-1 -42 1 -77 4 -77 3 0 15 10 27 23 32 32 87 70 93 63 6 -6 -61 -85
-84 -99 -25 -15 -13 -42 47 -109 56 -61 71 -88 52 -88 -11 0 -122 110 -122
121 0 5 -4 9 -10 9 -5 0 -10 -26 -10 -57 0 -32 -4 -65 -9 -72 -17 -26 -24 36
-24 189 1 193 0 182 21 178 15 -3 17 -14 15 -81z m555 18 c10 -10 -7 -17 -45
-19 -92 -6 -83 12 -81 -151 0 -80 -1 -148 -4 -151 -21 -20 -37 85 -42 261 -1
41 -1 41 -41 42 -39 2 -40 2 -19 -15 31 -24 44 -55 44 -101 0 -48 -14 -83 -42
-100 -59 -37 -116 140 -64 198 16 17 16 19 -1 25 -15 6 -15 8 -3 17 15 10 288
5 298 -6z m-733 -15 c0 -8 -10 -16 -22 -18 -25 -4 -26 -2 -17 23 8 19 39 16
39 -5z m45 -18 c0 -5 13 -7 29 -4 23 3 33 -1 46 -21 25 -39 16 -79 -22 -97
-24 -11 -32 -21 -32 -40 1 -94 -3 -152 -11 -144 -18 20 -43 249 -32 297 4 17
22 24 22 9z m-47 -124 c-1 -51 -3 -104 -4 -118 -2 -35 -27 95 -30 156 -3 57 6
80 25 65 8 -7 11 -39 9 -103z m324 82 c14 11 32 20 40 20 13 0 45 -59 42 -77
-1 -5 0 -12 1 -18 1 -5 1 -32 0 -60 -4 -103 -34 -94 -36 11 -1 69 -13 98 -36
89 -19 -7 -28 -35 -28 -87 0 -44 -13 -48 -36 -14 -18 29 -13 118 8 144 11 13
13 13 16 -7 l3 -21 26 20z m-279 -384 c12 -4 17 -16 17 -40 0 -19 -3 -32 -7
-29 -11 6 -10 0 7 -40 19 -46 19 -53 -1 -36 -15 12 -21 9 -48 -23 l-31 -36
-41 38 c-36 33 -67 100 -47 100 10 0 53 -42 53 -52 0 -5 7 -17 16 -25 13 -14
17 -14 25 -2 16 26 9 42 -38 88 l-48 46 33 29 c17 15 32 35 32 44 0 11 11 4
30 -20 17 -20 38 -39 48 -42z m858 66 c12 -8 38 -55 48 -89 12 -38 -12 -26
-34 17 -12 23 -24 39 -28 36 -4 -2 -7 7 -7 20 0 25 3 28 21 16z m143 -8 c19
17 20 17 30 -21 6 -21 11 -41 11 -45 0 -19 -42 -48 -67 -47 l-28 1 29 7 c36 8
51 30 42 64 -10 41 -26 32 -26 -13 0 -22 -4 -40 -10 -40 -5 0 -10 9 -10 21 0
25 -17 59 -30 59 -6 0 -10 -12 -10 -26 0 -24 2 -25 18 -13 15 13 16 12 4 -3
-8 -9 -11 -22 -7 -28 9 -14 -8 -13 -23 2 -17 17 -15 49 4 76 15 22 17 22 35 6
18 -16 20 -16 38 0z m131 -16 c16 -30 9 -52 -23 -72 -23 -15 -49 3 -59 40 -7
23 -4 32 14 47 28 23 49 18 68 -15z m82 23 c15 -2 28 -42 22 -66 -3 -14 -15
-30 -26 -36 -19 -10 -19 -9 -3 14 12 19 13 30 6 51 -16 41 -41 33 -41 -13 0
-22 -4 -43 -10 -46 -6 -4 -10 15 -10 49 0 59 -2 57 62 47z m-1937 -21 c4 7 69
8 107 1 4 0 6 -13 5 -28 -2 -23 -8 -29 -31 -31 -21 -3 -26 0 -20 10 6 11 5 11
-9 0 -17 -14 -57 -8 -57 9 0 5 -4 9 -10 9 -5 0 -6 -8 -3 -17 6 -16 5 -16 -10
-4 -11 9 -17 10 -17 2 0 -6 -6 -11 -13 -11 -15 0 -17 62 -2 72 5 4 20 1 32 -7
13 -9 24 -11 28 -5z m-108 -41 c9 -9 4 -23 -19 -58 -18 -25 -36 -49 -42 -53
-6 -4 -7 -8 -1 -8 5 0 -1 -7 -13 -16 -12 -8 -22 -19 -22 -23 0 -12 53 0 68 16
14 14 42 18 42 6 -1 -43 -10 -48 -86 -49 -93 -1 -95 13 -17 109 13 16 23 32
23 37 0 18 -30 18 -50 0 -25 -22 -35 -20 -43 10 -6 23 7 28 88 33 28 2 52 4
56 5 3 1 10 -3 16 -9z m403 -16 c0 -21 5 -23 45 -23 39 0 45 -3 45 -21 0 -18
-3 -19 -15 -9 -14 12 -35 6 -35 -10 0 -5 7 -7 16 -3 12 5 15 0 12 -23 -2 -18
-8 -28 -16 -26 -16 3 -12 -30 4 -35 7 -2 19 4 29 13 16 16 17 16 13 -7 -3 -21
-8 -24 -40 -23 -71 3 -70 2 -58 24 12 22 3 90 -11 90 -5 0 -6 -18 -3 -40 6
-38 1 -46 -23 -37 -5 1 -7 27 -5 57 2 52 2 54 -12 30 -10 -18 -11 -30 -4 -44
7 -13 6 -22 -4 -31 -16 -16 -68 -22 -87 -11 -11 7 -13 4 -8 -16 6 -22 4 -25
-17 -21 -18 4 -22 10 -18 29 6 32 -16 31 -24 -1 -9 -35 -19 -31 -38 13 l-17
37 5 -37 c5 -38 -5 -55 -24 -43 -6 4 -7 12 -3 18 10 15 13 67 4 67 -3 0 -12
-9 -19 -20 -14 -24 -54 -26 -76 -5 -14 14 -15 79 -2 93 4 3 26 1 49 -5 29 -8
44 -8 48 -1 12 19 38 0 47 -34 4 -18 12 -31 18 -28 9 5 9 12 -1 45 -6 21 -1
22 58 16 4 -1 7 -8 7 -16 0 -8 5 -15 11 -15 5 0 9 10 7 23 -2 18 2 23 25 25
16 2 34 -2 42 -8 11 -9 16 -7 24 8 6 11 7 22 4 26 -4 3 6 5 20 4 21 -2 27 -8
27 -25z m1259 20 c-4 -25 3 -35 19 -29 14 5 14 3 -3 -9 -17 -13 -21 -13 -34
-1 -12 12 -12 18 -1 30 14 17 21 20 19 9z m-665 -28 c-4 -9 0 -15 10 -15 20 0
30 -39 17 -72 -13 -35 -26 -41 -51 -26 -16 10 -20 23 -20 70 0 55 1 58 25 58
18 0 23 -4 19 -15z m166 -9 c0 -8 6 -17 13 -20 10 -5 10 -7 0 -12 -7 -3 -13
-17 -13 -30 0 -13 6 -24 13 -24 7 0 3 -7 -7 -15 -13 -10 -23 -12 -29 -6 -14
14 -15 82 -2 104 12 21 25 22 25 3z m-225 -55 c-1 -35 -5 -46 -17 -46 -9 0
-20 -4 -24 -8 -11 -10 -34 13 -34 34 0 10 5 21 11 24 6 4 8 13 5 20 -7 18 3
25 33 23 25 -2 26 -5 26 -47z m170 0 c-1 -33 -5 -46 -16 -46 -8 0 -19 -4 -25
-8 -20 -12 -36 18 -24 47 5 15 9 30 9 34 -3 18 3 22 29 20 27 -2 29 -4 27 -47z
m155 -7 c0 -34 -19 -49 -51 -39 -24 8 -25 52 -3 76 23 26 54 5 54 -37z m90 47
c11 -3 4 -85 -8 -89 -8 -2 -12 8 -12 32 0 20 -4 36 -10 36 -5 0 -10 -16 -10
-36 0 -24 -4 -34 -12 -32 -15 5 -22 41 -14 72 5 20 31 26 66 17z m760 -11 c0
-13 5 -18 15 -13 32 12 73 -54 45 -72 -6 -3 -10 4 -10 18 0 28 -26 55 -40 41
-5 -5 -10 -27 -12 -48 -2 -22 -8 -41 -14 -43 -7 -2 -9 8 -6 29 l5 33 -24 -20
-24 -20 24 27 c18 21 22 34 18 58 -5 22 -3 30 8 30 8 0 15 -9 15 -20z m-517
-62 c15 -28 24 -54 21 -57 -7 -8 -44 37 -44 53 0 7 -9 22 -20 34 -20 21 -20
22 -2 22 12 0 27 -18 45 -52z m75 40 c8 -8 15 -8 27 2 13 11 19 11 32 -3 22
-22 21 -76 -2 -93 -28 -21 -38 -17 -15 6 24 24 25 39 6 65 -13 18 -14 18 -20
-3 -4 -12 -4 -31 -1 -42 3 -11 2 -20 -3 -20 -5 0 -14 18 -21 40 -13 45 -36 55
-29 13 3 -16 7 -33 9 -39 2 -7 0 -13 -6 -15 -19 -5 -30 49 -15 76 15 28 21 30
38 13z m161 -18 c5 -16 14 -30 18 -30 4 0 9 -11 9 -25 3 -36 -16 -26 -41 22
-26 52 -28 63 -11 63 8 0 19 -13 25 -30z m115 14 c4 -9 1 -23 -6 -31 -9 -11
-9 -19 0 -33 7 -11 8 -21 2 -25 -16 -10 -33 34 -20 51 7 7 10 21 6 29 -10 28
-24 15 -30 -30 -10 -60 -26 -57 -26 5 l0 50 34 0 c22 0 36 -6 40 -16z m121 7
c-17 -16 -105 -17 -105 -1 0 6 26 10 57 10 35 0 53 -4 48 -9z m-83 -51 c-5
-35 18 -50 46 -29 15 13 16 12 3 -3 -16 -21 -42 -23 -59 -6 -13 13 -16 50 -5
61 14 14 19 6 15 -23z m-206 -7 c0 -11 6 -17 17 -17 23 2 22 -3 -4 -17 -27
-14 -43 5 -28 33 12 23 17 23 15 1z m-226 -37 c0 -3 -6 -6 -14 -6 -15 0 -28
24 -19 34 6 5 33 -18 33 -28z m-59 -124 c-11 -21 -9 -108 3 -119 5 -5 7 11 4
35 -4 42 5 56 16 26 5 -14 7 -14 22 1 15 15 17 14 31 -2 13 -17 14 -16 9 6 -5
26 8 51 27 51 7 0 7 -4 -1 -12 -15 -15 -16 -48 -2 -48 6 0 10 6 10 13 0 6 5 4
11 -6 9 -15 12 -16 25 -2 17 17 34 12 34 -11 0 -17 -16 -19 -24 -1 -3 6 -4 0
-3 -15 2 -15 6 -30 10 -34 10 -11 9 -34 -2 -34 -5 0 -13 10 -17 22 -6 20 -7
19 -20 -10 -7 -18 -15 -32 -17 -32 -2 0 -2 23 1 51 3 34 1 50 -5 46 -6 -4 -8
-17 -6 -31 3 -13 0 -32 -6 -43 -10 -17 -10 -17 -12 2 -1 11 0 31 1 44 1 18 -2
22 -13 18 -10 -4 -18 1 -21 11 -2 9 -3 4 -1 -13 2 -16 4 -30 5 -30 2 0 4 -10
5 -23 2 -18 0 -20 -11 -11 -8 6 -14 18 -14 27 0 11 -9 7 -31 -14 -17 -16 -30
-24 -29 -19 1 6 1 12 0 15 -9 25 -5 119 6 138 17 27 29 30 15 4z m429 -17 c-4
-20 -4 -38 1 -41 5 -3 9 0 9 6 0 6 5 8 10 5 15 -9 12 -89 -5 -111 -14 -18 -14
-18 -8 4 3 13 1 22 -6 22 -6 0 -11 -6 -11 -12 0 -9 -4 -8 -10 2 -9 13 -12 13
-24 -2 -7 -10 -15 -18 -17 -18 -7 0 -2 120 4 127 4 3 7 1 7 -5 0 -7 7 -12 16
-12 10 0 14 6 11 14 -5 12 17 56 28 56 1 0 -1 -16 -5 -35z m-1789 -45 l6 -35
2 38 c1 39 21 53 21 15 0 -13 5 -30 10 -38 7 -11 10 -5 10 23 0 30 4 37 20 37
16 0 20 -7 21 -37 l1 -38 12 40 13 40 8 -37 c10 -49 35 -51 35 -3 0 28 4 35
20 35 16 0 20 -7 21 -37 l2 -38 6 35 c4 26 11 35 26 35 15 0 21 -8 25 -35 l6
-35 8 39 c6 29 10 36 17 25 5 -8 9 -25 10 -39 1 -19 3 -17 8 10 7 40 35 53 44
20 3 -11 1 -22 -3 -25 -5 -3 -11 5 -13 17 -3 17 -5 14 -6 -9 -1 -23 3 -33 14
-33 15 0 19 16 16 53 -1 9 3 17 8 17 6 0 12 -17 13 -37 l1 -38 4 38 c2 20 8
37 13 37 9 0 16 -61 12 -107 -2 -18 -7 -33 -13 -33 -5 0 -10 15 -11 33 l-1 32
-5 -35 -5 -35 -6 30 c-8 41 -41 48 -40 8 l1 -28 8 25 8 25 1 -27 c1 -40 -26
-36 -39 5 l-10 32 3 -32 c2 -18 0 -33 -5 -33 -4 0 -9 15 -9 33 l-1 32 -7 -29
c-5 -22 -13 -30 -33 -33 -27 -4 -33 3 -29 34 1 6 -4 15 -10 19 -8 5 -10 -2 -7
-25 2 -17 1 -31 -4 -31 -4 0 -9 15 -10 33 l-1 32 -4 -32 c-5 -41 -23 -43 -23
-3 0 21 -5 30 -16 30 -12 0 -15 -7 -12 -30 3 -16 1 -30 -4 -30 -4 0 -9 15 -9
33 -2 27 -2 28 -6 7 -3 -14 -9 -29 -14 -35 -6 -6 -7 3 -3 24 6 29 4 33 -12 29
-11 -2 -21 -15 -25 -33 l-7 -30 -2 35 -3 35 -7 -35 -7 -35 -2 35 -3 35 -13
-35 -13 -35 -1 33 c-1 44 -30 44 -32 0 l-2 -33 -4 30 c-3 16 -10 33 -16 37 -9
6 -9 8 1 8 7 0 12 14 12 36 0 49 32 44 41 -6z m1588 20 c9 12 11 12 17 -3 5
-14 9 -15 20 -6 16 13 20 4 27 -46 l4 -30 2 33 c1 36 24 67 41 57 15 -9 12
-84 -4 -101 -11 -10 -15 -11 -19 -1 -3 9 -9 9 -26 -1 -20 -12 -21 -10 -21 28
0 22 -5 40 -11 40 -6 0 -10 -12 -9 -27 3 -42 1 -53 -10 -53 -6 0 -8 10 -4 24
3 14 1 33 -5 43 -10 16 -11 14 -9 -12 2 -32 -7 -55 -23 -55 -6 0 -7 5 -3 12 4
7 7 35 5 62 -1 38 1 47 9 36 9 -13 11 -13 19 0z m-949 -14 c0 -7 -7 -19 -15
-26 -8 -7 -15 -18 -15 -26 0 -7 -4 -16 -10 -19 -6 -4 -10 12 -10 39 0 42 2 46
25 46 15 0 25 -6 25 -14z m58 -27 c2 -23 -2 -40 -12 -48 -24 -20 -36 -4 -36
45 0 41 2 45 23 42 17 -2 23 -10 25 -39z m26 1 c-4 -26 -2 -40 5 -40 6 0 11
18 11 40 0 36 3 40 24 40 23 0 24 -3 19 -42 -5 -51 -13 -61 -44 -56 -21 3 -24
9 -27 51 -2 27 1 47 7 47 6 0 8 -16 5 -40z m116 29 c0 -6 -7 -9 -15 -5 -8 3
-15 1 -15 -4 0 -6 8 -10 18 -10 16 -1 16 -1 0 -11 -10 -5 -18 -17 -18 -24 0
-18 16 -20 24 -2 3 6 5 3 3 -8 -1 -11 -9 -20 -17 -20 -11 0 -16 14 -18 48 -3
42 -1 47 17 47 12 0 21 -5 21 -11z m59 -46 c-1 -32 -3 -49 -6 -38 -10 45 -16
51 -23 25 -6 -20 -8 -15 -9 23 -1 41 2 47 19 47 18 0 20 -6 19 -57z m39 -23
c4 0 6 18 4 40 -4 38 -3 40 22 40 26 0 27 -2 24 -47 -3 -46 -4 -48 -33 -48
-29 0 -30 1 -31 50 -1 45 -1 46 3 8 2 -24 7 -43 11 -43z m112 36 c0 -47 -12
-65 -33 -47 -14 11 -21 66 -12 82 4 5 15 9 26 9 16 0 19 -7 19 -44z m30 8 c0
-21 4 -33 10 -29 6 4 8 10 5 15 -3 5 -1 11 5 15 6 4 10 -5 10 -19 0 -14 -4
-26 -9 -26 -5 0 -16 -3 -25 -6 -13 -5 -16 2 -16 40 0 25 5 46 10 46 6 0 10
-16 10 -36z m90 25 c0 -6 -7 -9 -15 -5 -8 3 -15 1 -15 -4 0 -6 6 -10 13 -11
10 0 10 -2 0 -6 -7 -2 -13 -16 -13 -29 0 -13 -4 -24 -10 -24 -5 0 -10 20 -10
45 0 41 2 45 25 45 14 0 25 -5 25 -11z m-397 -219 c-4 -14 -1 -19 8 -15 11 4
15 -7 16 -46 3 -62 -9 -88 -18 -39 l-6 35 -2 -33 c-1 -44 -21 -31 -21 14 0 19
-5 34 -11 34 -8 0 -9 -13 -5 -39 6 -40 -7 -65 -18 -35 -18 48 5 117 34 99 6
-4 11 -1 9 6 -3 25 1 39 10 39 5 0 7 -9 4 -20z m127 5 c-7 -8 -9 -15 -4 -15 5
0 7 -33 5 -72 -3 -59 -5 -68 -13 -48 -5 13 -8 53 -7 87 2 48 6 63 17 63 12 0
12 -3 2 -15z m-190 1 c0 -3 -4 -8 -10 -11 -5 -3 -10 -1 -10 4 0 6 5 11 10 11
6 0 10 -2 10 -4z m282 -53 c0 -78 0 -77 -17 -63 -11 9 -15 9 -15 1 0 -7 -4 -9
-10 -6 -5 3 -10 31 -10 61 0 65 19 65 22 1 l1 -42 4 40 c8 82 25 88 25 8z
m110 -15 c4 -68 3 -87 -6 -77 -8 9 -14 149 -7 149 5 0 11 -33 13 -72z m37 -58
c0 -24 -2 -30 -8 -20 -8 14 -16 123 -11 145 4 14 18 -83 19 -125z m-1097 90
c25 -34 35 -37 41 -12 3 9 5 -3 4 -28 0 -25 -2 -35 -4 -22 -5 26 -23 30 -23 5
0 -49 -90 -73 -127 -34 -10 10 -25 21 -33 24 -12 4 -11 6 3 6 11 1 17 9 17 23
0 31 38 68 71 68 20 0 35 -9 51 -30z m817 -76 c-17 -20 -29 -1 -29 48 0 25 6
40 18 47 15 9 17 4 20 -35 2 -26 -2 -52 -9 -60z m-389 70 c0 -22 2 -25 15 -14
10 8 12 17 6 24 -7 8 -4 12 9 12 10 0 17 -4 14 -7 -2 -4 0 -10 6 -14 5 -3 10
-12 10 -18 0 -7 -4 -6 -10 3 -8 13 -11 13 -24 0 -8 -8 -21 -28 -29 -43 -13
-26 -15 -26 -20 -7 -3 11 -1 20 4 20 5 0 9 14 9 30 0 36 -20 40 -44 8 -9 -13
-14 -16 -10 -8 13 28 26 40 45 40 14 0 19 -7 19 -26z m602 -42 c4 -42 2 -52
-8 -48 -8 3 -14 0 -15 -7 -1 -26 -18 30 -18 64 -1 35 17 66 30 52 4 -5 9 -32
11 -61z m-822 54 c0 -2 -8 -10 -17 -17 -16 -13 -17 -12 -4 4 13 16 21 21 21
13z m50 -23 c0 -19 -3 -24 -10 -17 -6 6 -8 18 -4 27 9 24 14 21 14 -10z m402
-38 c0 -31 -3 -59 -6 -62 -3 -4 -6 6 -6 21 0 15 -4 25 -9 22 -5 -4 -12 0 -14
6 -4 10 -8 9 -16 -2 -9 -12 -11 -10 -11 11 0 28 17 54 40 61 22 7 23 4 22 -57z
m-567 19 c16 -31 20 -33 26 -17 6 14 8 11 8 -12 l0 -30 -24 29 -23 29 -4 -29
c-3 -22 -5 -18 -8 19 -3 26 -3 47 0 47 3 0 14 -16 25 -36z m230 22 c18 -13 18
-14 -8 -9 -15 3 -27 9 -27 14 0 13 13 11 35 -5z m-178 -28 c-3 -7 -5 -2 -5 12
0 14 2 19 5 13 2 -7 2 -19 0 -25z m78 12 c-3 -5 -12 -10 -18 -10 -7 0 -6 4 3
10 19 12 23 12 15 0z m1079 -6 c3 -8 2 -12 -4 -9 -6 3 -10 10 -10 16 0 14 7
11 14 -7z m33 -6 c-3 -8 -6 -5 -6 6 -1 11 2 17 5 13 3 -3 4 -12 1 -19z m120 0
c-3 -8 -6 -5 -6 6 -1 11 2 17 5 13 3 -3 4 -12 1 -19z m159 -6 c-17 -16 -18
-16 -5 5 7 12 15 20 18 17 3 -2 -3 -12 -13 -22z m71 -9 c-3 -10 -5 -4 -5 12 0
17 2 24 5 18 2 -7 2 -21 0 -30z m60 0 c-3 -10 -5 -4 -5 12 0 17 2 24 5 18 2
-7 2 -21 0 -30z m30 0 c-3 -10 -5 -4 -5 12 0 17 2 24 5 18 2 -7 2 -21 0 -30z
m-1452 -3 c14 -17 15 -21 3 -12 -13 10 -17 10 -21 0 -3 -7 -6 0 -6 16 -1 16 0
27 2 25 1 -2 11 -15 22 -29z m155 -30 c-6 -11 -16 -20 -22 -20 -6 0 -3 9 7 20
10 11 20 20 22 20 2 0 -1 -9 -7 -20z m-90 -10 c18 -12 2 -12 -25 0 -13 6 -15
9 -5 9 8 0 22 -4 30 -9z m238 -7 c-4 -22 -22 -20 -26 1 -2 10 3 16 13 16 10 0
15 -7 13 -17z m-203 -3 c3 -5 1 -10 -4 -10 -6 0 -11 5 -11 10 0 6 2 10 4 10 3
0 8 -4 11 -10z m535 -170 c0 -13 -20 -13 -40 0 -12 8 -9 10 13 10 15 0 27 -4
27 -10z m127 -60 c3 -11 12 -20 19 -20 8 0 14 -5 14 -12 0 -13 29 -48 41 -48
5 0 6 8 3 18 -5 14 -3 14 10 -2 9 -11 16 -26 16 -33 0 -7 7 -13 16 -13 9 0 18
-9 21 -20 3 -11 10 -17 16 -13 6 3 7 1 3 -6 -6 -9 -11 -9 -22 0 -7 6 -11 16
-7 22 4 6 1 7 -6 2 -9 -5 -10 -10 -2 -18 13 -13 15 -40 2 -32 -5 3 -11 -3 -13
-12 -3 -15 -6 -15 -25 6 l-21 22 -20 -21 c-16 -17 -21 -18 -25 -7 -3 8 -19 21
-35 29 l-29 15 -7 -71 c-5 -60 -10 -75 -32 -94 -26 -23 -51 -25 -46 -3 1 7 -1
10 -5 8 -5 -3 -28 24 -53 60 -43 63 -45 69 -49 150 -3 83 -3 85 18 74 18 -10
20 -9 15 6 -5 15 -4 16 5 3 6 -11 23 -15 51 -13 34 2 41 -1 36 -13 -3 -9 -1
-12 4 -9 6 3 10 14 10 25 0 13 5 17 18 13 10 -2 24 3 31 11 18 22 42 20 48 -4z
m-517 -9 c0 -6 8 -10 18 -10 59 -1 97 -11 110 -27 14 -18 15 -18 8 0 -4 12 -1
23 6 28 18 11 30 10 23 -2 -3 -5 -1 -18 5 -27 11 -16 11 -16 6 -1 -9 29 12 30
22 1 l10 -28 10 26 c6 15 18 29 26 32 14 5 16 -3 16 -56 0 -68 -31 -143 -91
-218 -25 -31 -36 -38 -53 -33 -19 6 -20 5 -6 -12 14 -18 14 -18 -3 -5 -9 8
-15 16 -12 19 3 3 -1 12 -9 21 -7 9 -16 31 -19 49 -7 34 -6 35 46 46 15 4 27
12 27 19 0 14 -39 41 -47 33 -3 -3 -14 -1 -24 5 -18 9 -19 5 -19 -52 0 -50 -6
-71 -31 -115 -16 -29 -35 -57 -41 -60 -7 -4 -8 -2 -4 4 13 21 -10 13 -33 -12
-14 -14 -18 -26 -12 -30 19 -12 0 -33 -29 -33 -19 0 -32 6 -35 17 -7 21 -55
24 -55 4 0 -23 -45 -35 -74 -20 -14 7 -23 16 -20 19 3 3 -3 3 -15 0 -20 -5
-21 -2 -21 71 0 44 -4 76 -10 76 -5 0 -10 -26 -10 -57 0 -32 -5 -65 -10 -73
-6 -10 -10 -11 -10 -2 0 6 -6 12 -13 12 -16 0 -33 33 -41 77 -4 25 -2 31 9 26
11 -4 15 2 15 23 0 23 2 26 10 14 8 -12 10 -11 10 7 0 12 -6 24 -12 26 -10 4
-10 8 1 15 7 5 10 15 7 21 -9 13 4 14 23 2 8 -5 11 -16 8 -25 -4 -9 -3 -16 1
-17 4 0 14 -2 22 -4 10 -1 15 5 15 20 0 13 -3 21 -6 19 -8 -5 -22 46 -15 54 3
2 8 -3 12 -12 8 -21 19 -20 43 5 11 12 21 16 25 10 4 -5 -1 -14 -10 -19 -13
-7 -15 -17 -10 -46 4 -20 10 -36 13 -36 3 0 20 9 38 20 l32 20 16 -32 c9 -18
12 -34 7 -36 -12 -4 -1 -32 14 -32 13 0 46 -55 46 -76 0 -9 5 -12 10 -9 6 3 7
17 4 31 -7 26 -2 29 26 14 14 -8 19 -5 25 13 10 30 6 50 -11 60 -8 4 -14 13
-14 18 0 6 -14 24 -30 41 -27 27 -60 86 -60 109 0 5 7 6 15 3 11 -5 13 -2 9
10 -5 13 -2 15 12 10 11 -4 16 -4 12 0 -13 15 56 72 90 75 6 1 12 -3 12 -8z
m-290 -51 c0 -5 -2 -10 -4 -10 -3 0 -8 5 -11 10 -3 6 -1 10 4 10 6 0 11 -4 11
-10z m935 -19 c3 -5 1 -12 -5 -16 -5 -3 -10 1 -10 9 0 18 6 21 15 7z m-920
-48 c-8 -17 -8 -17 -12 0 -3 9 -11 17 -19 17 -17 0 -19 17 -1 23 19 7 41 -19
32 -40z m-75 17 c0 -5 -5 -10 -11 -10 -5 0 -7 5 -4 10 3 6 8 10 11 10 2 0 4
-4 4 -10z m630 -203 c12 -145 9 -197 -10 -197 -26 0 -30 42 -18 194 7 85 13
154 14 153 1 -1 7 -69 14 -150z m230 78 c-9 -11 -9 -22 -2 -45 15 -41 4 -38
-14 5 -19 46 -18 55 7 55 18 0 19 -3 9 -15z m-128 -171 c25 -38 55 -79 66 -90
24 -26 19 -34 -20 -34 -27 0 -32 7 -63 73 -29 63 -66 179 -65 203 1 5 9 -12
19 -37 10 -25 38 -77 63 -115z m-172 64 c-12 -40 -35 -98 -51 -130 -26 -51
-33 -58 -59 -58 -17 0 -30 3 -30 6 0 3 20 33 45 66 24 32 59 90 77 127 18 37
35 67 37 65 2 -2 -7 -36 -19 -76z m340 72 c0 -5 -5 -10 -11 -10 -5 0 -7 5 -4
10 3 6 8 10 11 10 2 0 4 -4 4 -10z m-87 -60 c-3 -10 -12 -25 -21 -32 -13 -11
-15 -10 -9 6 6 14 4 17 -8 12 -10 -3 -13 -2 -10 5 4 6 13 8 20 5 7 -2 16 2 19
10 8 21 15 17 9 -6z m-364 -35 c0 -5 -6 -1 -14 9 -8 11 -15 24 -15 30 0 5 7 1
15 -10 8 -10 14 -23 14 -29z m54 14 c-34 -57 -159 -179 -184 -179 -21 0 -20 3
16 32 22 17 72 64 110 104 39 39 71 72 73 73 2 0 -5 -13 -15 -30z m332 -87 c3
3 0 17 -9 30 -11 17 -13 31 -7 53 9 30 9 30 10 -9 1 -22 8 -48 18 -58 12 -13
13 -18 3 -18 -9 0 -5 -9 10 -25 13 -14 28 -25 33 -25 6 0 0 11 -13 25 -22 23
-19 30 12 27 3 -1 9 5 12 14 3 8 1 12 -4 9 -6 -4 -7 1 -3 11 5 13 3 15 -8 9
-11 -7 -12 -6 -2 6 10 12 10 18 0 29 -10 10 -9 11 2 5 10 -6 12 -2 6 14 -5 16
-2 21 10 21 14 0 16 -9 13 -55 -2 -40 1 -56 11 -60 11 -4 11 -9 3 -17 -15 -15
4 -49 26 -46 9 2 16 -3 15 -9 -2 -7 2 -13 9 -13 6 0 9 -3 5 -6 -3 -4 -22 4
-41 16 -35 21 -48 16 -24 -8 9 -9 7 -12 -10 -12 -25 0 -119 91 -171 166 -32
47 -31 46 26 -16 34 -36 64 -62 68 -58z m-424 39 c-8 -22 -9 -19 -10 24 0 42
2 46 10 26 6 -15 6 -34 0 -50z m465 -28 c-3 -4 -13 10 -21 30 -21 51 -18 59 6
14 11 -22 18 -41 15 -44z m-496 38 c0 -5 -9 -19 -20 -32 l-20 -24 17 32 c19
34 23 39 23 24z m-30 -72 c-30 -26 -84 -62 -70 -46 10 11 95 76 100 76 3 0
-11 -13 -30 -30z m-420 -9 c6 -11 7 -20 2 -20 -6 0 -12 9 -15 20 -3 11 -3 20
-1 20 2 0 8 -9 14 -20z m660 -31 c0 -5 -7 -9 -15 -9 -9 0 -12 6 -9 15 6 15 24
11 24 -6z m80 0 c0 -5 -7 -9 -15 -9 -15 0 -20 12 -9 23 8 8 24 -1 24 -14z
m-636 -302 c9 -15 6 -23 -17 -43 l-28 -24 25 0 c16 0 26 -6 26 -15 0 -11 -12
-15 -50 -15 -41 0 -50 3 -50 18 0 9 17 28 38 42 30 19 33 25 18 28 -10 2 -23
-1 -29 -7 -6 -6 -15 -11 -19 -11 -10 0 -11 34 -1 44 14 13 76 1 87 -17z m130
7 c9 -23 7 -77 -3 -92 -5 -8 -23 -12 -47 -10 -35 3 -39 6 -46 41 -11 55 3 77
51 77 26 0 41 -5 45 -16z m189 -31 c-7 -72 -9 -75 -50 -71 -27 2 -39 8 -41 21
-2 10 3 17 12 17 9 0 16 -4 16 -10 0 -5 7 -7 15 -4 10 4 15 20 15 50 0 36 3
44 19 44 16 0 18 -6 14 -47z m57 2 c0 -41 2 -45 25 -45 23 0 25 4 25 45 0 34
4 45 15 45 13 0 15 -11 13 -57 l-3 -58 -39 -3 c-21 -2 -43 1 -49 7 -10 10 -17
88 -10 104 11 21 23 2 23 -38z m140 -15 c0 -42 -4 -60 -13 -60 -13 0 -21 70
-11 103 11 37 24 14 24 -43z m89 23 l31 -38 0 38 c0 26 4 37 15 37 12 0 15
-13 15 -60 0 -70 -14 -77 -53 -30 -30 35 -37 37 -37 11 0 -11 -4 -22 -9 -25
-15 -9 -23 64 -12 102 4 10 25 -4 50 -35z m229 31 c14 -4 22 -14 22 -29 0 -12
-10 -30 -22 -38 l-23 -16 23 0 c13 -1 22 -7 22 -16 0 -11 -12 -15 -50 -15 -61
0 -67 19 -15 52 44 29 44 42 0 34 -36 -7 -44 1 -23 22 13 13 31 15 66 6z m156
-32 c14 -49 -5 -82 -47 -82 -42 0 -57 15 -57 56 0 56 8 65 53 62 37 -3 42 -6
51 -36z m75 -22 c-2 -42 -6 -60 -16 -60 -9 0 -13 13 -13 41 0 24 -4 38 -10 34
-14 -9 -12 19 2 33 28 28 39 13 37 -48z m120 46 c7 -8 11 -34 9 -58 l-3 -43
-44 0 c-27 0 -46 5 -49 13 -2 8 6 12 29 10 18 -2 34 2 36 10 3 8 -7 12 -31 12
-33 0 -36 2 -36 28 0 16 3 32 7 35 12 13 70 7 82 -7z m-1629 -292 c0 -8 -7
-14 -15 -14 -15 0 -21 21 -9 33 10 9 24 -2 24 -19z m117 6 c1 -11 -2 -20 -8
-20 -5 0 -9 9 -9 20 0 11 4 20 8 20 4 0 8 -9 9 -20z m36 0 c-3 -12 -8 -19 -11
-16 -5 6 5 36 12 36 2 0 2 -9 -1 -20z m47 -6 c0 -8 -7 -14 -15 -14 -15 0 -21
21 -9 33 10 9 24 -2 24 -19z m46 6 c0 -11 -4 -20 -8 -20 -4 0 -8 9 -8 20 0 11
4 20 8 20 4 0 8 -9 8 -20z m37 0 c-3 -12 -8 -19 -11 -16 -5 6 5 36 12 36 2 0
2 -9 -1 -20z m108 -13 c-8 -8 -11 -7 -11 4 0 20 13 34 18 19 3 -7 -1 -17 -7
-23z m97 10 c3 -12 -2 -16 -17 -14 -11 2 -24 6 -27 10 -4 4 -12 7 -18 7 -6 0
-4 -5 4 -10 13 -8 12 -10 -2 -10 -17 0 -25 20 -13 32 3 3 20 5 38 4 21 -1 33
-7 35 -19z m110 -8 c-3 -8 -7 -3 -11 10 -4 17 -3 21 5 13 5 -5 8 -16 6 -23z
m67 10 c0 -8 -9 -14 -21 -15 -11 -1 -21 5 -21 12 0 10 4 11 14 2 7 -6 16 -8
20 -4 3 3 1 6 -5 6 -7 0 -12 5 -12 11 0 6 6 9 13 7 6 -3 12 -11 12 -19z m85
-5 c0 -8 -7 -14 -15 -14 -15 0 -21 21 -9 33 10 9 24 -2 24 -19z m60 0 c0 -8
-7 -14 -15 -14 -15 0 -21 21 -9 33 10 9 24 -2 24 -19z m60 -6 c0 -5 -7 -8 -15
-8 -15 0 -20 21 -8 33 7 7 23 -11 23 -25z m37 15 c2 -6 -3 -13 -12 -16 -10 -5
-15 0 -15 14 0 21 21 22 27 2z m41 -6 c2 -11 -3 -17 -15 -17 -15 0 -16 2 -3
10 10 6 11 10 3 10 -7 0 -13 5 -13 11 0 17 25 4 28 -14z m165 3 c-7 -26 -53
-28 -53 -2 0 15 2 15 10 2 9 -13 12 -13 21 3 14 23 28 22 22 -3z m47 -12 c0
-5 -7 -8 -15 -8 -15 0 -20 21 -8 33 7 7 23 -11 23 -25z m133 16 c21 -8 23 -24
2 -24 -8 0 -15 5 -15 11 0 8 -5 7 -15 -1 -19 -15 -30 -7 -21 15 3 9 12 14 19
11 6 -3 20 -9 30 -12z m61 -8 c-6 -16 -34 -17 -34 -1 0 17 10 24 25 18 8 -2
12 -10 9 -17z m94 2 c2 -8 -4 -15 -13 -15 -8 0 -15 9 -15 20 0 22 23 18 28 -5z
m62 -4 c0 -8 -7 -14 -15 -14 -15 0 -21 21 -9 33 10 9 24 -2 24 -19z m84 -4
c-6 -6 -10 -3 -10 10 0 13 4 16 10 10 7 -7 7 -13 0 -20z m74 7 c2 -12 -3 -17
-17 -17 -12 0 -21 6 -21 13 0 31 32 34 38 4z m28 3 c0 -11 -4 -20 -8 -20 -4 0
-8 9 -8 20 0 11 4 20 8 20 4 0 8 -9 8 -20z m44 9 c0 -5 -4 -7 -10 -4 -5 3 -10
2 -10 -4 0 -5 6 -12 13 -14 7 -3 5 -6 -5 -6 -18 -1 -24 19 -11 32 10 10 23 8
23 -4z m26 -26 c-11 -11 -19 6 -11 24 8 17 8 17 12 0 3 -10 2 -21 -1 -24z
m116 29 c5 15 28 1 28 -17 0 -16 -67 -19 -76 -4 -2 5 -12 5 -21 2 -11 -4 -14
-3 -9 6 5 7 14 10 22 7 8 -3 14 -1 14 5 0 6 7 6 19 -1 14 -7 20 -7 23 2z m54
-12 c0 -11 -4 -20 -8 -20 -4 0 -8 9 -8 20 0 11 4 20 8 20 4 0 8 -9 8 -20z m64
-6 c0 -8 -7 -14 -15 -14 -15 0 -21 21 -9 33 10 9 24 -2 24 -19z m84 18 c6 -10
-5 -26 -21 -29 -7 -2 -13 3 -13 10 0 24 23 36 34 19z m-2067 -24 c-3 -8 -6 -5
-6 6 -1 11 2 17 5 13 3 -3 4 -12 1 -19z m41 8 c5 9 11 8 20 -2 11 -12 8 -14
-18 -14 -22 0 -30 5 -30 18 0 14 2 15 10 2 7 -11 12 -12 18 -4z m269 -8 c-3
-8 -6 -5 -6 6 -1 11 2 17 5 13 3 -3 4 -12 1 -19z m43 6 c0 -8 -6 -11 -15 -8
-8 4 -15 9 -15 13 0 4 7 8 15 8 8 0 15 -6 15 -13z m165 6 c-3 -5 -11 -10 -16
-10 -6 0 -7 5 -4 10 3 6 11 10 16 10 6 0 7 -4 4 -10z m39 -5 c4 -10 -1 -15
-16 -15 -17 0 -18 2 -8 15 7 8 14 15 15 15 2 0 5 -7 9 -15z m136 -1 c0 -8 -6
-11 -15 -8 -8 4 -15 9 -15 13 0 4 7 8 15 8 8 0 15 -6 15 -13z m117 -6 c-3 -8
-6 -5 -6 6 -1 11 2 17 5 13 3 -3 4 -12 1 -19z m163 6 c0 -8 -6 -11 -15 -8 -8
4 -15 9 -15 13 0 4 7 8 15 8 8 0 15 -6 15 -13z m17 -6 c-3 -8 -6 -5 -6 6 -1
11 2 17 5 13 3 -3 4 -12 1 -19z m43 7 c0 -8 -7 -15 -15 -15 -8 0 -15 7 -15 15
0 8 7 15 15 15 8 0 15 -7 15 -15z m164 0 c4 -10 -1 -15 -16 -15 -17 0 -18 2
-8 15 7 8 14 15 15 15 2 0 5 -7 9 -15z m163 -7 c-3 -8 -6 -5 -6 6 -1 11 2 17
5 13 3 -3 4 -12 1 -19z m164 13 c7 11 9 10 9 -3 0 -10 -7 -18 -15 -18 -8 0
-15 8 -14 18 0 12 2 13 6 3 5 -11 7 -11 14 0z m490 0 c7 11 9 10 9 -3 0 -10
-7 -18 -15 -18 -8 0 -15 8 -14 18 0 12 2 13 6 3 5 -11 7 -11 14 0z m-1331 -72
c0 -18 -24 -21 -37 -4 -12 17 -13 17 -13 2 0 -15 -3 -16 -22 -5 l-23 12 25 6
c30 7 70 1 70 -11z m96 1 c0 -9 -6 -17 -13 -17 -7 0 -13 8 -13 17 0 9 6 17 13
17 7 0 13 -8 13 -17z m44 -1 c0 -12 -5 -16 -15 -13 -8 4 -15 12 -15 18 0 7 7
13 15 13 8 0 15 -8 15 -18z m40 1 c0 -11 -4 -20 -9 -20 -14 0 -23 18 -16 30
10 17 25 11 25 -10z m33 0 c-3 -11 -7 -20 -8 -20 -1 0 -5 9 -8 20 -3 12 0 20
8 20 8 0 11 -8 8 -20z m30 0 c-3 -12 -8 -19 -11 -16 -5 6 5 36 12 36 2 0 2 -9
-1 -20z m43 0 c0 -11 -6 -20 -13 -20 -7 0 -13 9 -13 20 0 11 6 20 13 20 7 0
13 -9 13 -20z m29 10 c-3 -5 -1 -10 4 -10 6 0 11 -4 11 -10 0 -5 -7 -10 -15
-10 -8 0 -15 9 -15 20 0 11 5 20 11 20 5 0 7 -4 4 -10z m38 -10 c-3 -11 -7
-20 -9 -20 -2 0 -4 9 -4 20 0 11 4 20 9 20 5 0 7 -9 4 -20z m28 -13 c-8 -8
-11 -7 -11 4 0 20 13 34 18 19 3 -7 -1 -17 -7 -23z m57 12 c2 -9 -5 -15 -18
-15 -11 0 -20 5 -20 11 0 28 33 31 38 4z m73 12 c6 10 9 8 9 -8 0 -16 -4 -21
-15 -17 -8 4 -15 14 -14 23 0 12 2 12 6 2 5 -11 7 -11 14 0z m39 -1 c-13 -9
-13 -11 0 -20 13 -8 12 -10 -2 -10 -11 0 -18 8 -18 20 0 12 7 20 18 20 14 0
15 -2 2 -10z m37 -10 c1 -11 -2 -20 -8 -20 -5 0 -9 9 -9 20 0 11 4 20 8 20 4
0 8 -9 9 -20z m53 10 c-13 -9 -13 -11 0 -20 9 -6 10 -10 3 -10 -15 0 -26 17
-18 30 3 6 12 10 18 10 7 0 6 -4 -3 -10z m50 -10 c0 -11 -4 -20 -9 -20 -14 0
-23 18 -16 30 10 17 25 11 25 -10z m41 -3 c-10 -9 -11 -8 -5 6 3 10 9 15 12
12 3 -3 0 -11 -7 -18z m-687 -1 c-3 -8 -12 -12 -20 -9 -21 8 -17 23 6 23 13 0
18 -5 14 -14z m431 4 c3 -5 -1 -10 -10 -10 -9 0 -13 5 -10 10 3 6 8 10 10 10
2 0 7 -4 10 -10z m-707 -112 c7 -7 12 -8 12 -2 0 5 14 9 30 9 46 0 30 -19 -17
-21 -27 -1 -43 3 -43 10 0 6 -5 4 -10 -4 -5 -8 -10 -10 -10 -4 0 24 20 30 38
12z m125 -3 c-3 -9 -8 -14 -10 -11 -3 3 -2 9 2 15 9 16 15 13 8 -4z m34 0 c0
-8 -4 -15 -9 -15 -4 0 -8 7 -8 15 0 8 4 15 8 15 5 0 9 -7 9 -15z m33 -6 c0 -5
-4 -9 -10 -9 -5 0 -10 7 -10 16 0 8 5 12 10 9 6 -3 10 -10 10 -16z m50 9 c0
-4 -4 -10 -10 -13 -5 -3 -10 0 -10 7 0 9 -3 9 -10 -2 -8 -13 -10 -13 -10 2 0
11 7 16 20 15 11 -1 20 -5 20 -9z m40 2 c0 -5 7 -7 15 -4 8 4 15 1 15 -5 0 -6
-13 -11 -30 -11 -20 0 -30 5 -30 15 0 8 7 15 15 15 8 0 15 -4 15 -10z m87 -6
c0 -8 -9 -12 -21 -10 -28 4 -31 21 -3 22 14 1 24 -4 24 -12z m29 -11 c-10 -10
-19 5 -10 18 6 11 8 11 12 0 2 -7 1 -15 -2 -18z m464 6 c0 -5 -7 -9 -15 -9 -9
0 -12 6 -9 15 6 15 24 11 24 -6z m100 5 c0 -9 -8 -12 -22 -10 -13 3 -26 5 -30
5 -5 1 -8 4 -8 9 0 4 14 7 30 8 19 1 30 -4 30 -12z m17 -6 c-3 -8 -6 -5 -6 6
-1 11 2 17 5 13 3 -3 4 -12 1 -19z m25 0 c-7 -7 -12 -8 -12 -2 0 14 12 26 19
19 2 -3 -1 -11 -7 -17z m35 7 c0 -8 -4 -15 -9 -15 -4 0 -8 7 -8 15 0 8 4 15 8
15 5 0 9 -7 9 -15z m33 0 c0 -8 -4 -15 -10 -15 -5 0 -10 7 -10 15 0 8 5 15 10
15 6 0 10 -7 10 -15z m47 -7 c-3 -8 -6 -5 -6 6 -1 11 2 17 5 13 3 -3 4 -12 1
-19z m43 7 c0 -8 -4 -15 -10 -15 -5 0 -10 7 -10 15 0 8 5 15 10 15 6 0 10 -7
10 -15z m124 0 c-3 -7 -19 -11 -37 -10 -45 4 -47 4 -47 13 0 4 20 8 44 8 31 1
43 -2 40 -11z m-394 -5 c0 -5 -4 -10 -10 -10 -5 0 -10 5 -10 10 0 6 5 10 10
10 6 0 10 -4 10 -10z m300 0 c0 -5 -4 -10 -10 -10 -5 0 -10 5 -10 10 0 6 5 10
10 10 6 0 10 -4 10 -10z"/>
<path d="M1490 4100 c0 -5 6 -10 14 -10 8 0 18 5 21 10 3 6 -3 10 -14 10 -12
0 -21 -4 -21 -10z"/>
<path d="M1627 4093 c6 -15 4 -16 -9 -5 -26 21 -27 -1 -1 -25 l23 -22 0 34 c0
19 -4 35 -10 35 -5 0 -6 -8 -3 -17z"/>
<path d="M1497 4073 c-4 -3 -7 -17 -7 -30 0 -27 25 -31 32 -5 8 31 -7 53 -25
35z"/>
<path d="M1558 4063 c-12 -3 -18 -14 -18 -34 0 -23 4 -29 21 -29 18 0 20 2 8
16 -11 13 -9 14 14 9 21 -6 27 -3 27 9 0 18 -28 34 -52 29z"/>
<path d="M1471 4034 c0 -11 3 -14 6 -6 3 7 2 16 -1 19 -3 4 -6 -2 -5 -13z"/>
<path d="M1443 4010 c2 -8 12 -16 23 -17 13 -2 15 -1 4 4 -8 3 -19 11 -23 17
-6 7 -7 6 -4 -4z"/>
<path d="M1752 2881 c-7 -4 -15 -30 -19 -58 -5 -44 -3 -52 15 -62 31 -17 46 9
38 66 -7 53 -15 66 -34 54z"/>
<path d="M1336 2871 c-12 -18 5 -62 23 -59 22 4 22 62 -1 66 -9 2 -19 -1 -22
-7z"/>
<path d="M1638 2853 c7 -3 16 -2 19 1 4 3 -2 6 -13 5 -11 0 -14 -3 -6 -6z"/>
<path d="M1235 2481 c-7 -12 60 -64 76 -59 6 2 -2 17 -19 36 -31 33 -46 39
-57 23z"/>
<path d="M2384 2526 c-8 -22 14 -56 36 -56 14 0 20 7 20 23 0 39 -44 65 -56
33z"/>
<path d="M612 2504 c4 -21 22 -23 26 -1 2 10 -3 17 -13 17 -10 0 -15 -6 -13
-16z"/>
<path d="M781 2434 c0 -11 3 -14 6 -6 3 7 2 16 -1 19 -3 4 -6 -2 -5 -13z"/>
<path d="M541 2425 c0 -11 4 -29 8 -40 8 -19 8 -19 16 4 5 16 2 28 -9 39 -15
15 -16 15 -15 -3z"/>
<path d="M520 2391 c0 -6 4 -13 10 -16 6 -3 7 1 4 9 -7 18 -14 21 -14 7z"/>
<path d="M785 2381 c-6 -11 9 -23 19 -14 9 9 7 23 -3 23 -6 0 -12 -4 -16 -9z"/>
<path d="M1470 2400 c0 -11 5 -20 10 -20 6 0 10 9 10 20 0 11 -4 20 -10 20 -5
0 -10 -9 -10 -20z"/>
<path d="M1380 2390 c0 -5 5 -10 11 -10 5 0 7 5 4 10 -3 6 -8 10 -11 10 -2 0
-4 -4 -4 -10z"/>
<path d="M1710 2395 c1 -26 2 -28 11 -12 8 14 8 22 0 30 -8 8 -11 3 -11 -18z"/>
<path d="M2367 2123 c-13 -13 -7 -53 8 -53 10 0 15 10 15 30 0 29 -9 38 -23
23z"/>
<path d="M2412 2095 c0 -16 2 -22 5 -12 2 9 2 23 0 30 -3 6 -5 -1 -5 -18z"/>
<path d="M590 2129 c0 -18 3 -29 7 -25 10 10 11 46 1 52 -4 3 -8 -9 -8 -27z"/>
<path d="M802 2130 c0 -19 2 -27 5 -17 2 9 2 25 0 35 -3 9 -5 1 -5 -18z"/>
<path d="M852 2130 c0 -19 2 -27 5 -17 2 9 2 25 0 35 -3 9 -5 1 -5 -18z"/>
<path d="M685 2130 c2 -31 15 -37 15 -7 0 15 -4 27 -8 27 -5 0 -8 -9 -7 -20z"/>
<path d="M852 2065 c0 -16 2 -22 5 -12 2 9 2 23 0 30 -3 6 -5 -1 -5 -18z"/>
<path d="M877 2070 c-3 -11 -1 -23 4 -26 5 -3 9 6 9 20 0 31 -6 34 -13 6z"/>
<path d="M2302 2100 c0 -19 2 -27 5 -17 2 9 2 25 0 35 -3 9 -5 1 -5 -18z"/>
<path d="M1293 2100 c0 -25 2 -35 4 -22 2 12 2 32 0 45 -2 12 -4 2 -4 -23z"/>
<path d="M1370 2105 c0 -19 5 -35 10 -35 6 0 10 16 10 35 0 19 -4 35 -10 35
-5 0 -10 -16 -10 -35z"/>
<path d="M1583 2105 c0 -22 2 -30 4 -17 2 12 2 30 0 40 -3 9 -5 -1 -4 -23z"/>
<path d="M1641 2103 c0 -29 2 -33 8 -18 7 18 4 55 -5 55 -2 0 -4 -17 -3 -37z"/>
<path d="M594 1884 c12 -46 23 -47 28 -4 2 17 -3 25 -16 28 -16 3 -18 0 -12
-24z"/>
<path d="M561 1882 c-15 -29 -14 -42 5 -42 8 0 12 -5 9 -10 -4 -6 -11 -8 -16
-5 -14 9 -11 -2 7 -19 20 -21 31 -20 37 2 4 16 5 16 6 0 1 -22 27 -23 47 -4
16 17 19 46 4 46 -5 0 -10 -8 -10 -17 0 -13 -3 -14 -8 -6 -4 7 -18 11 -30 8
-17 -3 -22 1 -22 18 0 12 -4 28 -9 36 -7 11 -11 10 -20 -7z"/>
<path d="M636 1874 c-4 -9 -4 -19 -1 -22 3 -3 5 0 5 6 0 7 7 9 18 5 15 -6 15
-5 3 10 -17 21 -17 21 -25 1z"/>
<path d="M1472 1860 c0 -19 2 -27 5 -17 2 9 2 25 0 35 -3 9 -5 1 -5 -18z"/>
<path d="M1673 1845 c0 -22 2 -30 4 -17 2 12 2 30 0 40 -3 9 -5 -1 -4 -23z"/>
<path d="M1280 1860 c-8 -5 -11 -13 -6 -17 5 -4 11 -2 13 5 3 6 9 10 14 6 5
-3 9 0 9 5 0 13 -10 14 -30 1z"/>
<path d="M1705 1540 c-3 -5 -1 -10 4 -10 6 0 11 5 11 10 0 6 -2 10 -4 10 -3 0
-8 -4 -11 -10z"/>
<path d="M1620 1302 c0 -12 19 -26 26 -19 2 2 -2 10 -11 17 -9 8 -15 8 -15 2z"/>
<path d="M1195 1530 c-3 -5 -3 -10 1 -10 3 0 -1 -11 -10 -25 -9 -14 -13 -25
-9 -25 13 0 43 59 33 65 -5 3 -11 1 -15 -5z"/>
<path d="M1129 1368 c15 -21 31 -23 31 -6 0 6 -3 8 -7 5 -3 -4 -13 -1 -22 6
-14 11 -14 10 -2 -5z"/>
<path d="M1177 1329 c7 -7 15 -10 18 -7 3 3 -2 9 -12 12 -14 6 -15 5 -6 -5z"/>
<path d="M952 1295 c6 -14 13 -24 14 -22 6 6 -9 47 -17 47 -5 0 -3 -11 3 -25z"/>
<path d="M847 1257 c-3 -9 -2 -19 4 -23 15 -9 18 -2 9 20 -6 17 -7 18 -13 3z"/>
<path d="M1068 1205 c-4 -17 -1 -25 8 -25 8 0 14 11 14 25 0 14 -4 25 -9 25
-5 0 -11 -11 -13 -25z"/>
<path d="M972 713 c2 -20 9 -29 26 -31 19 -3 22 1 22 27 0 27 -4 31 -26 31
-22 0 -25 -4 -22 -27z"/>
<path d="M1836 742 c-3 -3 -6 -18 -6 -34 0 -23 4 -28 25 -28 21 0 25 5 25 29
0 20 -6 30 -19 34 -11 3 -22 2 -25 -1z"/>
<path d="M2030 730 c0 -5 11 -10 25 -10 14 0 25 5 25 10 0 6 -11 10 -25 10
-14 0 -25 -4 -25 -10z"/>
<path d="M2768 108 c-2 -13 -1 -34 2 -48 5 -25 18 -28 78 -21 7 0 12 17 12 46
l0 45 -44 0 c-37 0 -44 -3 -48 -22z m66 -4 c20 -19 5 -54 -24 -54 -23 0 -36
36 -20 55 16 19 25 19 44 -1z"/>
<path d="M2790 93 c0 -7 9 -17 20 -23 17 -9 20 -8 20 10 0 11 -4 20 -10 20 -5
0 -10 -6 -10 -12 0 -9 -4 -8 -10 2 -6 9 -10 10 -10 3z"/>
<path d="M1489 113 c-6 -37 -4 -53 6 -53 14 0 24 28 18 48 -5 13 -22 17 -24 5z"/>
<path d="M209 91 c11 -7 11 -9 0 -14 -8 -3 -3 -6 10 -6 20 -1 21 1 11 14 -7 8
-18 15 -24 15 -6 0 -5 -4 3 -9z"/>
<path d="M459 98 c0 -2 -3 -15 -5 -30 -4 -26 -3 -27 23 -18 15 6 52 9 80 7 46
-2 63 5 63 26 0 8 -77 0 -82 -8 -4 -6 -8 -2 -8 8 0 10 -5 15 -10 12 -6 -4 -8
-11 -5 -16 9 -14 -5 -11 -21 6 -14 13 -32 20 -35 13z m26 -26 c-3 -3 -11 0
-18 7 -9 10 -8 11 6 5 10 -3 15 -9 12 -12z"/>
<path d="M1130 91 c-8 -6 -17 -8 -20 -6 -3 2 -7 -5 -7 -16 -1 -10 2 -19 8 -19
5 0 8 5 7 11 -2 6 3 14 11 17 10 3 12 0 8 -12 -4 -9 -3 -14 2 -11 7 4 13 47 6
45 0 0 -7 -4 -15 -9z"/>
<path d="M1610 90 c-8 -5 -32 -10 -52 -10 -21 0 -38 -3 -38 -7 1 -32 51 -51
71 -27 12 15 10 16 -20 9 -23 -5 -31 -4 -27 4 4 6 20 11 36 11 16 0 32 5 35
10 4 6 11 8 16 5 5 -4 9 -1 9 4 0 13 -10 14 -30 1z"/>
<path d="M2000 75 c0 -20 5 -25 25 -25 17 0 25 6 25 18 0 14 2 15 10 2 8 -13
10 -13 10 1 0 15 -27 29 -57 29 -7 0 -13 -11 -13 -25z m27 0 c0 -8 -4 -15 -9
-15 -10 0 -11 14 -1 23 9 10 10 9 10 -8z"/>
<path d="M2300 85 c0 -8 9 -15 20 -15 11 0 20 6 20 13 0 8 4 7 10 -3 8 -13 10
-12 10 3 0 12 -8 17 -30 17 -20 0 -30 -5 -30 -15z"/>
<path d="M2581 84 c0 -11 3 -14 6 -6 3 7 2 16 -1 19 -3 4 -6 -2 -5 -13z"/>
<path d="M168 83 c-10 -2 -18 -11 -18 -19 0 -11 4 -10 20 3 17 15 26 26 18 22
-2 -1 -11 -3 -20 -6z"/>
<path d="M2080 75 c0 -8 2 -15 4 -15 2 0 6 7 10 15 3 8 1 15 -4 15 -6 0 -10
-7 -10 -15z"/>
<path d="M2106 75 c-4 -11 2 -15 24 -15 20 0 30 5 30 15 0 8 -4 15 -10 15 -5
0 -10 -5 -10 -11 0 -8 -4 -8 -14 0 -10 9 -15 8 -20 -4z"/>
<path d="M242 64 c-11 -12 -8 -14 15 -14 15 0 24 4 18 8 -5 4 -12 10 -15 14
-3 3 -11 0 -18 -8z"/>
<path d="M310 65 c0 -8 2 -15 4 -15 2 0 6 7 10 15 3 8 1 15 -4 15 -6 0 -10 -7
-10 -15z"/>
<path d="M1208 73 c12 -2 30 -2 40 0 9 3 -1 5 -23 4 -22 0 -30 -2 -17 -4z"/>
<path d="M1288 73 c12 -2 32 -2 45 0 12 2 2 4 -23 4 -25 0 -35 -2 -22 -4z"/>
<path d="M178 53 c6 -2 18 -2 25 0 6 3 1 5 -13 5 -14 0 -19 -2 -12 -5z"/>
</g>
</svg>
