<?xml version="1.0" standalone="no"?>
<!DOCTYPE svg PUBLIC "-//W3C//DTD SVG 20010904//EN"
 "http://www.w3.org/TR/2001/REC-SVG-20010904/DTD/svg10.dtd">
<svg version="1.0" xmlns="http://www.w3.org/2000/svg"
 width="300.000000pt" height="456.000000pt" viewBox="0 0 300.000000 456.000000"
 preserveAspectRatio="xMidYMid meet">

<g transform="translate(0.000000,456.000000) scale(0.100000,-0.100000)"
fill="#000000" stroke="none">
<path d="M5 4540 c-4 -11 -3 -35 1 -53 8 -32 7 -75 -2 -112 -3 -12 2 -8 12 9
14 25 19 63 24 159 0 5 8 6 18 3 9 -3 24 -1 32 4 11 7 2 10 -32 10 -38 0 -48
-4 -53 -20z"/>
<path d="M180 4556 c0 -2 8 -10 18 -17 15 -13 16 -12 3 4 -13 16 -21 21 -21
13z"/>
<path d="M253 4531 c0 -14 -6 -27 -11 -29 -7 -2 -7 -13 -1 -32 11 -30 56 -50
69 -30 4 7 11 12 16 12 5 0 20 4 33 9 13 5 33 10 46 11 14 1 21 7 18 18 -2 9
13 25 39 42 l43 28 -57 -1 c-32 -1 -58 -6 -58 -12 0 -13 -60 -70 -67 -63 -3 2
2 19 11 37 9 18 16 34 16 36 0 2 -21 3 -47 2 -44 -2 -48 -4 -50 -28z"/>
<path d="M566 4544 c-5 -14 -4 -15 8 -5 12 10 18 7 30 -18 15 -29 15 -30 -7
-33 -18 -3 -16 -5 10 -9 l33 -5 -23 40 c-25 45 -42 55 -51 30z"/>
<path d="M668 4553 c7 -3 16 -2 19 1 4 3 -2 6 -13 5 -11 0 -14 -3 -6 -6z"/>
<path d="M716 4548 c3 -5 10 -6 15 -2 18 11 79 -17 79 -36 0 -27 21 -70 31
-64 5 3 9 14 9 25 0 10 5 19 12 19 9 0 9 3 1 11 -8 8 -8 20 -3 35 9 22 7 24
-26 24 -21 0 -33 -4 -29 -10 3 -5 2 -10 -4 -10 -5 0 -13 5 -16 10 -4 6 -22 10
-40 8 -19 -1 -31 -6 -29 -10z"/>
<path d="M970 4551 c0 -10 19 -25 25 -20 1 2 -3 10 -11 17 -8 7 -14 8 -14 3z"/>
<path d="M1103 4553 c-7 -3 -9 -11 -6 -19 5 -15 29 -19 36 -6 7 10 -16 29 -30
25z"/>
<path d="M1425 4528 c3 -18 13 -40 22 -48 14 -14 15 -13 9 10 -4 14 -10 35
-13 48 -8 35 -24 26 -18 -10z"/>
<path d="M1494 4503 c5 -43 12 -60 31 -75 35 -27 33 -69 -5 -108 -27 -28 -31
-38 -29 -81 3 -51 18 -92 20 -54 1 14 3 12 8 -8 6 -27 7 -27 29 -11 22 15 23
22 21 119 -1 57 1 108 5 113 3 6 2 13 -3 16 -10 7 -3 94 10 116 7 12 8 11 9
-5 0 -12 3 -16 8 -9 5 8 17 5 39 -11 18 -12 29 -26 25 -30 -4 -5 -1 -5 5 -1 7
4 22 2 33 -4 14 -8 26 -8 42 1 16 9 34 9 75 -1 57 -12 127 -5 102 11 -9 6 -10
9 -2 9 7 0 16 -8 22 -17 14 -25 119 -25 133 0 11 20 38 23 38 3 0 -8 7 -16 15
-20 8 -3 15 -1 15 4 0 5 7 7 15 4 9 -4 16 3 21 20 3 14 10 23 16 20 5 -3 4
-12 -4 -21 -11 -14 -9 -15 20 -9 19 5 32 4 32 -2 0 -20 32 -21 66 -1 l37 20
-6 -23 -6 -23 17 24 c9 13 30 38 47 55 29 31 30 31 33 8 2 -13 -4 -35 -14 -50
-16 -25 -18 -25 -25 -7 -5 14 -8 8 -8 -23 -1 -25 -5 -41 -10 -37 -21 12 -22
-62 -2 -121 20 -59 20 -59 0 -80 -25 -27 -39 -77 -38 -134 1 -36 2 -40 8 -20
l7 25 17 -31 c8 -17 23 -36 31 -44 12 -10 14 -16 5 -26 -6 -8 -18 -14 -25 -14
-8 0 -14 -5 -14 -11 0 -6 8 -9 18 -6 48 13 47 15 50 -53 1 -44 -1 -60 -7 -50
-8 12 -13 12 -30 -4 -15 -13 -24 -15 -38 -7 -17 9 -19 6 -17 -25 3 -31 1 -34
-24 -34 -16 0 -33 5 -39 11 -6 6 -17 8 -24 3 -15 -9 -44 -14 -116 -18 -29 -2
-60 -9 -70 -17 -11 -9 -14 -10 -9 -1 4 6 3 12 -3 12 -17 0 -22 -18 -22 -77 0
-65 17 -91 48 -74 14 7 24 7 33 -2 10 -10 12 -8 6 7 -4 12 -1 23 6 28 10 6 10
10 -2 19 -13 9 -12 10 3 5 10 -3 23 -6 28 -6 12 0 -1 -53 -15 -62 -7 -5 -4 -8
7 -8 13 0 17 -6 15 -22 -2 -13 2 -23 7 -23 23 -2 55 -17 55 -26 0 -6 -4 -7
-10 -4 -6 4 -6 -4 0 -21 6 -15 9 -33 6 -40 -3 -8 -1 -16 4 -19 6 -4 5 -14 -2
-25 -7 -10 -16 -16 -20 -14 -11 7 -10 3 4 -37 12 -34 12 -34 19 -9 l7 25 1
-27 c1 -16 -3 -28 -9 -28 -5 0 -9 -16 -8 -35 1 -28 4 -33 15 -24 8 7 13 8 13
1 0 -5 -7 -15 -15 -22 -11 -9 -15 -33 -15 -91 0 -94 -15 -112 -24 -28 -7 63
-24 120 -25 87 -1 -19 -21 -26 -21 -8 0 6 -9 10 -20 10 -23 0 -26 -10 -7 -28
13 -14 17 -72 5 -72 -5 0 -8 -13 -8 -29 0 -38 -14 -46 -42 -26 -15 10 -24 27
-25 48 0 17 -2 46 -3 62 -3 28 -3 28 -7 5 -6 -33 -22 -52 -37 -43 -6 4 -4 -2
4 -12 13 -16 13 -18 0 -13 -8 2 -17 18 -21 34 -12 55 -48 229 -59 294 -17 90
-20 101 -31 95 -15 -10 -10 -52 30 -250 21 -104 37 -191 36 -193 -4 -5 -64 26
-98 50 -16 11 -26 23 -23 26 3 3 15 -3 26 -13 11 -10 20 -13 20 -7 0 7 5 12
11 12 6 0 9 -7 5 -15 -4 -13 20 -35 38 -35 18 0 1 41 -29 70 -19 18 -32 37
-29 42 3 4 -2 11 -11 14 -11 5 -25 -4 -43 -25 l-27 -31 -40 37 c-22 20 -33 34
-25 31 8 -3 23 -9 34 -14 17 -7 18 -6 3 17 -8 13 -18 40 -22 59 -6 32 -4 31
18 -15 13 -27 32 -57 42 -65 18 -14 17 -13 0 15 l-19 30 21 -18 c16 -14 23
-15 29 -6 4 7 3 10 -4 5 -6 -3 -16 3 -22 14 -6 11 -8 20 -6 20 3 0 -11 32 -30
70 -20 39 -37 85 -38 103 -1 28 3 33 32 42 43 12 41 30 -7 55 -22 10 -41 25
-44 32 -3 7 -6 -30 -6 -83 l-1 -97 -35 -31 c-20 -17 -40 -31 -45 -31 -18 0
-111 140 -148 223 -7 17 -12 77 -12 159 0 133 5 159 13 78 3 -25 6 -47 6 -49
1 -2 9 5 19 16 9 10 13 14 9 7 -6 -9 2 -12 30 -10 21 1 44 5 51 10 19 11 15
46 -6 46 -10 0 -24 6 -30 12 -10 10 -14 10 -21 0 -5 -9 -12 -8 -27 4 -18 14
-18 15 6 8 24 -6 24 -6 8 13 -25 28 -23 62 5 72 44 17 74 -19 52 -63 -13 -25
-13 -26 15 -26 25 0 30 5 36 36 10 54 -19 88 -79 92 -54 4 -87 -21 -87 -65 0
-16 -4 -32 -8 -38 -11 -15 -71 -18 -88 -4 -34 28 -4 75 46 71 32 -2 50 16 29
29 -28 17 -79 10 -104 -16 -33 -33 -33 -78 1 -112 22 -22 32 -25 71 -20 l45 5
-7 -122 c-8 -137 -19 -171 -89 -270 -60 -83 -69 -90 -93 -75 -39 24 -63 73
-62 125 1 27 3 41 6 32 2 -9 10 -15 16 -13 7 2 24 6 40 9 15 4 27 12 27 19 0
16 -38 40 -50 32 -6 -4 -18 2 -28 11 -16 17 -17 14 -24 -56 -12 -135 -109
-284 -276 -424 -24 -20 -31 -32 -26 -44 4 -9 8 -35 8 -57 1 -49 -27 -58 -32
-10 -2 17 -10 45 -18 63 -9 18 -13 40 -10 47 3 8 1 17 -4 20 -6 4 -10 1 -10
-6 0 -8 -4 -8 -15 1 -17 14 -22 12 -25 -10 -4 -29 0 -40 15 -40 8 0 15 -5 15
-10 0 -6 -12 -8 -27 -5 -23 5 -25 4 -11 -5 12 -7 18 -24 18 -45 0 -32 -14 -54
-27 -41 -5 5 -14 57 -14 88 0 10 -6 15 -15 11 -8 -3 -21 -3 -29 1 -13 4 -13 9
-3 25 9 15 8 22 -5 36 -16 15 -17 15 -17 -9 0 -18 -5 -26 -17 -26 -11 0 -14
-3 -7 -8 11 -7 34 -45 34 -56 0 -3 -8 -3 -18 1 -15 6 -15 4 2 -15 10 -12 16
-28 12 -37 -7 -19 -27 -16 -34 5 -3 7 0 10 7 6 6 -4 11 -3 11 3 0 5 -5 13 -11
17 -6 3 -8 15 -6 26 5 16 3 17 -10 7 -8 -7 -13 -23 -10 -36 2 -13 1 -23 -4
-23 -14 0 -18 35 -9 75 5 22 10 47 10 55 0 13 -1 13 -10 0 -13 -21 -18 -2 -23
93 -4 71 4 92 16 42 4 -18 5 -18 6 2 0 12 -9 29 -21 38 -20 13 -21 18 -9 36 9
16 10 24 1 29 -13 8 -23 70 -11 70 5 0 12 -7 15 -16 4 -9 9 -14 13 -10 4 3 -4
17 -16 30 -18 19 -20 27 -12 49 6 15 15 28 21 28 5 1 15 2 22 3 6 0 13 8 15
16 4 13 3 13 -6 0 -9 -12 -11 -10 -11 12 0 14 5 28 12 30 7 3 9 14 5 30 -7 25
-9 26 -37 15 -16 -6 -30 -15 -30 -19 0 -19 -18 -6 -24 17 -5 21 -10 24 -26 15
-10 -5 -26 -7 -34 -4 -15 6 -15 18 1 77 2 9 0 17 -6 17 -6 0 -11 -7 -11 -15 0
-8 -7 -15 -16 -15 -12 0 -15 -6 -10 -24 3 -14 2 -27 -3 -30 -5 -3 -11 4 -14
15 -3 12 -10 18 -16 14 -6 -3 -11 1 -11 9 0 9 5 16 10 16 6 0 10 4 10 8 0 5
-7 9 -15 9 -9 0 -15 -10 -15 -24 0 -29 -13 -30 -28 0 -14 27 -11 55 9 68 9 6
10 9 2 9 -7 0 -10 7 -7 15 5 11 10 13 19 5 9 -8 11 -4 7 16 -4 20 -2 25 8 19
9 -6 10 -3 1 14 -9 16 -9 21 1 21 9 0 10 3 2 8 -6 4 -14 14 -17 22 -4 11 -6
10 -7 -5 -3 -32 -5 -38 -20 -70 -7 -16 -14 -34 -14 -40 -1 -13 -36 -19 -36 -6
0 22 -18 10 -25 -16 l-7 -28 -10 28 c-6 15 -6 35 -2 45 5 9 9 37 10 62 3 57
14 103 28 112 14 10 3 19 -28 22 -20 3 -26 -1 -26 -15 0 -31 -1 -33 -17 -51
-19 -21 -41 -25 -26 -5 6 6 13 26 17 42 5 21 4 26 -3 15 -6 -8 -13 -11 -17 -7
-4 3 -1 13 5 21 10 11 9 19 -1 35 -7 12 -15 21 -18 21 -15 -1 -41 -31 -51 -59
-7 -21 -18 -31 -31 -31 -14 0 -18 5 -14 16 3 9 6 18 6 20 0 2 6 4 14 4 9 0 13
10 10 33 -1 17 -3 35 -3 40 -2 23 -24 -1 -51 -58 -17 -36 -35 -65 -41 -65 -5
0 -9 -13 -9 -29 0 -16 -7 -36 -15 -45 -13 -13 -15 -241 -15 -1930 l0 -1916
1500 0 1500 0 0 2280 0 2280 -104 0 c-74 0 -106 -4 -109 -12 -4 -10 -6 -10 -6
0 -1 9 -39 12 -156 12 -85 0 -155 -4 -155 -8 0 -12 40 -47 40 -36 1 5 7 -2 15
-16 14 -24 14 -24 15 -3 0 21 1 21 30 7 17 -9 30 -19 30 -23 0 -8 47 -7 56 2
4 3 15 0 26 -7 20 -14 58 -11 58 5 0 5 7 9 15 9 8 0 15 -5 15 -10 0 -7 7 -7
21 1 21 11 38 0 39 -24 0 -5 5 -5 10 -2 6 3 10 1 10 -4 0 -6 6 -11 14 -11 20
0 40 -26 26 -35 -6 -4 -10 -14 -9 -23 3 -33 -1 -40 -41 -67 -29 -20 -39 -33
-35 -46 3 -9 2 -20 -4 -23 -5 -3 -7 -23 -4 -43 2 -21 4 -50 4 -65 -1 -16 4
-28 11 -28 10 0 10 -2 0 -9 -10 -6 -5 -11 17 -21 30 -12 48 -41 37 -59 -13
-21 -48 -19 -73 5 -38 35 -46 32 -46 -18 0 -14 -5 -16 -26 -12 -14 4 -33 13
-42 20 -8 8 -23 14 -31 14 -9 0 -21 7 -28 15 -30 36 -90 23 -70 -16 7 -13 6
-20 -2 -26 -7 -4 -18 -17 -24 -29 -10 -17 -7 -25 17 -54 16 -18 29 -29 29 -23
0 5 -6 15 -12 22 -11 11 -9 12 8 3 12 -6 24 -8 28 -5 3 3 6 -1 6 -11 0 -9 -4
-15 -9 -12 -5 3 -8 -5 -7 -19 1 -27 4 -29 24 -17 8 5 10 16 5 28 -6 16 -5 17
9 6 9 -7 18 -9 20 -5 3 4 4 3 2 -4 -1 -6 0 -14 4 -17 3 -4 7 -17 9 -29 2 -12
0 -17 -4 -11 -10 13 -46 27 -38 15 9 -16 -16 -25 -27 -10 -7 10 -11 11 -14 2
-4 -9 -15 -6 -40 8 -19 10 -42 19 -50 19 -10 0 -14 6 -11 14 4 10 1 13 -9 9
-20 -7 -20 99 0 116 11 9 15 9 19 -1 3 -7 8 7 13 32 7 39 9 41 14 20 4 -16 9
6 13 61 6 81 -1 135 -28 204 -7 16 -6 18 6 8 22 -22 30 -14 13 12 -13 19 -15
40 -11 83 3 31 3 51 0 45 -3 -9 -11 -8 -29 3 -19 13 -24 25 -24 55 0 35 -2 39
-26 39 -15 0 -33 -8 -40 -17 -13 -17 -14 -17 -8 0 4 11 1 17 -10 17 -10 0 -16
-9 -16 -25 0 -14 -4 -25 -9 -25 -4 0 -6 11 -3 25 4 24 2 25 -46 25 -30 0 -53
-5 -56 -12 -5 -10 -7 -10 -12 0 -3 7 -24 12 -50 12 -28 0 -44 -4 -44 -12 0
-10 -2 -10 -8 0 -7 10 -77 12 -321 11 l-313 -2 6 -54z m176 32 c28 -14 60 -55
43 -55 -19 1 -35 19 -27 31 6 10 3 10 -11 -1 -17 -14 -18 -13 -12 2 5 14 1 17
-15 15 -11 -1 -23 4 -25 11 -6 16 12 15 47 -3z m81 -2 c13 -16 12 -17 -3 -4
-10 7 -18 15 -18 17 0 8 8 3 21 -13z m319 -3 c0 -11 -2 -20 -4 -20 -2 0 -6 9
-9 20 -3 11 -1 20 4 20 5 0 9 -9 9 -20z m120 16 c0 -3 -4 -8 -10 -11 -5 -3
-10 -1 -10 4 0 6 5 11 10 11 6 0 10 -2 10 -4z m117 -58 c-3 -7 -5 -2 -5 12 0
14 2 19 5 13 2 -7 2 -19 0 -25z m161 -60 c17 -17 15 -54 -4 -73 -18 -18 -30
-11 -36 20 -3 17 -5 17 -10 4 -3 -9 -1 -25 5 -36 41 -70 58 -106 53 -111 -3
-3 -6 -1 -6 4 0 5 -16 34 -35 64 -35 54 -43 92 -26 119 5 7 14 10 20 7 6 -4
11 -2 11 3 0 14 13 14 28 -1z m-45 -157 c20 -29 37 -58 37 -65 -1 -6 -8 2 -17
18 -8 17 -29 48 -44 69 -16 22 -29 52 -28 66 1 25 1 25 8 -4 4 -17 24 -54 44
-84z m8 -87 c10 -28 3 -64 -14 -76 -18 -11 -27 1 -28 35 0 26 -2 28 -8 12 -10
-25 -2 -54 25 -88 21 -26 42 -38 29 -17 -3 5 1 20 9 32 9 12 17 43 18 68 l1
45 7 -45 7 -45 3 55 c3 50 4 52 7 15 8 -71 -31 -161 -63 -148 -21 8 -55 69
-56 102 -1 31 25 81 42 81 6 0 15 -12 21 -26z m473 -212 c3 -5 -1 -9 -9 -9 -8
0 -15 4 -15 9 0 4 4 8 9 8 6 0 12 -4 15 -8z m-2784 -66 c0 -8 -4 -18 -10 -21
-5 -3 -10 3 -10 14 0 12 5 21 10 21 6 0 10 -6 10 -14z m2590 -52 c0 -8 -4 -12
-10 -9 -5 3 -10 13 -10 21 0 8 5 12 10 9 6 -3 10 -13 10 -21z m-2467 -14 c-6
-24 -19 -34 -28 -21 -7 12 16 52 26 45 4 -2 5 -13 2 -24z m2242 -8 c-3 -3 -18
-7 -33 -9 -15 -1 -21 0 -14 3 6 3 10 9 7 13 -2 5 7 6 21 3 14 -2 22 -7 19 -10z
m-75 -7 c0 -8 -4 -15 -8 -15 -5 0 -9 7 -9 15 0 8 4 15 9 15 4 0 8 -7 8 -15z
m-2295 -44 c-3 -6 -11 -11 -17 -11 -6 0 -6 6 2 15 14 17 26 13 15 -4z m108
-58 c-13 -33 -32 -5 -25 35 l5 25 12 -24 c7 -12 11 -29 8 -36z m1867 21 c0 -8
-5 -12 -10 -9 -6 4 -8 11 -5 16 9 14 15 11 15 -7z m78 -9 c-3 -3 -9 2 -12 12
-6 14 -5 15 5 6 7 -7 10 -15 7 -18z m142 9 c0 -8 -5 -12 -10 -9 -6 4 -8 11 -5
16 9 14 15 11 15 -7z m109 -8 c-12 -10 -59 -15 -59 -6 0 5 14 10 32 10 17 0
29 -2 27 -4z m-2082 -35 c-3 -12 3 -27 14 -37 10 -9 16 -21 13 -25 -3 -5 1 -9
9 -9 19 0 32 -51 16 -61 -18 -11 -39 0 -32 17 7 20 -5 64 -18 64 -6 0 -13 -9
-16 -20 -6 -24 -19 -25 -39 -5 -17 17 -12 46 14 76 22 25 46 25 39 0z m1820
-17 c-9 -9 -28 6 -21 18 4 6 10 6 17 -1 6 -6 8 -13 4 -17z m41 -74 c-4 -46
-24 -49 -33 -4 -4 26 -3 39 7 45 19 12 30 -4 26 -41z m116 4 c3 -8 2 -12 -4
-9 -6 3 -10 10 -10 16 0 14 7 11 14 -7z m66 -14 c0 -5 -5 -10 -11 -10 -5 0 -7
5 -4 10 3 6 8 10 11 10 2 0 4 -4 4 -10z m-2090 -10 c0 -5 -5 -10 -11 -10 -5 0
-7 5 -4 10 3 6 8 10 11 10 2 0 4 -4 4 -10z m137 -27 c-3 -10 -5 -4 -5 12 0 17
2 24 5 18 2 -7 2 -21 0 -30z m1928 17 c3 -5 1 -10 -4 -10 -6 0 -11 5 -11 10 0
6 2 10 4 10 3 0 8 -4 11 -10z m-867 -315 c6 -64 5 -91 -5 -110 -18 -33 -28
-32 -43 5 -10 24 -10 56 -1 149 6 66 11 143 11 173 0 112 15 103 22 -15 4 -65
11 -156 16 -202z m-1177 252 c-10 -9 -11 -8 -5 6 3 10 9 15 12 12 3 -3 0 -11
-7 -18z m42 3 c3 -11 1 -20 -4 -20 -5 0 -9 9 -9 20 0 11 2 20 4 20 2 0 6 -9 9
-20z m-73 -70 c0 -5 -4 -10 -10 -10 -5 0 -10 5 -10 10 0 6 5 10 10 10 6 0 10
-4 10 -10z m1272 -94 c44 -89 85 -152 135 -207 l33 -37 -47 2 c-47 1 -49 2
-75 51 -29 53 -82 207 -92 265 -3 19 -3 28 0 20 4 -8 24 -51 46 -94z m-152 7
c-12 -44 -40 -118 -63 -164 l-42 -84 -42 -3 c-24 -2 -43 0 -43 4 0 5 13 22 29
39 44 46 99 132 139 216 21 42 38 76 40 74 2 -2 -6 -39 -18 -82z m-856 29 c3
-5 -1 -9 -9 -9 -8 0 -12 4 -9 9 3 4 7 8 9 8 2 0 6 -4 9 -8z m691 -27 c-5 17
-3 17 19 -4 27 -25 28 -43 1 -21 -18 15 -20 -1 -3 -18 9 -9 9 -12 0 -12 -6 0
-18 12 -27 28 l-16 27 5 -42 c2 -24 0 -46 -5 -49 -5 -3 -6 -10 -3 -16 4 -7 2
-8 -4 -4 -15 9 -15 39 -1 89 10 37 11 38 26 20 14 -17 14 -17 8 2z m497 -149
c46 -40 56 -54 48 -66 -9 -12 -21 -3 -71 50 -33 36 -78 92 -101 125 l-41 60
54 -59 c30 -32 80 -81 111 -110z m-33 126 c-6 -18 -17 -32 -25 -32 -9 0 -7 10
9 34 26 40 31 40 16 -2z m681 16 c0 -4 -4 -8 -9 -8 -5 0 -12 -9 -15 -20 -3
-11 -9 -30 -12 -42 -5 -16 -3 -20 10 -15 9 4 16 1 16 -5 0 -7 4 -7 13 0 9 8
12 3 13 -19 1 -15 -3 -26 -7 -23 -5 3 -9 -2 -9 -10 0 -9 -5 -16 -10 -16 -14 0
-57 49 -65 73 -4 9 -11 15 -16 12 -5 -4 -9 -1 -9 5 0 7 9 14 20 17 11 3 20 12
20 20 0 8 5 11 10 8 6 -3 10 2 10 12 0 12 7 19 20 19 11 0 20 -4 20 -8z
m-1076 -49 c-35 -51 -131 -159 -157 -178 -10 -7 -35 -17 -56 -22 l-36 -8 30
21 c17 12 77 69 135 127 58 58 107 105 109 104 2 -2 -9 -21 -25 -44z m366 36
c-7 -8 -17 -15 -22 -15 -6 0 -5 7 2 15 7 8 17 15 22 15 6 0 5 -7 -2 -15z m60
-37 c0 -46 -2 -51 -15 -37 -12 11 -13 22 -4 52 5 20 12 37 14 37 3 0 5 -23 5
-52z m-1190 32 c0 -5 -2 -10 -4 -10 -3 0 -8 5 -11 10 -3 6 -1 10 4 10 6 0 11
-4 11 -10z m631 -53 c-7 -19 -23 -45 -38 -58 l-26 -24 26 40 c14 22 29 53 33
70 4 16 9 24 11 18 3 -7 0 -28 -6 -46z m1129 -57 c9 0 70 -83 70 -94 0 -3 -9
3 -21 15 -11 11 -24 18 -27 14 -4 -3 -2 -9 4 -13 6 -4 13 -14 17 -22 4 -8 15
-26 24 -40 17 -25 17 -25 -2 -9 -14 11 -26 14 -40 9 -11 -5 -14 -9 -7 -9 17
-1 15 -31 -2 -31 -20 0 -23 16 -22 92 1 36 -1 65 -4 63 -3 -2 -6 11 -7 28 -1
18 1 24 4 15 2 -10 8 -18 13 -18z m-1190 6 c0 -2 -8 -10 -17 -17 -16 -13 -17
-12 -4 4 13 16 21 21 21 13z m-540 -46 c-8 -15 -7 -26 7 -47 l17 -28 -22 19
c-28 24 -29 7 -2 -24 12 -13 19 -29 16 -36 -3 -8 3 -11 17 -9 19 4 20 3 6 -8
-9 -7 -15 -27 -15 -49 0 -21 -5 -43 -11 -49 -8 -8 -10 3 -7 38 2 26 1 42 -2
36 -3 -7 -11 -13 -19 -13 -16 0 -31 83 -15 88 5 2 7 9 3 15 -10 17 -11 47 -1
47 4 0 8 9 8 20 0 11 7 20 15 20 13 0 14 -4 5 -20z m-70 -9 c0 -5 -9 -19 -19
-32 l-19 -24 5 27 c3 16 10 25 16 21 6 -4 8 0 4 11 -4 10 -3 15 3 11 6 -3 10
-10 10 -14z m603 -9 c-29 -25 -105 -73 -92 -59 9 11 114 86 119 86 3 0 -9 -12
-27 -27z m1064 3 c-4 -8 -12 -15 -19 -14 -10 0 -10 2 0 6 6 2 12 12 12 21 0 8
3 13 6 9 4 -3 4 -13 1 -22z m-1737 0 c0 -8 -4 -15 -10 -15 -5 0 -7 7 -4 15 4
8 8 15 10 15 2 0 4 -7 4 -15z m1978 -30 c-3 -3 -9 2 -12 12 -6 14 -5 15 5 6 7
-7 10 -15 7 -18z m-978 0 c0 -8 -9 -15 -20 -15 -13 0 -18 5 -14 15 4 8 12 15
20 15 8 0 14 -7 14 -15z m98 -7 c2 -12 -2 -15 -17 -11 -12 3 -21 12 -21 20 0
20 34 12 38 -9z m-1091 -13 c0 -8 -4 -12 -9 -9 -5 3 -6 10 -3 15 9 13 12 11
12 -6z m1407 0 c25 -19 16 -28 -17 -20 -17 5 -24 12 -20 21 6 17 13 17 37 -1z
m-1353 -109 l-4 -31 -8 27 c-4 15 -5 38 -1 50 5 20 6 20 12 4 3 -10 4 -33 1
-50z m1582 34 c34 -17 40 -70 8 -70 -11 0 -22 -6 -24 -12 -3 -7 -6 4 -6 25 -1
21 -6 48 -12 59 -6 11 -7 19 -2 16 4 -2 20 -10 36 -18z m289 -45 c-2 -25 -8
-45 -12 -45 -5 0 -7 8 -5 18 1 9 -2 23 -8 31 -9 10 -7 17 8 27 10 8 19 14 19
14 1 0 0 -20 -2 -45z m-1508 13 c3 -13 6 -34 6 -48 0 -19 -3 -21 -9 -11 -8 12
-12 12 -25 2 -14 -12 -15 -10 -10 20 8 49 12 59 23 59 5 0 11 -10 15 -22z
m216 2 c-12 -8 -12 -10 3 -16 19 -7 23 -39 6 -50 -6 -3 -16 -1 -22 5 -8 8 -6
11 6 11 9 0 17 5 17 10 0 6 -7 10 -15 10 -18 0 -20 36 -2 43 18 6 24 -3 7 -13z
m915 -20 c0 -25 -5 -36 -17 -38 -15 -3 -18 4 -18 38 0 34 3 41 18 38 12 -2 17
-13 17 -38z m53 3 c-3 -43 -31 -54 -36 -15 -5 32 4 52 23 52 13 0 15 -9 13
-37z m89 -25 c-2 -13 -4 -3 -4 22 0 25 2 35 4 23 2 -13 2 -33 0 -45z m42 45
c1 9 6 17 11 17 6 0 9 -18 8 -40 -2 -22 -6 -40 -10 -40 -5 0 -8 6 -8 13 0 9
-2 9 -9 -1 -10 -17 -19 22 -13 53 l5 20 8 -20 c6 -17 8 -17 8 -2z m54 10 c-7
-2 -13 -18 -13 -34 0 -17 4 -28 10 -24 5 3 7 12 3 20 -3 8 0 15 7 15 18 0 7
-44 -12 -48 -15 -3 -18 4 -18 37 0 33 4 41 18 40 10 0 12 -3 5 -6z m62 -34 c0
-24 -5 -34 -15 -34 -16 0 -25 37 -16 62 10 26 31 8 31 -28z m130 31 c3 -5 -2
-10 -11 -10 -16 0 -16 -1 1 -14 21 -15 14 -46 -10 -46 -11 0 -15 11 -15 40 0
28 4 40 14 40 8 0 18 -4 21 -10z m-1667 -39 c2 -24 0 -31 -8 -26 -7 4 -16 1
-21 -6 -7 -11 -9 -9 -9 6 0 64 32 86 38 26z m212 5 c0 -19 -4 -37 -9 -40 -12
-8 -34 21 -28 36 4 8 6 7 6 -4 1 -28 21 -21 21 8 0 14 -4 23 -10 19 -5 -3 -10
-1 -10 4 0 6 7 11 15 11 10 0 15 -10 15 -34z m70 -8 c0 -49 -5 -47 -13 5 -3
20 -2 37 4 37 5 0 9 -19 9 -42z m585 -38 c3 -5 1 -10 -4 -10 -6 0 -11 5 -11
10 0 6 2 10 4 10 3 0 8 -4 11 -10z m-1101 -93 c14 -83 25 -122 35 -125 23 -8
10 -22 -19 -22 -27 0 -30 2 -24 25 5 22 3 25 -19 25 -31 0 -43 -16 -27 -35 11
-13 7 -15 -19 -15 -17 0 -31 5 -31 10 0 6 4 10 10 10 5 0 12 12 16 28 3 15 17
62 32 106 28 83 31 83 46 -7z m376 68 c0 -8 -4 -15 -10 -15 -5 0 -7 7 -4 15 4
8 8 15 10 15 2 0 4 -7 4 -15z m-105 -5 c-3 -5 -12 -10 -18 -10 -7 0 -6 4 3 10
19 12 23 12 15 0z m1025 -35 c17 -9 30 -20 30 -25 0 -5 6 -7 13 -5 13 6 21
-44 12 -82 -8 -32 -35 -18 -35 18 0 33 -32 75 -49 64 -18 -10 -13 -54 9 -77
11 -12 36 -33 57 -47 21 -14 39 -33 41 -41 2 -8 7 -16 11 -18 5 -1 6 -13 4
-26 -3 -13 0 -33 6 -45 9 -17 9 -20 -3 -15 -25 9 -84 -22 -88 -48 -4 -23 -4
-23 -18 5 -7 15 -19 27 -26 27 -17 0 -54 48 -54 69 0 10 10 28 21 40 17 18 23
20 30 10 4 -7 4 -20 0 -27 -19 -35 9 -65 54 -58 25 4 33 64 10 72 -8 4 -12 10
-9 16 3 5 -3 12 -15 15 -12 3 -21 9 -21 13 0 5 -9 11 -19 15 -19 6 -51 70 -51
101 0 14 43 64 55 64 3 0 19 -7 35 -15z m138 -174 c1 -106 -2 -180 -7 -171 -9
17 -23 81 -26 120 -1 14 -5 69 -10 122 -8 103 -5 117 23 115 17 -1 18 -16 20
-186z m243 155 c1 -6 1 -14 0 -19 -6 -39 -6 -119 1 -123 4 -3 8 2 8 10 0 9 3
15 8 14 4 -2 21 10 37 25 77 72 88 51 15 -27 -27 -29 -50 -56 -50 -61 0 -8 57
-83 81 -105 8 -8 24 -28 35 -45 l19 -30 -30 19 c-16 10 -53 43 -81 74 l-51 55
-2 -57 c0 -32 -5 -65 -10 -74 -15 -27 -26 30 -25 133 0 50 -2 76 -4 58 -2 -24
-11 -35 -37 -47 -30 -14 -33 -21 -33 -54 0 -20 0 -62 -1 -92 -3 -111 -33 15
-44 187 -3 43 0 69 9 80 9 13 13 14 14 4 0 -9 8 -11 24 -7 16 4 32 -1 49 -14
l26 -20 -3 47 c-3 61 8 95 29 87 8 -3 16 -11 16 -18z m-1528 -13 c-16 -6 -17
-35 -2 -50 15 -15 3 -34 -16 -26 -10 3 -15 -1 -15 -15 0 -11 -7 -25 -15 -32
-12 -10 -16 -8 -24 13 -5 14 -13 41 -17 62 -3 20 -13 39 -20 42 -25 9 -15 23
16 23 29 0 42 -14 19 -22 -7 -2 -6 -14 4 -38 l14 -35 7 32 c4 18 5 37 1 43 -9
14 37 31 50 18 7 -7 6 -12 -2 -15z m658 1 c48 -44 5 -134 -65 -134 -37 0 -56
14 -31 24 17 6 22 101 5 111 -5 3 -10 11 -10 17 0 16 78 3 101 -18z m-525 -9
c3 -13 2 -30 -2 -37 -6 -9 -10 -6 -14 12 -7 30 -53 36 -58 8 -2 -11 3 -18 12
-18 9 0 16 5 16 11 0 5 5 7 10 4 6 -3 10 -17 10 -31 0 -14 5 -23 13 -21 7 1
12 -8 12 -23 0 -22 -5 -25 -44 -28 -55 -4 -79 4 -63 20 15 15 16 95 1 104 -18
11 7 21 57 22 38 0 45 -3 50 -23z m89 -25 c9 -27 19 -50 22 -50 2 0 2 23 -1
50 -5 48 -4 50 19 50 26 0 32 -9 16 -25 -6 -6 -11 -45 -12 -88 -2 -42 -6 -74
-10 -70 -4 5 -19 35 -33 68 l-26 60 2 -49 c3 -43 0 -50 -19 -57 -17 -6 -23 -5
-23 6 0 7 5 17 10 20 10 6 4 109 -7 128 -2 4 7 7 21 7 20 0 27 -8 41 -50z
m163 21 c4 -25 -5 -27 -30 -4 -22 20 -35 10 -43 -32 -8 -37 14 -71 39 -62 12
5 15 13 11 27 -5 16 -2 20 19 20 14 0 26 -4 26 -10 0 -5 -4 -10 -10 -10 -5 0
-10 -9 -10 -20 0 -24 -39 -36 -68 -21 -35 19 -35 111 0 132 23 15 63 2 66 -20z
m142 20 c0 -5 3 -16 6 -25 3 -9 1 -16 -5 -16 -6 0 -11 7 -11 15 0 10 -10 15
-30 15 -16 0 -30 -5 -30 -11 0 -6 -7 -4 -15 5 -22 21 -20 23 35 25 28 1 50 -3
50 -8z m1550 -38 c11 -11 -30 -23 -79 -23 l-53 0 2 -72 c4 -109 -1 -255 -7
-238 -3 8 -10 18 -15 21 -5 3 -10 50 -13 105 -2 54 -8 113 -14 130 -6 20 -5
36 1 42 6 6 -2 12 -23 16 -18 3 -37 2 -43 -4 -7 -7 -6 -10 2 -10 21 0 52 -63
52 -106 0 -41 -32 -103 -57 -111 -7 -3 -25 14 -42 37 -31 43 -43 41 -39 -7 1
-15 -2 -38 -6 -51 -7 -22 -8 -22 -22 -5 -8 10 -13 43 -14 79 0 34 -6 68 -13
79 -13 17 -15 17 -30 -6 -10 -14 -17 -43 -17 -73 l0 -49 -24 22 c-24 23 -40
68 -26 76 4 2 7 19 8 36 0 18 8 39 16 48 15 14 16 13 16 -7 0 -12 5 -22 10
-22 6 0 10 4 10 8 0 5 12 14 26 21 22 10 28 9 40 -6 7 -10 14 -26 14 -35 0
-26 20 -32 21 -6 1 41 7 59 26 81 10 11 13 17 6 14 -13 -8 -27 8 -19 21 5 8
297 4 306 -5z m-1581 -25 c0 -18 -3 -27 -6 -20 -2 6 -13 12 -24 12 -10 0 -19
6 -19 14 0 9 7 12 20 9 11 -3 20 0 20 6 0 6 2 11 5 11 3 0 5 -15 4 -32z m851
7 c0 -15 -27 -28 -41 -19 -5 3 -5 13 1 24 11 21 40 17 40 -5z m-859 -65 c11 0
22 7 25 15 9 23 26 18 22 -7 -2 -19 -10 -24 -47 -26 -61 -5 -76 3 -54 26 14
14 20 15 26 5 4 -7 17 -13 28 -13z m855 -88 c1 -62 -2 -115 -6 -117 -10 -6
-34 149 -27 175 3 11 1 22 -4 25 -14 9 2 36 19 33 14 -3 17 -21 18 -116z
m-1598 48 c6 0 12 -12 12 -27 0 -25 -1 -26 -20 -8 -21 19 -50 14 -50 -8 0 -7
15 -17 33 -22 25 -8 33 -16 35 -39 2 -16 -1 -33 -6 -38 -14 -14 -92 -17 -92
-4 0 6 -3 21 -6 34 -8 30 10 28 24 -3 13 -28 36 -32 59 -10 23 23 9 45 -30 45
-26 0 -36 6 -45 25 -10 21 -9 28 9 46 14 14 28 19 42 15 12 -3 28 -6 35 -6z
m873 -20 c6 0 7 5 4 10 -3 6 3 10 14 10 30 0 23 -34 -6 -36 -44 -4 -44 -3 -41
-51 2 -36 7 -47 21 -49 11 -1 22 6 27 19 8 19 9 18 9 -10 l1 -33 -51 0 c-40 0
-49 3 -41 13 15 18 9 113 -7 109 -7 -1 -11 3 -9 10 5 15 61 28 66 16 2 -4 8
-8 13 -8z m86 14 c-3 -3 -12 -4 -19 -1 -8 3 -5 6 6 6 11 1 17 -2 13 -5z m85
-1 c-6 -2 -9 -10 -6 -15 4 -7 2 -8 -5 -4 -13 9 -5 26 12 25 9 0 8 -2 -1 -6z
m78 -19 c0 -14 -3 -15 -17 -3 -10 7 -20 15 -22 16 -2 2 5 3 17 3 14 0 22 -6
22 -16z m104 8 c3 -5 0 -9 -7 -10 -7 -1 -28 -4 -47 -7 -25 -4 -30 -3 -15 4 19
8 19 9 -5 13 -16 3 -7 6 22 7 26 0 49 -3 52 -7z m-1095 -29 c-1 -18 -3 -22 -6
-10 -4 14 -13 18 -41 15 -19 -1 -37 2 -39 8 -2 6 16 11 42 13 43 2 45 1 44
-26z m91 18 c0 -5 -4 -11 -10 -13 -6 -2 -6 -17 1 -43 11 -39 12 -39 21 -15 5
14 7 35 5 48 -5 26 13 38 39 28 13 -5 14 -9 5 -20 -6 -7 -22 -48 -34 -91 l-23
-77 -23 86 c-13 47 -27 86 -32 86 -5 0 -9 5 -9 10 0 6 14 10 30 10 17 0 30 -4
30 -9z m188 -20 c2 -12 -1 -21 -7 -21 -6 0 -11 7 -11 15 0 20 -39 19 -47 0 -3
-9 -2 -19 2 -23 4 -4 10 -1 12 6 9 24 23 12 23 -20 0 -25 -3 -29 -12 -20 -18
18 -28 15 -28 -8 0 -15 7 -20 25 -20 16 0 25 6 25 15 0 8 5 15 10 15 6 0 10
-11 10 -25 0 -23 -3 -25 -48 -25 l-48 0 3 68 c1 37 2 68 2 69 1 1 20 0 44 -2
34 -2 43 -7 45 -24z m252 2 c-1 -25 -2 -26 -14 -10 -16 21 -56 23 -56 3 0 -8
5 -18 10 -21 6 -3 10 -1 10 4 0 6 5 11 10 11 6 0 10 -14 10 -32 0 -25 -3 -29
-12 -20 -18 18 -28 15 -28 -8 0 -11 5 -20 10 -20 6 0 10 -4 10 -10 0 -13 -47
-13 -54 -1 -4 5 -2 11 2 13 13 4 22 87 11 94 -22 13 -5 24 41 24 48 0 50 -1
50 -27z m108 15 c21 -26 18 -78 -6 -108 -24 -30 -59 -19 -77 23 -14 33 -5 74
18 89 19 12 53 9 65 -4z m219 6 c29 -8 49 -64 33 -93 -6 -11 -19 -25 -30 -31
-24 -13 -70 -13 -70 0 0 6 5 10 11 10 14 0 5 93 -10 98 -6 2 -11 8 -11 13 0
10 44 12 77 3z m106 -11 c-7 -2 -19 -2 -25 0 -7 3 -2 5 12 5 14 0 19 -2 13 -5z
m-559 -31 c-9 -52 -13 -77 -13 -96 -1 -25 -27 -4 -35 29 -4 14 -11 25 -16 25
-6 0 -6 -10 0 -26 12 -30 5 -46 -17 -42 -11 2 -15 20 -16 69 l-2 66 52 1 c51
0 52 0 47 -26z m-459 -12 c7 0 16 6 18 13 3 6 5 -1 5 -18 0 -16 -2 -24 -5 -17
-2 6 -13 12 -24 12 -12 0 -19 7 -18 18 0 10 3 12 6 5 2 -7 11 -13 18 -13z m62
-64 c-5 -12 -20 -16 -57 -16 -55 0 -58 3 -33 28 12 12 18 13 21 4 5 -17 41
-15 49 4 4 10 9 12 16 5 5 -5 7 -17 4 -25z m1000 -23 c3 -7 -3 -9 -16 -6 -12
3 -21 1 -21 -6 0 -13 -10 -14 -29 -2 -7 5 -10 14 -6 20 9 15 67 10 72 -6z m37
-8 c-4 -8 -8 -15 -10 -15 -2 0 -4 7 -4 15 0 8 4 15 10 15 5 0 7 -7 4 -15z
m-143 -18 c-10 -9 -11 -8 -5 6 3 10 9 15 12 12 3 -3 0 -11 -7 -18z m-802 -94
c-13 -39 -16 -59 -8 -63 12 -8 -37 -180 -52 -180 -14 0 -11 21 11 85 24 69 23
65 6 65 -12 0 -10 13 9 70 28 82 33 92 45 85 5 -3 0 -31 -11 -62z m171 -50 c0
-59 -4 -93 -9 -87 -5 5 -11 20 -13 34 -5 38 -46 40 -75 4 -26 -33 -39 -28 -20
7 31 59 91 139 103 139 11 0 14 -22 14 -97z m41 30 l0 -68 24 53 c13 28 29 52
35 52 7 0 10 -4 8 -8 -46 -113 -106 -232 -116 -232 -9 0 -7 11 8 40 16 31 20
59 20 135 0 57 4 95 10 95 6 0 10 -30 11 -67z m187 55 c-3 -7 -22 -18 -42 -23
-53 -15 -91 -85 -46 -85 11 0 20 -4 20 -10 0 -5 -13 -10 -29 -10 -24 0 -31 -6
-44 -37 l-15 -38 39 -9 c58 -13 48 -29 -13 -21 -29 4 -54 8 -56 10 -4 4 80
189 92 202 6 6 27 16 46 21 48 14 52 14 48 0z m70 -45 l31 -48 -25 -13 c-24
-13 -25 -16 -18 -68 4 -33 3 -54 -4 -54 -5 0 -12 23 -16 50 -9 70 -40 68 -67
-4 -8 -22 -20 -41 -27 -44 -7 -2 -1 26 17 75 44 120 59 153 69 153 5 0 24 -21
40 -47z m-398 24 c0 -2 -13 -43 -30 -92 -16 -49 -28 -90 -27 -92 2 -1 19 2 38
7 42 12 59 13 59 1 0 -9 -94 -41 -120 -41 -15 0 -10 22 31 135 17 47 35 85 40
85 5 0 9 -1 9 -3z m1074 -16 c10 -4 24 -18 32 -32 l14 -24 -2 30 c-3 30 -3 30
55 33 46 2 57 0 57 -13 0 -11 -11 -15 -45 -15 -33 0 -45 -4 -45 -15 0 -10 11
-15 35 -15 21 0 35 -5 35 -13 0 -7 -13 -12 -32 -12 -22 0 -34 -5 -36 -16 -2
-14 7 -18 47 -20 l51 -4 0 63 0 62 104 0 c69 0 106 -4 108 -11 3 -9 9 -9 25 0
34 17 62 13 89 -14 30 -30 37 -31 29 -5 -9 28 2 25 51 -15 23 -19 45 -35 48
-35 3 0 6 18 6 40 0 22 5 40 10 40 6 0 10 -30 10 -71 l0 -71 -44 36 c-24 20
-47 36 -50 36 -3 0 -6 -18 -6 -41 0 -28 -4 -39 -12 -36 -8 2 -12 16 -10 32 l4
29 -30 -32 c-54 -58 -128 -31 -126 47 1 34 -2 41 -17 41 -16 0 -19 -8 -19 -55
0 -42 -3 -55 -15 -55 -12 0 -15 13 -15 55 l0 55 -60 0 c-47 0 -60 -3 -60 -15
0 -11 11 -15 41 -15 28 0 39 -4 36 -12 -2 -7 -19 -13 -38 -13 -31 0 -34 -3
-37 -32 -3 -28 -6 -31 -30 -28 -15 2 -48 4 -73 4 -45 1 -46 2 -42 29 l5 27
-24 -27 c-17 -21 -34 -28 -68 -30 l-45 -3 -3 73 -3 72 38 -1 c21 0 46 -4 57
-8z m769 -6 c1 -5 -17 -11 -40 -13 -55 -4 -61 -32 -8 -32 19 0 35 -4 35 -10 0
-10 -19 -14 -52 -11 -12 2 -18 -5 -18 -18 0 -18 6 -21 40 -21 25 0 40 -5 40
-12 0 -9 -16 -12 -55 -10 l-55 4 0 69 0 70 55 -3 c30 -2 56 -7 58 -13z m108
-6 c16 -16 18 -24 9 -32 -8 -9 -14 -8 -21 6 -6 9 -21 17 -35 17 -36 0 -25 -23
16 -31 53 -11 66 -48 25 -75 -31 -20 -82 -11 -90 17 -9 28 2 37 18 15 8 -11
23 -17 37 -14 36 5 35 25 -1 32 -40 8 -59 23 -59 47 0 40 67 52 101 18z m-891
-254 c0 -8 5 -15 10 -15 6 0 10 7 10 15 0 33 20 12 22 -22 l1 -38 4 38 c4 30
8 37 26 37 12 0 17 -4 12 -8 -13 -9 -16 -62 -4 -62 5 0 9 6 9 14 0 21 48 56
76 56 13 0 33 -9 44 -20 18 -18 20 -19 20 -2 0 16 11 18 99 17 55 0 103 -3
107 -7 4 -5 -2 -8 -14 -8 -29 0 -28 -14 3 -34 24 -16 25 -15 26 4 3 40 4 43
23 46 10 1 29 -1 42 -6 15 -6 24 -6 24 0 0 11 59 8 78 -4 14 -9 16 -38 3 -51
-6 -6 -4 -17 5 -29 13 -18 14 -15 14 35 0 45 3 55 18 56 14 1 17 -8 17 -63 l0
-64 -32 0 c-22 0 -37 7 -47 22 l-16 22 0 -22 c0 -15 -6 -22 -20 -22 -16 0 -20
7 -20 35 0 33 -2 35 -20 25 -19 -10 -20 -9 -15 13 4 14 2 28 -4 31 -7 5 -11
-11 -11 -47 l0 -55 -60 -1 c-32 0 -62 4 -65 10 -4 6 4 9 21 7 36 -4 43 19 10
34 -15 6 -29 22 -32 35 -7 25 -19 30 -30 11 -4 -6 1 -17 10 -23 15 -12 15 -13
0 -19 -11 -4 -15 -14 -12 -31 4 -19 1 -25 -13 -25 -15 0 -19 10 -21 52 -2 30
-8 53 -15 56 -8 2 -13 -5 -13 -17 0 -12 6 -21 13 -22 10 0 10 -2 0 -6 -7 -2
-13 -18 -13 -34 0 -22 -5 -29 -20 -29 -12 0 -20 7 -20 17 0 15 -1 15 -18 0
-28 -26 -79 -22 -106 8 -15 16 -34 25 -54 25 -24 0 -32 5 -35 23 l-4 22 -8
-22 c-11 -33 -25 -28 -25 7 0 17 -4 30 -10 30 -5 0 -10 -13 -10 -30 0 -16 -4
-30 -10 -30 -5 0 -10 11 -10 24 0 13 -3 31 -6 40 -5 13 1 16 30 16 25 0 36 -4
36 -15z m744 -27 l36 -42 0 42 c0 23 5 42 10 42 6 0 10 -7 10 -16 0 -14 2 -14
22 0 28 20 68 21 68 2 0 -9 -8 -12 -25 -9 -19 4 -25 0 -30 -20 -9 -36 -3 -61
18 -65 12 -2 17 3 17 17 0 14 6 21 18 21 14 0 19 -8 20 -30 1 -28 -2 -30 -34
-30 -20 0 -44 5 -55 10 -13 7 -19 7 -19 0 0 -22 -30 -8 -59 27 l-31 38 0 -38
c0 -20 -4 -37 -10 -37 -6 0 -10 28 -10 65 0 36 4 65 9 65 5 0 26 -19 45 -42z
m-1263 6 c12 -15 11 -16 -10 -9 -21 6 -22 5 -16 -17 7 -22 7 -22 -11 -5 -19
18 -18 19 0 33 24 17 21 17 37 -2z m-933 -6 c9 -9 15 -9 24 0 19 19 24 14 26
-28 2 -22 -2 -40 -7 -40 -5 0 -8 15 -6 33 3 26 2 29 -7 16 -11 -15 -13 -15
-29 5 -18 21 -18 21 -19 -16 0 -21 -4 -38 -10 -38 -5 0 -10 18 -10 40 0 41 14
52 38 28z m128 -26 c-9 -8 -26 10 -26 26 1 15 2 15 15 -2 8 -11 13 -21 11 -24z
m90 23 c4 -8 1 -21 -5 -29 -6 -7 -8 -15 -6 -18 3 -3 -6 -3 -20 -1 -30 6 -34
23 -5 23 27 0 25 28 -2 33 -20 4 -19 4 5 6 16 0 30 -5 33 -14z m44 -25 c0 -22
-4 -40 -10 -40 -5 0 -10 18 -10 40 0 22 5 40 10 40 6 0 10 -18 10 -40z m120
-17 c0 -12 -4 -23 -10 -23 -5 0 -10 11 -10 24 0 14 -4 28 -10 31 -5 3 -10 11
-10 17 0 6 9 3 20 -7 11 -10 20 -29 20 -42z m57 -5 c-2 -13 -4 -3 -4 22 0 25
2 35 4 23 2 -13 2 -33 0 -45z m165 22 c-2 -22 -7 -40 -11 -40 -4 0 -7 18 -7
40 0 23 4 40 10 40 7 0 10 -15 8 -40z m65 -2 c1 -42 1 -42 -6 -8 -6 32 -7 34
-18 15 -9 -15 -12 -16 -13 -4 0 15 18 39 30 39 3 0 7 -19 7 -42z m76 21 c3
-13 1 -19 -6 -16 -15 5 -22 37 -9 37 5 0 12 -9 15 -21z m54 -41 c-2 -13 -4 -3
-4 22 0 25 2 35 4 23 2 -13 2 -33 0 -45z m238 22 c0 -27 -5 -36 -20 -39 -20
-3 -20 -3 -1 18 18 20 19 23 3 38 -15 16 -18 15 -37 -2 -16 -15 -20 -15 -20
-3 0 23 11 29 45 26 27 -3 30 -6 30 -38z m42 -22 c-2 -13 -4 -3 -4 22 0 25 2
35 4 23 2 -13 2 -33 0 -45z m-577 -6 c0 -12 -7 -9 -25 8 -14 13 -25 30 -25 38
0 12 7 9 25 -8 14 -13 25 -30 25 -38z m360 0 c0 -12 -7 -9 -25 8 -14 13 -25
30 -25 38 0 12 7 9 25 -8 14 -13 25 -30 25 -38z m280 0 c0 -12 -7 -9 -25 8
-14 13 -25 30 -25 38 0 12 7 9 25 -8 14 -13 25 -30 25 -38z m-996 1 c5 -12 2
-13 -11 -8 -10 5 -28 8 -40 8 -13 -1 -20 4 -17 11 7 17 61 8 68 -11z m620 1
c5 -13 2 -14 -11 -9 -10 4 -26 8 -35 9 -30 1 -20 16 11 16 17 0 31 -6 35 -16z
m-434 -10 c0 -2 -11 -4 -25 -4 -14 0 -25 4 -25 9 0 4 11 6 25 3 14 -2 25 -6
25 -8z m599 0 c-8 -10 -16 -11 -30 -3 -26 13 -24 16 11 16 23 0 27 -3 19 -13z
m-762 -154 c23 -26 43 -25 44 3 l2 22 4 -22 c5 -28 24 -30 41 -3 13 22 48 26
72 9 12 -8 10 -10 -10 -8 -38 2 -50 0 -50 -10 0 -5 10 -9 23 -9 12 0 27 -1 32
-2 24 -6 65 1 65 10 0 6 -7 10 -15 10 -8 0 -15 5 -15 10 0 6 18 10 40 10 22 0
40 -4 40 -10 0 -5 -6 -10 -13 -10 -9 0 -14 -14 -15 -42 -2 -52 -10 -61 -18
-20 -5 25 -12 32 -30 32 -15 0 -24 -6 -24 -15 0 -19 -41 -36 -69 -28 -35 9
-24 22 14 16 21 -3 35 -2 35 5 0 12 -75 27 -90 17 -5 -3 -10 -13 -10 -21 0 -8
-4 -14 -10 -14 -5 0 -7 6 -4 14 9 24 -17 29 -32 7 -11 -15 -26 -21 -55 -21
l-39 0 0 45 c0 45 0 45 35 45 23 0 41 -7 52 -20z m344 -20 c22 0 29 5 29 20 0
11 5 20 10 20 6 0 10 -9 10 -20 0 -11 7 -20 15 -20 8 0 15 9 15 20 0 16 7 20
33 20 37 0 51 -8 60 -32 4 -12 1 -18 -8 -18 -21 0 -19 -10 7 -37 32 -34 6 -28
-31 7 -36 35 -38 40 -11 40 11 0 20 5 20 10 0 6 -11 10 -25 10 -22 0 -25 -4
-25 -35 0 -19 -4 -35 -10 -35 -5 0 -10 9 -10 20 0 11 -7 20 -15 20 -8 0 -15
-7 -15 -15 0 -22 -46 -38 -71 -25 -10 6 -19 15 -19 21 0 5 -10 14 -22 19 l-23
9 23 0 c16 1 22 7 23 24 l2 22 4 -22 c3 -18 11 -23 34 -23z m278 27 c6 -8 8
-17 4 -20 -3 -4 4 -7 16 -7 15 0 21 5 19 18 -2 12 5 18 26 20 16 2 33 -1 39
-7 8 -8 2 -11 -21 -11 -18 0 -32 -4 -32 -10 0 -5 23 -10 51 -10 46 0 51 2 46
20 -4 17 0 20 27 20 46 0 68 -20 64 -55 -3 -28 -6 -30 -49 -33 -40 -3 -47 0
-45 15 1 15 -8 19 -46 21 -37 2 -48 0 -48 -12 0 -9 12 -16 33 -19 28 -3 27 -4
-9 -5 -33 -2 -41 1 -40 14 2 25 -21 28 -27 4 -4 -16 -13 -20 -45 -20 -33 0
-40 4 -44 23 -8 49 1 67 36 67 19 0 39 -6 45 -13z m1057 -12 c52 -40 58 -114
14 -166 -19 -24 -19 -24 0 16 11 21 20 49 20 61 0 31 -42 88 -68 92 -12 2 -20
8 -17 13 9 13 15 12 51 -16z m-151 -21 c-14 -20 -25 -46 -25 -56 0 -33 31 -88
59 -103 16 -9 20 -14 10 -15 -29 0 -71 56 -76 102 -4 37 -1 49 22 76 36 43 40
41 10 -4z m370 17 c3 -5 1 -12 -5 -16 -5 -3 -10 1 -10 9 0 18 6 21 15 7z
m-298 -96 c23 -16 42 -34 42 -38 1 -9 -68 41 -86 63 -7 8 -12 26 -11 40 0 23
1 22 7 -5 4 -19 21 -40 48 -60z m309 8 c8 -8 13 -22 13 -31 -1 -15 -2 -15 -6
1 -2 9 -8 17 -13 17 -5 0 -11 -8 -13 -17 -3 -10 -5 7 -4 37 0 30 2 44 4 31 3
-13 11 -31 19 -38z m-46 -10 c0 -20 -3 -33 -7 -30 -9 10 -10 67 0 67 4 0 7
-16 7 -37z m-96 11 c20 -19 21 -31 2 -15 -12 10 -14 5 -14 -34 0 -69 -10 -66
-14 4 -3 64 1 71 26 45z m47 -20 c-9 -28 -9 -29 -10 -3 -1 14 2 29 6 32 11 12
13 2 4 -29z m-201 -59 c0 -11 -32 9 -40 26 -17 31 -11 33 15 5 14 -15 25 -29
25 -31z m-1570 -80 c6 3 7 -1 4 -9 -3 -9 -9 -16 -13 -16 -10 0 -41 60 -41 78
1 9 10 0 21 -21 11 -21 24 -35 29 -32z m40 15 c0 -27 -4 -50 -10 -50 -11 0
-14 83 -3 93 12 12 13 8 13 -43z m27 -27 c-2 -16 -4 -3 -4 27 0 30 2 43 4 28
2 -16 2 -40 0 -55z m84 54 c31 -17 45 -30 46 -48 l3 -24 -10 23 c-10 23 -53
46 -80 44 -12 -1 -12 0 -1 5 11 4 11 7 0 14 -28 17 -1 8 42 -14z m39 13 c0 -5
-2 -10 -4 -10 -3 0 -8 5 -11 10 -3 6 -1 10 4 10 6 0 11 -4 11 -10z m40 -40 c0
-27 -4 -50 -10 -50 -5 0 -10 23 -10 50 0 28 5 50 10 50 6 0 10 -22 10 -50z
m50 0 c0 -27 -3 -50 -7 -50 -5 0 -7 19 -6 42 2 58 2 58 8 58 3 0 5 -22 5 -50z
m33 20 c-4 -22 0 -36 13 -52 19 -21 19 -21 -3 -9 -23 12 -30 42 -17 75 10 26
14 18 7 -14z m66 -8 c0 9 5 19 10 22 4 3 6 -6 3 -20 -3 -15 2 -32 14 -46 19
-21 19 -21 -3 -9 -13 6 -23 17 -24 24 -1 7 -5 1 -9 -13 -6 -19 -8 -12 -8 30 0
45 2 50 8 25 4 -16 8 -22 9 -13z m71 28 c0 -5 -2 -10 -4 -10 -3 0 -8 5 -11 10
-3 6 -1 10 4 10 6 0 11 -4 11 -10z m95 0 c3 -6 -1 -7 -9 -4 -18 7 -21 14 -7
14 6 0 13 -4 16 -10z m100 -40 c0 -27 -4 -50 -10 -50 -5 0 -9 19 -8 42 2 59 2
58 11 58 4 0 7 -22 7 -50z m35 40 c0 -5 9 -10 20 -10 11 0 20 5 20 10 0 6 5
10 10 10 6 0 10 -22 10 -50 0 -27 -4 -50 -10 -50 -5 0 -10 16 -10 35 0 28 -4
35 -19 35 -16 0 -21 -8 -23 -37 -3 -34 -4 -33 -8 15 -3 28 -2 52 3 52 4 0 7
-4 7 -10z m910 0 c0 -5 -10 -10 -22 -9 -22 0 -22 1 -3 9 11 5 21 9 23 9 1 1 2
-3 2 -9z m-1100 -20 c-12 -22 0 -54 22 -63 9 -4 9 -6 1 -6 -33 -2 -55 53 -31
77 17 17 20 15 8 -8z m120 11 c0 -5 -6 -11 -14 -14 -8 -3 -16 -16 -19 -29 -4
-22 -4 -22 -6 3 -1 24 14 49 31 49 4 0 8 -4 8 -9z m-155 -51 c0 -16 -3 -30 -7
-30 -5 0 -8 14 -8 30 0 17 3 30 8 30 4 0 7 -13 7 -30z m95 0 c0 -16 -4 -30 -9
-30 -5 0 -9 14 -9 30 1 17 5 30 10 30 4 0 8 -13 8 -30z m-418 -32 c-7 -7 -12
-8 -12 -2 0 14 12 26 19 19 2 -3 -1 -11 -7 -17z m1044 -64 c8 -20 13 -39 10
-42 -5 -4 -36 58 -36 73 0 16 13 0 26 -31z m84 -10 c0 -19 -4 -34 -10 -34 -5
0 -10 18 -10 41 0 24 4 38 10 34 6 -3 10 -22 10 -41z m731 16 c7 -18 15 -27
22 -23 7 4 6 -1 -2 -11 -13 -16 -15 -15 -28 15 -14 33 -16 49 -7 49 3 0 10
-13 15 -30z m138 -4 c25 -40 28 -68 5 -59 -8 3 -13 11 -11 17 3 7 -1 23 -9 37
-27 49 -15 54 15 5z m-829 15 c0 -6 -4 -13 -10 -16 -6 -4 -3 -16 7 -33 l16
-27 -21 20 c-15 14 -20 27 -16 43 6 21 24 31 24 13z m192 -8 c6 -27 -3 -64
-13 -57 -12 7 -12 74 0 74 5 0 11 -8 13 -17z m58 -23 c0 -22 -4 -40 -10 -40
-5 0 -10 18 -10 40 0 22 5 40 10 40 6 0 10 -18 10 -40z m97 -22 c-2 -13 -4 -3
-4 22 0 25 2 35 4 23 2 -13 2 -33 0 -45z m132 31 c33 -43 20 -46 -18 -4 -17
19 -26 35 -19 34 7 0 24 -14 37 -30z m101 -9 c0 -22 -2 -40 -4 -40 -2 0 -6 18
-8 40 -2 22 0 40 4 40 5 0 8 -18 8 -40z m164 20 c17 -59 18 -65 8 -55 -14 15
-32 75 -22 75 5 0 11 -9 14 -20z m-911 -45 c-3 -9 -8 -14 -10 -11 -3 3 -2 9 2
15 9 16 15 13 8 -4z m251 0 c11 -8 15 -15 10 -15 -6 0 -19 7 -30 15 -10 8 -14
14 -9 14 6 0 19 -6 29 -14z m353 -7 c-3 -8 -6 -5 -6 6 -1 11 2 17 5 13 3 -3 4
-12 1 -19z m-1692 -8 c-3 -5 -1 -10 4 -10 6 0 11 5 11 10 0 6 5 10 11 10 8 0
8 -5 -1 -15 -10 -12 -10 -18 0 -30 16 -19 30 -10 30 21 0 13 5 24 11 24 7 0 9
-9 5 -22 -3 -13 -6 -29 -6 -35 0 -18 -49 -16 -56 2 -4 8 -10 12 -15 9 -5 -3
-7 -10 -4 -15 4 -5 -1 -9 -10 -9 -13 0 -14 4 -5 21 7 11 9 27 6 35 -3 8 1 14
10 14 8 0 12 -4 9 -10z m111 -14 c-5 -20 -2 -25 16 -28 18 -3 16 -5 -10 -9
-26 -4 -32 -3 -27 8 3 8 5 23 5 34 0 10 5 19 11 19 7 0 9 -10 5 -24z m67 0
c-5 -23 -2 -24 43 -24 42 0 46 2 27 11 -30 13 -29 37 1 37 29 0 44 -39 21 -55
-11 -8 -9 -12 13 -22 l27 -13 -35 4 c-46 4 -60 -1 -60 -25 0 -22 -11 -24 -28
-7 -9 9 -12 9 -12 -3 0 -19 -35 -22 -51 -3 -21 26 -45 15 -40 -18 0 -5 -5 -8
-13 -8 -10 0 -11 7 -2 35 12 38 29 43 60 20 17 -13 21 -12 32 3 10 12 16 14
21 5 6 -8 15 -6 32 8 l23 19 -38 0 c-36 0 -39 2 -40 30 -1 17 4 30 11 30 8 0
10 -9 8 -24z m127 9 c0 -8 5 -15 10 -15 6 0 10 7 10 15 0 8 5 15 11 15 6 0 9
-7 5 -15 -3 -8 -1 -15 4 -15 6 0 10 7 10 15 0 8 5 15 10 15 12 0 12 -3 1 -33
-13 -33 -55 -33 -70 0 -14 29 -14 33 -1 33 6 0 10 -7 10 -15z m100 -15 c0 -16
-4 -30 -8 -30 -4 0 -9 14 -10 30 -1 17 2 30 8 30 5 0 10 -13 10 -30z m160 15
c0 -8 7 -15 15 -15 8 0 15 7 15 15 0 8 5 15 10 15 6 0 10 -10 10 -23 0 -13 5
-28 12 -35 9 -9 8 -12 -5 -12 -9 0 -17 7 -17 15 0 8 -9 15 -21 15 -11 0 -17
-4 -14 -10 3 -5 1 -10 -4 -10 -6 0 -11 9 -11 19 0 11 -4 23 -10 26 -5 3 -10 1
-10 -6 0 -8 -3 -9 -13 0 -15 12 -27 5 -27 -17 0 -10 7 -12 25 -8 14 4 25 2 25
-3 0 -30 -55 -22 -65 10 -8 25 -25 25 -25 -1 0 -21 27 -40 59 -40 12 0 21 -4
21 -9 0 -5 -21 -6 -47 -3 -46 5 -47 4 -33 -14 8 -10 15 -20 16 -22 5 -9 54
-11 54 -2 0 5 -9 10 -20 10 -11 0 -20 4 -20 8 0 5 14 7 30 4 21 -3 30 -10 30
-23 0 -15 -7 -19 -32 -19 -18 0 -45 6 -59 14 -17 9 -32 10 -43 4 -10 -6 -16
-5 -16 2 0 5 -13 10 -30 10 -16 0 -30 -4 -30 -10 0 -5 -7 -10 -15 -10 -11 0
-9 8 8 35 26 41 39 43 65 10 24 -30 32 -31 32 -6 0 10 6 21 14 24 12 5 12 11
3 31 -7 14 -15 26 -19 26 -5 0 -8 4 -8 9 0 5 34 9 75 9 60 1 75 -2 75 -13z
m-504 -72 c-4 -4 -23 -6 -42 -4 -21 1 -34 -2 -34 -9 0 -8 9 -10 26 -6 15 4 23
3 20 -3 -4 -5 -19 -12 -35 -16 -16 -3 -32 -13 -35 -21 -3 -8 -2 -13 2 -10 17
10 72 16 72 7 0 -7 -38 -17 -107 -27 -22 -3 -22 -3 2 24 14 15 25 37 25 49 0
21 4 23 57 23 31 0 53 -3 49 -7z m522 -5 c-2 -7 11 -15 27 -19 25 -5 18 -14
-7 -10 -11 2 -10 -17 2 -24 5 -3 25 -6 45 -7 23 -1 35 -6 35 -16 0 -8 -6 -12
-14 -9 -7 3 -34 9 -60 12 -26 4 -45 10 -42 12 3 3 -1 21 -9 39 -13 32 -13 34
6 34 10 0 18 -5 17 -12z m67 2 c4 -7 -3 -8 -22 -4 -38 9 -42 14 -10 14 14 0
29 -5 32 -10z m715 -49 c0 -34 3 -38 25 -38 16 0 22 3 17 11 -12 19 -9 56 5
56 7 0 22 -14 32 -31 15 -25 17 -37 9 -63 -5 -17 -13 -44 -18 -61 -6 -23 -8
-25 -9 -8 -1 16 -6 20 -21 16 -35 -9 -88 6 -95 27 -4 13 -16 20 -33 21 -22 1
-23 3 -6 6 14 3 24 14 27 31 6 30 47 82 60 75 4 -2 7 -21 7 -42z m-1060 29 c0
-11 -7 -14 -53 -25 -19 -4 -26 -2 -22 5 3 5 16 10 28 11 21 0 21 1 2 9 -17 7
-15 9 13 9 17 1 32 -4 32 -9z m1549 -16 c-7 -9 -6 -21 5 -41 l15 -28 2 30 c1
17 2 36 2 43 -1 6 4 12 9 12 6 0 8 -14 3 -37 -6 -35 -6 -36 12 -22 17 13 17
13 0 -13 -19 -31 -23 -78 -5 -78 6 0 22 10 35 22 33 30 31 80 -3 107 -15 12
-22 21 -15 21 24 0 51 -40 51 -75 0 -67 -66 -106 -118 -69 -12 8 -22 12 -22 8
0 -4 -13 5 -30 21 -16 16 -30 25 -30 19 0 -5 -4 -3 -8 4 -5 7 -7 25 -4 41 3
23 8 27 28 23 13 -2 24 -9 24 -14 0 -5 -10 -7 -22 -4 -13 3 -17 3 -10 0 9 -4
10 -10 3 -18 -8 -9 -4 -19 14 -36 23 -22 25 -22 25 -4 1 18 1 18 12 -1 35 -62
65 -37 32 28 -22 43 -23 44 -35 27 -9 -12 -9 -11 -4 5 4 11 8 25 8 30 0 6 8
11 18 11 13 0 15 -4 8 -12z m-141 -56 c-1 -42 -3 -51 -5 -25 -3 26 -9 37 -21
37 -16 1 -16 1 1 11 9 5 17 17 17 24 0 8 2 15 5 15 3 0 4 -28 3 -62z m-160 -6
c13 -13 21 -29 19 -35 -2 -6 -15 6 -29 27 l-27 39 -4 -34 c-3 -25 -4 -21 -5
16 -1 43 1 47 11 31 7 -11 22 -31 35 -44z m98 39 c-10 -11 -15 -24 -12 -29 3
-5 -1 -9 -9 -9 -20 0 -19 7 7 34 26 28 38 31 14 4z m-164 -26 c-2 -19 -6 -35
-8 -35 -2 0 -4 16 -4 35 0 19 4 35 8 35 4 0 6 -16 4 -35z m115 -27 c-2 -13 -4
-3 -4 22 0 25 2 35 4 23 2 -13 2 -33 0 -45z m61 -12 c-13 -19 -24 -33 -26 -31
-6 6 31 65 40 65 5 0 -2 -15 -14 -34z m-1840 -73 c-10 -2 -18 -11 -18 -18 0
-7 8 -16 18 -18 13 -4 12 -5 -4 -6 -12 0 -24 5 -27 13 -7 17 12 36 33 35 11
-1 11 -2 -2 -6z m45 -5 c4 -10 8 -9 16 2 9 12 11 9 11 -15 0 -23 -3 -27 -10
-15 -9 13 -11 13 -20 0 -5 -8 -10 -13 -11 -10 0 3 -2 15 -5 28 -4 23 11 31 19
10z m68 5 c-11 -5 -11 -7 0 -14 12 -7 11 -9 -1 -9 -13 0 -13 -1 0 -10 13 -8
12 -10 -2 -10 -13 0 -18 8 -18 25 0 17 5 25 18 24 12 0 13 -2 3 -6z m59 -10
c0 9 4 17 10 17 6 0 5 -10 -2 -25 -13 -29 -23 -32 -32 -9 -11 28 -6 38 9 18
13 -17 14 -17 15 -1z m55 7 c-13 -6 -15 -9 -5 -9 13 -1 13 -3 1 -10 -11 -7
-10 -10 5 -14 16 -4 16 -5 -3 -6 -18 -1 -23 4 -23 24 0 19 5 25 23 24 21 0 21
-1 2 -9z m53 -33 c12 -3 10 -5 -5 -6 -19 -1 -23 4 -22 27 1 22 2 23 6 5 2 -12
12 -24 21 -26z m50 0 c12 -3 10 -5 -5 -6 -19 -1 -23 4 -22 27 1 22 2 23 6 5 2
-12 12 -24 21 -26z m47 33 l-20 -9 20 -1 20 -2 -20 -6 -20 -5 20 -8 c19 -7 19
-8 -2 -8 -18 -1 -23 5 -23 24 0 19 5 25 23 24 21 0 21 -1 2 -9z m137 1 c-11
-7 -11 -9 2 -14 24 -9 19 -27 -6 -27 -19 0 -20 2 -8 10 10 6 11 10 3 10 -7 0
-13 7 -13 15 0 8 8 15 18 15 13 0 14 -2 4 -9z m53 -1 l-20 -9 20 -1 20 -2 -20
-6 -20 -5 20 -8 c19 -7 19 -8 -2 -8 -18 -1 -23 5 -23 24 0 19 5 25 23 24 21 0
21 -1 2 -9z m64 -3 c14 24 14 7 0 -19 -11 -21 -12 -21 -25 -3 -8 10 -14 24
-14 29 0 6 7 3 14 -7 14 -18 15 -18 25 0z m52 6 c-11 -5 -11 -7 0 -14 12 -7
11 -9 -1 -9 -13 0 -13 -1 0 -10 12 -8 11 -10 -7 -10 -18 0 -23 6 -23 25 0 19
5 25 23 24 12 0 16 -3 8 -6z m62 -1 c3 7 6 0 6 -16 1 -23 -2 -26 -13 -17 -11
9 -15 9 -19 -1 -3 -7 -6 0 -6 16 -1 23 2 26 13 17 11 -9 15 -9 19 1z m72 -17
c0 -13 -8 -21 -22 -23 -19 -3 -23 1 -23 23 0 22 4 26 23 23 14 -2 22 -10 22
-23z m36 -15 c5 0 14 10 19 23 10 22 10 22 7 -3 -3 -32 -41 -36 -43 -5 -1 15
0 16 3 3 3 -10 9 -18 14 -18z m61 31 c-11 -7 -11 -9 2 -14 24 -9 19 -27 -6
-26 -21 0 -21 1 -4 8 18 7 18 8 3 14 -22 8 -22 27 1 27 13 0 14 -2 4 -9z m61
-3 c-6 -7 -12 -20 -15 -28 -3 -9 -7 -4 -10 13 -4 22 -2 27 15 27 14 0 17 -3
10 -12z m-523 -12 c0 -3 -4 -8 -10 -11 -5 -3 -10 -1 -10 4 0 6 5 11 10 11 6 0
10 -2 10 -4z m847 -83 c-3 -10 -5 -4 -5 12 0 17 2 24 5 18 2 -7 2 -21 0 -30z
m51 30 c-10 -2 -18 -11 -18 -18 0 -7 8 -16 18 -18 13 -4 11 -5 -5 -6 -16 -1
-23 5 -23 17 0 23 9 32 29 31 13 -1 13 -2 -1 -6z m57 -3 c-13 -6 -15 -9 -5 -9
13 -1 13 -3 1 -10 -11 -7 -10 -10 5 -14 16 -4 16 -5 -3 -6 -18 -1 -23 4 -23
24 0 19 5 25 23 24 21 0 21 -1 2 -9z m70 -15 c0 -13 -8 -21 -22 -23 -19 -3
-23 1 -23 23 0 22 4 26 23 23 14 -2 22 -10 22 -23z m71 18 c-15 -4 -16 -7 -5
-14 12 -7 12 -9 -1 -9 -13 0 -13 -1 0 -10 13 -8 12 -10 -2 -10 -13 0 -18 8
-18 25 0 20 5 25 23 24 19 -1 19 -2 3 -6z m66 -20 c4 -14 -1 -18 -19 -18 -27
0 -26 0 -12 26 11 22 24 18 31 -8z m63 17 c9 -14 -7 -35 -27 -36 -13 -1 -18 5
-18 22 0 17 6 24 19 24 11 0 23 -4 26 -10z m49 2 c-7 -4 -14 -16 -16 -27 -3
-17 -5 -15 -10 8 -4 23 -2 27 16 27 13 0 16 -3 10 -8z m50 -3 c14 12 16 10 16
-13 0 -27 -15 -35 -23 -13 -4 9 -8 8 -16 -3 -9 -12 -11 -9 -11 15 0 22 3 26 9
16 8 -12 12 -12 25 -2z m144 4 c-10 -2 -18 -11 -18 -18 0 -7 8 -16 18 -18 13
-4 11 -5 -5 -6 -16 -1 -23 5 -23 17 0 23 9 32 29 31 13 -1 13 -2 -1 -6z m58
-9 c-3 -8 -2 -13 3 -10 5 3 11 0 14 -8 4 -10 -2 -13 -19 -12 -13 0 -24 4 -24
8 0 16 13 38 22 38 6 0 7 -7 4 -16z m74 -7 c0 -16 -6 -23 -20 -23 -14 0 -20 7
-20 23 0 16 6 23 20 23 14 0 20 -7 20 -23z m48 16 c-10 -2 -18 -11 -18 -18 0
-7 8 -16 18 -18 13 -4 12 -5 -4 -6 -12 0 -24 5 -27 13 -7 17 12 36 33 35 11
-1 11 -2 -2 -6z m69 -16 c10 -22 9 -24 -17 -24 -26 0 -27 2 -17 24 5 13 13 23
17 23 4 0 12 -10 17 -23z m45 14 c-11 -7 -10 -9 3 -15 20 -7 10 -26 -13 -26
-15 0 -15 2 -2 10 10 6 11 10 3 10 -7 0 -13 7 -13 15 0 8 8 15 18 15 13 0 14
-2 4 -9z m50 0 c-11 -7 -10 -9 3 -15 20 -7 10 -26 -13 -26 -15 0 -15 2 -2 10
10 6 11 10 3 10 -7 0 -13 7 -13 15 0 8 8 15 18 15 13 0 14 -2 4 -9z m-2283
-17 c6 4 11 0 11 -9 0 -9 -5 -13 -11 -9 -6 3 -15 0 -20 -7 -6 -10 -9 -5 -9 16
0 21 3 26 9 16 5 -7 14 -10 20 -7z m71 -25 c0 -4 -9 -5 -20 -2 -23 6 -22 5
-13 29 6 16 7 16 20 -2 7 -10 13 -21 13 -25z m32 14 c-5 -23 -7 -25 -10 -8 -2
11 -9 23 -16 27 -6 5 -3 8 10 8 18 0 20 -4 16 -27z m43 17 c-13 -6 -15 -9 -5
-9 13 -1 13 -3 1 -10 -11 -7 -10 -10 5 -14 16 -4 16 -5 -3 -6 -18 -1 -23 4
-23 24 0 19 5 25 23 24 21 0 21 -1 2 -9z m60 -15 c0 -11 -8 -21 -17 -23 -14
-3 -18 3 -18 23 0 20 4 26 18 23 9 -2 17 -12 17 -23z m51 -3 c1 -17 -2 -20
-11 -12 -9 8 -15 7 -18 -2 -3 -7 -6 0 -6 15 -1 22 3 28 17 25 10 -2 17 -13 18
-26z m39 18 c-13 -6 -15 -9 -5 -9 13 -1 13 -3 1 -10 -11 -7 -10 -10 5 -14 16
-4 16 -5 -3 -6 -18 -1 -23 4 -23 24 0 19 5 25 23 24 21 0 21 -1 2 -9z m46 3
c-11 -5 -11 -7 0 -14 12 -7 11 -9 -1 -9 -13 0 -13 -1 0 -10 13 -8 12 -10 -2
-10 -13 0 -18 8 -18 25 0 17 5 25 18 24 12 0 13 -2 3 -6z m64 -18 c0 -27 -31
-32 -38 -6 -6 24 1 33 23 29 8 -2 15 -12 15 -23z m130 0 c0 -11 -8 -21 -17
-23 -14 -3 -18 3 -18 23 0 20 4 26 18 23 9 -2 17 -12 17 -23z m47 18 c-6 -2
-10 -9 -6 -14 3 -5 -1 -9 -8 -10 -7 0 -4 -4 7 -9 19 -8 19 -9 -2 -9 -16 -1
-23 5 -23 17 0 23 9 32 29 31 11 0 12 -2 3 -6z m48 -3 c9 13 10 13 10 0 0 -8
-4 -21 -9 -29 -7 -11 -11 -10 -20 7 -14 26 -14 43 -1 22 9 -13 11 -13 20 0z
m74 -32 c7 -5 5 -8 -6 -8 -13 0 -18 7 -17 28 1 21 2 22 6 7 3 -11 10 -23 17
-27z m74 30 c8 -8 9 -15 1 -25 -18 -21 -39 -15 -39 12 0 27 18 33 38 13z m56
4 c2 -4 0 -14 -6 -22 -8 -12 -9 -12 -4 3 3 9 1 17 -4 17 -5 0 -11 -8 -13 -17
-4 -14 -5 -12 -6 5 -1 21 22 31 33 14z m23 -29 c-3 -10 -5 -4 -5 12 0 17 2 24
5 18 2 -7 2 -21 0 -30z m43 21 c0 11 3 17 6 13 3 -3 3 -16 -1 -28 -7 -22 -8
-22 -21 -4 -8 10 -14 23 -14 29 0 5 7 1 15 -10 14 -19 14 -19 15 0z m51 9
c-11 -5 -11 -7 0 -14 12 -7 11 -9 -1 -9 -13 0 -13 -1 0 -10 13 -8 13 -10 -2
-10 -9 0 -20 5 -23 10 -11 17 3 40 22 39 12 0 14 -2 4 -6z m59 -16 c0 -16 -6
-23 -20 -23 -14 0 -20 7 -20 23 0 16 6 23 20 23 14 0 20 -7 20 -23z m-353 -19
c-3 -7 -5 -2 -5 12 0 14 2 19 5 13 2 -7 2 -19 0 -25z m1213 28 c0 -3 -4 -8
-10 -11 -5 -3 -10 -1 -10 4 0 6 5 11 10 11 6 0 10 -2 10 -4z m-430 -95 c0 -3
-11 -6 -24 -6 -21 0 -22 2 -13 23 10 22 12 23 24 6 7 -10 13 -20 13 -23z m43
31 c3 7 6 0 6 -17 1 -23 -2 -27 -9 -15 -9 13 -11 13 -20 0 -8 -12 -10 -9 -10
14 0 23 3 26 14 17 11 -9 15 -9 19 1z m34 -29 c-3 -10 -5 -4 -5 12 0 17 2 24
5 18 2 -7 2 -21 0 -30z m50 28 c10 9 13 5 12 -17 0 -16 -3 -23 -6 -16 -2 6
-11 12 -18 12 -7 0 -16 -6 -18 -12 -3 -7 -6 0 -6 17 -1 22 2 26 11 17 8 -8 15
-9 25 -1z m61 -16 c9 -17 7 -20 -14 -20 -28 0 -28 0 -13 27 12 22 12 22 27 -7z
m46 -17 c7 -5 5 -8 -6 -8 -13 0 -18 7 -17 28 1 21 2 22 6 7 3 -11 10 -23 17
-27z m38 33 c-11 -7 -10 -9 3 -15 20 -7 10 -26 -13 -26 -13 0 -14 2 -3 9 9 6
10 11 2 15 -17 11 -13 26 7 26 13 0 14 -2 4 -9z m88 -32 c0 -4 -9 -5 -20 -2
-23 6 -22 5 -13 29 6 16 7 16 20 -2 7 -10 13 -21 13 -25z m32 32 c-11 -7 -10
-9 3 -15 17 -6 12 -26 -6 -26 -6 0 -8 4 -4 9 3 5 1 12 -5 16 -13 8 -3 25 13
25 8 0 8 -3 -1 -9z m72 -33 c7 -5 5 -8 -6 -8 -13 0 -18 7 -17 28 1 21 2 22 6
7 3 -11 10 -23 17 -27z m41 32 c-13 -6 -15 -9 -5 -9 13 -1 13 -3 1 -10 -11 -7
-10 -10 5 -14 16 -4 16 -5 -3 -6 -18 -1 -23 4 -23 24 0 19 5 25 23 24 21 0 21
-1 2 -9z m59 -6 c10 -25 7 -30 -14 -30 -11 0 -20 3 -20 7 0 15 12 39 20 39 4
0 11 -7 14 -16z m64 -7 c4 -20 -25 -34 -40 -19 -15 15 -1 44 19 40 10 -2 19
-11 21 -21z m33 16 c-11 -5 -11 -7 0 -14 12 -7 11 -9 -1 -9 -13 0 -13 -1 0
-10 13 -8 12 -10 -2 -10 -13 0 -18 8 -18 25 0 17 5 25 18 24 12 0 13 -2 3 -6z
m62 0 c3 -5 1 -17 -4 -28 -7 -18 -8 -18 -9 5 l-2 25 -8 -25 -8 -25 -1 28 c-1
25 21 39 32 20z m37 -3 c-10 -6 -11 -10 -2 -10 6 0 12 -7 12 -15 0 -8 -8 -15
-17 -15 -15 0 -16 2 -3 10 10 6 11 10 3 10 -7 0 -13 7 -13 15 0 8 8 15 18 15
14 0 15 -2 2 -10z m-2147 -20 c-3 -11 -7 -20 -8 -20 -1 0 -5 9 -8 20 -3 12 0
20 8 20 8 0 11 -8 8 -20z m57 -5 c0 -17 -2 -17 -10 -5 -9 13 -11 13 -20 0 -8
-12 -10 -12 -10 5 0 14 6 21 20 21 14 0 20 -7 20 -21z m24 14 c-3 -6 0 -15 7
-20 11 -7 10 -9 -3 -9 -11 0 -18 8 -18 20 0 11 5 20 11 20 5 0 7 -5 3 -11z
m67 -4 c7 19 8 19 8 -2 1 -14 -5 -23 -14 -23 -9 0 -15 9 -14 23 1 20 2 20 7 2
l5 -20 8 20z m43 -18 c7 -6 6 -7 -4 -4 -8 2 -16 12 -17 23 -2 13 -1 15 4 4 3
-8 11 -19 17 -23z m50 17 c3 -9 6 -17 6 -18 0 -1 -9 -2 -20 -2 -11 0 -20 1
-20 2 0 11 14 34 20 34 4 0 11 -7 14 -16z m36 6 c-13 -9 -13 -11 0 -21 13 -9
13 -10 0 -6 -22 6 -25 37 -3 37 15 0 16 -2 3 -10z m53 -10 c3 -10 -2 -16 -14
-16 -11 0 -19 7 -19 16 0 9 6 17 14 17 8 0 16 -8 19 -17z m70 14 c9 -10 -4
-34 -19 -34 -8 0 -14 9 -14 20 0 19 19 27 33 14z m41 -10 c3 -9 6 -17 6 -18 0
-1 -9 -2 -20 -2 -11 0 -20 1 -20 2 0 11 14 34 20 34 4 0 11 -7 14 -16z m56 -7
c0 -16 -3 -17 -14 -8 -11 9 -15 9 -19 -1 -3 -7 -6 -4 -6 7 -1 14 5 21 19 21
13 0 20 -7 20 -19z m34 -9 c7 -5 4 -8 -6 -8 -12 0 -18 7 -17 23 0 15 2 17 6 7
3 -8 11 -18 17 -22z m23 10 c-3 -8 -6 -5 -6 6 -1 11 2 17 5 13 3 -3 4 -12 1
-19z m42 3 c9 -16 8 -18 -9 -14 -21 5 -25 15 -13 26 9 10 11 9 22 -12z m78 -5
c1 -11 -1 -15 -4 -8 -3 6 -11 12 -18 12 -7 0 -16 -6 -18 -12 -3 -7 -6 -3 -6 8
-1 16 5 22 22 22 16 0 23 -7 24 -22z m34 9 c7 19 8 19 8 -2 1 -14 -5 -23 -14
-23 -9 0 -15 9 -14 23 1 20 2 20 7 2 l5 -20 8 20z m56 -3 c-1 -23 -33 -23 -34
0 -1 11 5 18 17 18 12 0 18 -7 17 -18z m48 -2 c0 -8 -8 -16 -17 -18 -13 -2
-18 3 -18 18 0 15 5 20 18 18 9 -2 17 -10 17 -18z m28 0 c3 -11 1 -20 -4 -20
-5 0 -9 9 -9 20 0 11 2 20 4 20 2 0 6 -9 9 -20z m48 11 c7 11 9 9 9 -7 0 -12
-6 -21 -15 -21 -9 0 -15 9 -14 21 0 13 3 16 6 7 5 -11 7 -11 14 0z m-717 -77
c3 -9 6 -17 6 -18 0 -1 -9 -2 -20 -2 -11 0 -20 1 -20 2 0 11 14 34 20 34 4 0
11 -7 14 -16z m40 -16 c7 -5 4 -8 -6 -8 -12 0 -18 7 -17 23 0 15 2 17 6 7 3
-8 11 -18 17 -22z m30 21 c-3 -6 0 -15 7 -20 11 -7 10 -9 -3 -9 -11 0 -18 8
-18 20 0 11 5 20 11 20 5 0 7 -5 3 -11z m46 7 c0 -3 -4 -8 -10 -11 -5 -3 -10
-1 -10 4 0 6 5 11 10 11 6 0 10 -2 10 -4z m49 -14 c7 -14 6 -18 -10 -18 -22 0
-21 -1 -13 20 8 20 11 20 23 -2z m51 -16 c0 -6 -4 -5 -9 3 -7 11 -9 11 -14 0
-3 -8 -6 -3 -6 10 -1 20 1 21 14 11 8 -7 15 -18 15 -24z m50 13 c0 -5 -7 -9
-15 -9 -15 0 -20 12 -9 23 8 8 24 -1 24 -14z m114 5 c3 -9 6 -17 6 -18 0 -1
-9 -2 -20 -2 -11 0 -20 1 -20 2 0 11 14 34 20 34 4 0 11 -7 14 -16z m129 -4
c3 -11 1 -20 -4 -20 -5 0 -9 9 -9 20 0 11 2 20 4 20 2 0 6 -9 9 -20z m57 -3
c0 -7 -9 -13 -19 -13 -16 0 -18 4 -10 18 10 19 29 16 29 -5z m494 12 c-3 -6 0
-15 7 -20 11 -7 10 -9 -3 -9 -11 0 -18 8 -18 20 0 11 5 20 11 20 5 0 7 -5 3
-11z m39 -14 c-7 -21 -13 -19 -13 6 0 11 4 18 10 14 5 -3 7 -12 3 -20z m27 4
c0 -11 -4 -18 -10 -14 -5 3 -7 12 -3 20 7 21 13 19 13 -6z m30 1 c0 -11 -2
-20 -4 -20 -2 0 -6 9 -9 20 -3 11 -1 20 4 20 5 0 9 -9 9 -20z m44 -12 c7 -5 4
-8 -6 -8 -12 0 -18 7 -17 23 0 15 2 17 6 7 3 -8 11 -18 17 -22z m37 23 c7 11
9 9 9 -7 0 -12 -6 -21 -15 -21 -9 0 -15 9 -14 21 0 13 3 16 6 7 5 -11 7 -11
14 0z m64 -1 c-3 -5 -10 -10 -16 -10 -5 0 -9 5 -9 10 0 6 7 10 16 10 8 0 12
-4 9 -10z m55 -15 c0 -17 -2 -17 -10 -5 -9 13 -11 13 -20 0 -8 -12 -10 -12
-10 5 0 14 6 21 20 21 14 0 20 -7 20 -21z m17 -7 c-3 -7 -5 -2 -5 12 0 14 2
19 5 13 2 -7 2 -19 0 -25z m40 12 c1 -9 -5 -17 -13 -17 -8 0 -14 8 -14 17 0 9
6 17 13 17 7 0 14 -8 14 -17z m47 4 c8 -21 9 -20 -13 -20 -12 0 -17 6 -13 18
5 22 18 23 26 2z m51 7 c3 -6 -4 -15 -15 -21 -17 -9 -20 -8 -20 10 0 20 24 28
35 11z m22 -23 c-3 -7 -5 -2 -5 12 0 14 2 19 5 13 2 -7 2 -19 0 -25z m93 23
c0 -6 -4 -12 -8 -15 -5 -3 -9 1 -9 9 0 8 4 15 9 15 4 0 8 -4 8 -9z m20 -12 c0
-11 -4 -18 -10 -14 -5 3 -7 12 -3 20 7 21 13 19 13 -6z m58 4 c5 -17 -26 -29
-40 -15 -6 6 -7 15 -3 22 9 14 37 9 43 -7z m25 -3 c-3 -11 -7 -20 -9 -20 -2 0
-4 9 -4 20 0 11 4 20 9 20 5 0 7 -9 4 -20z m56 -5 c0 -11 -3 -14 -6 -7 -4 10
-8 10 -19 1 -11 -9 -14 -8 -14 8 0 12 7 19 20 19 14 0 20 -7 19 -21z m18 -7
c-3 -7 -5 -2 -5 12 0 14 2 19 5 13 2 -7 2 -19 0 -25z m33 25 c0 -5 -5 -15 -10
-23 -8 -12 -10 -11 -10 8 0 12 5 22 10 22 6 0 10 -3 10 -7z m20 -14 c0 -11 -4
-18 -10 -14 -5 3 -7 12 -3 20 7 21 13 19 13 -6z m33 14 c-20 -8 -15 -26 5 -18
13 5 14 3 5 -6 -6 -6 -16 -8 -22 -5 -17 11 -13 36 7 35 10 0 12 -3 5 -6z m87
-18 c0 -15 -2 -17 -9 -6 -5 7 -14 10 -20 7 -6 -4 -11 -1 -11 6 0 8 9 14 20 14
14 0 20 -7 20 -21z m50 4 c0 -25 -33 -22 -38 4 -2 12 3 17 17 17 15 0 21 -6
21 -21z m50 11 c0 -5 -9 -14 -20 -20 -17 -9 -20 -8 -20 10 0 13 7 20 20 20 11
0 20 -4 20 -10z m34 -22 c7 -5 4 -8 -6 -8 -12 0 -18 7 -17 23 0 15 2 17 6 7 3
-8 11 -18 17 -22z m-1989 2 c-3 -5 -12 -10 -18 -10 -7 0 -6 4 3 10 19 12 23
12 15 0z m1185 0 c0 -5 -8 -10 -17 -10 -15 0 -16 2 -3 10 19 12 20 12 20 0z
m-641 -155 c1 -14 -5 -21 -19 -21 -23 0 -23 -1 -8 51 11 38 12 39 19 15 4 -14
7 -34 8 -45z m-146 37 c3 7 3 -3 0 -22 -9 -55 -16 -56 -27 -1 -5 28 -4 32 8
22 11 -9 15 -9 19 1z m68 -9 c1 -17 2 -17 6 0 8 29 23 19 23 -16 0 -29 -3 -33
-25 -33 -22 0 -25 4 -25 33 0 34 19 48 21 16z m129 6 c0 -5 -4 -7 -10 -4 -5 3
-10 2 -10 -4 0 -5 5 -13 10 -16 15 -9 12 -35 -4 -35 -8 0 -18 5 -22 12 -5 8
-2 9 9 5 16 -6 16 -4 2 17 -8 12 -12 26 -8 29 10 11 33 8 33 -4z m70 -6 c0
-10 -7 -27 -15 -37 -14 -19 -15 -18 -15 17 0 26 4 37 15 37 8 0 15 -8 15 -17z
m50 -18 c0 -24 -5 -35 -15 -35 -10 0 -15 11 -15 35 0 24 5 35 15 35 10 0 15
-11 15 -35z m49 -2 c-1 -23 -3 -30 -7 -18 l-5 20 -8 -20 c-6 -15 -8 -12 -8 18
-1 26 3 37 14 37 11 0 15 -10 14 -37z m75 21 c12 -31 6 -50 -15 -50 -15 0 -19
5 -15 21 3 11 6 26 6 33 0 17 17 15 24 -4z m36 4 c0 -9 4 -8 10 2 7 11 10 4
10 -25 0 -29 -3 -36 -10 -25 -6 10 -10 11 -10 3 0 -7 -5 -13 -10 -13 -6 0 -10
16 -8 35 2 32 18 51 18 23z m61 -18 l7 35 -1 -40 c-1 -22 -6 -40 -12 -40 -5 0
-11 18 -11 40 -2 39 -1 39 4 5 l5 -35 8 35z m49 18 c0 -9 4 -8 10 2 7 11 10 5
10 -22 0 -37 -19 -56 -21 -20 0 14 -2 14 -9 -3 -7 -16 -9 -13 -9 18 -1 20 4
37 9 37 6 0 10 -6 10 -12z m65 2 c3 -5 0 -10 -7 -10 -8 0 -14 -9 -15 -21 -1
-14 3 -19 13 -15 8 3 14 1 14 -4 0 -6 -9 -10 -20 -10 -15 0 -20 7 -20 28 0 39
20 57 35 32z m35 -25 c0 -13 -4 -27 -10 -30 -6 -4 -10 8 -10 30 0 22 4 34 10
30 6 -3 10 -17 10 -30z m40 23 c0 -7 3 -23 6 -35 5 -18 2 -22 -15 -20 -21 1
-27 20 -15 51 7 19 24 21 24 4z m60 -3 c0 -9 -6 -12 -17 -9 -17 5 -17 5 0 -6
9 -6 17 -19 17 -28 0 -15 -2 -15 -10 -2 -9 13 -11 13 -20 0 -7 -11 -10 -6 -10
23 0 30 4 37 20 37 11 0 20 -7 20 -15z m30 -10 c0 -14 -4 -25 -10 -25 -5 0
-10 11 -10 25 0 14 5 25 10 25 6 0 10 -11 10 -25z m-860 -20 c0 -14 -4 -25
-10 -25 -5 0 -10 11 -10 25 0 14 5 25 10 25 6 0 10 -11 10 -25z m1698 -115
c10 0 12 -27 10 -117 l-3 -118 -625 0 -625 0 -3 114 c-1 64 1 117 7 120 6 4
1088 5 1239 1z m-2540 -61 c-18 -10 -14 -37 6 -51 7 -5 7 -8 -1 -8 -8 0 -13
-13 -13 -30 0 -16 -4 -30 -10 -30 -6 0 -10 28 -10 65 0 61 1 65 23 65 19 -1
20 -2 5 -11z m82 -54 c0 -63 -1 -65 -25 -65 -24 0 -25 3 -25 58 0 64 4 72 32
72 16 0 18 -9 18 -65z m75 -2 c0 -67 -8 -80 -21 -35 l-7 27 -7 -30 c-6 -22 -8
-12 -9 38 -1 65 0 68 22 65 20 -3 22 -8 22 -65z m75 2 c0 -63 -1 -65 -25 -65
-24 0 -25 3 -25 58 0 64 4 72 32 72 16 0 18 -9 18 -65z m118 27 c2 -22 -2 -34
-12 -38 -9 -3 -16 -17 -16 -30 0 -13 -4 -24 -10 -24 -6 0 -10 29 -10 66 0 62
1 65 23 62 17 -2 23 -11 25 -36z m55 31 c-7 -2 -13 -16 -13 -29 0 -13 6 -24
13 -25 10 0 10 -2 0 -6 -7 -2 -13 -15 -13 -28 0 -13 6 -26 13 -28 6 -3 2 -6
-10 -6 -22 -1 -23 3 -23 64 0 61 1 65 23 64 12 0 16 -3 10 -6z m80 -8 c4 -8 2
-17 -3 -20 -6 -4 -10 -1 -10 4 0 6 -4 11 -10 11 -5 0 -10 -22 -10 -50 0 -30 4
-50 11 -50 7 0 9 11 5 31 -4 22 -2 29 7 26 6 -2 12 -17 12 -33 0 -22 -5 -30
-22 -32 -18 -3 -22 2 -25 30 -6 61 3 98 22 98 10 0 20 -7 23 -15z m67 -12 c0
-16 3 -45 6 -65 5 -25 3 -38 -5 -38 -6 0 -11 7 -11 15 0 8 -4 15 -10 15 -5 0
-10 -7 -10 -15 0 -8 -4 -15 -9 -15 -5 0 -8 8 -6 18 2 9 7 38 10 65 7 53 35 69
35 20z m78 5 c2 -10 -1 -18 -7 -18 -5 0 -12 8 -14 18 -3 11 -5 8 -6 -9 -1 -16
5 -29 15 -33 25 -9 14 -60 -13 -64 -18 -3 -23 1 -23 20 1 22 1 22 15 4 14 -19
15 -19 15 7 0 17 -5 27 -15 27 -11 0 -15 11 -15 36 0 31 3 35 22 32 13 -2 24
-11 26 -20z m72 -43 c0 -63 -1 -65 -25 -65 -24 0 -25 3 -25 58 0 64 4 72 32
72 16 0 18 -9 18 -65z m123 58 c-9 -3 -13 -26 -13 -64 0 -80 -17 -75 -22 6 -3
64 -3 65 22 64 14 0 19 -3 13 -6z m72 -58 c0 -54 -2 -60 -21 -63 -19 -3 -22 3
-25 35 -7 69 0 95 24 91 20 -3 22 -9 22 -63z m45 6 c0 -38 4 -61 13 -64 6 -3
2 -6 -10 -6 -22 -1 -23 3 -23 64 0 37 4 65 10 65 6 0 10 -26 10 -59z m62 -3
l2 -63 3 63 c5 82 23 80 23 -3 0 -63 -1 -65 -25 -65 -24 0 -25 2 -25 65 0 84
19 86 22 3z m97 40 c0 -13 -3 -17 -6 -10 -11 28 -23 9 -23 -38 0 -49 14 -68
23 -32 4 13 5 11 6 -5 1 -17 -5 -23 -19 -23 -18 0 -20 7 -20 65 0 58 2 65 20
65 14 0 20 -6 19 -22z m65 0 c13 -64 15 -108 6 -108 -5 0 -10 7 -10 15 0 8 -4
15 -10 15 -5 0 -10 -7 -10 -15 0 -8 -5 -15 -10 -15 -6 0 -8 17 -4 43 9 69 14
87 24 87 5 0 12 -10 14 -22z m-424 -110 c0 -18 -2 -20 -9 -8 -6 8 -7 18 -5 22
9 14 14 9 14 -14z m-680 -181 c0 -25 -2 -28 -15 -17 -8 7 -24 10 -35 7 -15 -4
-20 0 -20 16 0 18 6 22 35 23 32 0 35 -2 35 -29z m66 22 c4 -8 -1 -9 -16 -4
-15 5 -20 4 -16 -4 4 -6 14 -11 22 -11 18 0 18 -29 0 -36 -8 -3 -23 0 -33 6
-16 10 -16 11 4 7 13 -3 26 -1 29 4 3 5 -4 9 -15 9 -25 0 -38 20 -20 31 19 12
36 11 45 -2z m44 -25 c0 -14 4 -22 10 -19 6 3 10 15 10 25 0 10 5 22 10 25 6
4 10 -6 10 -23 0 -31 -19 -46 -45 -36 -9 4 -15 19 -15 36 0 17 4 27 10 23 6
-3 10 -17 10 -31z m108 14 c2 -13 -3 -18 -17 -18 -12 0 -21 -6 -21 -15 0 -8
-4 -15 -10 -15 -11 0 -14 53 -3 64 13 13 48 1 51 -16z m72 11 c0 -6 -7 -9 -15
-5 -8 3 -15 1 -15 -4 0 -6 8 -10 18 -11 11 -1 8 -4 -8 -9 l-25 -7 25 -11 25
-11 -27 0 c-25 -1 -28 2 -28 34 0 31 3 35 25 35 14 0 25 -5 25 -11z m78 -29
c2 -28 0 -32 -8 -17 -13 21 -30 22 -30 2 0 -8 -4 -15 -10 -15 -5 0 -10 16 -10
36 0 33 2 35 28 32 23 -3 27 -8 30 -38z m166 9 c-6 -11 -24 -2 -24 11 0 5 7 7
15 4 8 -4 12 -10 9 -15z m1094 6 c4 -5 2 -5 -5 -1 -6 3 -14 3 -17 -2 -6 -10
-66 -3 -66 7 0 9 79 5 88 -4z m362 -110 l0 -125 -120 0 -120 0 0 125 0 125
120 0 120 0 0 -125z m-1300 106 c0 -4 -20 -8 -45 -8 -25 0 -43 2 -41 6 6 9 86
11 86 2z m70 -3 c0 -4 -4 -8 -9 -8 -6 0 -12 4 -15 8 -3 5 1 9 9 9 8 0 15 -4
15 -9z m210 2 c-18 -12 -30 -13 -30 -2 0 4 10 9 22 9 18 2 20 0 8 -7z m77 4
c-3 -3 -12 -4 -19 -1 -8 3 -5 6 6 6 11 1 17 -2 13 -5z m123 -4 c0 -5 -9 -9
-20 -7 -31 5 -36 17 -7 17 15 0 27 -4 27 -10z m220 0 c0 -5 -2 -10 -4 -10 -3
0 -8 5 -11 10 -3 6 -1 10 4 10 6 0 11 -4 11 -10z m1031 -22 c11 -20 11 -20
-15 -2 -28 21 -34 37 -11 28 9 -4 20 -15 26 -26z m-2442 -20 c-1 -17 -3 -18
-6 -6 -3 11 -10 15 -20 11 -11 -4 -14 -2 -9 5 13 21 36 13 35 -10z m2273 15
c-6 -2 -10 -9 -7 -13 3 -5 1 -11 -5 -15 -5 -3 -10 3 -10 14 0 14 6 21 18 20
10 0 12 -3 4 -6z m-1067 -38 l0 -30 -340 0 c-320 0 -340 1 -343 18 -9 48 -15
47 345 45 l338 -3 0 -30z m515 0 l0 -35 -204 0 c-133 0 -207 4 -211 11 -4 5
-4 21 -1 35 l6 24 205 0 205 0 0 -35z m620 19 c0 -15 -34 -24 -50 -14 -7 4
-10 12 -6 18 8 13 56 10 56 -4z m38 -1 c-4 -22 -22 -20 -26 1 -2 10 3 16 13
16 10 0 15 -7 13 -17z m-2358 -31 c0 -26 -3 -28 -35 -28 -30 1 -35 5 -35 24 0
19 3 21 20 12 14 -8 22 -7 32 5 18 19 18 19 18 -13z m25 18 c-3 -5 1 -10 10
-10 9 0 13 5 10 10 -3 6 -2 10 3 10 5 0 14 -11 20 -25 13 -27 37 -33 45 -11 3
7 0 20 -6 27 -10 11 -9 11 5 1 13 -10 17 -10 22 0 3 7 4 2 3 -12 -1 -16 4 -26
16 -28 13 -3 17 3 17 25 0 15 4 23 8 17 4 -6 14 -14 22 -17 12 -4 11 -6 -2 -6
-10 -1 -18 -5 -18 -10 0 -5 8 -12 18 -14 9 -3 -2 -5 -25 -6 -24 0 -43 4 -43 9
0 6 -8 5 -19 -2 -15 -9 -23 -9 -34 1 -10 8 -17 9 -22 1 -3 -5 -15 -10 -26 -10
-14 0 -19 7 -19 30 0 17 5 30 11 30 5 0 7 -4 4 -10z m222 -37 c-3 -10 -5 -2
-5 17 0 19 2 27 5 18 2 -10 2 -26 0 -35z m116 24 c9 -3 17 -11 17 -17 0 -16
-30 -24 -42 -12 -8 8 -15 8 -25 1 -15 -14 -43 -5 -42 13 0 10 2 10 6 1 8 -21
33 -14 45 12 6 14 14 22 17 17 3 -5 14 -11 24 -15z m1857 -16 c0 -4 16 -7 35
-4 28 3 35 0 35 -14 1 -17 2 -16 15 1 16 21 31 16 22 -6 -2 -8 -19 -15 -37
-16 -29 -2 -31 -1 -20 13 11 13 10 14 -4 9 -9 -3 -16 -11 -16 -16 0 -6 -6 -5
-15 2 -8 7 -24 10 -35 7 -15 -4 -20 0 -20 14 0 12 7 19 20 19 11 0 20 -4 20
-9z m187 -28 c-15 -15 -17 -15 -23 1 -8 21 16 40 30 26 7 -7 4 -16 -7 -27z
m-44 12 c4 -8 2 -17 -3 -20 -6 -4 -10 -4 -10 -1 0 2 -3 11 -6 20 -3 9 -2 16 4
16 5 0 12 -7 15 -15z m-123 -63 c0 -4 -9 -8 -20 -8 -11 0 -20 4 -20 8 0 4 9 8
20 8 11 0 20 -4 20 -8z m50 4 c0 -2 -7 -6 -15 -10 -8 -3 -15 -1 -15 4 0 6 7
10 15 10 8 0 15 -2 15 -4z m63 -3 c-7 -2 -19 -2 -25 0 -7 3 -2 5 12 5 14 0 19
-2 13 -5z m80 0 c-7 -2 -19 -2 -25 0 -7 3 -2 5 12 5 14 0 19 -2 13 -5z m-1536
-10 c-4 -3 -2 -12 5 -20 16 -20 0 -30 -18 -11 -17 16 -12 38 8 38 6 0 8 -3 5
-7z m33 -13 c0 -5 -4 -10 -10 -10 -5 0 -10 5 -10 10 0 6 5 10 10 10 6 0 10 -4
10 -10z m90 -2 c33 2 60 0 60 -6 0 -5 -29 -9 -65 -9 -54 0 -65 2 -64 16 0 9 2
12 5 6 2 -6 30 -9 64 -7z m-360 -14 c0 -8 -5 -12 -10 -9 -6 4 -8 11 -5 16 9
14 15 11 15 -7z m657 10 c-3 -3 -12 -4 -19 -1 -8 3 -5 6 6 6 11 1 17 -2 13 -5z
m50 0 c-3 -3 -12 -4 -19 -1 -8 3 -5 6 6 6 11 1 17 -2 13 -5z m322 -10 c2 -2
-17 -4 -43 -4 -27 0 -45 4 -41 9 5 9 73 4 84 -5z m499 -9 c3 -3 -9 -5 -26 -5
-17 0 -33 4 -36 9 -6 9 53 5 62 -4z m142 -1 c0 -2 -19 -3 -42 -3 -39 1 -41 2
-13 8 28 7 55 4 55 -5z m35 6 c3 -5 -1 -10 -10 -10 -9 0 -13 5 -10 10 3 6 8
10 10 10 2 0 7 -4 10 -10z m124 -6 c2 -2 -19 -4 -47 -4 -29 0 -52 4 -52 9 0 8
90 3 99 -5z"/>
<path d="M2322 3258 c5 -15 28 -23 28 -10 0 5 -7 13 -16 16 -10 4 -14 1 -12
-6z"/>
<path d="M550 3080 c0 -5 5 -10 10 -10 6 0 10 5 10 10 0 6 -4 10 -10 10 -5 0
-10 -4 -10 -10z"/>
<path d="M1960 3000 c0 -18 4 -29 10 -25 6 3 10 15 10 25 0 10 -4 22 -10 25
-6 4 -10 -7 -10 -25z"/>
<path d="M2010 2995 c0 -14 4 -25 9 -25 4 0 6 11 3 25 -2 14 -6 25 -8 25 -2 0
-4 -11 -4 -25z"/>
<path d="M2260 2995 c0 -14 4 -25 9 -25 4 0 6 11 3 25 -2 14 -6 25 -8 25 -2 0
-4 -11 -4 -25z"/>
<path d="M486 2852 c-3 -5 -8 -23 -11 -40 -4 -27 -2 -32 14 -32 17 0 19 5 14
38 -7 42 -9 47 -17 34z"/>
<path d="M2076 2753 c-12 -12 -6 -61 8 -66 15 -6 26 12 26 43 0 18 -23 34 -34
23z"/>
<path d="M1256 2844 c-3 -9 -6 -36 -6 -60 0 -37 3 -44 20 -44 30 0 52 50 39
89 -12 34 -43 42 -53 15z"/>
<path d="M720 2771 c0 -18 33 -35 44 -23 7 6 -23 42 -36 42 -4 0 -8 -8 -8 -19z"/>
<path d="M2476 2751 c-3 -5 -9 -29 -12 -53 -5 -34 -2 -47 10 -58 15 -11 19
-11 33 3 14 13 15 25 7 63 -9 46 -26 66 -38 45z"/>
<path d="M1127 2654 c-14 -14 -7 -75 9 -81 26 -10 38 12 28 48 -9 32 -24 45
-37 33z"/>
<path d="M1367 2654 c-4 -4 -7 -27 -7 -51 0 -36 3 -43 20 -43 21 0 34 32 28
71 -3 23 -27 36 -41 23z"/>
<path d="M901 2614 c0 -11 3 -14 6 -6 3 7 2 16 -1 19 -3 4 -6 -2 -5 -13z"/>
<path d="M763 2396 l-22 -34 25 -5 c22 -4 24 -1 24 34 0 22 -1 39 -2 39 -2 0
-13 -15 -25 -34z"/>
<path d="M1052 2383 c-6 -20 -10 -38 -8 -40 1 -2 17 2 34 8 l32 11 -17 29
c-10 16 -20 29 -23 29 -4 0 -12 -17 -18 -37z"/>
<path d="M1720 2345 c0 -40 2 -45 23 -45 29 0 47 18 47 45 0 27 -18 45 -47 45
-21 0 -23 -5 -23 -45z"/>
<path d="M2192 2378 c-7 -7 -12 -21 -12 -33 0 -12 5 -26 12 -33 7 -7 21 -12
33 -12 12 0 26 5 33 12 7 7 12 21 12 33 0 12 -5 26 -12 33 -7 7 -21 12 -33 12
-12 0 -26 -5 -33 -12z"/>
<path d="M1896 2118 c-14 -19 -14 -24 2 -50 10 -18 25 -28 40 -28 13 0 21 4
18 9 -3 5 1 11 9 15 16 6 20 33 7 54 -16 24 -59 24 -76 0z"/>
<path d="M2350 2115 c0 -15 4 -24 10 -20 6 3 10 12 10 20 0 8 -4 17 -10 20 -6
4 -10 -5 -10 -20z"/>
<path d="M420 1870 c0 -28 3 -31 28 -28 21 2 27 8 27 28 0 20 -6 26 -28 28
-24 3 -27 0 -27 -28z"/>
<path d="M810 1855 c0 -9 9 -15 25 -15 16 0 25 6 25 15 0 9 -9 15 -25 15 -16
0 -25 -6 -25 -15z"/>
<path d="M1045 1890 c3 -5 17 -10 31 -10 13 0 24 5 24 10 0 6 -14 10 -31 10
-17 0 -28 -4 -24 -10z"/>
<path d="M1273 1870 c0 -26 4 -30 28 -30 28 0 42 19 33 45 -4 8 -18 15 -33 15
-24 0 -28 -4 -28 -30z"/>
<path d="M1050 1855 c0 -9 9 -15 25 -15 16 0 25 6 25 15 0 9 -9 15 -25 15 -16
0 -25 -6 -25 -15z"/>
<path d="M820 1480 c0 -5 5 -10 10 -10 6 0 10 5 10 10 0 6 -4 10 -10 10 -5 0
-10 -4 -10 -10z"/>
<path d="M930 1400 c0 -5 5 -10 11 -10 5 0 7 5 4 10 -3 6 -8 10 -11 10 -2 0
-4 -4 -4 -10z"/>
<path d="M1902 1368 c-5 -7 -13 -24 -17 -37 -11 -36 16 -22 32 17 13 32 4 43
-15 20z"/>
<path d="M1990 1351 c0 -11 4 -22 9 -25 5 -3 7 -16 3 -28 -3 -14 -1 -19 6 -14
10 6 11 28 3 79 -2 16 -21 6 -21 -12z"/>
<path d="M1970 1301 c0 -4 -13 -7 -30 -5 -19 2 -30 -1 -30 -9 0 -8 -4 -7 -11
3 -8 12 -10 12 -7 1 2 -8 14 -21 26 -29 20 -13 22 -13 22 7 0 11 5 21 10 21 6
0 10 -9 10 -21 0 -12 5 -19 13 -17 15 6 22 58 8 58 -6 0 -11 -4 -11 -9z"/>
<path d="M1180 1195 c0 -9 5 -15 11 -13 6 2 11 8 11 13 0 5 -5 11 -11 13 -6 2
-11 -4 -11 -13z"/>
<path d="M1840 1125 c0 -9 5 -15 11 -13 6 2 11 8 11 13 0 5 -5 11 -11 13 -6 2
-11 -4 -11 -13z"/>
<path d="M2045 1130 c3 -5 8 -10 11 -10 2 0 4 5 4 10 0 6 -5 10 -11 10 -5 0
-7 -4 -4 -10z"/>
<path d="M2425 1130 c3 -5 8 -10 11 -10 2 0 4 5 4 10 0 6 -5 10 -11 10 -5 0
-7 -4 -4 -10z"/>
<path d="M760 1114 c0 -8 5 -12 10 -9 6 4 8 11 5 16 -9 14 -15 11 -15 -7z"/>
<path d="M890 1115 c0 -8 5 -15 10 -15 6 0 10 7 10 15 0 8 -4 15 -10 15 -5 0
-10 -7 -10 -15z"/>
<path d="M1130 1115 c0 -9 5 -15 11 -13 6 2 11 8 11 13 0 5 -5 11 -11 13 -6 2
-11 -4 -11 -13z"/>
<path d="M2416 1051 c-4 -5 -2 -12 3 -15 5 -4 12 -2 15 3 4 5 2 12 -3 15 -5 4
-12 2 -15 -3z"/>
<path d="M810 1039 c0 -5 5 -7 10 -4 6 3 10 8 10 11 0 2 -4 4 -10 4 -5 0 -10
-5 -10 -11z"/>
<path d="M1220 1040 c0 -5 5 -10 10 -10 6 0 10 5 10 10 0 6 -4 10 -10 10 -5 0
-10 -4 -10 -10z"/>
<path d="M2270 970 c0 -5 4 -10 9 -10 6 0 13 5 16 10 3 6 -1 10 -9 10 -9 0
-16 -4 -16 -10z"/>
<path d="M2600 970 c0 -5 5 -10 10 -10 6 0 10 5 10 10 0 6 -4 10 -10 10 -5 0
-10 -4 -10 -10z"/>
<path d="M1422 815 c0 -16 2 -22 5 -12 2 9 2 23 0 30 -3 6 -5 -1 -5 -18z"/>
<path d="M1540 575 c0 -102 1 -105 23 -105 12 0 290 -1 617 -3 l595 -2 3 108
3 107 -621 0 -620 0 0 -105z m100 6 c0 -33 -4 -63 -10 -66 -6 -4 -10 13 -10
44 0 27 -3 56 -6 65 -4 11 -1 16 10 16 13 0 16 -12 16 -59z m58 52 c-22 -6
-24 -39 -2 -47 10 -4 14 -16 12 -38 -2 -25 -8 -34 -25 -36 -16 -2 -23 2 -23
12 0 19 16 21 23 4 3 -7 6 2 6 20 1 22 -4 32 -14 32 -10 0 -15 10 -15 30 0 26
3 30 28 29 16 -1 20 -3 10 -6z m93 -15 l0 -23 11 23 c16 33 28 27 17 -10 -5
-18 -9 -48 -9 -65 0 -47 -16 -41 -24 10 -3 23 -9 52 -12 65 -4 13 -2 22 5 22
6 0 11 -10 12 -22z m117 -45 c-2 -67 -2 -67 -5 -13 -3 30 -9 60 -15 67 -8 10
-6 13 6 13 13 0 16 -11 14 -67z m77 57 c3 -5 3 -15 -1 -22 -5 -8 -10 -6 -15 8
-6 16 -8 15 -8 -8 -1 -19 4 -28 15 -28 11 0 14 -8 12 -32 -2 -25 -8 -34 -25
-36 -22 -3 -23 0 -23 62 0 59 2 66 19 66 11 0 23 -4 26 -10z m117 -2 c2 -7 4
-35 3 -63 0 -47 -2 -50 -27 -53 l-28 -3 0 65 c0 63 1 66 24 66 13 0 26 -6 28
-12z m61 5 c-7 -2 -13 -16 -13 -29 0 -13 6 -24 13 -25 10 0 10 -2 0 -6 -7 -2
-13 -15 -13 -28 0 -13 6 -26 13 -28 6 -3 2 -6 -10 -6 -22 -1 -23 3 -23 64 0
61 1 65 23 64 12 0 16 -3 10 -6z m122 -58 c0 -55 -2 -60 -22 -63 -22 -3 -23 0
-23 63 0 63 1 66 23 63 20 -3 22 -8 22 -63z m75 45 c0 -25 -17 -26 -23 -2 -3
9 -5 -10 -5 -43 0 -33 2 -52 5 -42 6 24 23 21 23 -4 0 -15 -5 -20 -22 -17 -20
3 -23 10 -26 52 -4 60 2 76 28 76 13 0 20 -7 20 -20z m63 13 c-9 -3 -13 -26
-13 -66 0 -39 -4 -57 -9 -48 -5 7 -6 28 -4 46 2 19 -1 43 -7 54 -10 19 -8 21
17 20 15 0 22 -3 16 -6z m49 -55 l2 -63 3 63 c5 82 23 80 23 -3 0 -63 -1 -65
-25 -65 -24 0 -25 2 -25 65 0 84 19 86 22 3z m98 -3 c0 -63 -1 -65 -25 -65
-24 0 -25 2 -25 65 0 63 1 65 25 65 24 0 25 -2 25 -65z m78 0 c-2 -64 -17 -92
-19 -37 l-2 27 -4 -27 c-8 -52 -23 -28 -23 37 0 62 1 65 25 65 24 0 24 -2 23
-65z m60 54 c-21 -11 -24 -49 -5 -50 10 0 10 -2 0 -6 -20 -7 -16 -51 5 -56 11
-3 9 -5 -8 -6 -23 -1 -25 2 -24 42 3 87 3 87 27 87 20 -1 20 -2 5 -11z"/>
<path d="M1962 545 c0 -16 2 -22 5 -12 2 9 2 23 0 30 -3 6 -5 -1 -5 -18z"/>
<path d="M2070 575 c0 -30 5 -55 10 -55 6 0 10 25 10 55 0 30 -4 55 -10 55 -5
0 -10 -25 -10 -55z"/>
<path d="M2257 623 c-11 -10 -8 -91 3 -98 6 -4 10 15 10 49 0 57 -1 61 -13 49z"/>
<path d="M2540 606 c0 -14 5 -26 10 -26 6 0 10 9 10 19 0 11 -4 23 -10 26 -6
4 -10 -5 -10 -19z"/>
<path d="M2540 545 c0 -14 5 -25 10 -25 6 0 10 11 10 25 0 14 -4 25 -10 25 -5
0 -10 -11 -10 -25z"/>
<path d="M2622 605 c0 -16 2 -22 5 -12 2 9 2 23 0 30 -3 6 -5 -1 -5 -18z"/>
<path d="M293 575 c0 -33 2 -45 4 -27 2 18 2 45 0 60 -2 15 -4 0 -4 -33z"/>
<path d="M367 623 c-11 -10 -8 -43 3 -43 6 0 10 11 10 25 0 26 -2 29 -13 18z"/>
<path d="M443 575 c0 -33 2 -45 4 -27 2 18 2 45 0 60 -2 15 -4 0 -4 -33z"/>
<path d="M562 600 c0 -19 2 -27 5 -17 2 9 2 25 0 35 -3 9 -5 1 -5 -18z"/>
<path d="M771 574 c0 -11 3 -14 6 -6 3 7 2 16 -1 19 -3 4 -6 -2 -5 -13z"/>
<path d="M913 575 c0 -33 2 -45 4 -27 2 18 2 45 0 60 -2 15 -4 0 -4 -33z"/>
<path d="M1100 570 c0 -27 5 -50 10 -50 6 0 10 23 10 50 0 28 -4 50 -10 50 -5
0 -10 -22 -10 -50z"/>
<path d="M1385 570 c-3 -5 -1 -10 4 -10 6 0 11 5 11 10 0 6 -2 10 -4 10 -3 0
-8 -4 -11 -10z"/>
<path d="M480 340 c0 -5 7 -10 16 -10 8 0 12 5 9 10 -3 6 -10 10 -16 10 -5 0
-9 -4 -9 -10z"/>
<path d="M630 340 c0 -5 7 -10 16 -10 8 0 12 5 9 10 -3 6 -10 10 -16 10 -5 0
-9 -4 -9 -10z"/>
<path d="M2090 315 c-8 -9 -8 -15 -2 -15 6 0 13 6 16 13 4 6 4 2 2 -11 -2 -12
0 -20 5 -16 12 7 12 44 0 44 -5 0 -14 -7 -21 -15z"/>
<path d="M2130 315 c0 -8 5 -17 12 -21 6 -4 8 -3 5 3 -4 6 4 11 20 11 l27 0
-22 -19 c-13 -10 -23 -22 -23 -26 -1 -13 -9 -17 -9 -5 0 13 -28 16 -54 6 -9
-3 -16 -11 -16 -16 0 -6 6 -5 15 2 12 10 15 9 15 -6 0 -17 1 -17 15 2 8 10 15
14 15 7 0 -6 9 -14 19 -18 25 -8 34 -33 17 -50 -10 -10 -16 -11 -25 -2 -8 8
-11 8 -11 -1 0 -7 5 -13 10 -13 6 -1 15 -2 22 -3 6 0 13 -7 16 -15 3 -8 0 -11
-7 -7 -6 4 -11 1 -11 -8 0 -24 26 -19 27 5 1 12 4 24 7 26 9 9 38 -26 31 -37
-9 -14 29 -12 43 2 15 15 16 32 2 23 -5 -3 -10 -1 -10 4 0 6 5 11 10 11 6 0
10 5 10 11 0 6 -7 9 -14 6 -11 -4 -13 -1 -9 10 5 13 3 13 -15 4 -17 -9 -20 -8
-18 6 2 9 11 20 22 24 15 6 16 8 3 8 -9 1 -22 -6 -29 -14 -16 -19 -26 -19 -34
2 -7 17 12 36 26 27 4 -3 8 2 8 11 0 13 -4 14 -21 5 -31 -17 -34 -4 -5 21 14
12 26 27 26 33 0 6 -4 5 -9 -3 -5 -8 -14 -10 -21 -6 -23 14 -60 14 -60 0z m70
-130 c-7 -8 -17 -15 -22 -15 -6 0 -5 7 2 15 7 8 17 15 22 15 6 0 5 -7 -2 -15z
m40 -15 c0 -5 -4 -10 -10 -10 -5 0 -10 5 -10 10 0 6 5 10 10 10 6 0 10 -4 10
-10z"/>
<path d="M2250 315 c-8 -9 -8 -15 -2 -15 6 0 13 6 15 13 3 7 6 6 6 -5 1 -10
-8 -18 -21 -21 -20 -4 -19 -4 5 -6 23 -1 27 3 27 24 0 28 -12 32 -30 10z"/>
<path d="M2075 219 c-4 -6 -5 -12 -2 -15 2 -3 7 2 10 11 7 17 1 20 -8 4z"/>
<path d="M2093 202 c-9 -22 3 -24 27 -4 l22 18 -22 0 c-12 0 -25 -6 -27 -14z"/>
<path d="M2150 210 c0 -5 5 -10 11 -10 5 0 7 5 4 10 -3 6 -8 10 -11 10 -2 0
-4 -4 -4 -10z"/>
<path d="M2090 155 c-9 -10 -9 -15 -1 -15 6 0 11 5 11 11 0 5 5 7 10 4 6 -3
10 -1 10 4 0 16 -16 13 -30 -4z"/>
<path d="M2130 144 c0 -8 5 -12 10 -9 6 4 8 11 5 16 -9 14 -15 11 -15 -7z"/>
<path d="M2090 130 l-25 -8 28 -1 c15 -1 27 4 27 9 0 6 -1 10 -2 9 -2 -1 -14
-5 -28 -9z"/>
<path d="M338 253 c-21 -5 -24 -23 -4 -23 8 0 16 7 20 15 3 8 4 14 3 14 -1 -1
-10 -3 -19 -6z"/>
<path d="M633 247 c5 -15 37 -22 37 -9 0 5 -9 12 -21 15 -13 3 -19 1 -16 -6z"/>
<path d="M1020 4536 c0 -2 7 -6 15 -10 8 -3 15 -1 15 4 0 6 -7 10 -15 10 -8 0
-15 -2 -15 -4z"/>
<path d="M880 4510 c0 -5 5 -10 11 -10 5 0 7 5 4 10 -3 6 -8 10 -11 10 -2 0
-4 -4 -4 -10z"/>
<path d="M991 4504 c0 -11 3 -14 6 -6 3 7 2 16 -1 19 -3 4 -6 -2 -5 -13z"/>
<path d="M1581 4474 c0 -11 3 -14 6 -6 3 7 2 16 -1 19 -3 4 -6 -2 -5 -13z"/>
<path d="M465 4470 c-3 -5 -1 -10 4 -10 6 0 11 5 11 10 0 6 -2 10 -4 10 -3 0
-8 -4 -11 -10z"/>
<path d="M342 4397 c-13 -17 -38 -54 -58 -82 l-34 -50 2 78 3 77 -52 0 -52 0
-3 -185 -3 -185 57 0 57 0 -6 33 c-3 23 2 44 17 70 21 35 23 36 36 20 7 -10
14 -24 14 -31 0 -7 9 -31 20 -52 20 -39 22 -40 74 -40 29 0 55 2 58 5 3 3 -20
55 -50 115 l-56 110 23 40 c13 23 34 52 48 66 31 31 19 44 -37 44 -28 -1 -40
-7 -58 -33z"/>
<path d="M964 4419 c-42 -12 -111 -88 -119 -131 -11 -58 11 -149 43 -175 71
-60 144 -73 219 -39 45 20 87 72 102 124 13 42 -10 136 -40 169 -49 53 -130
74 -205 52z m136 -124 c38 -61 2 -129 -73 -142 -30 -4 -40 -1 -60 21 -49 53
-40 114 22 140 60 25 87 21 111 -19z"/>
<path d="M1358 4422 l-148 -3 0 -39 c0 -42 -1 -42 70 -44 l25 -1 3 -143 3
-143 52 3 52 3 1 131 c1 72 5 137 9 144 5 8 23 11 51 7 l44 -5 0 44 c0 23 -3
44 -7 46 -5 2 -74 2 -155 0z"/>
<path d="M2540 4383 l0 -43 50 0 50 0 0 -140 0 -140 55 0 55 0 1 33 c1 17 1
80 0 140 l-1 107 50 0 c49 0 50 1 50 29 0 16 3 37 6 46 6 15 -7 16 -155 14
l-161 -3 0 -43z"/>
<path d="M508 4398 c-2 -13 -2 -96 0 -185 l3 -163 44 0 45 0 0 113 c0 98 2
109 13 87 26 -50 70 -126 95 -162 22 -34 29 -38 69 -38 l44 0 -3 153 c-2 83 1
167 5 185 l9 32 -52 0 -51 0 3 -95 c2 -52 1 -95 -2 -94 -10 1 -90 133 -90 148
0 29 -22 41 -76 41 -47 0 -53 -2 -56 -22z"/>
<path d="M1641 4235 l0 -185 55 0 54 0 0 70 0 70 89 0 88 0 6 37 c4 21 2 42
-3 47 -5 5 -46 7 -93 4 l-84 -4 0 28 0 28 109 0 108 0 0 45 0 45 -165 0 -164
0 0 -185z"/>
<path d="M1997 4388 c-3 -18 -4 -100 -3 -183 l2 -150 157 -3 c171 -2 160 -6
160 53 0 8 -1 20 -2 25 0 6 -42 10 -101 10 l-100 0 0 30 0 30 86 0 85 0 -3 43
-3 42 -82 -4 -83 -3 0 31 0 30 100 -2 100 -2 0 43 0 42 -154 0 -154 0 -5 -32z"/>
<path d="M2562 4235 c2 -31 7 -44 16 -40 6 2 12 0 12 -4 0 -5 -5 -11 -11 -13
-15 -5 -19 -78 -4 -78 21 0 27 87 8 123 -15 30 -15 31 0 18 15 -12 17 -11 17
2 0 9 -9 21 -20 27 -19 10 -20 8 -18 -35z"/>
<path d="M2813 4056 c4 -10 7 -22 7 -27 0 -5 5 -9 11 -9 15 0 7 43 -10 48 -10
3 -12 0 -8 -12z"/>
<path d="M1017 4013 c-12 -11 -8 -23 7 -23 7 0 19 7 26 15 10 12 9 15 -7 15
-11 0 -23 -3 -26 -7z"/>
<path d="M762 3903 c3 -70 5 -78 23 -78 16 0 21 8 23 43 l3 43 19 -23 19 -23
18 25 18 25 5 -45 c4 -37 9 -45 25 -45 18 0 20 7 20 75 0 69 -2 75 -21 78 -14
2 -29 -7 -44 -25 l-22 -28 -20 28 c-12 17 -29 27 -44 27 -25 0 -25 -1 -22 -77z"/>
<path d="M962 3903 l3 -78 60 0 c48 0 60 3 63 17 3 13 -6 17 -40 20 -44 3 -56
22 -15 24 40 1 47 4 47 19 0 10 -10 15 -34 15 -19 0 -38 5 -41 10 -4 6 10 10
34 10 34 0 41 3 41 20 0 18 -7 20 -60 20 l-61 0 3 -77z"/>
<path d="M1100 3974 c0 -3 10 -20 22 -37 l22 -30 -22 -38 c-27 -46 -27 -49 -3
-49 10 0 26 12 35 26 l17 25 20 -25 c21 -26 49 -35 49 -15 0 6 -9 24 -21 40
l-21 30 26 39 26 40 -25 0 c-14 0 -29 -8 -35 -20 -6 -11 -15 -20 -20 -20 -5 0
-12 9 -15 20 -4 13 -15 20 -31 20 -13 0 -24 -3 -24 -6z"/>
<path d="M1260 3900 c0 -73 2 -80 20 -80 18 0 20 7 20 80 0 73 -2 80 -20 80
-18 0 -20 -7 -20 -80z"/>
<path d="M1718 3958 l-23 -23 23 -3 c13 -2 29 2 37 8 8 6 19 9 25 5 19 -12 10
-23 -25 -29 -37 -7 -55 -30 -55 -70 0 -25 2 -26 65 -26 58 0 65 2 65 20 0 17
-7 20 -46 20 -27 0 -43 4 -39 10 3 6 17 10 30 10 30 0 55 25 55 55 0 46 -74
61 -112 23z"/>
<path d="M1872 3964 c-30 -21 -31 -95 -2 -124 51 -51 127 -2 117 75 -3 21 -14
45 -23 52 -24 18 -65 16 -92 -3z m73 -43 c11 -37 -18 -79 -42 -59 -14 11 -18
60 -6 71 13 14 42 7 48 -12z"/>
<path d="M2028 3968 c-30 -10 -39 -38 -13 -38 10 0 15 -11 15 -35 0 -25 -4
-35 -16 -35 -9 0 -14 -7 -12 -17 2 -13 15 -19 46 -21 37 -3 42 -1 42 17 0 12
-4 21 -10 21 -6 0 -10 27 -10 60 0 33 -3 60 -7 59 -5 0 -20 -5 -35 -11z"/>
<path d="M2116 3964 c-10 -10 -16 -33 -16 -64 0 -39 4 -52 22 -64 43 -30 99
-15 112 30 10 32 -15 56 -57 56 -38 0 -50 14 -21 25 8 3 20 1 27 -6 15 -15 47
-14 47 2 0 37 -83 52 -114 21z m74 -89 c0 -16 -35 -21 -44 -6 -8 12 4 21 26
21 10 0 18 -7 18 -15z"/>
<path d="M2310 3976 c0 -2 7 -7 16 -10 8 -3 12 -2 9 4 -6 10 -25 14 -25 6z"/>
<path d="M2300 3930 c-20 -12 -10 -19 14 -10 11 3 15 9 10 13 -6 3 -16 2 -24
-3z"/>
<path d="M2515 3920 c3 -5 8 -10 11 -10 2 0 4 5 4 10 0 6 -5 10 -11 10 -5 0
-7 -4 -4 -10z"/>
<path d="M2525 3881 c-8 -14 10 -22 30 -15 13 5 14 8 3 15 -17 11 -26 11 -33
0z"/>
<path d="M522 3790 c0 -14 2 -19 5 -12 2 6 2 18 0 25 -3 6 -5 1 -5 -13z"/>
<path d="M1940 3746 c0 -9 5 -16 10 -16 6 0 10 4 10 9 0 6 -4 13 -10 16 -5 3
-10 -1 -10 -9z"/>
<path d="M521 3711 c-7 -5 -12 -14 -10 -20 3 -6 9 -7 18 -2 7 5 12 14 10 20
-3 6 -9 7 -18 2z"/>
<path d="M1920 3700 c0 -5 5 -10 10 -10 6 0 10 5 10 10 0 6 -4 10 -10 10 -5 0
-10 -4 -10 -10z"/>
<path d="M774 3684 c3 -8 6 -18 6 -20 0 -3 5 -2 10 1 15 9 12 22 -6 29 -12 5
-15 2 -10 -10z"/>
<path d="M1980 3693 c0 -4 5 -15 10 -23 8 -13 10 -13 10 2 0 9 -4 20 -10 23
-5 3 -10 3 -10 -2z"/>
<path d="M794 3585 c-4 -8 -1 -22 6 -31 10 -11 10 -18 2 -26 -17 -17 -15 -58
3 -58 8 0 15 -5 15 -11 0 -8 5 -8 15 1 8 7 15 25 15 41 0 30 -15 47 -23 27 -4
-8 -6 -9 -6 -2 -1 6 6 17 14 24 8 7 15 17 15 22 0 7 -5 6 -13 -1 -16 -13 -28
-5 -20 15 3 8 0 14 -6 14 -7 0 -14 -7 -17 -15z"/>
<path d="M2020 3570 c0 -5 5 -10 11 -10 5 0 7 5 4 10 -3 6 -8 10 -11 10 -2 0
-4 -4 -4 -10z"/>
<path d="M683 3528 c-7 -87 -6 -109 3 -118 8 -8 12 10 13 64 1 42 -2 76 -6 76
-4 0 -9 -10 -10 -22z"/>
<path d="M2146 3533 c-3 -4 -6 -13 -6 -21 0 -12 3 -12 15 -2 12 10 15 10 15
-4 0 -9 5 -16 10 -16 6 0 10 6 10 13 0 14 -35 39 -44 30z"/>
<path d="M2040 3510 c0 -5 5 -10 10 -10 6 0 10 5 10 10 0 6 -4 10 -10 10 -5 0
-10 -4 -10 -10z"/>
<path d="M2056 3472 c-2 -4 -1 -14 5 -22 7 -12 9 -10 9 8 0 23 -5 28 -14 14z"/>
<path d="M605 3440 c3 -5 8 -10 11 -10 2 0 4 5 4 10 0 6 -5 10 -11 10 -5 0 -7
-4 -4 -10z"/>
<path d="M686 3378 c-15 -46 -15 -66 -1 -71 11 -5 14 3 13 38 -1 45 -5 56 -12
33z"/>
<path d="M791 3350 c2 -15 18 -43 18 -32 1 7 6 10 11 7 6 -3 10 2 10 12 0 12
-7 19 -20 19 -11 0 -20 -3 -19 -6z"/>
<path d="M677 3232 c5 -75 9 -92 20 -92 4 0 7 15 6 32 -1 18 -2 52 -2 74 -1
26 -6 44 -15 47 -11 4 -13 -7 -9 -61z"/>
<path d="M802 3270 c0 -14 2 -19 5 -12 2 6 2 18 0 25 -3 6 -5 1 -5 -13z"/>
<path d="M780 3230 c-12 -8 -12 -10 3 -16 19 -7 24 -54 6 -54 -8 0 -8 -4 1
-14 13 -17 42 -10 38 10 -2 7 6 19 16 27 15 11 17 17 8 33 -10 16 -11 17 -12
2 0 -9 -5 -20 -11 -24 -14 -8 -29 14 -22 33 6 15 -6 17 -27 3z"/>
<path d="M747 3125 c-4 -8 -3 -16 1 -19 4 -3 9 4 9 15 2 23 -3 25 -10 4z"/>
<path d="M880 2995 c0 -14 5 -25 10 -25 6 0 10 11 10 25 0 14 -4 25 -10 25 -5
0 -10 -11 -10 -25z"/>
</g>
</svg>
