<?xml version="1.0" standalone="no"?>
<!DOCTYPE svg PUBLIC "-//W3C//DTD SVG 20010904//EN"
 "http://www.w3.org/TR/2001/REC-SVG-20010904/DTD/svg10.dtd">
<svg version="1.0" xmlns="http://www.w3.org/2000/svg"
 width="300.000000pt" height="456.000000pt" viewBox="0 0 300.000000 456.000000"
 preserveAspectRatio="xMidYMid meet">

<g transform="translate(0.000000,456.000000) scale(0.100000,-0.100000)"
fill="#000000" stroke="none">
<path d="M0 4541 c0 -23 38 -91 51 -91 5 0 9 -4 9 -10 0 -5 11 -26 25 -46 l25
-37 0 -248 c0 -141 -4 -250 -9 -254 -5 -3 -12 3 -14 12 -3 10 -4 6 -4 -9 1
-15 5 -26 11 -25 5 1 11 -25 13 -58 2 -37 0 -55 -5 -47 -5 7 -7 24 -4 38 2 13
0 24 -7 24 -5 0 -8 7 -5 15 4 9 0 15 -10 15 -10 0 -13 6 -10 15 4 8 1 15 -6
15 -6 0 -9 4 -6 9 3 5 -1 14 -8 20 -11 9 -16 9 -22 0 -4 -8 1 -18 13 -26 24
-16 20 -53 -6 -53 -10 0 -12 3 -5 8 6 4 4 13 -8 25 -17 16 -18 1 -18 -428 0
-290 3 -445 10 -445 6 0 10 -9 10 -19 0 -11 5 -21 11 -23 8 -3 5 -10 -6 -22
-12 -11 -20 -37 -22 -72 -4 -56 0 -62 28 -41 16 12 19 17 19 40 0 6 6 3 12 -7
8 -15 8 -21 0 -24 -17 -5 -15 -29 2 -29 8 0 14 3 13 6 -2 10 22 71 28 71 9 0
4 -166 -6 -181 -6 -11 -13 -9 -29 9 -12 12 -19 26 -16 30 2 4 1 14 -5 22 -6
11 -9 12 -9 2 0 -9 -7 -11 -20 -7 -20 6 -20 2 -20 -355 0 -339 1 -361 18 -357
9 3 35 8 56 12 l39 6 -5 -96 c-4 -67 -10 -100 -19 -106 -11 -6 -10 -9 3 -14
15 -6 17 -23 17 -124 l-1 -118 -54 -23 -54 -24 0 -382 c0 -356 1 -383 18 -387
16 -4 16 -5 0 -6 -23 -1 -23 -7 3 -34 17 -19 18 -23 5 -25 -18 -4 -18 -4 -22
-50 -1 -17 2 -30 7 -26 5 3 9 1 9 -5 0 -6 7 -8 15 -5 8 4 12 11 9 16 -4 6 4 4
17 -3 15 -7 19 -14 11 -17 -18 -6 -15 -22 5 -22 15 0 10 -14 -5 -15 -23 -2
-51 -18 -47 -26 4 -5 -1 -9 -9 -9 -12 0 -16 -10 -16 -35 0 -19 4 -35 9 -35 12
0 24 37 16 50 -3 5 -1 10 4 10 13 0 15 -47 2 -54 -5 -3 -7 -14 -4 -25 2 -10
-2 -25 -10 -32 -17 -18 -18 -79 0 -72 6 3 14 11 17 19 3 8 10 14 15 14 6 0 7
-7 4 -17 -5 -12 -3 -14 8 -9 8 4 6 1 -4 -7 -11 -9 -15 -21 -11 -33 4 -11 4
-16 0 -12 -4 3 -16 -2 -27 -13 -17 -17 -19 -34 -18 -144 l0 -125 325 0 c257 0
324 3 318 13 -6 9 -4 9 7 0 16 -16 69 -17 69 -3 0 7 6 7 19 0 12 -6 132 -10
320 -10 l301 0 0 27 0 28 25 -27 c24 -26 27 -26 44 -11 11 9 17 22 14 29 -3 8
2 17 11 20 9 3 16 12 16 19 0 17 33 25 108 25 l62 0 0 -40 c0 -22 -5 -40 -11
-40 -6 0 -4 -7 5 -15 12 -12 52 -15 233 -15 120 0 213 4 208 8 -14 9 -36 82
-29 94 3 4 34 8 68 8 53 0 67 -4 89 -24 17 -16 22 -26 14 -29 -9 -4 -9 -6 1
-6 18 -1 15 -28 -4 -35 -12 -4 -15 -2 -11 9 9 21 -11 29 -31 14 -13 -11 -12
-8 2 9 11 12 15 22 9 22 -12 0 -53 -47 -53 -60 0 -7 27 -10 70 -8 l70 2 0 33
c0 22 -5 33 -14 33 -15 0 -28 24 -19 34 10 10 21 7 37 -10 15 -14 17 -14 32 0
8 9 21 16 29 16 13 0 39 -59 30 -68 -3 -3 -5 -2 -5 1 0 4 -9 -2 -20 -13 -12
-12 -25 -18 -30 -15 -5 3 -11 1 -15 -5 -4 -6 116 -10 350 -9 l355 0 0 22 c0
13 -19 50 -43 83 -66 94 -67 97 -67 194 0 70 3 90 13 84 9 -6 9 -4 0 7 -18 19
-16 46 5 54 15 6 16 7 1 16 -15 8 -17 34 -18 201 l-2 193 49 -52 c27 -29 52
-53 55 -53 4 0 7 172 7 383 l0 382 -55 29 -55 28 0 229 0 228 32 -10 c18 -5
43 -9 55 -9 l23 0 0 310 c0 212 -3 310 -11 310 -5 0 -8 4 -5 9 3 5 -3 11 -14
14 -11 3 -21 1 -21 -4 -1 -5 -2 -14 -3 -20 -1 -14 -43 -31 -50 -21 -2 4 -4 95
-3 201 l2 194 30 11 c17 6 40 17 53 24 l22 13 0 387 0 386 -55 -54 -55 -54 0
81 c0 51 5 92 14 110 8 15 18 37 22 48 4 12 8 15 11 8 3 -7 9 -13 14 -13 6 0
8 4 5 9 -4 5 0 12 6 14 7 3 2 6 -12 7 l-25 1 25 14 c15 9 19 15 10 15 -13 1
-13 2 0 13 20 16 25 41 6 34 -20 -8 -45 51 -27 63 9 5 5 13 -15 29 -22 17 -25
24 -15 31 11 6 10 9 -5 13 -12 3 -6 5 14 6 17 0 32 -3 32 -9 0 -5 8 -7 18 -3
11 3 8 -1 -7 -12 -25 -19 -14 -36 18 -28 14 4 17 20 20 99 1 60 -1 94 -8 94
-7 0 -7 8 -1 26 13 33 13 94 0 94 -5 0 -10 -7 -10 -15 0 -9 -6 -12 -17 -8 -11
4 -12 8 -5 11 7 2 12 10 12 17 0 8 5 17 12 21 7 5 8 2 3 -7 -5 -8 -4 -11 0 -6
5 4 10 25 12 47 l4 40 -304 0 c-302 0 -305 0 -319 -22 l-14 -22 -22 22 c-22
22 -23 22 -422 22 -354 -1 -400 -3 -400 -16 0 -13 -8 -14 -42 -9 -24 4 -44 11
-46 16 -2 5 -18 9 -35 8 -31 -1 -31 -1 -7 -9 l25 -8 -27 -1 c-16 -1 -28 4 -28
9 0 6 -77 10 -211 10 l-211 0 6 -25 c3 -14 9 -36 12 -50 6 -22 3 -25 -24 -25
-29 0 -29 1 -22 40 4 23 3 40 -2 40 -5 0 -6 5 -3 10 11 17 -43 11 -61 -7 -17
-17 -18 -17 -11 0 6 15 -1 17 -58 17 -35 0 -67 -4 -70 -10 -3 -5 -1 -11 4 -11
21 -3 26 -4 41 -14 8 -5 24 -8 34 -6 13 2 17 -2 13 -13 -3 -8 -2 -18 3 -21 4
-3 11 1 13 7 4 8 6 7 6 -3 1 -9 -6 -20 -15 -23 -27 -11 -154 -7 -154 5 0 5 4
7 10 4 5 -3 17 -2 26 3 15 8 15 11 -4 30 -11 11 -17 23 -14 27 20 19 -53 25
-345 25 -313 0 -323 -1 -323 -19z m1632 -41 c-8 -55 -55 -47 -58 10 -1 27 1
29 22 24 16 -4 24 -2 24 7 0 11 2 11 8 1 5 -7 7 -26 4 -42z m-171 11 c7 11 9
11 9 1 0 -9 7 -11 20 -7 11 4 20 2 20 -4 0 -6 -6 -11 -14 -11 -8 0 -17 -7 -20
-16 -5 -14 -7 -14 -22 0 -8 9 -20 16 -25 16 -5 0 -9 7 -9 16 0 14 3 14 16 3
13 -10 17 -10 25 2z m-81 -11 c0 -5 -4 -10 -10 -10 -5 0 -10 5 -10 10 0 6 5
10 10 10 6 0 10 -4 10 -10z m1387 -86 c-3 -3 -12 -4 -19 -1 -8 3 -5 6 6 6 11
1 17 -2 13 -5z m-1447 -20 c0 -9 -8 -18 -19 -21 -14 -3 -22 -20 -30 -64 -9
-42 -16 -59 -28 -59 -12 0 -14 7 -10 38 4 21 3 31 -2 24 -6 -10 -10 -9 -14 7
-3 14 0 21 9 21 8 0 14 7 14 16 0 14 -3 14 -15 4 -23 -19 -30 -4 -11 25 14 21
24 25 61 25 35 0 45 -4 45 -16z m110 8 c0 -15 -24 -32 -46 -32 -31 0 -40 -18
-14 -28 20 -7 19 -9 -15 -37 -19 -17 -35 -34 -35 -39 0 -6 5 -5 12 2 7 7 23
12 36 12 21 0 22 -2 12 -15 -7 -8 -29 -15 -49 -15 -27 0 -32 -3 -21 -10 8 -5
10 -10 4 -10 -6 0 -18 8 -25 17 -11 13 -11 15 -1 9 10 -6 12 0 8 31 -4 27 -3
31 2 13 7 -22 9 -19 16 25 4 28 14 57 21 65 14 16 95 26 95 12z m110 3 c0 -22
-17 -35 -46 -35 -29 0 -35 -4 -40 -27 -3 -16 -7 -34 -10 -41 -2 -7 6 -16 17
-20 19 -7 19 -9 5 -21 -9 -7 -27 -11 -41 -9 -26 5 -35 -6 -12 -15 9 -4 9 -6 0
-6 -19 -1 -26 18 -13 34 17 20 4 82 -18 88 -13 4 -12 5 5 6 13 1 23 -6 26 -16
4 -15 5 -15 6 2 2 43 29 64 76 63 25 0 45 -2 45 -3z m66 -52 c-4 -31 -9 -67
-12 -80 -7 -25 -34 -32 -34 -8 0 8 -9 15 -19 15 -10 0 -21 -7 -25 -15 -3 -8
-12 -15 -21 -15 -12 0 -7 16 21 73 39 76 48 87 78 87 17 0 18 -5 12 -57z m124
53 c0 -16 -14 -36 -25 -36 -15 0 -20 -14 -30 -77 -5 -29 -12 -43 -22 -43 -13
0 -14 9 -8 56 5 41 3 59 -6 64 -6 5 -9 15 -6 24 5 11 19 16 52 16 25 0 45 -2
45 -4z m97 -17 c-7 -11 -23 -19 -39 -19 -31 0 -37 -14 -12 -28 19 -10 11 -32
-12 -32 -8 0 -14 -7 -14 -15 0 -10 10 -15 26 -15 22 0 25 -2 14 -15 -10 -12
-80 -23 -80 -12 0 1 4 28 10 61 12 73 29 93 80 94 37 1 38 -1 27 -19z m-517
-39 c0 -5 -2 -10 -4 -10 -3 0 -8 5 -11 10 -3 6 -1 10 4 10 6 0 11 -4 11 -10z
m210 2 c0 -5 -7 -17 -16 -28 -15 -18 -15 -18 -5 3 9 19 8 22 -12 26 -19 4 -18
4 6 6 15 0 27 -3 27 -7z m120 -7 c0 -8 -2 -15 -4 -15 -2 0 -6 7 -10 15 -3 8
-1 15 4 15 6 0 10 -7 10 -15z m67 -37 c-3 -7 -5 -2 -5 12 0 14 2 19 5 13 2 -7
2 -19 0 -25z m573 -26 c0 -27 6 -41 20 -50 12 -7 24 -10 29 -8 4 3 5 -14 1
-38 -6 -44 5 -76 28 -76 13 0 21 -21 14 -37 -2 -7 -9 -13 -16 -13 -8 0 -11
-28 -11 -89 1 -69 -2 -88 -12 -84 -9 4 -13 -4 -13 -26 0 -23 -4 -29 -15 -25
-12 5 -15 -2 -16 -32 0 -22 -4 -47 -8 -58 -7 -17 -9 -16 -24 8 -10 14 -13 26
-7 26 5 0 10 7 10 15 0 9 -9 15 -22 15 -19 0 -20 2 -6 13 14 11 13 16 -8 46
-23 32 -24 33 -24 10 -1 -23 -2 -22 -15 6 -9 21 -14 25 -14 11 -1 -12 -6 -16
-17 -12 -9 3 -67 6 -130 6 l-114 0 0 150 0 150 130 0 130 0 0 -35 0 -35 -85 0
c-76 0 -86 -2 -83 -17 5 -28 19 -33 80 -26 46 5 58 3 58 -8 0 -8 3 -24 6 -36
6 -21 3 -23 -32 -23 -75 0 -113 -11 -111 -31 1 -17 10 -19 84 -19 52 0 83 -4
83 -11 0 -19 18 1 25 28 3 16 14 36 22 45 13 15 14 22 3 48 -16 38 -17 113 -1
118 6 2 8 14 5 28 -5 19 -3 23 10 18 20 -8 40 40 31 74 -4 15 -2 21 5 17 5 -3
10 -23 10 -43z m-652 -17 c-1 -19 -6 -35 -11 -35 -5 0 -6 7 -3 16 3 9 6 24 6
35 0 10 2 19 5 19 3 0 5 -16 3 -35z m-411 -22 c-3 -10 -5 -4 -5 12 0 17 2 24
5 18 2 -7 2 -21 0 -30z m330 -5 c-3 -7 -5 -2 -5 12 0 14 2 19 5 13 2 -7 2 -19
0 -25z m-1349 -49 c9 0 12 -3 6 -5 -7 -3 -9 -15 -7 -27 4 -16 3 -19 -5 -12 -7
6 -13 24 -16 40 -2 17 -1 24 1 18 2 -7 12 -13 21 -14z m273 -28 c1 -14 1 -41
0 -58 -2 -18 0 -33 3 -33 3 0 18 19 33 43 54 84 83 103 123 77 12 -8 11 -12
-6 -32 -12 -13 -29 -37 -39 -54 -17 -30 -17 -30 29 -121 l45 -91 -35 -7 c-52
-9 -72 1 -85 46 -17 54 -33 65 -52 36 -8 -13 -17 -37 -19 -53 -2 -24 -8 -29
-30 -30 -15 -1 -31 2 -37 5 -11 7 -15 63 -12 206 l1 101 40 -4 c35 -4 40 -7
41 -31z m709 17 c113 -58 112 -223 -3 -274 -66 -30 -134 -16 -186 40 -29 31
-40 115 -20 161 7 17 13 35 13 40 1 11 38 33 76 45 43 14 74 11 120 -12z
m1433 -17 c-1 -18 -6 -37 -11 -40 -6 -3 -12 -27 -14 -51 -3 -41 -5 -45 -31
-48 -27 -3 -29 -6 -22 -39 3 -19 3 -48 0 -64 -6 -27 -10 -29 -51 -29 l-44 0 0
115 0 115 -39 0 c-45 0 -54 9 -45 44 7 30 27 34 164 32 l95 -1 -2 -34z m-1839
23 c9 -3 16 -13 16 -22 0 -14 68 -122 77 -122 3 0 4 15 2 33 -1 17 -1 51 0 75
l1 42 41 0 c38 0 41 -2 35 -22 -3 -13 -6 -80 -6 -150 l0 -128 -37 0 c-42 0
-53 12 -112 120 l-31 55 0 -86 0 -87 -36 -4 c-19 -2 -36 -2 -38 1 -2 3 -4 72
-5 154 l-3 147 40 0 c22 0 47 -3 56 -6z m746 -28 c0 -34 -1 -35 -42 -38 l-43
-3 -2 -50 c-1 -27 -2 -78 -2 -112 l-1 -63 -43 0 -44 0 -1 88 c0 48 -1 99 -2
115 0 25 -3 27 -40 27 -39 0 -40 1 -40 35 l0 35 130 0 130 0 0 -34z m370 1 l0
-34 -65 -7 c-35 -4 -76 -4 -90 0 -22 5 -25 3 -25 -20 0 -26 1 -26 75 -26 l75
0 0 -35 0 -35 -75 0 -74 0 -3 -57 c-3 -57 -4 -58 -35 -61 -34 -3 -78 32 -65
52 9 15 9 14 10 142 l2 112 135 1 135 2 0 -34z m531 -379 c-1 -40 0 -88 2
-107 2 -39 -21 -56 -30 -21 -4 16 -8 18 -14 8 -5 -8 -8 2 -7 26 1 29 -4 42
-21 55 -24 19 -20 51 7 51 8 0 12 3 9 7 -4 3 -2 12 4 20 6 7 8 13 3 14 -10 0
26 17 39 18 4 1 8 -32 8 -71z m-1251 53 c0 -5 -6 -12 -12 -14 -7 -3 -3 -6 10
-6 35 -1 28 -31 -8 -31 -16 0 -30 -4 -30 -9 0 -14 38 -20 44 -7 2 6 5 3 5 -6
1 -13 -7 -18 -24 -18 -14 0 -25 -4 -25 -10 0 -5 14 -10 30 -10 17 0 30 -5 30
-10 0 -6 -11 -8 -25 -6 -13 3 -27 1 -30 -4 -3 -5 -12 -7 -20 -3 -11 3 -15 21
-15 59 0 46 3 54 19 54 10 0 21 7 25 15 6 16 26 21 26 6z m-160 -43 l17 -22
12 22 c6 12 18 22 26 22 12 0 15 -14 15 -60 0 -49 -3 -58 -15 -54 -8 4 -15 18
-15 33 -1 25 -1 25 -15 7 -8 -11 -18 -16 -22 -12 -4 4 -1 11 7 16 8 5 11 12 8
16 -8 7 -39 -21 -37 -33 4 -21 -2 -33 -16 -33 -12 0 -15 13 -15 60 0 67 16 79
50 38z m235 5 c6 -17 7 -17 19 0 13 17 36 24 36 10 0 -5 -7 -16 -15 -27 -12
-16 -11 -22 7 -47 24 -33 20 -46 -11 -30 -15 8 -19 19 -16 41 4 34 -2 38 -21
13 -16 -21 -18 -37 -4 -28 6 3 7 -1 4 -9 -3 -9 -15 -16 -25 -16 -19 0 -19 1
-3 26 16 24 16 27 0 55 -17 28 -16 29 2 29 11 0 23 -8 27 -17z m105 -38 c0
-42 -3 -55 -15 -55 -12 0 -15 13 -15 55 0 42 3 55 15 55 12 0 15 -13 15 -55z
m108 33 c3 -15 -2 -17 -26 -12 -39 8 -53 -23 -22 -48 24 -20 45 -24 35 -8 -3
6 -2 10 4 10 17 0 21 -18 5 -24 -43 -17 -94 8 -94 46 0 47 90 80 98 36z m116
3 c25 -28 17 -72 -16 -90 -25 -14 -29 -14 -55 5 -35 26 -40 57 -14 83 26 26
63 27 85 2z m144 7 c19 -19 14 -46 -10 -60 -13 -7 -26 -12 -30 -13 -3 0 -10
-4 -15 -8 -4 -5 9 -6 30 -2 25 5 37 4 37 -4 0 -7 -4 -10 -9 -6 -5 3 -12 2 -15
-3 -6 -10 -66 -3 -66 8 0 9 51 44 64 45 5 0 11 7 13 15 4 13 3 13 -6 0 -8 -12
-11 -12 -11 -1 0 8 -7 11 -20 8 -24 -6 -38 12 -19 24 20 12 43 11 57 -3z m118
-13 c31 -48 -17 -111 -66 -85 -28 15 -36 55 -16 85 22 33 60 33 82 0z m64 -35
c0 -47 -3 -60 -15 -60 -11 0 -15 12 -15 44 0 25 -5 46 -12 48 -17 6 0 28 23
28 17 0 19 -7 19 -60z m100 44 c0 -24 -50 -104 -66 -104 -19 0 -18 9 6 48 25
40 25 40 -2 44 -12 2 -23 9 -26 16 -2 8 10 12 42 12 35 0 46 -4 46 -16z
m-1250 -34 c0 -5 -2 -10 -4 -10 -3 0 -8 5 -11 10 -3 6 -1 10 4 10 6 0 11 -4
11 -10z m1375 0 c-7 -11 23 -9 43 3 6 5 12 5 12 1 0 -11 -34 -33 -51 -34 -9 0
-22 -7 -29 -15 -7 -8 -21 -15 -31 -15 -11 0 -19 -4 -19 -10 0 -5 5 -10 11 -10
6 0 8 -7 5 -16 -4 -10 -1 -14 6 -11 7 2 12 11 10 21 -2 9 2 16 8 16 6 0 8 -4
5 -10 -9 -14 19 -12 33 2 9 9 12 9 12 0 0 -7 -4 -12 -10 -12 -5 0 -10 -7 -10
-15 0 -8 5 -15 10 -15 6 0 10 -5 10 -11 0 -14 -25 -39 -39 -39 -6 0 -11 -7
-11 -15 0 -18 20 -20 21 -2 0 9 2 9 6 -1 4 -9 8 -10 18 -2 11 9 12 6 8 -12 -4
-13 -11 -26 -16 -29 -13 -9 0 -42 13 -34 11 7 4 -14 -17 -55 -10 -19 -13 -21
-13 -7 0 10 -4 15 -10 12 -5 -3 -10 -15 -10 -26 0 -14 7 -19 28 -20 l27 0 -25
-12 c-14 -6 -27 -14 -30 -17 -14 -17 -40 -18 -49 -2 -16 28 -20 11 -22 -86 -2
-70 -5 -89 -15 -82 -6 6 -11 22 -11 36 0 33 -4 35 -55 39 -42 3 -43 4 -51 44
-5 23 -12 41 -18 41 -11 0 -11 -5 1 -71 12 -57 4 -189 -10 -189 -5 0 -10 21
-12 48 -3 44 -5 47 -33 50 -37 5 -72 42 -81 86 -7 43 0 56 32 56 13 0 24 5 24
11 0 13 -25 39 -39 39 -5 0 -14 8 -20 17 -15 27 -20 12 -11 -34 4 -27 4 -43
-3 -43 -5 0 -7 -9 -4 -21 7 -25 -8 -69 -23 -69 -5 0 -10 6 -10 13 0 18 -39 49
-55 43 -8 -3 -11 -13 -8 -27 4 -15 3 -20 -5 -15 -7 4 -12 14 -12 21 0 8 -6 12
-14 9 -19 -7 -76 108 -76 153 0 36 30 79 38 55 7 -22 40 -13 76 21 61 58 64
59 68 35 2 -18 11 -22 46 -24 23 -1 42 1 42 5 0 6 58 31 72 31 4 0 8 -7 10
-16 3 -13 6 -12 24 5 12 11 40 25 63 31 22 6 41 16 41 23 0 7 7 22 15 33 13
16 14 16 9 2 -4 -12 -1 -18 10 -18 9 0 16 -4 16 -8 0 -14 44 -8 57 8 15 18 17
40 3 40 -5 0 -10 -10 -10 -22 0 -17 -3 -19 -9 -9 -6 9 -11 10 -15 2 -14 -22
-26 -10 -21 20 4 22 2 28 -6 23 -9 -5 -10 -2 -5 12 5 10 10 27 13 36 3 9 19
23 36 32 37 18 51 20 42 6z m5 -49 c0 -6 -4 -13 -10 -16 -5 -3 -10 1 -10 9 0
9 5 16 10 16 6 0 10 -4 10 -9z m-575 -72 c11 -17 -1 -21 -15 -4 -8 9 -8 15 -2
15 6 0 14 -5 17 -11z m64 2 c8 -5 9 -11 3 -15 -13 -8 -42 3 -42 15 0 11 21 11
39 0z m-70 -61 c-19 -12 -29 -3 -29 27 l0 27 21 -23 c17 -18 19 -25 8 -31z
m856 8 c-7 -34 -15 -34 -15 1 0 18 4 30 9 26 6 -3 8 -15 6 -27z m-1466 -24 c7
17 11 15 44 -18 29 -28 42 -35 61 -30 23 5 23 4 21 -50 -2 -63 9 -72 60 -47
16 8 45 15 64 16 49 1 72 -24 73 -83 1 -51 -29 -145 -44 -136 -4 3 -7 2 -6 -3
4 -14 -13 -53 -23 -53 -5 0 -14 12 -21 28 l-11 27 -9 -33 c-5 -18 -13 -30 -18
-27 -6 4 -10 -1 -10 -9 0 -9 -4 -16 -10 -16 -16 0 -12 12 12 37 12 13 16 23
10 23 -6 0 -14 -4 -17 -10 -13 -21 -23 -9 -31 37 -5 25 -15 48 -23 51 -9 3
-11 0 -5 -9 12 -20 16 -111 4 -104 -6 3 -10 13 -10 21 0 8 -4 14 -10 14 -5 0
-10 -7 -10 -15 0 -22 -16 -18 -33 8 -8 13 -14 40 -12 65 1 23 -2 42 -7 42 -6
0 -8 7 -4 15 3 8 1 27 -4 41 -6 14 -12 39 -15 57 -3 18 -12 47 -21 64 -13 28
-20 33 -47 30 -28 -2 -32 1 -32 24 -1 22 3 25 27 24 20 -1 26 1 18 9 -14 14
-12 26 5 26 8 0 16 6 16 13 1 6 4 -1 7 -18 4 -25 6 -27 11 -11z m1438 4 c-3
-7 -5 -2 -5 12 0 14 2 19 5 13 2 -7 2 -19 0 -25z m-70 -10 c-3 -8 -6 -5 -6 6
-1 11 2 17 5 13 3 -3 4 -12 1 -19z m40 -10 c2 -18 0 -20 -7 -8 -12 18 -13 30
-2 30 4 0 9 -10 9 -22z m59 -65 c-11 -11 -19 6 -11 24 8 17 8 17 12 0 3 -10 2
-21 -1 -24z m-952 -133 c-34 -62 -51 -79 -60 -56 -3 9 -11 16 -17 16 -18 0
-57 -42 -57 -62 0 -10 -4 -18 -10 -18 -15 0 -30 36 -30 76 0 33 2 36 24 32 18
-4 34 3 56 23 29 27 49 35 75 29 6 -1 7 1 4 5 -4 3 3 16 15 28 l21 22 3 -22
c2 -13 -9 -45 -24 -73z m-144 40 c0 -5 -2 -10 -4 -10 -3 0 -8 5 -11 10 -3 6
-1 10 4 10 6 0 11 -4 11 -10z m40 0 c0 -5 -4 -10 -9 -10 -6 0 -13 5 -16 10 -3
6 1 10 9 10 9 0 16 -4 16 -10z m159 -158 c12 -158 9 -222 -9 -222 -28 0 -32
45 -19 216 7 95 14 173 15 171 1 -1 7 -75 13 -165z m132 -138 c29 -41 59 -79
68 -84 12 -8 4 -9 -28 -8 -42 3 -45 5 -72 58 -28 54 -69 174 -69 201 0 8 11
-10 25 -39 14 -29 48 -87 76 -128z m-207 101 c-16 -60 -76 -189 -93 -200 -6
-3 -21 -3 -35 1 -24 6 -23 6 31 82 31 42 67 100 81 129 14 29 27 51 29 50 1
-2 -5 -29 -13 -62z m-121 -25 c-6 -6 -33 30 -33 43 0 5 9 -1 19 -14 11 -13 17
-26 14 -29z m8 33 c13 -16 12 -17 -3 -4 -17 13 -22 21 -14 21 2 0 10 -8 17
-17z m451 -175 c-11 -11 -109 93 -157 165 -8 13 25 -16 76 -66 54 -53 87 -93
81 -99z m-82 188 c0 -2 -8 -10 -17 -17 -16 -13 -17 -12 -4 4 13 16 21 21 21
13z m10 -25 c-6 -12 -15 -21 -21 -21 -5 0 -2 11 8 24 21 28 29 27 13 -3z
m-428 -53 c-9 -9 -12 -1 -11 33 l1 44 11 -33 c7 -24 7 -36 -1 -44z m458 30 c0
-31 -3 -39 -11 -31 -7 7 -8 24 -4 42 9 43 15 39 15 -11z m-385 -15 c-53 -71
-151 -163 -174 -163 -18 0 -11 9 36 49 32 27 81 71 108 99 28 28 52 51 54 52
2 0 -9 -17 -24 -37z m-105 -6 c0 -8 -10 -25 -21 -38 -23 -25 -22 -22 0 24 16
30 21 34 21 14z m569 -42 c20 4 20 3 5 -21 -9 -13 -19 -24 -23 -24 -10 1 -67
50 -57 50 5 0 18 -7 28 -17 22 -19 23 -6 3 21 -8 11 -15 27 -15 35 0 9 9 2 20
-16 13 -23 25 -31 39 -28z m62 -79 c7 4 10 3 5 -4 -3 -6 2 -15 11 -21 10 -6
14 -11 9 -11 -15 0 -76 41 -76 52 0 6 9 3 19 -6 11 -10 25 -15 32 -10z m-403
-4 c2 -7 -3 -12 -12 -12 -9 0 -16 7 -16 16 0 17 22 14 28 -4z m82 3 c0 -8 -7
-15 -15 -15 -8 0 -15 7 -15 15 0 8 7 15 15 15 8 0 15 -7 15 -15z m-400 0 c0
-2 -10 -9 -22 -15 -22 -11 -22 -10 -4 4 21 17 26 19 26 11z m680 -20 c11 -13
8 -15 -13 -15 -19 0 -25 4 -21 15 4 8 10 15 14 15 4 0 13 -7 20 -15z m-1721
-85 c-1 -41 -7 -64 -17 -72 -9 -7 -13 -8 -10 -3 4 6 0 19 -8 30 -10 13 -14 15
-14 4 0 -11 -2 -11 -8 -1 -5 7 -7 23 -6 35 1 12 3 25 3 29 1 4 7 5 15 2 9 -3
16 4 20 21 11 44 26 17 25 -45z m828 -76 c-3 -3 -12 -4 -19 -1 -8 3 -5 6 6 6
11 1 17 -2 13 -5z m1068 -14 c3 -5 1 -10 -4 -10 -6 0 -11 5 -11 10 0 6 2 10 4
10 3 0 8 -4 11 -10z m-725 -140 c0 -5 -9 -10 -20 -10 -15 0 -20 -7 -20 -25 0
-16 6 -25 16 -25 8 0 12 -5 9 -10 -4 -6 -11 -8 -16 -5 -5 4 -9 -1 -9 -9 0 -24
30 -19 56 9 30 32 57 32 83 -2 11 -16 21 -22 21 -16 0 16 58 46 76 39 8 -3 14
-13 14 -23 0 -14 -2 -15 -9 -5 -10 16 -53 12 -59 -5 -5 -16 94 -18 103 -3 3 6
1 10 -6 10 -10 0 -10 3 -1 12 7 7 12 20 12 30 0 10 5 18 10 18 6 0 10 -9 10
-20 0 -11 7 -20 15 -20 8 0 15 -4 15 -10 0 -5 -7 -10 -15 -10 -8 0 -15 -4 -15
-10 0 -6 26 -10 58 -10 47 0 59 4 70 21 20 32 76 51 128 43 43 -6 52 -16 35
-42 -6 -10 -10 -9 -14 7 -10 39 -127 20 -127 -21 0 -4 41 -8 90 -8 71 0 90 3
90 14 0 8 -6 16 -12 18 -7 3 -2 7 10 10 18 5 22 2 22 -18 0 -19 5 -24 25 -24
25 0 37 29 13 31 -7 0 -4 4 7 8 12 5 23 4 27 -3 5 -8 11 -7 20 2 16 16 28 15
28 -3 0 -8 -9 -15 -20 -15 -11 0 -20 -4 -20 -10 0 -19 42 -10 72 16 31 25 68
29 75 7 3 -8 -6 -10 -30 -6 -26 4 -36 1 -40 -11 -5 -14 2 -16 50 -16 l55 0 -4
55 c-4 41 -1 55 9 55 9 0 13 -16 13 -55 0 -48 2 -55 20 -55 11 0 20 4 20 10 0
5 11 17 25 26 28 18 61 11 70 -16 4 -12 18 -20 38 -23 18 -2 -1 -5 -40 -5 -55
-2 -73 -5 -73 -16 0 -21 27 -39 50 -33 11 3 18 1 14 -4 -8 -13 -58 -11 -72 3
-7 7 -12 20 -12 30 0 11 -7 18 -20 18 -14 0 -20 -7 -20 -24 0 -13 6 -27 13
-29 6 -3 0 -6 -14 -6 -23 -1 -25 2 -21 29 l4 30 -56 0 c-31 0 -56 -4 -56 -8 0
-17 39 -44 55 -39 8 4 15 2 15 -3 0 -6 -13 -10 -29 -10 -32 0 -61 22 -61 46 0
8 -10 14 -26 14 -23 0 -26 -3 -22 -30 4 -25 1 -30 -17 -30 -18 0 -21 5 -17 30
4 27 1 30 -22 30 -21 0 -26 -5 -26 -24 0 -13 6 -27 13 -29 6 -3 0 -6 -14 -6
-23 -1 -25 2 -21 29 l4 30 -96 0 -96 0 0 -31 c0 -21 10 -40 30 -61 28 -27 36
-30 77 -25 28 3 40 1 32 -4 -22 -14 -87 -10 -119 6 -35 18 -50 43 -50 84 0 31
0 31 -55 31 -46 0 -55 -3 -55 -18 0 -10 6 -24 13 -31 10 -10 8 -12 -8 -9 -13
2 -21 12 -23 31 -3 26 -6 27 -58 27 -57 0 -62 -5 -40 -35 8 -12 20 -16 35 -12
11 3 21 1 21 -4 0 -5 -16 -9 -36 -9 -31 0 -37 4 -47 30 -10 27 -16 30 -54 30
-30 0 -43 -4 -43 -14 0 -21 27 -39 50 -33 11 3 18 1 14 -4 -17 -28 -94 2 -94
37 0 8 -9 14 -20 14 -26 0 -28 -46 -2 -53 9 -3 -1 -5 -22 -6 -31 -1 -37 2 -28
11 7 7 12 20 12 30 0 14 -8 18 -40 18 -36 0 -40 -3 -40 -24 0 -13 6 -27 13
-29 6 -3 0 -6 -14 -6 -23 -1 -25 2 -21 29 l4 30 -56 0 c-41 0 -56 -4 -56 -14
0 -21 27 -39 50 -33 11 3 18 1 14 -4 -3 -5 -19 -9 -35 -9 -22 0 -34 7 -47 29
l-16 29 -27 -29 c-17 -18 -37 -29 -54 -29 -25 0 -27 -3 -23 -30 3 -20 0 -30
-9 -30 -9 0 -13 17 -13 60 l0 60 -56 0 -56 0 4 -30 c3 -20 0 -30 -9 -30 -8 0
-13 12 -13 30 0 33 -19 40 -40 15 -15 -18 -3 -38 19 -30 12 5 13 3 5 -5 -20
-20 -49 -7 -49 20 0 18 -7 27 -25 31 -16 4 -5 7 33 8 42 1 57 5 54 14 -2 6
-16 12 -30 12 -20 -1 -24 2 -15 13 16 19 51 11 63 -15 8 -20 17 -23 62 -23 40
0 53 4 53 15 0 8 -6 15 -12 16 -7 0 -4 4 7 8 12 5 23 4 27 -3 5 -8 11 -7 20 2
19 19 45 14 65 -12 l19 -24 23 24 c13 13 31 24 41 24 20 0 50 -25 50 -41 0 -5
7 -9 15 -9 18 0 20 27 3 32 -7 3 -2 7 10 10 12 4 22 2 22 -3 0 -6 7 -6 19 0
19 10 31 6 31 -12 0 -5 -6 -7 -14 -4 -8 3 -20 -1 -26 -9 -11 -12 -6 -14 29
-14 22 0 41 5 41 10 0 6 -5 10 -12 10 -9 0 -9 3 0 12 7 7 12 19 12 27 0 8 7
23 17 33 17 19 43 24 43 8z m622 -15 c0 -5 -5 -11 -11 -13 -6 -2 -11 4 -11 13
0 9 5 15 11 13 6 -2 11 -8 11 -13z m-507 -292 c-3 -15 -15 -46 -25 -69 -15
-33 -17 -48 -10 -76 13 -46 50 -219 50 -232 0 -6 -3 -6 -9 -1 -10 10 -41 143
-49 207 -9 75 -22 24 -22 -84 0 -61 -3 -108 -6 -105 -4 4 -6 41 -6 84 1 42 -4
83 -9 90 -6 7 -7 17 -3 24 3 6 6 47 5 90 -2 89 16 111 21 27 l3 -53 17 35 c9
19 21 48 27 63 14 35 25 35 16 0z m187 -125 c2 -73 0 -144 -4 -158 -5 -21 -7
-19 -9 15 -1 22 -3 51 -3 64 -2 52 -22 28 -35 -41 -18 -96 -33 -131 -25 -58 3
30 10 70 14 89 7 26 6 37 -5 45 -12 10 -19 49 -16 99 1 20 53 77 70 77 6 0 11
-51 13 -132z m98 55 c13 -41 26 -252 16 -242 -3 3 -11 52 -16 108 -9 101 -24
151 -40 135 -12 -13 -30 -108 -31 -167 l-1 -52 -9 40 c-11 56 -11 177 1 195 8
12 10 12 10 -5 0 -18 1 -18 16 3 22 32 42 27 54 -15z m-200 -82 c5 -11 10 -44
10 -74 0 -106 -22 -150 -57 -114 -22 21 -21 133 1 175 19 37 31 40 46 13z
m-1020 -540 c-6 -39 -16 -71 -21 -71 -4 0 -6 7 -3 15 5 12 -2 15 -34 15 -23 0
-45 -6 -52 -15 -7 -8 -17 -15 -23 -15 -7 0 22 34 63 75 41 41 76 73 78 70 2
-2 -1 -35 -8 -74z m1677 34 c2 -25 1 -26 -5 -7 -4 13 -11 22 -17 20 -5 -2 -10
-5 -9 -8 10 -48 28 -100 35 -100 4 0 14 18 20 40 9 30 9 46 1 65 -9 20 -9 25
3 25 28 0 27 -45 -3 -120 -21 -53 -31 -68 -35 -54 -3 10 -17 54 -31 97 l-25
78 32 -3 c28 -3 32 -7 34 -33z m109 20 c-10 -7 -15 -18 -11 -24 3 -6 1 -11 -4
-11 -6 0 -11 11 -11 25 0 19 5 25 23 25 21 -1 21 -1 3 -15z m170 -10 c-1 -33
-16 -33 -16 0 0 14 4 25 9 25 5 0 8 -11 7 -25z m142 8 c11 -11 11 -13 -1 -13
-9 0 -18 -6 -20 -12 -3 -8 -6 -6 -6 5 -1 9 -5 17 -11 17 -5 0 -10 4 -10 8 0
14 33 10 48 -5z m138 9 c-3 -5 -18 -7 -35 -4 -22 3 -32 -1 -40 -17 -11 -19 -9
-21 16 -22 l28 -2 -27 -4 c-24 -4 -28 -9 -28 -37 0 -19 10 -46 22 -62 l23 -29
-25 16 c-38 25 -56 80 -41 129 12 40 12 40 62 40 28 0 48 -4 45 -8z m-2173
-92 c10 -24 11 -24 17 15 6 33 7 27 9 -34 1 -81 -6 -83 -34 -9 -18 49 -35 55
-35 12 0 -13 -5 -24 -11 -24 -6 0 -8 11 -5 28 3 15 8 45 12 67 l7 40 15 -35
c8 -19 19 -46 25 -60z m1747 70 c0 -5 10 -10 22 -10 12 0 19 -3 15 -6 -9 -9
-57 5 -57 16 0 6 5 10 10 10 6 0 10 -4 10 -10z m57 -12 c-3 -8 -6 -5 -6 6 -1
11 2 17 5 13 3 -3 4 -12 1 -19z m20 0 c-3 -8 -6 -5 -6 6 -1 11 2 17 5 13 3 -3
4 -12 1 -19z m30 0 c-3 -8 -6 -5 -6 6 -1 11 2 17 5 13 3 -3 4 -12 1 -19z m113
11 c0 -5 -4 -8 -9 -5 -5 4 -11 1 -13 -6 -3 -8 -7 -6 -11 5 -5 12 -1 17 13 17
11 0 20 -5 20 -11z m-1875 -8 c-29 -6 -30 -8 -33 -66 -2 -33 -8 -64 -13 -70
-7 -7 -8 13 -4 62 l7 72 -33 4 c-19 2 -2 4 36 4 44 0 59 -2 40 -6z m45 -46 c0
-30 -4 -55 -10 -55 -5 0 -10 9 -10 20 0 25 -25 16 -36 -13 -6 -20 -7 -18 -11
10 -2 18 0 41 6 50 10 17 10 17 11 1 0 -11 8 -18 20 -18 16 0 20 7 20 30 0 17
2 30 5 30 3 0 5 -25 5 -55z m90 47 c0 -4 -7 -18 -16 -30 -9 -13 -13 -26 -9
-30 6 -6 14 2 51 52 18 25 20 22 29 -41 5 -36 3 -53 -4 -53 -6 0 -11 9 -11 20
0 13 -7 20 -19 20 -29 0 -34 -16 -15 -45 9 -14 14 -28 12 -31 -3 -2 -13 7 -22
21 -9 14 -22 23 -28 19 -7 -4 -8 -3 -4 5 4 6 2 18 -4 26 -10 12 -9 20 5 41 14
22 14 26 3 21 -8 -3 -21 -1 -29 4 -10 6 -2 9 24 9 20 0 37 -3 37 -8z m86 -3
c4 -8 9 -8 17 0 18 18 28 13 15 -8 -9 -15 -7 -25 11 -55 27 -42 17 -48 -16 -8
-19 23 -24 25 -34 12 -9 -12 -10 -10 -5 9 3 13 1 33 -5 43 -11 20 5 26 17 7z
m591 -27 l32 -37 1 38 c0 36 1 37 35 37 19 0 35 -4 35 -10 0 -5 -12 -10 -26
-10 -16 0 -24 -5 -21 -12 2 -7 9 -13 14 -13 6 0 15 -3 19 -7 4 -5 -2 -8 -14
-8 -13 0 -22 -6 -22 -15 0 -10 10 -15 34 -15 19 0 38 -4 41 -10 3 -5 18 -10
31 -10 34 0 26 24 -9 28 -30 4 -51 26 -44 46 4 11 28 14 101 15 l95 0 3 -42
c3 -37 6 -42 28 -42 22 0 25 5 28 43 l3 43 47 -3 47 -3 2 -47 c2 -48 -10 -65
-20 -28 -7 26 -47 27 -54 1 -6 -23 -54 -37 -79 -23 -12 7 -26 6 -41 -1 -16 -7
-30 -7 -45 0 -16 7 -30 7 -45 0 -16 -7 -31 -7 -48 1 -14 7 -41 12 -59 12 -26
0 -41 8 -65 35 -17 19 -33 35 -36 35 -3 0 -5 -15 -5 -32 0 -32 -2 -33 -43 -36
-52 -3 -82 22 -75 63 4 17 1 25 -8 25 -10 0 -14 -14 -14 -45 0 -25 -4 -45 -10
-45 -5 0 -10 19 -10 43 l0 44 -50 1 c-57 1 -67 -14 -16 -24 40 -7 52 -27 30
-49 -26 -25 -84 -16 -84 13 0 12 3 13 12 4 16 -16 61 -16 56 1 -3 6 -15 14
-29 15 -37 6 -50 21 -39 43 9 16 24 18 148 18 l137 0 32 -37z m-737 -32 c0
-22 -5 -40 -10 -40 -6 0 -9 12 -6 28 2 15 5 33 5 40 1 6 3 12 6 12 3 0 5 -18
5 -40z m1548 -7 c-1 -38 -2 -41 -5 -15 -3 25 -9 32 -21 30 -10 -2 -17 -13 -16
-25 0 -12 -3 -20 -8 -17 -23 14 3 74 32 74 17 0 20 -6 18 -47z m50 -36 c12 -3
11 -5 -5 -6 -21 -1 -23 3 -21 47 l1 47 4 -42 c3 -29 9 -43 21 -46z m47 73
c-14 -6 -15 -9 -5 -10 12 0 11 -3 -3 -11 -13 -8 -15 -14 -7 -30 7 -13 7 -19 1
-19 -13 0 -25 45 -17 65 3 8 16 15 28 14 22 0 22 -1 3 -9z m56 0 c10 -6 19
-18 19 -27 0 -14 -2 -14 -15 3 -13 18 -14 17 -15 -19 0 -23 -4 -36 -10 -32
-10 6 -14 85 -4 85 3 0 14 -5 25 -10z m82 2 c-6 -4 -13 -25 -16 -47 l-4 -40
-1 42 c-2 30 -7 43 -19 46 -10 3 -2 5 17 6 19 0 30 -3 23 -7z m37 -31 c0 -22
-4 -43 -10 -46 -6 -4 -10 12 -10 39 0 25 5 46 10 46 6 0 10 -18 10 -39z m57
-1 c1 -19 -1 -26 -4 -15 -9 36 -23 41 -23 8 0 -18 -4 -35 -10 -38 -6 -4 -10
11 -10 38 0 41 2 45 23 43 19 -1 23 -7 24 -36z m-2308 -242 c-1 -45 -2 -49 -9
-23 -6 24 -8 26 -9 8 -2 -40 -21 -24 -21 17 0 40 15 55 23 23 4 -14 5 -12 6 5
2 46 11 20 10 -30z m41 -1 c0 -28 -3 -37 -9 -28 -7 11 -10 10 -14 -5 -2 -10
-5 -2 -6 18 0 20 2 43 5 52 11 28 24 6 24 -37z m31 2 c-4 -60 -7 -60 -13 4 -4
31 -2 47 6 47 7 0 10 -18 7 -51z m34 1 c1 -28 -3 -50 -7 -50 -4 0 -8 23 -8 50
0 28 3 50 8 50 4 0 7 -23 7 -50z m50 -1 c0 -32 -4 -44 -15 -44 -16 0 -26 54
-16 82 12 30 31 6 31 -38z m41 -5 c1 -27 0 -38 -3 -24 -5 23 -6 24 -14 5 -5
-14 -8 -6 -8 28 -1 35 3 47 12 45 7 -3 13 -24 13 -54z m69 4 c1 -49 -19 -65
-21 -17 -3 62 -3 64 -16 51 -10 -10 -10 -15 2 -22 12 -8 12 -10 1 -10 -9 0
-11 -8 -7 -25 4 -14 2 -25 -4 -25 -5 0 -10 22 -10 49 0 48 1 50 28 49 26 -1
27 -3 27 -50z m50 1 c0 -32 -4 -44 -15 -44 -16 0 -26 54 -16 82 12 30 31 6 31
-38z m115 7 c0 -25 -4 -48 -10 -51 -6 -4 -10 13 -10 44 0 28 5 51 10 51 6 0
10 -20 10 -44z m39 -14 c-1 -26 -4 -38 -7 -27 l-5 20 -8 -20 c-6 -17 -8 -15
-8 10 -1 41 9 76 20 69 5 -3 8 -26 8 -52z m102 39 c6 9 9 -1 8 -31 0 -33 -3
-40 -8 -25 -8 19 -9 18 -13 -5 -3 -14 -5 0 -5 30 -1 30 2 46 4 36 4 -15 7 -16
14 -5z m53 3 c4 -12 2 -15 -9 -10 -12 4 -15 -3 -15 -32 0 -26 3 -33 9 -22 6 8
7 18 5 22 -3 4 0 8 5 8 13 0 14 -20 2 -39 -14 -23 -31 -2 -31 38 0 50 20 71
34 35z m64 -29 c3 -35 -10 -66 -23 -53 -8 8 -14 81 -8 91 11 18 28 -2 31 -38z
m41 -13 c-1 -26 -4 -38 -7 -27 l-5 20 -8 -20 c-5 -15 -8 -7 -8 26 -1 25 2 49
5 52 15 14 24 -7 23 -51z m41 36 c0 -19 -2 -20 -10 -8 -7 11 -10 6 -10 -20 0
-26 3 -31 10 -20 8 12 10 11 10 -7 0 -14 -6 -23 -15 -23 -11 0 -15 11 -15 43
0 24 3 47 7 50 13 14 23 7 23 -15z m29 0 c1 6 6 12 11 12 7 0 8 -6 1 -17 -5
-11 -5 -26 0 -41 5 -14 7 -27 5 -30 -3 -3 -9 3 -13 13 -6 18 -7 18 -14 -1 -5
-12 -8 1 -8 36 0 40 3 49 9 35 5 -11 9 -14 9 -7z m79 2 c3 -7 0 -10 -7 -6 -6
4 -11 3 -11 -3 0 -5 5 -13 10 -16 16 -10 12 -55 -5 -55 -8 0 -15 8 -15 18 0
14 2 15 10 2 8 -13 10 -13 10 2 0 9 -4 20 -10 23 -14 9 -13 58 2 53 6 -2 14
-10 16 -18z m130 -25 c2 -21 -1 -42 -6 -47 -14 -14 -52 8 -53 30 -1 9 -5 4 -9
-13 -7 -27 -8 -25 -9 18 0 26 4 47 9 47 6 0 10 -5 10 -11 0 -6 7 -3 16 6 24
24 39 13 42 -30z m41 -20 c-1 -23 -4 -31 -7 -20 l-5 20 -8 -20 c-5 -15 -8 -7
-8 26 -1 25 2 49 6 52 12 12 23 -17 22 -58z m32 10 c-5 -28 -9 -43 -10 -34 0
9 -4 31 -8 49 -4 24 -3 31 5 26 7 -4 12 -2 12 5 0 7 2 10 4 8 3 -3 1 -27 -3
-54z m143 39 c4 -9 4 -19 1 -22 -3 -3 -5 0 -5 6 0 7 -4 12 -10 12 -5 0 -10
-13 -10 -29 0 -24 4 -29 20 -28 16 1 20 8 20 34 0 18 5 33 10 33 6 0 10 -6 10
-14 0 -7 3 -29 6 -47 4 -26 3 -30 -5 -19 -7 10 -14 11 -18 5 -5 -6 -17 -11
-28 -10 -15 0 -21 8 -23 33 -5 54 17 85 32 46z m335 -6 l8 -22 6 23 c9 37 27
14 27 -35 0 -32 -4 -44 -15 -44 -8 0 -15 8 -15 17 0 15 -1 15 -13 -2 -18 -24
-37 -11 -37 25 0 57 23 80 39 38z m186 10 c16 2 17 1 6 -7 -12 -8 -12 -12 -2
-24 9 -12 9 -16 -1 -19 -10 -4 -10 -8 1 -21 12 -15 10 -17 -20 -14 -18 1 -34
9 -36 17 -4 13 -3 13 7 0 9 -12 10 -9 5 14 -5 26 -4 28 9 17 13 -11 16 -11 16
2 0 26 -27 27 -39 1 -6 -13 -15 -24 -20 -24 -5 0 -12 -8 -14 -17 -3 -10 -5 4
-6 31 -1 44 1 48 19 43 11 -3 23 -1 26 4 3 5 11 6 17 2 7 -4 21 -6 32 -5z
m152 -14 c2 -10 0 -13 -3 -6 -10 22 -24 13 -22 -15 2 -39 10 -50 20 -27 8 18
8 18 5 -1 -3 -28 -31 -25 -35 4 -5 34 7 73 21 68 7 -2 13 -12 14 -23z m331
-30 c-2 -27 -8 -39 -18 -39 -19 0 -26 61 -9 81 18 22 31 2 27 -42z m142 0 c0
-32 -4 -44 -15 -44 -11 0 -15 11 -15 43 0 24 3 47 6 50 14 14 24 -6 24 -49z
m85 6 c0 -44 0 -44 -37 -46 l-38 -3 0 45 c0 45 7 52 40 34 13 -7 17 -18 14
-35 -2 -14 0 -25 6 -25 5 0 10 14 10 30 0 17 -4 30 -10 30 -5 0 -10 5 -10 11
0 6 6 9 13 7 7 -3 12 -22 12 -48z m-1955 28 c0 6 3 12 8 12 4 0 7 -21 7 -46 1
-37 -2 -42 -11 -29 -11 15 -13 15 -17 -2 -3 -10 -5 5 -6 32 0 36 2 46 9 35 6
-10 10 -11 10 -2z m37 -55 c-2 -16 -4 -5 -4 22 0 28 2 40 4 28 2 -13 2 -35 0
-50z m373 27 l7 45 1 -47 c2 -37 -2 -48 -13 -48 -11 0 -15 11 -13 48 l1 47 6
-45 5 -45 6 45z m391 31 c6 9 8 -4 7 -36 0 -30 -3 -40 -6 -25 l-5 25 -8 -25
c-5 -19 -7 -13 -7 25 0 28 2 44 5 36 5 -11 7 -11 14 0z m121 -28 l1 -38 4 38
c5 41 18 49 27 15 7 -27 7 -78 -1 -60 -2 6 -10 9 -16 5 -21 -13 -50 -14 -59
-1 -6 10 -8 10 -8 1 0 -22 -30 -2 -31 21 -1 16 -3 14 -9 -9 -7 -27 -8 -26 -9
16 l-1 45 50 3 50 2 2 -38z m60 -15 c2 -21 0 -38 -4 -38 -4 0 -8 21 -7 48 1
52 6 48 11 -10z m157 5 c-1 -31 -4 -39 -7 -23 l-5 25 -8 -25 c-5 -20 -7 -15
-8 23 -1 35 3 47 14 47 11 0 15 -11 14 -47z m293 27 c3 14 5 3 5 -25 0 -28 -2
-39 -5 -25 l-5 25 -8 -25 c-5 -19 -7 -13 -7 25 0 38 2 44 7 25 l8 -25 5 25z
m25 -47 c-2 -16 -4 -5 -4 22 0 28 2 40 4 28 2 -13 2 -35 0 -50z m34 -13 c5 0
9 18 9 40 0 34 3 40 21 40 18 0 20 -5 17 -42 -3 -40 -5 -43 -35 -45 l-33 -3 2
48 1 47 4 -42 c2 -24 8 -43 14 -43z m88 33 c-1 -31 -4 -39 -7 -23 l-5 25 -8
-25 c-5 -20 -7 -15 -8 23 -1 35 3 47 14 47 11 0 15 -11 14 -47z m32 38 c-12
-8 -12 -12 -2 -24 9 -12 9 -16 -1 -19 -10 -4 -10 -8 1 -21 12 -15 11 -17 -3
-17 -12 0 -16 10 -16 45 0 36 3 45 18 45 14 0 14 -2 3 -9z m40 0 c6 9 8 -2 8
-31 0 -33 -3 -40 -8 -25 -8 19 -9 18 -13 -5 -3 -14 -6 -2 -6 25 0 28 2 44 5
36 5 -11 7 -11 14 0z m102 -33 c-5 -58 -13 -61 -13 -5 0 26 4 47 8 47 5 0 7
-19 5 -42z m77 -3 c0 -33 -4 -45 -15 -45 -8 0 -15 3 -16 8 -9 68 -7 82 12 82
16 0 19 -7 19 -45z m170 28 c0 9 5 17 10 17 6 0 10 -21 9 -47 -1 -39 -2 -43
-9 -23 -7 21 -8 22 -9 5 -1 -16 -3 -17 -10 -6 -7 11 -10 10 -14 -5 -2 -10 -5
4 -6 31 0 46 1 48 14 31 13 -17 15 -18 15 -3z m-2112 -24 c-2 -6 -8 -10 -13
-10 -5 0 -11 4 -13 10 -2 6 4 11 13 11 9 0 15 -5 13 -11z m770 0 c-2 -6 -8
-10 -13 -10 -5 0 -11 4 -13 10 -2 6 4 11 13 11 9 0 15 -5 13 -11z m670 0 c-2
-6 -8 -10 -13 -10 -5 0 -11 4 -13 10 -2 6 4 11 13 11 9 0 15 -5 13 -11z
m-1738 -121 c0 6 14 11 33 10 17 0 39 1 47 3 11 3 16 -7 18 -45 3 -42 1 -48
-13 -42 -9 3 -20 6 -25 6 -5 0 -11 10 -13 23 -4 18 -5 17 -6 -6 -1 -35 -30
-34 -47 2 l-12 24 -5 -29 c-2 -16 -5 -5 -5 26 -1 50 0 53 13 36 8 -11 15 -15
15 -8z m298 -53 c0 -16 -2 -24 -5 -17 -4 10 -8 10 -18 2 -12 -10 -13 -5 -9 27
9 60 16 72 24 43 5 -14 8 -38 8 -55z m24 28 c-6 -59 -12 -69 -12 -20 0 19 -3
42 -6 51 -4 10 -1 16 9 16 11 0 13 -10 9 -47z m56 41 c17 -5 22 -14 22 -40 0
-48 16 -51 24 -4 7 46 26 54 26 11 0 -16 3 -38 7 -48 6 -16 5 -16 -10 -4 -11
9 -17 10 -17 2 0 -6 -13 -11 -30 -11 -28 0 -30 2 -32 43 l-1 42 -7 -45 c-7
-44 -7 -45 -8 -8 -1 20 -5 43 -8 52 -7 17 -1 19 34 10z m259 -2 c6 -4 13 -25
16 -47 l4 -40 1 44 c2 38 4 43 22 38 11 -3 20 -2 20 1 0 4 27 7 60 7 55 1 77
-7 48 -18 -10 -3 -10 -7 0 -19 10 -13 10 -17 0 -20 -10 -4 -11 -8 -1 -20 11
-13 0 -15 -94 -14 -85 1 -107 4 -110 16 -4 13 -3 13 6 0 15 -21 14 5 -1 29
-11 18 -6 51 9 51 4 0 13 -4 20 -8z m259 -2 c10 0 14 -12 14 -40 0 -22 5 -40
10 -40 6 0 10 18 10 39 0 22 5 43 11 47 7 4 9 0 5 -14 -4 -11 -2 -23 4 -27 6
-3 10 3 10 14 0 12 5 21 10 21 6 0 10 -6 10 -12 0 -10 3 -9 9 1 10 15 81 25
81 11 0 -5 -6 -11 -12 -13 -10 -4 -9 -8 2 -16 13 -10 13 -12 1 -20 -12 -8 -13
-12 -1 -26 12 -14 9 -15 -24 -12 -40 5 -38 4 -54 32 -11 19 -11 18 -12 -8 0
-28 0 -28 -62 -25 -37 2 -63 8 -66 16 -2 7 2 10 12 6 21 -8 20 5 0 27 -20 22
-11 54 12 45 9 -3 22 -6 30 -6z m-996 -40 c0 -54 20 -51 22 3 1 40 1 40 5 7 3
-19 10 -41 15 -48 9 -10 3 -13 -30 -11 l-42 3 0 43 c0 32 4 43 15 43 11 0 15
-11 15 -40z m1492 16 c6 -20 6 -20 7 2 1 22 4 23 66 20 50 -2 64 -6 60 -16 -3
-8 -5 -27 -5 -43 0 -16 -4 -29 -10 -29 -5 0 -10 17 -10 38 0 27 -3 33 -10 22
-8 -13 -10 -12 -10 3 0 9 -5 17 -11 17 -7 0 -5 -10 5 -25 9 -13 15 -32 15 -42
-1 -17 -2 -17 -6 0 -5 19 -24 24 -20 5 1 -8 -11 -14 -30 -16 -28 -3 -33 0 -34
20 -1 23 -1 23 -9 -2 -8 -24 -8 -24 -9 -3 -1 16 -6 21 -16 17 -8 -4 -15 -12
-15 -20 0 -8 -9 -14 -20 -14 -11 0 -20 7 -20 15 0 8 -4 15 -10 15 -5 0 -9 -6
-7 -12 1 -7 -8 -14 -20 -16 -18 -3 -23 2 -23 17 0 24 -26 18 -33 -7 -3 -10 -5
4 -6 30 l-1 47 88 -1 c80 0 88 -2 94 -22z m309 7 c1 -17 2 -17 6 0 8 30 23 18
25 -20 l1 -38 4 38 c5 41 20 49 27 15 3 -13 7 -32 9 -43 3 -11 6 0 7 25 1 38
3 42 11 23 5 -13 13 -33 18 -45 8 -20 10 -18 10 15 1 23 -3 36 -9 32 -5 -3
-10 -1 -10 4 0 6 11 11 25 11 17 0 25 -6 25 -17 1 -17 1 -17 14 0 22 29 36 20
38 -25 l1 -43 4 43 c3 34 8 42 24 42 11 0 19 -7 20 -17 1 -17 2 -17 6 0 9 35
23 16 22 -30 -1 -39 -2 -43 -9 -23 l-8 25 -2 -25 -2 -25 -8 25 c-7 21 -8 22
-9 5 -1 -17 -9 -21 -37 -23 -23 -2 -33 1 -29 8 3 5 1 10 -4 10 -6 0 -11 -6
-12 -12 -1 -7 -5 -2 -9 12 -8 24 -8 24 -9 3 -1 -16 -7 -23 -21 -23 -11 0 -20
6 -21 13 0 10 -2 10 -6 0 -2 -7 -11 -13 -19 -13 -8 0 -14 6 -15 13 0 10 -2 10
-6 0 -8 -22 -33 -14 -34 10 -1 21 -1 21 -9 -3 l-8 -25 -2 25 -2 25 -8 -25 c-7
-20 -8 -16 -9 23 -1 26 4 47 9 47 6 0 11 -8 11 -17z m354 -5 l8 -23 4 23 c2
12 12 22 21 22 13 0 17 -10 17 -45 0 -36 -3 -45 -17 -45 -11 0 -18 8 -18 20 0
27 -18 25 -23 -2 -2 -13 -6 -4 -7 22 l-3 45 -6 -45 -7 -45 -4 48 c-4 39 -2 47
11 47 9 0 20 -10 24 -22z m104 -1 c1 20 6 22 61 21 47 -1 60 -5 61 -17 1 -13
2 -13 6 1 3 12 14 16 41 15 20 -1 40 -6 44 -12 5 -6 8 -6 8 3 0 6 8 12 18 12
14 0 17 -9 17 -45 0 -36 -3 -45 -17 -45 -10 0 -19 8 -19 18 -1 15 -2 15 -6 -1
-7 -26 -66 -20 -75 8 -5 18 -6 17 -8 -5 l-2 -25 -8 25 c-8 24 -8 24 -9 3 -1
-13 -7 -23 -16 -23 -9 0 -15 10 -16 23 -1 21 -1 21 -7 2 -10 -30 -72 -31 -73
-1 -1 19 -2 18 -9 -4 -6 -20 -8 -14 -8 25 0 39 2 45 8 25 8 -23 8 -24 9 -3z
m-1961 -18 c-2 -6 -8 -10 -13 -10 -5 0 -11 4 -13 10 -2 6 4 11 13 11 9 0 15
-5 13 -11z m342 1 c0 -5 -4 -10 -10 -10 -5 0 -10 5 -10 10 0 6 5 10 10 10 6 0
10 -4 10 -10z m608 -1 c-2 -6 -8 -10 -13 -10 -5 0 -11 4 -13 10 -2 6 4 11 13
11 9 0 15 -5 13 -11z m462 3 c0 -13 -12 -22 -22 -16 -10 6 -1 24 13 24 5 0 9
-4 9 -8z m-1048 -146 c-2 -33 -1 -38 8 -23 6 9 9 26 5 36 -3 11 -2 22 3 25 6
3 13 -4 17 -17 l7 -22 8 25 c6 20 8 14 8 -25 -1 -27 -3 -40 -5 -27 -2 12 -8
20 -13 17 -5 -3 -7 -12 -4 -19 6 -15 -33 -30 -41 -16 -3 4 -14 6 -25 3 -18 -5
-20 0 -22 38 l-1 44 -4 -42 c-5 -56 -20 -55 -25 2 l-3 45 45 -1 45 -2 -3 -41z
m108 29 c0 16 70 18 70 3 0 -8 3 -9 8 -3 4 6 14 11 22 12 11 2 15 -8 15 -42 0
-36 -3 -45 -17 -45 -10 0 -18 7 -18 15 0 8 -4 15 -10 15 -5 0 -7 -7 -4 -15 4
-8 1 -15 -5 -15 -6 0 -11 6 -11 13 0 9 -2 9 -9 -1 -6 -10 -10 -8 -16 10 l-8
23 -5 -25 c-4 -23 -5 -24 -13 -5 -6 17 -8 17 -8 3 -1 -10 -6 -18 -12 -18 -10
0 -10 13 1 90 0 3 5 -2 10 -10 5 -8 10 -10 10 -5z m443 -27 c-2 -21 2 -38 7
-38 6 0 10 18 10 41 0 36 2 40 23 37 17 -2 23 -11 28 -43 l6 -40 1 41 c2 36 5
41 24 40 12 0 23 -8 25 -16 4 -13 3 -13 -6 0 -9 13 -11 13 -11 -2 0 -9 5 -20
10 -23 13 -8 13 -42 -1 -51 -6 -3 -15 -1 -19 6 -5 8 -10 8 -14 2 -9 -15 -46
-2 -47 17 -1 14 -2 13 -6 -1 -2 -10 -8 -18 -11 -19 -62 -10 -85 -5 -95 21 -4
13 -6 12 -6 -1 -1 -20 -38 -32 -48 -16 -5 7 -8 23 -8 36 0 13 -6 26 -12 28 -9
3 -13 -6 -13 -25 0 -17 6 -32 13 -35 6 -2 9 -8 5 -12 -14 -15 -28 7 -28 44 0
21 2 40 5 43 3 3 43 5 88 4 l83 -1 -3 -37z m326 25 c-10 -11 -10 -16 0 -23 9
-5 10 -10 2 -14 -16 -10 -14 -26 4 -26 11 0 15 11 15 40 0 22 5 40 10 40 6 0
10 -8 10 -17 0 -15 2 -16 10 -3 5 8 20 15 34 15 21 1 25 -4 28 -41 3 -41 3
-41 -32 -42 -19 -1 -38 4 -42 11 -6 9 -8 9 -8 0 0 -8 -16 -12 -45 -11 l-45 1
0 42 c0 43 0 43 35 43 30 0 34 -2 24 -15z m141 5 c0 6 4 12 9 12 4 0 4 -20 -2
-45 -6 -25 -11 -44 -12 -42 -1 1 -5 22 -9 47 -4 31 -3 40 4 30 6 -10 10 -11
10 -2z m73 -33 c4 -28 4 -27 6 7 l1 37 45 -2 45 -2 0 -37 c0 -21 5 -38 11 -38
6 0 10 12 9 28 -3 40 -1 52 8 52 5 0 7 -18 5 -40 -2 -22 2 -40 7 -40 6 0 10 6
10 13 0 8 4 7 10 -3 8 -13 10 -13 10 2 0 9 -4 20 -10 23 -16 10 -12 45 5 45 8
0 15 -8 15 -17 0 -15 -2 -16 -10 -3 -7 10 -10 11 -10 2 0 -7 5 -21 12 -31 20
-33 5 -47 -46 -43 -31 3 -46 9 -46 18 0 8 -4 14 -10 14 -5 0 -10 -7 -10 -16 0
-8 -4 -13 -10 -9 -5 3 -7 12 -3 20 4 11 1 13 -11 9 -9 -3 -16 -12 -16 -20 0
-8 -7 -14 -15 -14 -8 0 -15 6 -15 13 0 8 -4 7 -10 -3 -7 -11 -10 -7 -10 17 0
66 24 80 33 18z m-781 0 c0 -5 -5 -11 -11 -13 -6 -2 -11 4 -11 13 0 9 5 15 11
13 6 -2 11 -8 11 -13z m450 0 c0 -5 -5 -11 -11 -13 -6 -2 -11 4 -11 13 0 9 5
15 11 13 6 -2 11 -8 11 -13z m-747 -157 c5 4 5 1 1 -6 -4 -7 -11 -10 -16 -7
-5 3 -11 -3 -13 -12 -3 -11 -5 -6 -6 11 -1 23 2 26 12 17 8 -6 18 -7 22 -3z
m63 -15 c10 -18 9 -20 -8 -16 -23 6 -22 5 -14 28 7 18 7 18 22 -12z m47 18
c-3 -5 -1 -12 5 -16 13 -8 3 -25 -13 -25 -8 0 -8 3 1 9 11 7 10 9 -3 15 -17 6
-12 26 6 26 6 0 8 -4 4 -9z m92 -22 l1 -24 -5 24 c-4 19 -7 21 -14 10 -7 -11
-9 -10 -9 4 0 28 25 14 27 -14z m96 1 c-7 -28 -13 -25 -13 6 0 14 4 23 9 20 5
-3 7 -15 4 -26z m27 4 c0 -14 -4 -23 -9 -20 -5 3 -7 15 -4 26 7 28 13 25 13
-6z m55 16 c3 -6 -1 -7 -9 -4 -11 4 -16 0 -16 -11 0 -11 5 -15 16 -11 8 3 12
2 9 -4 -10 -17 -35 -11 -35 8 0 29 22 43 35 22z m100 1 c-3 -5 -1 -12 5 -16
13 -8 3 -25 -13 -25 -8 0 -8 3 2 9 9 6 10 11 2 15 -10 7 -6 26 5 26 3 0 3 -4
-1 -9z m93 -12 c3 -12 2 -12 -6 0 -8 11 -11 9 -15 -10 -4 -22 -4 -22 -6 4 -1
30 19 34 27 6z m56 15 c9 -3 16 -14 16 -23 -1 -14 -2 -14 -11 2 -5 9 -14 17
-19 17 -15 0 -12 -28 3 -33 9 -4 9 -6 0 -6 -16 -1 -26 17 -19 34 6 17 8 17 30
9z m66 -19 c0 -18 -4 -23 -15 -19 -8 4 -15 15 -15 25 0 10 7 19 15 19 9 0 15
-9 15 -25z m90 -6 c0 -4 -9 -9 -20 -12 -11 -3 -18 -2 -17 1 2 4 7 16 11 27 6
16 9 17 16 5 6 -8 10 -18 10 -21z m228 20 c-10 -5 -18 -14 -18 -19 0 -5 8 -11
18 -13 15 -4 15 -5 0 -6 -9 0 -20 4 -23 9 -8 13 12 40 29 40 6 0 3 -5 -6 -11z
m157 1 c3 -5 0 -7 -9 -4 -9 4 -16 -2 -19 -18 -4 -21 -4 -20 -6 5 -1 27 21 38
34 17z m-345 -7 c0 -5 -5 -15 -10 -23 -7 -12 -9 -10 -7 8 1 19 17 33 17 15z
m68 -18 c13 5 14 3 5 -6 -14 -14 -33 -3 -32 19 1 15 2 14 6 -1 3 -12 10 -16
21 -12z m63 8 c13 -17 13 -17 -6 -3 -11 8 -22 16 -24 17 -2 2 0 3 6 3 6 0 17
-8 24 -17z m96 -15 c-3 -7 -5 -2 -5 12 0 14 2 19 5 13 2 -7 2 -19 0 -25z
m-787 8 c0 -2 -9 -6 -20 -9 -11 -3 -20 -1 -20 4 0 5 9 9 20 9 11 0 20 -2 20
-4z m180 -5 c0 -5 -9 -7 -20 -4 -11 3 -20 7 -20 9 0 2 9 4 20 4 11 0 20 -4 20
-9z m670 0 c0 -5 -9 -7 -20 -4 -11 3 -20 7 -20 9 0 2 9 4 20 4 11 0 20 -4 20
-9z m-1560 -101 l-25 -7 27 -11 c19 -8 26 -16 22 -27 -6 -16 -54 -21 -54 -6 0
5 9 7 20 4 11 -3 20 0 20 6 0 6 -6 11 -14 11 -8 0 -18 5 -21 10 -10 16 4 30
28 29 20 -1 20 -2 -3 -9z m109 -21 c14 -41 14 -41 -8 -27 -15 9 -23 9 -35 -1
-20 -17 -20 -8 -1 29 20 38 30 38 44 -1z m101 -4 c0 -32 -2 -35 -30 -35 -28 0
-30 3 -30 35 0 32 2 35 30 35 28 0 30 -3 30 -35z m89 4 c14 -41 14 -41 -8 -27
-15 9 -23 9 -35 -1 -20 -17 -20 -8 -1 29 20 38 30 38 44 -1z m106 11 c9 -27
-11 -50 -41 -50 -21 0 -24 5 -24 35 0 32 2 35 29 35 21 0 32 -6 36 -20z m106
4 c19 -23 -1 -49 -37 -49 -30 0 -42 20 -30 51 7 19 50 18 67 -2z m174 5 c4 -5
-1 -19 -10 -29 -15 -17 -15 -19 2 -23 10 -3 3 -5 -16 -6 l-34 -1 21 23 c26 27
28 42 7 33 -8 -3 -15 -1 -15 4 0 13 37 13 45 -1z m80 -24 c0 -25 -4 -30 -25
-30 -14 0 -25 6 -24 13 1 6 2 21 3 33 1 15 7 20 24 17 17 -2 22 -10 22 -33z
m146 19 c18 -21 0 -48 -35 -52 -24 -3 -26 0 -26 32 0 31 3 36 24 36 13 0 29
-7 37 -16z m72 9 c-13 -2 -23 -9 -23 -14 0 -5 10 -10 23 -10 l22 -2 -22 -4
c-13 -2 -23 -8 -23 -13 0 -5 10 -11 23 -13 19 -4 18 -4 -5 -6 -26 -1 -28 2
-28 34 0 32 2 35 28 34 23 -2 24 -2 5 -6z m172 -13 c8 -27 -11 -50 -41 -50
-17 0 -25 7 -30 24 -8 34 2 46 36 46 20 0 31 -6 35 -20z m75 11 c-33 -9 -35
-46 -2 -45 12 0 22 -3 22 -8 0 -5 -12 -8 -27 -6 -49 5 -44 69 4 67 l28 -1 -25
-7z m98 -1 c-11 -7 -15 -19 -12 -35 2 -14 0 -25 -6 -25 -5 0 -10 13 -10 29 0
16 -6 32 -12 34 -7 3 3 6 22 6 28 0 31 -2 18 -9z m54 -17 c4 -38 31 -36 40 2
6 29 6 29 5 -5 -2 -30 -5 -35 -27 -35 -19 0 -25 6 -31 33 -3 17 -3 32 2 32 4
0 9 -12 11 -27z m141 0 c7 -36 2 -43 -34 -43 -27 0 -29 3 -29 35 0 32 3 35 29
35 23 0 30 -5 34 -27z m93 16 c3 -6 1 -16 -5 -22 -7 -7 -7 -14 0 -24 14 -17
-3 -17 -19 -1 -10 10 -15 10 -22 -2 -7 -11 -10 -5 -10 23 0 33 3 37 24 37 14
0 28 -5 32 -11z m69 1 l-30 -7 25 -11 c24 -10 24 -11 3 -11 -32 -1 -29 -19 5
-24 25 -4 25 -4 -5 -6 -31 -1 -33 1 -33 34 0 33 2 35 33 34 l32 -1 -30 -8z
m145 -9 c0 -11 -5 -23 -12 -27 -8 -5 -6 -10 8 -15 14 -6 11 -8 -15 -8 l-34 -1
21 23 c26 27 28 42 7 33 -8 -3 -15 -1 -15 4 0 6 9 10 20 10 13 0 20 -7 20 -19z
m95 0 c8 -26 -4 -51 -25 -51 -25 0 -43 25 -35 50 8 26 51 27 60 1z m54 -18
c-2 -35 -2 -35 -6 -8 -3 16 -10 33 -16 37 -8 5 -6 8 6 8 13 0 17 -8 16 -37z
m81 32 c0 -13 -32 -66 -37 -62 -2 3 0 14 6 25 15 27 14 30 -6 35 -11 3 -7 5
10 6 15 0 27 -1 27 -4z m-1500 -64 c0 -6 -4 -12 -8 -15 -5 -3 -9 1 -9 9 0 8 4
15 9 15 4 0 8 -4 8 -9z m-307 -68 c-27 -5 -31 -22 -5 -24 16 -1 16 -2 0 -6
-10 -2 -18 -11 -18 -19 0 -31 -15 -12 -17 21 -1 33 0 35 30 34 24 -1 26 -3 10
-6z m110 -14 c16 -26 1 -49 -32 -49 -33 0 -46 22 -30 51 12 24 47 22 62 -2z
m92 -16 c1 -34 -9 -43 -19 -20 -5 10 -7 10 -12 0 -11 -25 -24 -13 -24 23 0 33
2 35 28 32 23 -3 27 -8 27 -35z m105 22 c20 -24 3 -55 -30 -55 -20 0 -31 6
-35 20 -8 25 10 50 35 50 10 0 23 -7 30 -15z m143 3 c7 -21 -4 -38 -23 -38
-10 0 -21 -8 -23 -17 -3 -10 -5 1 -6 25 -1 38 1 42 23 42 13 0 26 -6 29 -12z
m70 5 c-13 -2 -23 -9 -23 -14 0 -5 10 -10 23 -10 l22 -2 -22 -4 c-13 -2 -23
-8 -23 -13 0 -5 10 -11 23 -13 19 -4 18 -4 -5 -6 -26 -1 -28 2 -28 34 0 32 2
35 28 34 23 -2 24 -2 5 -6z m107 -2 c0 -5 -9 -7 -20 -4 -13 3 -22 -1 -26 -11
-8 -21 13 -47 32 -39 10 4 11 9 4 18 -7 8 -5 12 5 12 22 0 18 -34 -4 -40 -40
-10 -68 32 -39 61 14 14 48 16 48 3z m93 -26 c21 -44 21 -51 2 -35 -8 7 -24
10 -35 7 -11 -3 -20 -4 -20 -3 0 13 24 66 29 66 4 0 15 -16 24 -35z m87 25 c0
-5 -7 -7 -15 -4 -8 4 -15 2 -15 -4 0 -5 9 -12 20 -15 23 -6 27 -32 7 -40 -8
-3 -20 -1 -28 5 -11 8 -11 9 3 4 10 -3 20 -1 24 5 3 6 -3 13 -15 16 -31 8 -26
43 6 43 7 0 13 -4 13 -10z m110 -10 c15 -28 -22 -65 -50 -50 -22 12 -26 40 -8
58 18 18 46 14 58 -8z m173 13 c-7 -2 -13 -19 -13 -35 0 -35 -8 -34 -13 1 -2
12 -10 27 -18 32 -10 6 -4 9 21 8 19 0 29 -3 23 -6z m91 1 c21 -8 20 -51 -1
-63 -24 -13 -53 4 -53 33 0 35 17 44 54 30z m66 -23 c0 -20 6 -31 18 -34 11
-3 8 -5 -8 -6 -23 -1 -26 3 -28 34 -2 19 2 35 8 35 5 0 10 -13 10 -29z m82
-28 c15 -19 28 -6 28 28 0 16 5 29 11 29 13 0 1 -62 -14 -72 -22 -13 -47 12
-46 45 2 27 2 28 6 7 3 -14 9 -31 15 -37z m138 49 c0 -5 -10 -8 -22 -8 -17 1
-24 -5 -26 -21 -3 -22 5 -27 38 -24 13 2 13 0 1 -8 -21 -14 -51 5 -51 33 0 12
3 26 7 29 9 10 53 9 53 -1z m88 -29 c9 -27 8 -28 -23 -28 -30 0 -32 2 -24 24
19 49 30 50 47 4z m-2198 -23 c0 -5 -2 -10 -4 -10 -3 0 -8 5 -11 10 -3 6 -1
10 4 10 6 0 11 -4 11 -10z m410 -119 c0 -13 -8 -17 -35 -17 -19 0 -35 5 -35
11 0 18 8 22 40 23 22 0 30 -4 30 -17z m46 10 c-18 -7 -18 -8 -3 -14 27 -10
20 -27 -10 -26 -25 0 -26 1 -8 9 17 7 17 9 3 9 -10 1 -18 8 -18 16 0 10 9 15
28 14 23 0 24 -2 8 -8z m44 -11 c0 -27 18 -25 23 3 4 18 4 17 6 -6 1 -24 -2
-28 -21 -25 -23 3 -40 48 -19 48 6 0 11 -9 11 -20z m95 9 c4 -6 -2 -13 -14
-16 -12 -3 -21 -9 -21 -14 0 -5 -4 -9 -8 -9 -7 0 -8 31 -3 48 3 7 41 0 46 -9z
m45 1 c-21 -7 -22 -8 -5 -10 l20 -1 -20 -8 c-19 -8 -18 -9 5 -13 25 -5 25 -5
-2 -7 -24 -1 -28 3 -28 24 0 21 5 25 28 24 l27 -1 -25 -8z m82 4 c3 -3 3 -14
1 -25 -4 -15 -8 -17 -14 -8 -6 10 -11 10 -23 0 -14 -12 -16 -10 -16 13 0 21 5
26 23 26 13 0 26 -3 29 -6z m1366 -102 l3 -102 -101 0 -100 0 0 103 0 102 98
0 97 0 3 -103z m-1228 88 c0 -5 -2 -10 -4 -10 -3 0 -8 5 -11 10 -3 6 -1 10 4
10 6 0 11 -4 11 -10z m105 0 c-3 -5 -12 -10 -18 -10 -7 0 -6 4 3 10 19 12 23
12 15 0z m295 0 c0 -5 -5 -10 -11 -10 -5 0 -7 5 -4 10 3 6 8 10 11 10 2 0 4
-4 4 -10z m37 4 c-3 -3 -12 -4 -19 -1 -8 3 -5 6 6 6 11 1 17 -2 13 -5z m440 0
c-3 -3 -12 -4 -19 -1 -8 3 -5 6 6 6 11 1 17 -2 13 -5z m40 0 c-3 -3 -12 -4
-19 -1 -8 3 -5 6 6 6 11 1 17 -2 13 -5z m674 -21 c13 -17 13 -17 -6 -3 -11 8
-22 16 -24 17 -2 2 0 3 6 3 6 0 17 -8 24 -17z m-2061 -20 c0 -7 -3 -12 -7 -12
-17 3 -24 -2 -18 -11 4 -7 13 -7 26 0 16 9 19 7 19 -9 0 -15 -7 -19 -34 -19
-28 0 -34 4 -33 19 1 10 5 19 9 19 4 0 8 6 8 13 0 8 7 14 15 14 8 0 15 -6 15
-14z m1018 -21 l3 -32 -288 2 c-268 3 -288 4 -291 21 -9 48 -11 47 290 45
l283 -3 3 -33z m437 3 l0 -30 -175 0 c-161 0 -175 1 -178 18 -9 46 -3 48 180
45 l173 -3 0 -30z m465 26 c0 -6 -4 -13 -10 -16 -5 -3 -10 1 -10 9 0 9 5 16
10 16 6 0 10 -4 10 -9z m30 -13 c0 7 14 12 35 12 34 0 46 -12 24 -26 -6 -3
-15 -1 -19 6 -5 9 -13 9 -27 1 -21 -11 -33 -6 -33 13 0 6 5 4 10 -4 6 -10 10
-11 10 -2z m-1871 -26 c7 -14 5 -18 -10 -19 -11 -1 -17 2 -14 8 4 5 -2 10 -12
10 -17 1 -17 2 0 6 9 2 14 9 11 15 -4 7 -2 8 4 4 7 -4 16 -15 21 -24z m54 -1
c3 -11 -2 -17 -14 -17 -12 0 -15 4 -9 11 6 7 5 16 -3 24 -9 10 -9 11 5 6 9 -4
18 -14 21 -24z m48 -1 c-3 -3 -9 -9 -13 -14 -5 -5 -8 3 -8 18 0 22 2 25 14 14
8 -7 11 -15 7 -18z m46 -7 c-3 -10 -5 -4 -5 12 0 17 2 24 5 18 2 -7 2 -21 0
-30z m87 21 c3 -8 2 -12 -4 -9 -6 3 -10 10 -10 16 0 14 7 11 14 -7z m-60 -20
c3 -8 2 -12 -4 -9 -6 3 -10 10 -10 16 0 14 7 11 14 -7z m50 -2 c3 -5 -1 -9 -9
-9 -8 0 -15 4 -15 9 0 4 4 8 9 8 6 0 12 -4 15 -8z m1576 -7 c0 6 16 9 38 7 25
-2 39 -9 39 -18 0 -8 -6 -14 -14 -14 -7 0 -13 6 -13 13 0 9 -3 8 -9 -2 -6 -9
-10 -10 -16 -2 -3 7 -15 9 -26 6 -14 -5 -19 -2 -19 12 0 15 2 16 10 3 5 -8 10
-10 10 -5z m180 1 c0 -16 -18 -31 -27 -22 -8 8 5 36 17 36 5 0 10 -6 10 -14z
m-70 -4 c0 -13 -12 -22 -22 -16 -10 6 -1 24 13 24 5 0 9 -4 9 -8z m25 -1 c3
-5 1 -12 -5 -16 -5 -3 -10 1 -10 9 0 18 6 21 15 7z m-1235 -91 c-1 -12 -4 -11
-15 4 -8 10 -12 23 -8 29 7 11 23 -12 23 -33z m1223 33 c-13 -2 -35 -2 -50 0
-16 2 -5 4 22 4 28 0 40 -2 28 -4z m-1203 -13 c0 -5 -2 -10 -4 -10 -3 0 -8 5
-11 10 -3 6 -1 10 4 10 6 0 11 -4 11 -10z m55 -10 c-3 -5 -13 -10 -21 -10 -8
0 -14 5 -14 10 0 6 9 10 21 10 11 0 17 -4 14 -10z m75 3 c0 -5 -14 -8 -30 -9
-17 -1 -30 3 -30 7 0 5 14 9 30 9 17 0 30 -3 30 -7z m509 -9 c2 -2 -12 -4 -33
-4 -22 0 -35 4 -31 10 5 9 52 4 64 -6z m541 -4 c0 -5 -10 -10 -22 -10 -19 0
-20 2 -8 10 19 13 30 13 30 0z m40 0 c0 -5 -4 -10 -10 -10 -5 0 -10 5 -10 10
0 6 5 10 10 10 6 0 10 -4 10 -10z m44 2 c3 -5 -1 -9 -9 -9 -8 0 -15 4 -15 9 0
4 4 8 9 8 6 0 12 -4 15 -8z m-1238 -109 c15 -21 33 -41 38 -46 7 -5 5 -12 -6
-21 -10 -7 -14 -17 -10 -21 4 -5 1 -5 -6 -1 -8 5 -9 13 -2 25 12 24 1 34 -19
18 -14 -10 -14 -10 -3 5 11 14 11 21 -4 44 l-18 27 -28 -33 c-15 -18 -25 -37
-22 -41 2 -4 0 -10 -6 -14 -19 -12 -10 17 18 56 15 21 30 39 33 39 4 0 19 -17
35 -37z m224 19 c14 -12 20 -24 15 -31 -5 -9 -11 -6 -19 11 -14 27 -44 30 -60
5 -9 -14 -7 -21 7 -32 11 -7 26 -11 35 -8 13 5 14 3 6 -7 -16 -16 -51 -4 -65
22 -8 15 -7 24 7 39 22 24 45 24 74 1z m-1456 -7 c-7 -18 -20 -19 -30 -3 -4 6
-3 8 4 4 6 -3 13 -2 17 4 9 15 15 12 9 -5z m28 -20 c3 -14 1 -28 -3 -31 -5 -3
-9 9 -9 25 0 38 6 40 12 6z m1408 -1 c0 -17 -26 -19 -36 -3 -7 12 15 31 28 23
4 -3 8 -12 8 -20z m234 -22 c-6 -4 -14 -14 -17 -22 -4 -10 -6 -8 -6 8 -1 15 5
22 17 22 10 0 13 -3 6 -8z m26 -44 c0 -21 -5 -23 -59 -26 -33 -1 -62 2 -66 8
-4 6 10 10 37 11 24 1 48 2 53 4 6 1 15 3 20 4 6 1 3 6 -5 11 -13 8 -12 10 3
10 11 0 17 -8 17 -22z m-303 6 c-3 -3 -12 -4 -19 -1 -8 3 -5 6 6 6 11 1 17 -2
13 -5z m71 -1 c-10 -2 -28 -2 -40 0 -13 2 -5 4 17 4 22 1 32 -1 23 -4z m-248
-13 c-8 -5 -19 -10 -25 -10 -5 0 -3 5 5 10 8 5 20 10 25 10 6 0 3 -5 -5 -10z
m129 -89 c11 -7 11 -10 0 -17 -7 -4 -14 -3 -17 4 -2 6 -11 8 -20 5 -15 -4 -15
-3 -2 6 18 13 21 13 39 2z m-469 -10 c0 -17 -12 -41 -21 -41 -5 0 -9 11 -9 25
0 16 6 25 15 25 8 0 15 -4 15 -9z m-260 -31 c0 -5 -2 -10 -4 -10 -3 0 -8 5
-11 10 -3 6 -1 10 4 10 6 0 11 -4 11 -10z"/>
<path d="M1428 4263 c7 -3 16 -2 19 1 4 3 -2 6 -13 5 -11 0 -14 -3 -6 -6z"/>
<path d="M1556 4335 c-9 -26 -7 -32 5 -12 6 10 9 21 6 23 -2 3 -7 -2 -11 -11z"/>
<path d="M1730 4270 c0 -6 7 -10 15 -10 8 0 15 2 15 4 0 2 -7 6 -15 10 -8 3
-15 1 -15 -4z"/>
<path d="M2280 4195 c0 -8 -6 -12 -14 -9 -8 3 -16 -3 -19 -16 -4 -16 -2 -20 9
-16 8 3 14 -1 14 -9 0 -22 28 -18 35 5 3 10 1 28 -5 40 -13 24 -20 26 -20 5z"/>
<path d="M2005 4041 c17 -10 32 -14 34 -8 5 12 -19 27 -44 27 -16 0 -15 -3 10
-19z"/>
<path d="M2061 4050 c-7 -4 -12 -13 -10 -19 3 -8 10 -8 23 2 21 15 9 31 -13
17z"/>
<path d="M1965 4030 c3 -5 11 -10 16 -10 6 0 7 5 4 10 -3 6 -11 10 -16 10 -6
0 -7 -4 -4 -10z"/>
<path d="M1937 4003 c-4 -3 -7 -28 -7 -55 0 -37 4 -48 16 -48 9 0 18 9 21 20
3 11 10 20 15 20 7 0 7 4 0 13 -6 6 -10 14 -11 17 0 3 -3 13 -6 23 -7 18 -17
22 -28 10z"/>
<path d="M2236 4002 c-3 -5 -3 -17 -1 -28 2 -10 4 -25 4 -31 1 -18 20 -16 27
2 13 32 -14 83 -30 57z"/>
<path d="M1995 3922 c-8 -21 -7 -22 29 -22 30 0 46 13 46 36 0 11 -70 -2 -75
-14z"/>
<path d="M2125 3930 c3 -5 13 -10 21 -10 8 0 14 5 14 10 0 6 -9 10 -21 10 -11
0 -17 -4 -14 -10z"/>
<path d="M2290 3912 c-13 -14 -23 -52 -14 -52 5 0 36 61 32 65 -2 2 -10 -4
-18 -13z"/>
<path d="M2241 3893 c7 -12 15 -20 18 -17 3 2 -3 12 -13 22 -17 16 -18 16 -5
-5z"/>
<path d="M514 4028 c-4 -6 1 -17 11 -25 22 -15 39 -17 30 -3 -3 6 -1 10 4 10
16 0 13 -28 -4 -37 -13 -7 -11 -13 8 -41 13 -19 31 -32 45 -32 12 0 22 2 22 5
0 18 -57 115 -67 115 -7 0 -13 5 -13 10 0 14 -27 13 -36 -2z"/>
<path d="M475 4020 c-3 -5 -1 -10 4 -10 6 0 11 5 11 10 0 6 -2 10 -4 10 -3 0
-8 -4 -11 -10z"/>
<path d="M405 3999 c-3 -9 -5 -34 -3 -55 3 -34 6 -39 31 -42 24 -3 27 0 27 27
0 16 3 38 6 48 6 14 4 16 -6 6 -10 -9 -17 -7 -31 10 -15 19 -18 20 -24 6z"/>
<path d="M1087 4103 c-24 -10 -39 -24 -43 -39 -22 -87 73 -127 128 -54 16 22
17 30 7 58 -6 18 -19 37 -29 42 -22 12 -16 13 -63 -7z"/>
<path d="M1200 4018 c0 -6 -7 -19 -16 -29 -14 -16 -14 -18 6 -29 26 -14 37 -6
49 38 9 30 8 32 -15 32 -13 0 -24 -5 -24 -12z"/>
<path d="M1000 3963 c8 -4 20 -12 25 -19 6 -9 15 -10 24 -5 21 14 3 31 -32 30
-18 0 -25 -3 -17 -6z"/>
<path d="M1085 3930 c2 -14 7 -16 35 -11 5 0 7 7 4 15 -8 20 -42 16 -39 -4z"/>
<path d="M1165 3929 c-4 -6 -5 -12 -2 -15 2 -3 7 2 10 11 7 17 1 20 -8 4z"/>
<path d="M2460 3993 c0 -28 5 -55 11 -59 8 -4 7 -9 -2 -16 -11 -8 -11 -9 1 -5
21 5 24 56 6 97 l-15 35 -1 -52z"/>
<path d="M2485 4030 c3 -5 8 -10 11 -10 2 0 4 5 4 10 0 6 -5 10 -11 10 -5 0
-7 -4 -4 -10z"/>
<path d="M710 4060 c-13 -8 -12 -10 3 -10 9 0 17 5 17 10 0 12 -1 12 -20 0z"/>
<path d="M701 3965 c-2 -59 0 -65 19 -65 17 0 20 6 20 48 0 35 -5 54 -19 66
-17 16 -18 14 -20 -49z"/>
<path d="M852 3950 c0 -14 2 -19 5 -12 2 6 2 18 0 25 -3 6 -5 1 -5 -13z"/>
<path d="M1720 4035 c0 -8 4 -15 10 -15 5 0 7 7 4 15 -4 8 -8 15 -10 15 -2 0
-4 -7 -4 -15z"/>
<path d="M1786 4035 c4 -8 15 -15 25 -15 10 0 19 7 19 15 0 9 -9 15 -25 15
-18 0 -23 -4 -19 -15z"/>
<path d="M1642 3990 c0 -14 2 -19 5 -12 2 6 2 18 0 25 -3 6 -5 1 -5 -13z"/>
<path d="M1681 3924 c0 -11 3 -14 6 -6 3 7 2 16 -1 19 -3 4 -6 -2 -5 -13z"/>
<path d="M1110 3742 c0 -18 4 -32 8 -32 10 0 10 46 0 56 -5 4 -8 -7 -8 -24z"/>
<path d="M977 3763 c-4 -3 -7 -18 -6 -32 1 -26 1 -25 10 3 9 31 7 41 -4 29z"/>
<path d="M1062 3730 c0 -14 2 -19 5 -12 2 6 2 18 0 25 -3 6 -5 1 -5 -13z"/>
<path d="M1270 3720 c0 -5 5 -10 11 -10 5 0 7 5 4 10 -3 6 -8 10 -11 10 -2 0
-4 -4 -4 -10z"/>
<path d="M1506 3763 c-7 -17 23 -53 44 -53 14 0 32 29 28 46 -5 25 -63 31 -72
7z m60 -28 c-3 -8 -10 -15 -15 -15 -5 0 -4 11 2 25 12 25 23 16 13 -10z"/>
<path d="M1480 3756 c0 -16 20 -44 37 -50 13 -5 11 0 -7 21 -14 15 -26 30 -27
32 -2 2 -3 1 -3 -3z"/>
<path d="M1752 3761 c-6 -16 7 -40 30 -55 24 -15 48 10 46 48 l-1 31 -4 -32
c-5 -37 -32 -52 -50 -27 -7 10 -13 25 -12 33 0 9 5 3 11 -12 12 -34 32 -30 36
6 3 24 0 27 -24 25 -14 -2 -29 -9 -32 -17z"/>
<path d="M1882 3740 c0 -19 2 -27 5 -17 2 9 2 25 0 35 -3 9 -5 1 -5 -18z"/>
<path d="M1946 3723 c-6 -14 -5 -15 5 -6 7 7 10 15 7 18 -3 3 -9 -2 -12 -12z"/>
<path d="M2027 3576 c-9 -24 -9 -28 3 -21 6 3 10 -2 11 -12 0 -10 3 -13 5 -7
3 6 1 21 -4 34 -8 20 -9 21 -15 6z"/>
<path d="M2060 3544 c0 -14 4 -23 10 -19 6 3 10 15 10 26 0 10 -4 19 -10 19
-5 0 -10 -12 -10 -26z"/>
<path d="M2093 3510 c-1 -11 2 -22 8 -25 5 -4 9 3 9 14 0 26 -15 35 -17 11z"/>
<path d="M2025 3492 c12 -9 13 -32 0 -51 -5 -10 -4 -16 3 -19 7 -2 9 -8 6 -13
-11 -18 16 -40 36 -29 22 12 15 54 -7 46 -23 -9 -34 3 -21 23 13 21 5 51 -14
51 -8 0 -9 -3 -3 -8z"/>
<path d="M2060 3486 c0 -8 5 -18 10 -21 6 -3 10 3 10 14 0 12 -4 21 -10 21 -5
0 -10 -6 -10 -14z"/>
<path d="M70 2915 c0 -8 4 -15 10 -15 5 0 7 7 4 15 -4 8 -8 15 -10 15 -2 0 -4
-7 -4 -15z"/>
<path d="M1023 2623 c-24 -9 -14 -33 13 -33 18 0 25 5 22 17 -3 18 -16 24 -35
16z"/>
<path d="M1317 2624 c-16 -16 -6 -34 19 -34 19 0 25 5 22 17 -3 19 -29 29 -41
17z"/>
<path d="M2253 2623 c-26 -10 -13 -33 17 -33 32 0 37 9 18 28 -13 13 -16 13
-35 5z"/>
<path d="M887 2614 c-15 -15 -6 -24 24 -24 20 0 29 4 27 13 -5 14 -40 21 -51
11z"/>
<path d="M874 2569 c-3 -6 0 -18 9 -26 19 -20 57 -8 57 18 0 14 -7 19 -29 19
-17 0 -33 -5 -37 -11z"/>
<path d="M1524 2316 c-9 -37 -1 -70 19 -74 14 -3 17 4 17 47 0 38 -4 51 -15
51 -8 0 -17 -11 -21 -24z"/>
<path d="M1444 2188 c-9 -28 -8 -107 1 -116 11 -12 35 30 35 62 0 40 -10 76
-20 76 -5 0 -12 -10 -16 -22z"/>
<path d="M420 1695 c-23 -24 -23 -25 -3 -25 13 0 23 8 26 22 9 31 4 32 -23 3z"/>
<path d="M770 1680 c0 -5 5 -10 10 -10 6 0 10 5 10 10 0 6 -4 10 -10 10 -5 0
-10 -4 -10 -10z"/>
<path d="M1294 1686 c-8 -34 2 -46 36 -46 34 0 44 12 36 46 -5 19 -13 24 -36
24 -23 0 -31 -5 -36 -24z"/>
<path d="M1562 1693 c-19 -8 -3 -23 25 -23 21 0 24 2 13 15 -13 16 -17 17 -38
8z"/>
<path d="M1645 1687 c-13 -10 -16 -21 -11 -40 5 -22 12 -27 36 -27 24 0 31 5
36 27 5 19 2 30 -11 40 -11 7 -22 13 -25 13 -3 0 -14 -6 -25 -13z"/>
<path d="M1813 1678 c2 -7 14 -13 27 -13 13 0 25 6 28 13 2 8 -7 12 -28 12
-21 0 -30 -4 -27 -12z"/>
<path d="M390 1440 c0 -5 5 -10 10 -10 6 0 10 5 10 10 0 6 -4 10 -10 10 -5 0
-10 -4 -10 -10z"/>
<path d="M390 1400 c0 -5 5 -10 10 -10 6 0 10 5 10 10 0 6 -4 10 -10 10 -5 0
-10 -4 -10 -10z"/>
<path d="M441 1444 c0 -11 3 -14 6 -6 3 7 2 16 -1 19 -3 4 -6 -2 -5 -13z"/>
<path d="M550 1420 c0 -16 5 -30 10 -30 6 0 10 14 10 30 0 17 -4 30 -10 30 -5
0 -10 -13 -10 -30z"/>
<path d="M931 1394 c0 -11 3 -14 6 -6 3 7 2 16 -1 19 -3 4 -6 -2 -5 -13z"/>
<path d="M1252 1420 c0 -19 2 -27 5 -17 2 9 2 25 0 35 -3 9 -5 1 -5 -18z"/>
<path d="M1792 1420 c1 -17 5 -33 9 -36 11 -6 21 30 13 50 -10 26 -23 18 -22
-14z"/>
<path d="M1843 1415 c0 -22 2 -30 4 -17 2 12 2 30 0 40 -3 9 -5 -1 -4 -23z"/>
<path d="M1922 1430 c0 -14 2 -19 5 -12 2 6 2 18 0 25 -3 6 -5 1 -5 -13z"/>
<path d="M2469 1443 c0 -5 -2 -15 -4 -24 -1 -9 1 -23 6 -30 6 -10 9 -2 9 24 0
20 -2 37 -5 37 -3 0 -5 -3 -6 -7z"/>
<path d="M2613 1415 c0 -22 2 -30 4 -17 2 12 2 30 0 40 -3 9 -5 -1 -4 -23z"/>
<path d="M2651 1415 c0 -35 1 -37 10 -17 6 15 5 30 -1 40 -7 13 -9 8 -9 -23z"/>
<path d="M1612 1420 c0 -19 2 -27 5 -17 2 9 2 25 0 35 -3 9 -5 1 -5 -18z"/>
<path d="M1650 1440 c0 -5 5 -10 10 -10 6 0 10 5 10 10 0 6 -4 10 -10 10 -5 0
-10 -4 -10 -10z"/>
<path d="M1650 1400 c0 -5 5 -10 10 -10 6 0 10 5 10 10 0 6 -4 10 -10 10 -5 0
-10 -4 -10 -10z"/>
<path d="M1881 1434 c0 -11 3 -14 6 -6 3 7 2 16 -1 19 -3 4 -6 -2 -5 -13z"/>
<path d="M2283 1415 c0 -22 2 -30 4 -17 2 12 2 30 0 40 -3 9 -5 -1 -4 -23z"/>
<path d="M2321 1434 c0 -11 3 -14 6 -6 3 7 2 16 -1 19 -3 4 -6 -2 -5 -13z"/>
<path d="M2571 1434 c0 -11 3 -14 6 -6 3 7 2 16 -1 19 -3 4 -6 -2 -5 -13z"/>
<path d="M2571 1394 c0 -11 3 -14 6 -6 3 7 2 16 -1 19 -3 4 -6 -2 -5 -13z"/>
<path d="M433 1265 c0 -22 2 -30 4 -17 2 12 2 30 0 40 -3 9 -5 -1 -4 -23z"/>
<path d="M960 1291 c0 -5 7 -14 15 -21 12 -10 15 -10 15 3 0 8 -7 17 -15 21
-8 3 -15 2 -15 -3z"/>
<path d="M1061 1265 c0 -35 1 -37 10 -17 6 15 5 30 -1 40 -7 13 -9 8 -9 -23z"/>
<path d="M1110 1270 c0 -16 5 -30 10 -30 6 0 10 14 10 30 0 17 -4 30 -10 30
-5 0 -10 -13 -10 -30z"/>
<path d="M1206 1286 c3 -9 11 -16 16 -16 13 0 5 23 -10 28 -7 2 -10 -2 -6 -12z"/>
<path d="M1360 1270 c0 -32 14 -40 24 -15 6 18 -2 45 -15 45 -5 0 -9 -13 -9
-30z"/>
<path d="M1290 1245 c0 -8 5 -15 10 -15 6 0 10 7 10 15 0 8 -4 15 -10 15 -5 0
-10 -7 -10 -15z"/>
<path d="M1570 1280 c0 -19 3 -21 12 -12 9 9 9 15 0 24 -9 9 -12 7 -12 -12z"/>
<path d="M1610 1291 c0 -6 5 -13 10 -16 6 -3 10 1 10 9 0 9 -4 16 -10 16 -5 0
-10 -4 -10 -9z"/>
<path d="M1640 1291 c0 -5 6 -14 14 -20 12 -10 13 -8 9 8 -5 21 -23 30 -23 12z"/>
<path d="M1702 1280 c0 -14 2 -19 5 -12 2 6 2 18 0 25 -3 6 -5 1 -5 -13z"/>
<path d="M1780 1291 c0 -6 5 -13 10 -16 6 -3 10 1 10 9 0 9 -4 16 -10 16 -5 0
-10 -4 -10 -9z"/>
<path d="M1610 1245 c0 -8 5 -15 10 -15 6 0 10 7 10 15 0 8 -4 15 -10 15 -5 0
-10 -7 -10 -15z"/>
<path d="M1780 1245 c0 -8 5 -15 10 -15 6 0 10 7 10 15 0 8 -4 15 -10 15 -5 0
-10 -7 -10 -15z"/>
<path d="M2543 1265 c0 -22 2 -30 4 -17 2 12 2 30 0 40 -3 9 -5 -1 -4 -23z"/>
<path d="M2581 1284 c0 -11 3 -14 6 -6 3 7 2 16 -1 19 -3 4 -6 -2 -5 -13z"/>
<path d="M2683 1265 c0 -22 2 -30 4 -17 2 12 2 30 0 40 -3 9 -5 -1 -4 -23z"/>
<path d="M870 1145 c0 -8 5 -15 10 -15 6 0 10 7 10 15 0 8 -4 15 -10 15 -5 0
-10 -7 -10 -15z"/>
<path d="M870 1105 c0 -8 5 -15 10 -15 6 0 10 7 10 15 0 8 -4 15 -10 15 -5 0
-10 -7 -10 -15z"/>
<path d="M1052 1140 c0 -14 2 -19 5 -12 2 6 2 18 0 25 -3 6 -5 1 -5 -13z"/>
<path d="M1346 1151 c-4 -7 -5 -15 -2 -18 9 -9 19 4 14 18 -4 11 -6 11 -12 0z"/>
<path d="M1491 1144 c0 -11 3 -14 6 -6 3 7 2 16 -1 19 -3 4 -6 -2 -5 -13z"/>
<path d="M1550 1122 c0 -5 7 -15 15 -22 8 -7 15 -8 15 -2 0 5 -7 15 -15 22 -8
7 -15 8 -15 2z"/>
<path d="M1346 1111 c-4 -7 -5 -15 -2 -18 9 -9 19 4 14 18 -4 11 -6 11 -12 0z"/>
<path d="M1421 1104 c0 -11 3 -14 6 -6 3 7 2 16 -1 19 -3 4 -6 -2 -5 -13z"/>
<path d="M1740 1126 c0 -20 5 -36 10 -36 6 0 10 13 10 29 0 17 -4 33 -10 36
-6 4 -10 -8 -10 -29z"/>
<path d="M1863 1125 c0 -22 2 -30 4 -17 2 12 2 30 0 40 -3 9 -5 -1 -4 -23z"/>
<path d="M2022 1140 c0 -14 2 -19 5 -12 2 6 2 18 0 25 -3 6 -5 1 -5 -13z"/>
<path d="M2062 1140 c0 -14 2 -19 5 -12 2 6 2 18 0 25 -3 6 -5 1 -5 -13z"/>
<path d="M560 820 c0 -5 5 -10 11 -10 5 0 7 5 4 10 -3 6 -8 10 -11 10 -2 0 -4
-4 -4 -10z"/>
<path d="M650 830 c0 -5 4 -10 9 -10 6 0 13 5 16 10 3 6 -1 10 -9 10 -9 0 -16
-4 -16 -10z"/>
<path d="M650 800 c0 -5 7 -10 15 -10 8 0 15 5 15 10 0 6 -7 10 -15 10 -8 0
-15 -4 -15 -10z"/>
<path d="M750 820 c0 -5 5 -10 11 -10 5 0 7 5 4 10 -3 6 -8 10 -11 10 -2 0 -4
-4 -4 -10z"/>
<path d="M840 815 c0 -28 24 -34 34 -9 8 20 -1 34 -20 34 -8 0 -14 -10 -14
-25z"/>
<path d="M934 825 c-4 -9 -2 -21 4 -27 15 -15 44 -1 40 19 -4 23 -36 29 -44 8z"/>
<path d="M1210 830 c0 -5 5 -10 10 -10 6 0 10 5 10 10 0 6 -4 10 -10 10 -5 0
-10 -4 -10 -10z"/>
<path d="M1210 800 c0 -5 7 -10 15 -10 8 0 15 5 15 10 0 6 -7 10 -15 10 -8 0
-15 -4 -15 -10z"/>
<path d="M1340 815 c0 -20 4 -26 18 -23 9 2 17 12 17 23 0 11 -8 21 -17 23
-14 3 -18 -3 -18 -23z"/>
<path d="M1576 831 c-10 -16 6 -42 23 -39 9 2 17 13 19 26 3 16 -2 22 -17 22
-11 0 -22 -4 -25 -9z"/>
<path d="M1960 830 c0 -5 7 -10 15 -10 8 0 15 5 15 10 0 6 -7 10 -15 10 -8 0
-15 -4 -15 -10z"/>
<path d="M1960 800 c0 -5 7 -10 15 -10 8 0 15 5 15 10 0 6 -7 10 -15 10 -8 0
-15 -4 -15 -10z"/>
<path d="M2050 830 c0 -5 7 -10 15 -10 8 0 15 5 15 10 0 6 -7 10 -15 10 -8 0
-15 -4 -15 -10z"/>
<path d="M2360 815 c0 -16 6 -25 15 -25 9 0 15 9 15 25 0 16 -6 25 -15 25 -9
0 -15 -9 -15 -25z"/>
<path d="M797 704 c-4 -4 -7 -16 -7 -26 0 -14 6 -19 23 -16 14 2 22 10 22 23
0 20 -25 32 -38 19z"/>
<path d="M900 695 c0 -8 7 -15 15 -15 8 0 15 7 15 15 0 8 -7 15 -15 15 -8 0
-15 -7 -15 -15z"/>
<path d="M990 695 c-15 -18 -5 -35 20 -35 10 0 22 5 25 10 7 11 -12 40 -25 40
-4 0 -13 -7 -20 -15z"/>
<path d="M1140 695 c0 -8 7 -15 15 -15 8 0 15 7 15 15 0 8 -7 15 -15 15 -8 0
-15 -7 -15 -15z"/>
<path d="M1426 691 c-4 -7 -5 -15 -2 -18 9 -9 19 4 14 18 -4 11 -6 11 -12 0z"/>
<path d="M1594 696 c-8 -21 3 -36 27 -36 15 0 20 6 17 22 -4 27 -35 37 -44 14z"/>
<path d="M1877 704 c-4 -4 -7 -16 -7 -26 0 -14 6 -19 23 -16 14 2 22 10 22 23
0 20 -25 32 -38 19z"/>
<path d="M2255 689 c-10 -15 3 -25 16 -12 7 7 7 13 1 17 -6 3 -14 1 -17 -5z"/>
<path d="M778 543 c7 -3 16 -2 19 1 4 3 -2 6 -13 5 -11 0 -14 -3 -6 -6z"/>
<path d="M1998 533 c9 -3 10 -9 3 -17 -7 -8 -5 -12 7 -12 25 0 22 32 -3 33
-11 1 -14 -1 -7 -4z"/>
<path d="M2040 530 c0 -5 5 -10 11 -10 5 0 7 5 4 10 -3 6 -8 10 -11 10 -2 0
-4 -4 -4 -10z"/>
<path d="M2070 524 c4 -39 1 -45 -24 -38 -14 3 -33 1 -43 -6 -16 -10 -16 -11
0 -6 9 3 17 1 17 -4 0 -5 6 -7 13 -4 16 6 82 -42 69 -50 -6 -3 -12 1 -16 9 -3
8 -11 15 -18 14 -10 0 -10 -2 0 -6 6 -2 10 -9 6 -14 -3 -5 -1 -9 4 -9 5 0 9
-7 9 -15 0 -8 -4 -15 -9 -15 -4 0 -8 -4 -8 -10 0 -5 7 -10 15 -10 8 0 14 3 14
8 -3 19 2 33 11 27 6 -3 10 -2 10 3 0 6 7 12 15 16 14 5 13 2 0 -24 -13 -25
-13 -30 -1 -30 7 0 19 7 26 15 10 12 10 15 0 15 -9 0 -9 4 -2 13 15 18 -2 44
-20 30 -9 -8 -16 -7 -25 2 -6 7 -9 16 -6 19 4 3 -2 6 -13 7 -10 0 -13 3 -6 6
6 2 12 9 12 14 0 6 -4 7 -10 4 -5 -3 -10 -2 -10 4 0 5 9 13 20 16 11 3 20 13
20 22 0 14 -3 13 -22 -3 -12 -10 -18 -14 -15 -7 4 6 2 15 -4 18 -6 5 -10 0 -9
-11z"/>
<path d="M2134 522 c0 -10 8 -18 18 -18 16 0 16 2 1 18 -9 10 -17 18 -17 18
-1 0 -2 -8 -2 -18z"/>
<path d="M2111 484 c0 -11 3 -14 6 -6 3 7 2 16 -1 19 -3 4 -6 -2 -5 -13z"/>
<path d="M2136 462 c-3 -5 1 -9 9 -9 8 0 12 4 9 9 -3 4 -7 8 -9 8 -2 0 -6 -4
-9 -8z"/>
<path d="M2010 430 c0 -5 5 -10 10 -10 6 0 10 5 10 10 0 6 -4 10 -10 10 -5 0
-10 -4 -10 -10z"/>
<path d="M2040 409 c0 -5 5 -7 10 -4 6 3 10 8 10 11 0 2 -4 4 -10 4 -5 0 -10
-5 -10 -11z"/>
<path d="M1993 376 c0 -11 1 -15 4 -8 4 10 8 10 19 1 12 -10 13 -9 8 4 -9 25
-30 27 -31 3z"/>
<path d="M2040 380 c0 -5 5 -10 10 -10 6 0 10 5 10 10 0 6 -4 10 -10 10 -5 0
-10 -4 -10 -10z"/>
<path d="M2975 4130 c-6 -9 11 -50 21 -50 2 0 0 9 -6 20 -6 11 -8 25 -5 30 3
6 4 10 1 10 -3 0 -8 -4 -11 -10z"/>
<path d="M2965 3930 c-3 -5 -1 -10 4 -10 6 0 11 5 11 10 0 6 -2 10 -4 10 -3 0
-8 -4 -11 -10z"/>
<path d="M2940 3830 c0 -5 5 -10 11 -10 5 0 7 5 4 10 -3 6 -8 10 -11 10 -2 0
-4 -4 -4 -10z"/>
<path d="M2980 3020 c-13 -8 -12 -10 3 -10 9 0 17 5 17 10 0 12 -1 12 -20 0z"/>
<path d="M2920 2850 c0 -13 18 -22 24 -11 3 5 -1 11 -9 15 -8 3 -15 1 -15 -4z"/>
<path d="M45 1940 c3 -5 8 -10 11 -10 2 0 4 5 4 10 0 6 -5 10 -11 10 -5 0 -7
-4 -4 -10z"/>
<path d="M30 1756 c0 -2 7 -9 15 -16 9 -7 15 -8 15 -2 0 5 -7 12 -15 16 -8 3
-15 4 -15 2z"/>
<path d="M2950 1699 c0 -5 5 -7 10 -4 6 3 10 8 10 11 0 2 -4 4 -10 4 -5 0 -10
-5 -10 -11z"/>
<path d="M30 560 c0 -5 7 -7 15 -4 8 4 15 8 15 10 0 2 -7 4 -15 4 -8 0 -15 -4
-15 -10z"/>
<path d="M2920 396 c0 -8 4 -17 9 -20 5 -4 7 3 4 14 -6 23 -13 26 -13 6z"/>
<path d="M2098 23 c-3 -12 0 -20 8 -20 16 0 17 6 5 25 -6 11 -9 9 -13 -5z"/>
</g>
</svg>
