<?xml version="1.0" standalone="no"?>
<!DOCTYPE svg PUBLIC "-//W3C//DTD SVG 20010904//EN"
 "http://www.w3.org/TR/2001/REC-SVG-20010904/DTD/svg10.dtd">
<svg version="1.0" xmlns="http://www.w3.org/2000/svg"
 width="60pt" height="60pt" viewBox="0 0 338.000000 338.000000"
 preserveAspectRatio="xMidYMid meet">

<g transform="translate(0.000000,338.000000) scale(0.100000,-0.100000)"
fill="#F90716" stroke="none">
<path d="M1750 2812 c0 -133 -25 -241 -71 -312 -28 -44 -42 -73 -30 -66 7 5 9
1 5 -8 -3 -9 -10 -13 -15 -10 -5 3 -6 -2 -3 -10 5 -13 -60 -126 -73 -126 -2 0
-1 6 3 13 4 6 -2 3 -14 -7 -26 -23 -28 -28 -5 -19 12 5 14 3 8 -8 -16 -27 -48
-58 -56 -53 -4 2 -13 -4 -19 -15 -9 -17 -8 -20 6 -14 34 13 -25 -66 -215 -287
-162 -189 -192 -220 -212 -220 -9 0 -22 -7 -29 -15 -15 -18 1 -20 19 -2 11 10
12 7 6 -13 -11 -41 -40 -75 -71 -81 -16 -4 -24 -7 -17 -8 6 0 14 -11 16 -23 4
-22 4 -22 6 -2 0 12 8 24 16 28 18 6 19 2 4 -26 -8 -15 -8 -19 1 -13 6 4 15
18 20 31 5 13 14 24 20 24 13 0 13 -17 -1 -26 -6 -3 -9 -15 -6 -25 3 -11 1
-19 -4 -19 -5 0 -9 -4 -9 -10 0 -5 6 -9 13 -7 14 2 11 -116 -4 -121 -5 -2 -9
-8 -9 -13 0 -6 4 -7 10 -4 6 4 8 -5 5 -22 -14 -85 -47 -252 -55 -278 -5 -16
-21 -68 -36 -115 -30 -98 -117 -280 -145 -306 -19 -17 -18 -19 58 -46 65 -23
237 -58 287 -58 8 0 17 13 21 29 3 16 12 35 20 41 19 16 109 24 132 12 19 -11
21 -7 28 71 11 102 11 190 2 287 -4 41 -9 107 -13 146 -5 61 21 441 32 453 1
2 14 -6 29 -17 19 -15 37 -19 75 -17 27 2 52 -1 56 -6 3 -5 14 -5 25 2 19 10
20 9 8 -13 -11 -21 -11 -22 5 -8 16 13 20 12 30 -1 16 -23 56 -34 56 -17 0 8
-6 20 -12 28 -11 12 -10 12 3 2 9 -6 18 -9 22 -6 3 3 4 -32 2 -78 -3 -61 -2
-72 4 -43 5 24 8 -77 7 -245 -1 -322 6 -378 73 -548 l36 -93 60 8 c33 4 126 8
208 8 81 0 147 2 147 6 0 3 -4 9 -10 15 -30 30 -114 312 -145 489 -19 110 -33
495 -17 480 6 -5 12 -34 13 -63 2 -29 6 -55 10 -58 4 -2 5 27 2 66 -4 49 -2
70 6 70 6 0 11 -4 11 -8 0 -10 53 -7 70 3 18 11 51 -25 44 -49 -6 -20 -5 -20
12 -5 28 24 48 34 40 21 -4 -7 -3 -12 3 -12 5 0 13 5 16 11 14 21 32 -39 38
-126 18 -255 95 -500 213 -679 18 -29 11 -50 -24 -62 -22 -9 -17 -10 28 -6 32
2 66 12 82 23 15 10 31 19 35 19 4 1 21 11 37 24 l29 24 -22 31 c-32 45 -106
206 -126 276 -27 96 -53 271 -61 410 -7 130 -7 130 -38 156 l-31 27 -22 -24
c-24 -26 -39 -29 -63 -14 -11 7 -8 10 16 10 36 0 64 26 65 61 1 23 1 23 9 -4
11 -36 28 -57 48 -57 8 0 21 -8 29 -17 13 -16 13 -16 7 7 -23 86 -46 126 -91
160 -121 90 -292 290 -458 536 -142 211 -191 324 -202 473 -5 71 -4 85 10 93
10 5 16 20 16 36 -2 24 -2 24 -6 5 -6 -34 -23 -28 -23 8 0 17 4 28 10 24 6 -3
10 0 10 8 0 8 -7 17 -15 21 -13 5 -15 -12 -15 -112z m-36 -427 c-2 -30 0 -34
13 -24 12 11 13 2 8 -67 -6 -87 -11 -152 -20 -289 -4 -49 -9 -106 -11 -125 -2
-19 -7 -93 -11 -163 -7 -141 -21 -177 -69 -177 -37 0 -84 51 -85 92 -1 30 -2
29 -13 -15 -12 -50 -36 -77 -68 -77 -33 0 -75 28 -82 55 -11 42 21 140 91 279
86 172 192 401 208 451 16 50 34 95 37 95 2 0 3 -16 2 -35z m150 -81 c3 -8 2
-12 -4 -9 -6 3 -10 10 -10 16 0 14 7 11 14 -7z m115 -190 c30 -58 60 -108 67
-111 7 -3 67 -79 134 -170 107 -147 120 -169 120 -205 0 -25 -7 -49 -17 -60
-18 -20 -73 -24 -91 -6 -14 14 -16 42 -2 33 6 -3 10 3 10 14 0 12 -4 21 -10
21 -5 0 -10 7 -10 17 0 27 -13 6 -17 -28 -4 -44 -20 -68 -49 -75 -34 -9 -77
23 -85 62 -5 21 -7 23 -8 8 -1 -29 -39 -74 -59 -73 -14 1 -14 2 1 6 11 3 29
28 42 57 l23 53 -18 79 c-19 82 -57 216 -83 294 -31 92 -37 123 -26 137 8 9 7
14 -5 19 -10 4 -15 16 -14 34 2 26 4 27 23 14 11 -7 45 -61 74 -120z m-629
-535 c-20 -48 -89 -53 -121 -9 -23 32 -35 80 -20 80 6 0 11 -13 11 -30 0 -38
31 -70 69 -70 37 0 60 31 62 80 2 32 2 32 6 6 3 -15 -1 -41 -7 -57z m-235 -5
c14 -9 34 -13 47 -10 l23 6 -24 -12 c-18 -10 -28 -9 -50 3 -21 12 -26 22 -27
54 -1 33 -1 34 3 7 3 -20 13 -38 28 -48z m780 -12 c-6 -6 -35 61 -35 80 0 7 9
-7 20 -31 11 -24 18 -46 15 -49z m-146 -1 c34 -19 68 -13 90 15 12 15 21 22
21 15 0 -20 -39 -51 -66 -51 -45 0 -84 28 -83 60 0 9 4 6 9 -7 5 -12 18 -26
29 -32z m186 -19 c-3 -3 -11 0 -18 7 -9 10 -8 11 6 5 10 -3 15 -9 12 -12z
m112 -14 c-3 -8 -6 -5 -6 6 -1 11 2 17 5 13 3 -3 4 -12 1 -19z m-790 -720 c-3
-7 -5 -2 -5 12 0 14 2 19 5 13 2 -7 2 -19 0 -25z m-10 -50 c-3 -8 -6 -5 -6 6
-1 11 2 17 5 13 3 -3 4 -12 1 -19z m-10 -50 c-3 -8 -6 -5 -6 6 -1 11 2 17 5
13 3 -3 4 -12 1 -19z"/>
<path d="M1933 2154 c0 -17 2 -22 7 -13 5 6 6 18 3 26 -8 19 -10 16 -10 -13z"/>
<path d="M2035 2910 c-4 -6 -1 -9 7 -8 8 2 12 -6 10 -22 -2 -22 -1 -23 9 -7
11 20 6 47 -10 47 -5 0 -13 -5 -16 -10z"/>
<path d="M1916 2894 c-9 -24 -7 -56 3 -49 5 3 9 19 9 35 -1 34 -3 37 -12 14z"/>
<path d="M1833 2813 c9 -2 23 -2 30 0 6 3 -1 5 -18 5 -16 0 -22 -2 -12 -5z"/>
<path d="M1424 2118 l-19 -23 23 19 c21 18 27 26 19 26 -2 0 -12 -10 -23 -22z"/>
<path d="M995 1670 c3 -5 11 -10 16 -10 6 0 7 5 4 10 -3 6 -11 10 -16 10 -6 0
-7 -4 -4 -10z"/>
<path d="M2112 1160 c0 -14 2 -19 5 -12 2 6 2 18 0 25 -3 6 -5 1 -5 -13z"/>
<path d="M1401 883 c57 -103 129 -246 129 -259 0 -7 -29 -27 -65 -45 -36 -17
-65 -33 -65 -34 0 -2 9 -5 20 -8 12 -3 18 -1 14 5 -5 7 10 9 45 6 45 -5 70 4
40 14 -8 3 -6 10 5 21 21 20 43 12 25 -9 -14 -17 -5 -18 23 -3 20 11 21 9 16
-39 -3 -28 -2 -56 2 -62 7 -12 16 62 24 203 l5 72 -11 -77 c-7 -51 -15 -78
-23 -78 -19 0 -45 45 -40 69 2 12 0 21 -4 21 -5 0 -6 11 -3 25 3 16 0 25 -8
25 -7 0 -10 -7 -6 -15 3 -8 3 -15 1 -15 -9 0 -59 105 -62 129 -1 13 -7 29 -14
35 -9 8 -10 8 -5 -1 4 -7 3 -13 -2 -13 -5 0 -20 20 -33 45 -13 25 -28 45 -32
45 -5 0 6 -26 24 -57z"/>
<path d="M1624 876 c-3 -8 -4 -27 -2 -43 3 -23 5 -20 9 15 5 43 2 53 -7 28z"/>
<path d="M1382 795 c0 -16 2 -22 5 -12 2 9 2 23 0 30 -3 6 -5 -1 -5 -18z"/>
<path d="M2818 699 c2 -16 8 -29 13 -29 14 0 10 47 -4 53 -10 4 -12 -3 -9 -24z"/>
<path d="M1372 700 c0 -14 2 -19 5 -12 2 6 2 18 0 25 -3 6 -5 1 -5 -13z"/>
<path d="M556 654 c-10 -14 -16 -32 -14 -39 2 -8 11 3 20 25 19 46 17 51 -6
14z"/>
<path d="M2666 622 c-3 -6 -2 -21 3 -33 l8 -24 8 24 c7 24 -8 51 -19 33z"/>
<path d="M1361 583 c-1 -12 4 -25 9 -28 12 -7 12 2 0 30 -8 19 -9 19 -9 -2z"/>
<path d="M1668 553 c7 -3 16 -2 19 1 4 3 -2 6 -13 5 -11 0 -14 -3 -6 -6z"/>
<path d="M2232 540 c0 -14 2 -19 5 -12 2 6 2 18 0 25 -3 6 -5 1 -5 -13z"/>
<path d="M1355 520 c-3 -6 1 -7 9 -4 18 7 21 14 7 14 -6 0 -13 -4 -16 -10z"/>
<path d="M2248 475 c2 -14 8 -25 12 -25 4 0 8 11 8 25 0 14 -6 25 -13 25 -8 0
-10 -9 -7 -25z"/>
</g>
</svg>
