<?xml version="1.0" standalone="no"?>
<!DOCTYPE svg PUBLIC "-//W3C//DTD SVG 20010904//EN"
 "http://www.w3.org/TR/2001/REC-SVG-20010904/DTD/svg10.dtd">
<svg version="1.0" xmlns="http://www.w3.org/2000/svg"
 width="15pt" height="15pt" viewBox="0 0 500.000000 500.000000"
 preserveAspectRatio="xMidYMid meet">

<g transform="translate(0.000000,500.000000) scale(0.100000,-0.100000)"
fill="#000000" stroke="none">
<path d="M2290 4213 c-310 -51 -553 -143 -755 -286 -22 -15 -57 -39 -78 -53
-51 -34 -300 -283 -336 -337 -9 -14 -29 -44 -46 -67 -122 -175 -211 -385 -262
-620 -21 -93 -27 -151 -30 -305 -5 -194 0 -258 35 -420 46 -210 138 -424 257
-595 17 -23 37 -53 46 -67 9 -13 23 -31 32 -41 9 -9 42 -46 74 -82 61 -69 182
-182 223 -208 14 -9 27 -19 30 -23 19 -23 167 -110 280 -165 167 -79 242 -104
420 -139 116 -22 162 -26 322 -26 163 -1 203 3 320 26 417 84 755 287 1019
611 92 113 150 204 212 335 70 146 108 261 142 429 24 119 27 157 27 320 -1
158 -4 205 -27 320 -23 116 -55 230 -85 305 -19 45 -112 232 -133 266 -33 55
-79 123 -86 129 -4 3 -14 16 -23 30 -40 62 -190 214 -303 306 -43 36 -47 39
-95 70 -231 153 -460 240 -745 285 -51 8 -390 10 -435 2z m415 -79 c209 -25
433 -97 593 -190 114 -65 179 -114 153 -114 -6 0 -42 -24 -81 -52 -38 -29 -86
-64 -105 -78 -20 -14 -51 -36 -70 -50 -134 -100 -239 -176 -248 -179 -5 -2
-17 -10 -26 -18 -21 -18 -150 -114 -241 -178 -39 -27 -93 -68 -121 -89 l-51
-39 -31 18 c-28 16 -45 28 -102 73 -5 4 -40 28 -76 53 -36 25 -72 51 -80 57
-8 7 -39 30 -69 52 -30 22 -64 47 -75 55 -18 14 -122 89 -200 145 -109 78
-183 131 -202 147 -12 10 -45 34 -72 53 -28 19 -51 38 -51 42 0 21 245 155
370 201 248 93 514 124 785 91z m-1138 -466 c28 -84 88 -268 133 -408 45 -140
90 -277 100 -305 10 -27 26 -77 36 -110 9 -33 21 -64 25 -70 4 -5 10 -26 14
-46 6 -34 4 -38 -35 -65 -54 -38 -140 -100 -165 -119 -30 -24 -90 -67 -130
-95 -20 -14 -51 -36 -69 -50 -19 -14 -47 -34 -62 -45 -15 -11 -58 -42 -96 -70
-37 -27 -100 -74 -140 -103 -40 -29 -100 -73 -133 -98 -72 -54 -112 -77 -118
-66 -31 51 -77 337 -77 477 0 181 47 431 114 605 32 84 108 230 154 299 21 29
44 64 53 77 53 81 313 343 340 344 3 0 29 -69 56 -152z m1982 105 c114 -96
287 -288 336 -373 5 -10 26 -45 45 -77 178 -300 251 -669 205 -1043 -13 -102
-47 -254 -60 -268 -4 -4 -48 18 -55 27 -3 4 -36 29 -75 56 -38 27 -74 53 -80
57 -21 17 -167 124 -200 148 -20 14 -51 36 -70 50 -19 14 -50 36 -70 50 -20
14 -42 30 -48 35 -7 6 -41 31 -77 55 -35 25 -72 52 -81 60 -9 8 -40 31 -69 50
-29 19 -60 43 -70 52 -10 9 -28 22 -40 28 -24 13 -23 28 9 115 32 85 62 178
72 220 5 22 14 51 21 65 19 45 26 64 33 95 3 17 14 53 24 80 11 28 45 131 76
230 32 99 66 203 76 230 10 28 21 62 25 78 3 15 9 27 12 27 2 0 30 -21 61 -47z
m-1870 -118 c19 -18 143 -111 241 -180 39 -27 86 -61 104 -75 19 -14 47 -34
62 -45 15 -11 47 -35 71 -52 24 -18 45 -33 48 -33 3 0 13 -7 23 -16 21 -19
163 -124 189 -140 15 -10 16 -13 4 -28 -7 -9 -17 -16 -22 -16 -5 0 -17 -7 -26
-16 -19 -16 -150 -113 -209 -154 -20 -14 -51 -37 -69 -52 -18 -16 -36 -28 -40
-28 -3 0 -26 -16 -49 -35 -24 -19 -48 -35 -54 -35 -6 0 -16 19 -22 43 -6 23
-19 65 -29 92 -10 28 -33 97 -51 155 -18 58 -40 128 -50 155 -10 28 -21 61
-25 75 -4 14 -15 48 -25 75 -10 28 -32 97 -50 155 -17 58 -38 120 -45 138 -16
35 -4 44 24 17z m1667 -22 c-8 -21 -51 -153 -96 -293 -45 -140 -90 -277 -100
-305 -10 -27 -35 -103 -55 -167 -20 -65 -39 -118 -41 -118 -7 0 -55 31 -89 57
-16 13 -34 27 -40 31 -5 4 -39 28 -75 52 -35 25 -72 52 -81 60 -9 8 -40 31
-69 50 -28 19 -59 42 -68 51 -10 9 -27 22 -39 28 -31 16 -29 25 10 50 17 11
48 32 67 46 19 14 49 35 66 48 17 12 68 49 114 82 45 33 89 65 98 70 8 6 23
17 33 25 9 8 51 40 93 70 42 30 108 79 146 108 39 28 74 52 78 52 5 0 17 9 27
20 28 31 36 24 21 -17z m-810 -606 c60 -42 219 -157 239 -172 45 -35 162 -121
185 -137 14 -9 35 -25 48 -36 l23 -18 -81 -249 c-45 -138 -92 -277 -104 -310
l-22 -60 -324 0 -324 0 -46 140 c-77 229 -148 449 -152 467 -4 20 -12 13 342
269 69 50 136 99 150 109 31 23 28 23 66 -3z m-614 -448 c5 -19 17 -56 27 -84
10 -27 33 -97 51 -155 18 -58 41 -127 51 -155 18 -50 39 -124 39 -138 0 -4
-216 -7 -480 -7 -264 0 -480 4 -480 8 0 5 21 24 47 43 26 19 75 55 110 82 35
26 66 47 69 47 2 0 35 24 74 53 38 28 102 76 142 105 40 29 119 87 175 127 56
41 106 75 110 75 5 0 14 9 21 21 18 28 34 20 44 -22z m1212 16 c17 -14 36 -29
41 -33 6 -4 40 -28 76 -53 36 -25 72 -51 80 -57 8 -7 39 -30 69 -52 55 -40 67
-49 125 -93 17 -13 43 -32 59 -42 16 -11 43 -30 60 -43 17 -12 47 -33 66 -47
19 -14 51 -36 70 -50 19 -14 50 -35 68 -46 17 -12 32 -25 32 -30 0 -12 -957
-12 -965 0 -5 9 85 298 136 436 10 28 23 69 29 93 6 23 13 42 16 42 4 0 20
-11 38 -25z m-965 -775 c27 -80 74 -226 106 -325 31 -99 65 -202 75 -230 30
-84 131 -400 130 -407 -1 -23 -276 12 -423 53 -145 42 -284 100 -387 164 -30
19 -62 37 -70 41 -33 16 -184 139 -253 207 -111 110 -219 248 -276 353 -12 22
-25 46 -30 54 -23 39 -101 221 -101 238 0 1 266 1 591 0 l591 -3 47 -145z
m626 128 c-24 -78 -79 -249 -92 -283 -9 -22 -21 -62 -28 -90 -13 -49 -39 -129
-75 -230 -10 -27 -36 -106 -58 -175 -46 -143 -39 -145 -92 30 -18 58 -41 128
-51 155 -10 28 -20 61 -24 75 -4 14 -15 48 -25 75 -10 28 -32 97 -50 155 -18
58 -42 128 -52 157 -11 28 -23 67 -28 85 -4 18 -11 41 -15 51 -7 16 11 17 295
17 l301 0 -6 -22z m1265 15 c0 -14 -44 -119 -81 -193 -66 -133 -77 -152 -187
-298 -23 -31 -233 -242 -263 -264 -154 -114 -165 -121 -299 -188 -167 -83
-330 -132 -510 -155 -69 -8 -141 -15 -162 -15 -37 0 -37 1 -31 33 3 17 9 37
13 42 4 6 15 37 24 70 10 33 26 83 36 110 10 28 21 61 25 75 4 14 15 48 25 75
10 28 32 97 50 155 17 58 40 128 50 155 10 28 44 130 75 228 l58 177 588 0
c324 0 589 -3 589 -7z"/>
</g>
</svg>
