<?xml version="1.0" standalone="no"?>
<!DOCTYPE svg PUBLIC "-//W3C//DTD SVG 20010904//EN"
 "http://www.w3.org/TR/2001/REC-SVG-20010904/DTD/svg10.dtd">
<svg version="1.0" xmlns="http://www.w3.org/2000/svg"
 width="60pt" height="60pt" viewBox="0 0 500.000000 500.000000"
 preserveAspectRatio="xMidYMid meet">

<g transform="translate(0.000000,500.000000) scale(0.100000,-0.100000)"
fill="#F90716" stroke="none">
<path d="M2942 4882 c-6 -33 -8 -72 -3 -92 6 -29 8 -19 13 55 4 50 5 91 4 92
-1 1 -7 -23 -14 -55z"/>
<path d="M2911 4746 c-6 -25 -11 -55 -10 -68 1 -23 1 -23 9 2 4 14 9 18 10 10
2 -20 18 18 19 45 1 17 -1 18 -10 5 -8 -11 -9 -7 -4 18 10 48 -1 39 -14 -12z"/>
<path d="M2688 4727 c-5 -10 -8 -46 -8 -80 0 -34 -7 -129 -15 -212 -9 -82 -15
-188 -13 -235 1 -47 0 -90 -4 -96 -7 -10 -16 -135 -38 -489 -8 -130 -25 -348
-37 -473 -3 -40 -8 -52 -18 -48 -8 3 -17 1 -20 -4 -4 -6 -30 -10 -60 -10 -49
0 -54 2 -64 28 l-11 27 4 -30 c3 -16 8 -42 12 -57 9 -40 -8 -34 -28 10 -9 20
-26 60 -39 87 -12 28 -30 73 -39 100 -28 78 -61 147 -68 141 -3 -4 6 -32 21
-64 21 -48 87 -241 87 -257 0 -18 -41 2 -79 38 -45 43 -46 37 -5 -19 19 -26
20 -31 6 -31 -9 0 -22 4 -28 8 -8 6 -10 2 -8 -13 3 -17 -5 -28 -32 -45 -19
-13 -47 -26 -62 -29 -15 -4 -33 -11 -40 -17 -9 -7 -19 -4 -35 11 -12 11 -37
34 -56 51 -19 18 -48 41 -65 52 -17 11 2 -11 43 -49 41 -39 91 -78 112 -88 25
-11 39 -24 39 -35 0 -23 -2 -22 -178 66 -74 37 -136 65 -138 62 -5 -4 44 -32
149 -85 26 -14 47 -29 47 -35 0 -13 -60 -110 -73 -119 -6 -3 -12 -17 -14 -29
-2 -13 -9 -30 -16 -38 -23 -28 -39 -69 -33 -80 4 -6 17 -11 30 -11 26 0 63
-24 50 -32 -5 -3 -56 3 -114 13 -119 21 -143 23 -136 10 3 -5 35 -12 71 -16
65 -7 66 -7 61 -33 -3 -15 -10 -67 -16 -116 -6 -49 -13 -93 -16 -98 -3 -4 -21
-8 -40 -8 -19 0 -34 -4 -34 -9 0 -8 86 -7 208 3 29 2 42 0 42 -9 0 -12 -124
-33 -216 -36 -30 -2 -33 -3 -11 -6 31 -5 34 -15 11 -37 -12 -12 -37 -16 -102
-16 -48 0 -125 -2 -172 -5 -57 -3 -74 -1 -50 4 l35 8 -46 2 c-32 1 -51 -4 -60
-15 -12 -15 5 -15 199 -9 232 8 212 13 216 -45 1 -11 10 -14 34 -12 17 2 32
-1 32 -6 0 -10 -59 -18 -175 -25 -30 -2 -16 -4 34 -5 l84 -2 -7 -78 -6 -79 87
14 c132 20 127 20 131 -2 2 -11 1 -17 -2 -14 -4 3 -54 -4 -113 -15 -83 -17
-107 -25 -109 -39 -1 -9 2 -17 7 -17 29 0 51 -124 27 -148 -9 -9 -7 -12 10
-12 16 0 22 -6 22 -21 0 -18 4 -20 25 -15 40 10 29 -10 -17 -33 -24 -12 -32
-19 -19 -15 21 6 23 4 17 -17 -15 -53 -15 -61 -2 -56 15 6 46 -22 46 -41 0
-18 6 -15 70 28 32 22 64 40 70 40 29 0 -2 -39 -69 -87 -53 -38 -68 -53 -53
-53 17 0 22 -6 22 -24 0 -13 4 -26 9 -28 4 -1 11 -14 15 -28 l7 -25 -16 25
c-10 15 -14 17 -11 7 3 -10 6 -23 6 -28 0 -5 9 -9 20 -9 30 0 26 -36 -5 -44
-19 -5 -35 -26 -66 -87 -49 -98 -159 -256 -231 -330 -7 -8 -31 -36 -53 -63
l-40 -49 1 -151 c1 -120 5 -165 22 -221 30 -104 38 -121 69 -143 24 -17 238
-122 249 -122 2 0 23 -9 47 -19 132 -60 348 -114 454 -115 143 -1 223 6 223
20 0 8 9 14 21 14 13 0 18 -4 13 -11 -5 -9 1 -10 22 -4 114 29 179 38 325 44
161 6 167 7 207 35 35 24 93 90 63 72 -6 -4 -20 -1 -32 7 -11 8 -16 17 -11 21
5 3 8 21 7 41 0 24 4 35 13 35 12 0 12 3 2 15 -9 11 -8 18 7 33 28 30 70 36
83 13 7 -13 7 -22 0 -26 -5 -3 -10 -1 -10 4 0 16 -17 13 -23 -3 -4 -9 2 -12
21 -10 51 5 86 84 103 230 18 164 -29 353 -101 404 -16 12 -30 27 -30 34 0 22
-25 37 -38 24 -9 -9 -12 -9 -12 0 0 7 -9 22 -20 34 -10 11 -22 34 -25 49 -4
16 -11 27 -15 24 -5 -3 -7 3 -5 14 2 11 1 29 -2 41 -5 17 -8 19 -15 8 -7 -9
-8 -4 -3 15 4 21 2 27 -6 21 -8 -5 -10 4 -7 29 3 29 1 34 -9 25 -7 -6 -14 -25
-14 -42 -1 -29 -2 -29 -8 -6 -5 22 -28 33 -41 20 -3 -3 -32 -22 -65 -43 -58
-37 -49 -26 28 37 19 16 41 41 48 55 7 17 13 21 16 13 4 -10 9 -8 20 7 13 19
16 20 36 6 26 -18 37 -19 37 -3 0 6 -3 8 -6 5 -4 -4 -15 2 -24 13 -15 17 -16
25 -6 45 14 32 33 31 131 -4 80 -28 165 -48 165 -37 0 10 -60 37 -78 34 -9 -2
-16 2 -15 8 1 6 -36 23 -82 38 -70 23 -84 31 -82 47 2 10 6 22 10 25 4 4 7 12
7 18 0 6 -5 4 -10 -4 -13 -20 -13 -4 0 19 12 24 45 38 36 16 -3 -9 0 -15 8
-15 9 0 11 19 8 80 -4 68 -2 80 11 80 9 0 18 -4 22 -9 3 -6 18 -16 33 -24 37
-19 74 -40 92 -53 21 -16 130 -74 138 -74 4 0 -10 11 -30 25 -20 14 -40 25
-43 25 -3 0 -18 8 -33 19 -15 10 -60 37 -99 61 -40 23 -73 46 -73 51 0 5 -3 8
-7 7 -18 -5 -53 15 -53 29 0 15 3 14 45 -3 9 -4 39 48 40 68 0 16 16 20 30 8
14 -12 176 -62 182 -56 2 2 -30 16 -69 31 -40 16 -95 38 -123 50 -27 12 -81
32 -120 44 -38 12 -78 26 -87 32 -10 5 -24 9 -32 9 -18 0 -29 27 -13 33 7 2
19 0 27 -5 18 -10 178 -68 188 -68 4 0 8 44 10 97 1 54 6 101 11 106 5 5 61
-9 132 -33 158 -54 185 -62 173 -51 -12 10 -103 44 -179 66 -33 10 -64 21 -70
25 -5 4 -34 15 -62 24 -29 10 -53 21 -53 26 0 14 32 21 46 9 8 -6 21 -8 31 -5
15 6 14 8 -5 22 -12 8 -22 26 -22 39 0 13 -5 27 -10 30 -8 5 -7 11 1 21 6 8
10 16 8 18 -2 2 -52 11 -111 21 -92 15 -108 21 -108 37 0 21 7 22 85 3 33 -8
72 -15 86 -15 26 0 27 1 16 41 -7 31 -7 47 1 60 7 10 12 27 12 38 0 17 10 20
78 25 157 12 297 27 302 33 3 3 -28 3 -67 -1 -40 -3 -140 -9 -223 -13 -136 -5
-150 -5 -150 10 0 20 16 23 23 5 2 -7 8 -9 13 -5 14 13 -12 42 -35 39 -13 -2
-21 2 -21 11 0 8 8 14 18 13 9 0 16 5 14 12 -1 8 2 11 8 7 5 -3 10 -14 11 -23
1 -10 4 -7 8 8 6 20 3 26 -12 30 -11 3 -23 12 -27 20 -39 79 -39 81 19 100 23
7 41 19 41 27 0 14 -22 12 -85 -8 -23 -8 -33 -6 -48 10 -19 19 -19 19 25 45
25 14 49 26 54 26 5 0 32 11 59 25 28 13 56 25 63 25 26 0 10 15 -17 15 -16 0
-27 -3 -25 -6 2 -4 -14 -14 -36 -23 -50 -20 -64 -20 -30 -1 14 8 19 14 12 15
-7 0 -24 -12 -37 -26 -15 -16 -31 -24 -40 -20 -11 4 -14 2 -9 -6 5 -8 2 -9
-10 -5 -9 4 -15 3 -12 -1 3 -5 -13 -13 -35 -19 -21 -5 -39 -7 -39 -2 0 4 6 9
12 11 8 3 -4 23 -30 54 -32 35 -42 55 -39 72 4 20 1 23 -22 20 -38 -4 -132 22
-138 38 -3 8 6 25 19 37 13 12 51 54 84 92 58 69 255 294 284 325 20 22 171
188 240 265 30 33 80 90 110 125 30 34 77 85 104 112 37 38 47 55 44 73 -3 15
-1 22 6 19 7 -3 22 19 33 48 l22 53 -22 -29 c-12 -16 -35 -43 -52 -61 -16 -17
-52 -58 -80 -90 -27 -32 -95 -110 -150 -174 -55 -63 -99 -118 -98 -123 2 -4
-1 -7 -6 -5 -4 1 -29 -22 -55 -51 -27 -28 -51 -50 -56 -47 -4 2 -6 -7 -4 -21
1 -14 0 -23 -4 -20 -3 4 -22 -8 -41 -26 -19 -18 -29 -24 -21 -13 14 19 14 19
-3 6 -9 -7 -16 -21 -15 -30 2 -9 -2 -15 -8 -14 -17 3 -76 -75 -68 -89 4 -6 3
-8 -3 -5 -10 7 -20 -3 -88 -88 -22 -27 -57 -67 -77 -90 -37 -39 -50 -64 -26
-49 7 5 8 3 4 -5 -5 -7 -10 -10 -13 -7 -3 3 -14 1 -25 -5 -13 -7 -17 -16 -13
-30 4 -11 2 -19 -5 -19 -6 0 -8 6 -4 13 4 6 -6 0 -23 -15 -33 -32 -43 -35 -43
-13 0 11 -11 14 -51 12 l-51 -3 -35 -85 c-19 -46 -38 -100 -43 -119 -9 -32 -9
-32 -5 13 3 26 14 66 26 90 12 23 22 44 21 47 0 3 8 23 18 45 16 36 46 108 66
160 4 11 8 27 9 35 1 8 5 31 9 50 l8 35 -24 -25 c-13 -14 -31 -51 -41 -82 -10
-31 -27 -78 -38 -104 -18 -39 -24 -45 -45 -41 -13 2 -21 0 -18 -4 3 -5 0 -9
-7 -9 -6 0 -9 -8 -6 -20 4 -16 0 -20 -21 -19 -15 0 -22 3 -15 5 7 3 10 11 7
18 -3 7 2 77 10 157 8 79 24 268 36 419 11 151 24 320 30 375 16 165 43 668
38 720 -2 24 -4 26 -10 12z m-21 -439 c-3 -7 -5 -2 -5 12 0 14 2 19 5 13 2 -7
2 -19 0 -25z m308 -1138 c3 -5 -1 -10 -10 -10 -9 0 -13 5 -10 10 3 6 8 10 10
10 2 0 7 -4 10 -10z m-160 -130 c3 -5 2 -10 -4 -10 -5 0 -13 5 -16 10 -3 6 -2
10 4 10 5 0 13 -4 16 -10z m-398 -32 c-3 -8 -6 -5 -6 6 -1 11 2 17 5 13 3 -3
4 -12 1 -19z m430 -24 c-3 -3 -12 -4 -19 -1 -8 3 -5 6 6 6 11 1 17 -2 13 -5z
m-598 -223 c40 -31 80 -61 87 -67 12 -9 10 -44 -2 -44 -1 0 -20 16 -41 36 -21
19 -55 44 -76 55 -49 26 -87 59 -87 76 0 24 39 5 119 -56z m931 -12 c12 -9 12
-10 -3 -5 -10 3 -26 2 -35 -3 -9 -4 -30 -11 -47 -14 -26 -5 -25 -4 10 13 46
23 55 24 75 9z m-380 -15 c0 -8 -4 -12 -10 -9 -5 3 -10 10 -10 16 0 5 5 9 10
9 6 0 10 -7 10 -16z m-46 -8 c-21 -15 -30 -14 -19 3 3 6 14 11 23 11 13 0 13
-2 -4 -14z m21 -37 c-6 -19 -5 -20 15 -9 15 8 20 8 16 1 -4 -6 0 -11 9 -11 10
0 15 -6 12 -13 -3 -8 -1 -20 3 -28 11 -17 -5 -28 -31 -22 -24 7 -25 23 -1 23
14 0 15 2 2 10 -22 14 -26 13 -38 -15 -11 -24 -10 -25 18 -25 16 0 32 -4 35
-10 3 -5 -1 -10 -10 -10 -9 0 -13 -4 -10 -10 3 -5 -1 -10 -9 -10 -8 0 -25 15
-37 33 -13 17 -28 35 -33 39 -6 4 2 11 17 17 16 6 27 18 27 29 0 17 8 32 17
32 3 0 1 -9 -2 -21z m75 -34 c0 -8 -4 -15 -10 -15 -5 0 -7 7 -4 15 4 8 8 15
10 15 2 0 4 -7 4 -15z m211 6 c-11 -7 -9 -11 8 -20 11 -7 21 -18 21 -25 0 -8
7 -17 16 -20 14 -5 15 -4 4 9 -7 9 -10 18 -6 22 11 11 23 -10 29 -52 4 -22 4
-34 1 -27 -10 21 -29 13 -41 -18 -6 -16 -7 -30 -2 -30 5 0 4 -11 -1 -25 -6
-16 -6 -25 0 -25 6 0 10 -16 10 -36 0 -31 -2 -35 -15 -24 -8 7 -15 22 -15 34
0 11 -4 17 -8 11 -4 -5 -13 -11 -21 -13 -12 -3 -12 0 -2 12 8 10 10 30 4 68
-4 29 -6 58 -5 65 2 6 -2 14 -8 18 -5 3 -10 11 -10 16 0 6 5 7 10 4 6 -3 10
-2 10 4 0 5 -5 13 -10 16 -15 9 7 45 28 45 14 0 14 -2 3 -9z m-407 -56 c-4 -8
-8 -15 -10 -15 -2 0 -4 7 -4 15 0 8 4 15 10 15 5 0 7 -7 4 -15z m224 -42 c-20
-5 -24 -21 -5 -20 35 1 47 -5 47 -23 0 -11 5 -20 11 -20 5 0 8 -4 4 -9 -3 -5
-1 -12 5 -16 6 -4 8 -11 5 -16 -4 -5 1 -12 9 -15 9 -4 16 -18 16 -33 0 -20 -2
-23 -10 -11 -8 12 -10 12 -10 1 0 -8 -3 -12 -6 -8 -10 10 -54 -49 -54 -72 0
-11 10 -30 23 -43 55 -55 55 -58 -3 -53 -29 3 -58 9 -64 13 -15 11 -116 8
-124 -4 -4 -5 -20 -16 -37 -24 -24 -13 -30 -23 -32 -52 -2 -27 2 -36 11 -32 9
4 11 -4 8 -28 -5 -31 -6 -32 -12 -8 -6 24 -7 23 -19 -13 -13 -38 -10 -86 9
-162 13 -54 12 -102 -2 -111 -19 -12 -48 35 -48 80 -1 42 -14 110 -44 223 -17
63 -16 118 2 163 6 14 13 42 17 63 3 20 10 37 15 37 6 0 10 6 10 14 0 23 28
45 73 57 23 6 50 17 61 25 11 8 31 14 44 14 12 0 25 7 28 15 4 8 10 12 15 9 5
-3 9 0 9 6 0 6 4 9 9 6 5 -3 8 8 7 24 -2 26 1 30 23 29 17 -1 20 -3 9 -6z
m-224 -42 c3 -5 15 -7 25 -4 10 3 22 0 26 -7 10 -16 -14 -40 -41 -40 -25 0
-45 21 -26 28 7 2 12 8 12 13 0 6 -4 7 -10 4 -5 -3 -10 -1 -10 4 0 13 17 14
24 2z m143 -23 c-3 -8 -6 -5 -6 6 -1 11 2 17 5 13 3 -3 4 -12 1 -19z m460 -14
c-3 -3 -12 -4 -19 -1 -8 3 -5 6 6 6 11 1 17 -2 13 -5z m-50 -10 c-3 -3 -12 -4
-19 -1 -8 3 -5 6 6 6 11 1 17 -2 13 -5z m-777 -36 c0 -4 -4 -8 -10 -8 -5 0
-10 -7 -10 -15 0 -22 -17 -18 -23 4 -3 11 -3 21 -1 23 7 7 44 3 44 -4z m28
-13 c-6 -14 -13 -23 -16 -21 -7 7 9 46 18 46 5 0 4 -11 -2 -25z m-32 -39 c29
7 35 -20 7 -30 -11 -4 -13 -10 -7 -14 8 -6 15 -52 8 -52 -1 0 -10 3 -18 6 -15
6 -15 8 1 21 10 8 13 12 6 9 -18 -10 -26 13 -11 31 11 15 11 16 -4 10 -12 -4
-21 0 -28 13 -15 27 -12 34 6 16 10 -10 24 -14 40 -10z m-39 -63 c0 -16 -1
-20 -4 -10 -2 9 -9 17 -14 17 -6 0 -7 5 -4 10 11 18 21 10 22 -17z m53 -131
c0 -21 -6 -45 -12 -54 -19 -24 -101 -48 -162 -48 -82 0 -133 51 -99 99 20 29
64 39 176 40 l97 1 0 -38z m547 -7 c27 -18 30 -53 8 -94 -18 -36 -42 -42 -118
-30 -34 6 -77 9 -97 7 -19 -2 -34 2 -34 7 1 6 -7 21 -17 34 -22 27 -25 71 -6
90 17 19 231 7 264 -14z m-850 -62 c-3 -10 -5 -4 -5 12 0 17 2 24 5 18 2 -7 2
-21 0 -30z m882 -61 c-6 -22 -23 -53 -36 -68 -14 -16 -33 -45 -44 -66 -10 -20
-22 -38 -26 -40 -15 -6 -43 -78 -37 -93 4 -10 2 -15 -6 -13 -11 3 -18 -32 -20
-99 0 -13 -5 -23 -10 -23 -6 0 -10 -6 -10 -14 0 -8 -6 -17 -12 -19 -8 -3 -5
-6 5 -6 10 -1 15 -5 12 -11 -3 -5 -40 -10 -81 -10 -57 0 -74 3 -74 14 0 8 13
19 30 24 16 6 38 26 49 44 11 18 23 38 28 43 4 6 10 17 12 25 8 26 0 181 -10
206 -5 14 -9 43 -9 66 0 34 2 39 18 32 9 -4 52 -9 95 -12 71 -4 81 -2 103 19
13 12 24 29 24 37 0 9 3 13 6 10 3 -3 0 -24 -7 -46z m-480 -22 c1 -13 0 -13
-9 0 -5 8 -9 26 -9 40 l1 25 8 -25 c4 -14 8 -32 9 -40z m-349 35 c14 -8 21
-14 15 -14 -5 0 -21 6 -35 14 -14 8 -20 14 -15 14 6 0 21 -6 35 -14z m484 -76
c3 -34 5 -76 5 -93 -1 -26 -3 -24 -10 14 -17 86 -22 140 -12 140 6 0 13 -28
17 -61z m-118 -72 c5 -74 -9 -42 -19 43 -5 41 -4 50 4 37 6 -11 13 -47 15 -80z
m742 -86 c10 -6 6 -10 -15 -14 -32 -6 -38 -3 -28 12 7 13 25 14 43 2z m-768
-151 c0 -5 -2 -10 -4 -10 -3 0 -8 5 -11 10 -3 6 -1 10 4 10 6 0 11 -4 11 -10z
m362 -82 c-6 -6 -16 -7 -22 -3 -9 6 -9 9 1 16 17 10 34 0 21 -13z m-147 -46
c-3 -3 -11 0 -18 7 -9 10 -8 11 6 5 10 -3 15 -9 12 -12z m175 8 c0 -5 -2 -10
-4 -10 -3 0 -8 5 -11 10 -3 6 -1 10 4 10 6 0 11 -4 11 -10z m-54 -43 l-6 -33
70 -19 c71 -19 82 -31 60 -65 -8 -12 -10 -9 -10 13 0 15 -2 27 -4 27 -2 0 -11
3 -20 6 -23 9 -21 -32 2 -45 13 -8 14 -10 2 -11 -17 0 -42 14 -41 24 3 20 0
25 -12 20 -8 -3 -20 3 -28 12 -12 15 -12 16 10 9 16 -5 21 -4 17 4 -8 12 -46
15 -46 4 0 -5 -22 -9 -49 -10 -36 -2 -51 1 -55 12 -4 12 4 15 44 15 35 0 50 4
50 13 0 21 -11 27 -29 18 -9 -5 -29 -11 -46 -15 l-30 -7 34 21 c19 12 44 20
57 17 13 -2 23 -1 22 2 -1 12 2 21 8 21 3 0 3 -15 0 -33z m-546 -9 c0 19 20
14 20 -5 0 -15 2 -16 10 -3 8 12 11 13 19 1 7 -11 9 -11 14 0 4 10 8 11 14 3
4 -6 21 -10 36 -10 16 1 31 -2 33 -6 3 -4 11 -8 17 -8 8 0 7 3 -2 9 -10 7 -7
9 12 8 14 -1 23 -6 20 -12 -3 -5 0 -4 8 3 7 6 17 12 22 12 4 0 5 -6 1 -12 -6
-10 -4 -10 7 0 7 6 18 12 24 12 5 0 3 -5 -5 -10 -9 -6 -10 -10 -3 -10 6 0 14
4 17 9 8 13 56 10 56 -3 0 -6 5 -4 10 4 9 13 11 13 20 0 6 -10 10 -11 10 -2 0
19 20 14 21 -5 0 -11 3 -13 6 -5 7 17 23 15 23 -3 0 -8 -6 -16 -12 -16 -7 -1
-20 -2 -28 -3 -8 0 -18 4 -22 9 -5 6 -12 4 -18 -5 -8 -12 -10 -12 -10 -1 0 11
-3 11 -15 1 -8 -7 -15 -8 -15 -3 0 5 -49 8 -110 8 -72 -1 -110 2 -110 9 0 6
-4 5 -9 -3 -5 -8 -11 -9 -15 -3 -3 5 -17 8 -31 7 -14 -2 -25 1 -25 6 0 6 -4 8
-9 5 -5 -4 -7 3 -4 15 4 16 8 17 14 7 7 -10 9 -10 9 0z m554 -77 c4 -5 -3 -7
-14 -4 -23 6 -26 13 -6 13 8 0 17 -4 20 -9z m-191 -28 c-7 -2 -21 -2 -30 0
-10 3 -4 5 12 5 17 0 24 -2 18 -5z m7 -32 c0 -5 -20 -11 -45 -13 -51 -4 -55
-1 -22 12 29 12 67 12 67 1z m-486 -220 c8 -13 -8 -52 -31 -76 -10 -11 -65
-72 -121 -135 -102 -114 -189 -193 -204 -184 -4 3 11 28 33 57 63 80 301 347
310 347 4 0 10 -4 13 -9z m826 -92 c23 -33 73 -104 112 -157 73 -101 128 -199
128 -228 0 -16 -2 -15 -20 1 -12 10 -30 35 -42 54 -12 20 -34 52 -50 71 -15
19 -28 38 -28 43 0 5 -11 23 -25 41 -14 18 -25 38 -25 44 0 7 -3 12 -7 12 -5
0 -19 17 -33 37 -14 21 -36 47 -49 59 -27 23 -37 84 -15 84 7 0 32 -27 54 -61z
m278 -64 c-3 -3 -9 2 -12 12 -6 14 -5 15 5 6 7 -7 10 -15 7 -18z m-298 -111
c0 -20 18 -17 23 4 4 14 5 13 6 -3 0 -12 7 -27 13 -33 10 -10 10 -15 -2 -22
-11 -7 -16 -5 -18 5 -4 18 -23 19 -41 3 -11 -11 -13 -6 -8 25 4 26 2 35 -5 31
-7 -4 -8 -2 -4 4 9 15 36 4 36 -14z m150 -202 c0 -4 -6 -14 -12 -21 -11 -11
-9 -11 10 -2 20 11 22 9 22 -14 0 -42 -52 -24 -63 23 -4 18 -1 22 19 22 13 0
24 -4 24 -8z m70 -105 c0 -7 -4 -6 -10 3 -7 11 -10 11 -10 2 0 -7 -5 -10 -11
-6 -8 4 -7 9 2 15 15 9 29 3 29 -14z m35 -61 c0 -18 -3 -22 -12 -14 -6 5 -9
17 -6 26 6 15 5 16 -13 2 -17 -14 -18 -14 -6 2 18 22 37 14 37 -16z m-1249
-291 c11 -29 -2 -37 -19 -11 -15 23 -16 26 -2 26 9 0 18 -7 21 -15z"/>
<path d="M2096 4668 c8 -28 17 -54 20 -57 4 -3 4 3 1 14 -3 11 -8 35 -12 52
-4 18 -10 35 -14 38 -4 2 -2 -19 5 -47z"/>
<path d="M2906 4614 c-4 -20 -5 -38 -3 -40 3 -3 8 11 11 32 4 20 5 38 3 40 -3
3 -8 -11 -11 -32z"/>
<path d="M2882 4580 c0 -14 2 -19 5 -12 2 6 2 18 0 25 -3 6 -5 1 -5 -13z"/>
<path d="M3410 4554 c-12 -19 -20 -37 -18 -39 2 -3 15 13 27 35 28 50 21 53
-9 4z"/>
<path d="M2526 4525 c-3 -9 -5 -58 -4 -108 l1 -92 7 105 c7 111 6 121 -4 95z"/>
<path d="M2875 4490 c4 -27 3 -31 -4 -15 -7 14 -8 6 -5 -30 4 -37 3 -46 -5
-35 -8 11 -9 5 -6 -25 4 -27 3 -34 -3 -21 -8 19 -9 18 -15 -5 -9 -34 -7 -59 3
-29 l8 25 1 -25 c0 -14 -6 -47 -13 -75 -12 -40 -14 -44 -15 -21 -1 16 -4 27
-7 23 -3 -3 -3 -25 1 -49 7 -38 9 -40 16 -20 5 13 20 86 34 163 19 101 23 144
16 156 -8 14 -10 10 -6 -17z"/>
<path d="M3371 4473 c-10 -26 -10 -27 4 -9 8 11 15 23 15 28 0 15 -7 8 -19
-19z"/>
<path d="M2141 4444 c0 -11 3 -14 6 -6 3 7 2 16 -1 19 -3 4 -6 -2 -5 -13z"/>
<path d="M3336 4395 c-9 -26 -7 -32 5 -12 6 10 9 21 6 23 -2 3 -7 -2 -11 -11z"/>
<path d="M2161 4350 c0 -8 4 -22 9 -30 12 -18 12 -2 0 25 -6 13 -9 15 -9 5z"/>
<path d="M1810 4345 c0 -4 8 -19 19 -33 18 -26 83 -159 101 -208 9 -24 30 -33
30 -14 0 6 -4 10 -9 10 -5 0 -15 20 -22 45 -7 25 -17 45 -21 45 -4 0 -7 3 -6
8 4 17 -17 59 -53 105 -22 27 -39 46 -39 42z"/>
<path d="M3296 4295 c-9 -26 -7 -32 5 -12 6 10 9 21 6 23 -2 3 -7 -2 -11 -11z"/>
<path d="M2785 4248 c-8 -28 -15 -62 -15 -74 0 -13 -5 -35 -11 -51 -11 -29
-24 -141 -15 -132 5 5 45 191 52 239 2 14 6 35 10 48 3 12 4 22 1 22 -4 0 -13
-23 -22 -52z"/>
<path d="M2182 4260 c0 -19 2 -27 5 -17 2 9 2 25 0 35 -3 9 -5 1 -5 -18z"/>
<path d="M2523 4245 c0 -27 2 -38 4 -22 2 15 2 37 0 50 -2 12 -4 0 -4 -28z"/>
<path d="M3262 4208 c-12 -28 -20 -53 -18 -55 2 -2 13 19 25 48 12 28 21 53
19 55 -3 2 -14 -20 -26 -48z"/>
<path d="M3796 4245 c-9 -26 -7 -32 5 -12 6 10 9 21 6 23 -2 3 -7 -2 -11 -11z"/>
<path d="M2791 4124 c-8 -43 -15 -95 -17 -114 -3 -32 -2 -33 6 -10 8 21 9 19
5 -15 -3 -32 -2 -36 7 -21 5 10 8 35 4 55 -3 20 -1 64 5 98 6 34 9 68 7 74 -2
7 -10 -24 -17 -67z"/>
<path d="M3148 4160 c-9 -25 -22 -63 -28 -85 -6 -22 -17 -56 -25 -75 -7 -19
-23 -69 -35 -110 -13 -41 -32 -100 -42 -130 -11 -30 -22 -66 -25 -80 -14 -62
11 2 82 215 43 127 82 238 87 248 5 10 8 28 6 40 -3 17 -7 12 -20 -23z"/>
<path d="M1188 4159 c12 -19 28 -34 37 -34 8 0 56 -41 107 -90 l93 -90 -95 98
c-52 53 -101 95 -107 92 -8 -2 -13 3 -13 13 0 9 -10 23 -22 31 l-21 13 21 -33z"/>
<path d="M3720 4150 c-17 -22 -29 -40 -27 -40 3 0 20 18 37 40 17 22 29 40 27
40 -3 0 -20 -18 -37 -40z"/>
<path d="M2201 4159 c0 -13 4 -33 9 -44 7 -14 8 -8 3 20 -7 46 -13 59 -12 24z"/>
<path d="M3226 4125 c-9 -26 -7 -32 5 -12 6 10 9 21 6 23 -2 3 -7 -2 -11 -11z"/>
<path d="M2811 4114 c0 -11 3 -14 6 -6 3 7 2 16 -1 19 -3 4 -6 -2 -5 -13z"/>
<path d="M1280 4055 c74 -81 230 -231 229 -219 -1 5 -65 70 -143 144 -77 74
-116 108 -86 75z"/>
<path d="M3206 4075 c-9 -26 -7 -32 5 -12 6 10 9 21 6 23 -2 3 -7 -2 -11 -11z"/>
<path d="M3659 4073 c-13 -16 -12 -17 4 -4 16 13 21 21 13 21 -2 0 -10 -8 -17
-17z"/>
<path d="M2222 4055 c0 -16 3 -39 8 -50 l9 -20 -1 20 c0 11 -4 34 -8 50 l-8
30 0 -30z"/>
<path d="M1957 4063 c-7 -11 10 -40 18 -31 4 4 3 14 -3 24 -5 9 -12 12 -15 7z"/>
<path d="M3186 4025 c-9 -26 -7 -32 5 -12 6 10 9 21 6 23 -2 3 -7 -2 -11 -11z"/>
<path d="M1972 4003 c2 -9 11 -17 20 -19 15 -2 16 1 8 17 -13 23 -33 25 -28 2z"/>
<path d="M1741 4005 c-1 -6 5 -19 13 -30 7 -11 59 -108 114 -215 158 -305 186
-359 191 -354 4 4 -73 158 -216 430 -70 135 -102 187 -102 169z"/>
<path d="M3162 3965 c-17 -37 -14 -45 4 -12 9 16 14 31 11 33 -2 2 -9 -7 -15
-21z"/>
<path d="M2240 3969 c0 -8 11 -68 24 -134 13 -66 37 -189 52 -272 16 -84 31
-153 35 -153 4 0 -1 37 -11 83 -10 45 -23 116 -30 157 -16 105 -60 323 -65
329 -3 2 -5 -2 -5 -10z"/>
<path d="M2717 3933 c-3 -27 -8 -61 -11 -78 -6 -29 -6 -29 5 -5 14 32 28 130
18 130 -4 0 -9 -21 -12 -47z"/>
<path d="M1990 3958 c0 -4 8 -16 18 -26 9 -9 16 -25 14 -35 -2 -9 3 -20 12
-23 8 -3 12 -12 9 -21 -4 -9 1 -21 11 -29 11 -7 15 -18 11 -26 -6 -10 -5 -10
4 -2 10 9 9 20 -5 50 -9 22 -18 41 -19 44 -9 32 -18 50 -27 50 -5 0 -8 6 -5
13 3 8 -1 14 -9 14 -8 0 -14 -4 -14 -9z"/>
<path d="M2750 3913 c-8 -31 -14 -74 -15 -94 0 -20 -4 -35 -9 -31 -5 3 -7 -10
-3 -30 3 -20 1 -40 -5 -46 -5 -5 -10 -37 -10 -71 -1 -33 -4 -59 -7 -56 -4 2
-7 -22 -7 -53 -1 -49 0 -53 8 -27 5 17 13 55 18 85 13 76 16 91 39 207 26 134
18 231 -9 116z m7 -65 c-3 -8 -6 -5 -6 6 -1 11 2 17 5 13 3 -3 4 -12 1 -19z"/>
<path d="M1472 3895 c15 -16 29 -27 31 -24 3 2 -10 15 -27 28 l-31 24 27 -28z"/>
<path d="M3136 3905 c-9 -26 -7 -32 5 -12 6 10 9 21 6 23 -2 3 -7 -2 -11 -11z"/>
<path d="M1530 3842 c0 -5 9 -17 19 -26 11 -10 18 -23 17 -29 -2 -7 -1 -8 2
-4 2 4 16 1 30 -8 l27 -16 -25 21 c-14 11 -35 32 -47 46 -13 14 -23 21 -23 16z"/>
<path d="M3087 3793 c-4 -3 -7 -13 -7 -22 1 -13 3 -13 11 2 11 19 8 33 -4 20z"/>
<path d="M2796 3742 c-5 -18 -5 -36 -2 -39 7 -7 19 43 13 59 -2 7 -7 -2 -11
-20z"/>
<path d="M1585 3750 c3 -5 8 -10 11 -10 2 0 4 5 4 10 0 6 -5 10 -11 10 -5 0
-7 -4 -4 -10z"/>
<path d="M2080 3755 c0 -5 5 -17 10 -25 5 -8 10 -10 10 -5 0 6 -5 17 -10 25
-5 8 -10 11 -10 5z"/>
<path d="M2108 3735 c2 -14 8 -28 13 -31 5 -3 9 -14 9 -25 0 -12 4 -17 11 -14
7 5 5 15 -5 31 -9 13 -16 30 -16 38 0 8 -4 17 -9 20 -4 3 -6 -6 -3 -19z"/>
<path d="M1615 3740 c-4 -6 8 -24 27 -41 18 -17 95 -92 171 -167 75 -74 137
-131 137 -125 0 6 -20 27 -45 47 -25 21 -45 42 -45 49 0 6 15 -2 33 -19 17
-16 12 -7 -13 19 -42 45 -72 68 -35 27 10 -11 14 -20 9 -20 -5 0 -54 45 -109
100 -55 55 -95 100 -90 100 5 0 25 -15 45 -32 l35 -33 -30 33 c-42 47 -82 75
-90 62z m26 -17 c13 -16 12 -17 -3 -4 -10 7 -18 15 -18 17 0 8 8 3 21 -13z"/>
<path d="M2782 3651 c-7 -19 -12 -43 -11 -55 0 -14 5 -7 15 19 8 22 13 46 11
55 -1 8 -8 0 -15 -19z"/>
<path d="M2147 3644 c7 -3 10 -11 7 -18 -3 -7 2 -19 11 -26 18 -15 19 -11 5
24 -5 14 -15 26 -22 25 -10 0 -10 -2 -1 -5z"/>
<path d="M2656 3642 c-2 -4 -1 -14 5 -22 7 -12 9 -10 9 8 0 23 -5 28 -14 14z"/>
<path d="M1740 3637 c0 -2 15 -16 33 -33 l32 -29 -29 33 c-28 30 -36 37 -36
29z"/>
<path d="M1991 3603 c7 -12 15 -20 18 -17 3 2 -3 12 -13 22 -17 16 -18 16 -5
-5z"/>
<path d="M2955 3569 c-4 -6 -5 -12 -2 -15 2 -3 7 2 10 11 7 17 1 20 -8 4z"/>
<path d="M3675 3548 c-25 -19 -259 -221 -290 -251 -35 -34 32 17 95 73 41 36
112 96 158 133 78 63 102 92 37 45z"/>
<path d="M2750 3501 c-9 -37 -9 -54 0 -68 10 -16 10 -16 5 3 -3 11 1 39 9 62
8 23 11 44 6 47 -4 3 -13 -17 -20 -44z"/>
<path d="M2941 3518 c-27 -69 -40 -112 -36 -116 5 -5 35 66 35 85 0 8 5 23 10
34 6 10 8 19 5 19 -3 0 -9 -10 -14 -22z"/>
<path d="M2975 3529 c-4 -6 -5 -12 -2 -15 2 -3 7 2 10 11 7 17 1 20 -8 4z"/>
<path d="M3575 3498 l-40 -43 43 40 c39 36 47 45 39 45 -2 0 -21 -19 -42 -42z"/>
<path d="M2197 3510 c3 -11 7 -20 9 -20 2 0 4 9 4 20 0 11 -4 20 -9 20 -5 0
-7 -9 -4 -20z"/>
<path d="M2682 3450 c0 -14 2 -19 5 -12 2 6 2 18 0 25 -3 6 -5 1 -5 -13z"/>
<path d="M2661 3444 c0 -11 3 -14 6 -6 3 7 2 16 -1 19 -3 4 -6 -2 -5 -13z"/>
<path d="M2933 3425 c-3 -9 -3 -18 -1 -21 3 -3 8 4 11 16 6 23 -1 27 -10 5z"/>
<path d="M3484 3418 l-19 -23 23 19 c12 11 22 21 22 23 0 8 -8 2 -26 -19z"/>
<path d="M2651 3404 c0 -11 3 -14 6 -6 3 7 2 16 -1 19 -3 4 -6 -2 -5 -13z"/>
<path d="M2671 3404 c0 -11 3 -14 6 -6 3 7 2 16 -1 19 -3 4 -6 -2 -5 -13z"/>
<path d="M2725 3370 c-4 -23 -5 -43 -2 -46 2 -3 7 14 11 37 4 23 5 44 2 46 -2
2 -7 -14 -11 -37z"/>
<path d="M2908 3365 c-8 -19 -14 -22 -20 -13 -5 9 -8 10 -8 1 0 -26 20 -22 35
7 8 16 13 30 10 30 -3 0 -11 -11 -17 -25z"/>
<path d="M2080 3348 c0 -9 5 -20 10 -23 13 -8 13 5 0 25 -8 13 -10 13 -10 -2z"/>
<path d="M2363 3325 c0 -22 2 -30 4 -17 2 12 2 30 0 40 -3 9 -5 -1 -4 -23z"/>
<path d="M2636 3328 c-3 -18 -7 -76 -10 -128 -4 -76 -3 -84 4 -40 10 64 20
200 14 200 -2 0 -5 -15 -8 -32z"/>
<path d="M2661 3334 c0 -11 3 -14 6 -6 3 7 2 16 -1 19 -3 4 -6 -2 -5 -13z"/>
<path d="M3179 3303 c-30 -34 -72 -93 -66 -93 2 0 25 27 51 60 49 62 57 80 15
33z"/>
<path d="M2866 3304 c-9 -22 3 -32 14 -14 12 19 12 30 1 30 -5 0 -12 -7 -15
-16z"/>
<path d="M2050 3307 c0 -2 15 -16 33 -33 l32 -29 -29 33 c-28 30 -36 37 -36
29z"/>
<path d="M2114 3271 c9 -16 13 -31 11 -33 -3 -3 7 -15 21 -29 l26 -24 -28 58
c-16 31 -32 57 -36 57 -5 0 -2 -13 6 -29z"/>
<path d="M2846 3239 c-23 -47 -19 -61 5 -16 11 22 18 41 16 44 -3 2 -12 -10
-21 -28z"/>
<path d="M3300 3255 c-11 -13 -10 -14 4 -9 9 3 16 10 16 15 0 13 -6 11 -20 -6z"/>
<path d="M2382 3220 c0 -14 2 -19 5 -12 2 6 2 18 0 25 -3 6 -5 1 -5 -13z"/>
<path d="M3194 3149 c-43 -45 -101 -103 -128 -130 -27 -27 -45 -49 -39 -49 9
0 56 47 197 198 85 90 64 76 -30 -19z"/>
<path d="M3089 3183 c-29 -35 -41 -53 -36 -53 2 0 17 16 31 35 28 36 31 49 5
18z"/>
<path d="M1713 3140 c14 -11 28 -20 32 -20 4 0 -4 9 -18 20 -14 11 -28 20 -32
20 -4 0 4 -9 18 -20z"/>
<path d="M1725 3100 c21 -24 26 -25 19 -6 -3 8 -13 17 -22 21 -13 5 -13 2 3
-15z"/>
<path d="M2042 3039 c26 -47 44 -64 52 -51 3 6 -7 24 -23 41 -15 16 -27 32
-24 34 2 3 -3 7 -12 11 -13 5 -12 -2 7 -35z"/>
<path d="M3354 2915 c-10 -8 -14 -14 -9 -15 15 0 40 18 34 24 -3 3 -14 -1 -25
-9z"/>
<path d="M1870 2842 c0 -14 37 -44 43 -35 3 4 -6 16 -19 26 -13 10 -24 14 -24
9z"/>
<path d="M3470 2810 c-11 -8 -7 -9 15 -4 37 8 45 14 19 14 -10 0 -26 -5 -34
-10z"/>
<path d="M3428 2793 c7 -3 16 -2 19 1 4 3 -2 6 -13 5 -11 0 -14 -3 -6 -6z"/>
<path d="M3325 2760 c-3 -6 1 -7 9 -4 18 7 21 14 7 14 -6 0 -13 -4 -16 -10z"/>
<path d="M1420 2739 c0 -15 59 -40 91 -38 8 0 -6 7 -30 14 -24 8 -48 20 -52
27 -7 10 -9 9 -9 -3z"/>
<path d="M1463 2683 c9 -2 25 -2 35 0 9 3 1 5 -18 5 -19 0 -27 -2 -17 -5z"/>
<path d="M1588 2683 c7 -3 16 -2 19 1 4 3 -2 6 -13 5 -11 0 -14 -3 -6 -6z"/>
<path d="M1535 2670 c19 -8 73 -14 64 -6 -2 2 -22 6 -44 9 -28 5 -34 4 -20 -3z"/>
<path d="M1678 2633 c7 -3 16 -2 19 1 4 3 -2 6 -13 5 -11 0 -14 -3 -6 -6z"/>
<path d="M1697 2596 c17 -8 42 -12 54 -9 14 4 20 2 16 -4 -4 -6 0 -14 9 -17
21 -8 21 -8 21 9 0 15 -22 23 -62 23 -11 0 -31 3 -45 7 -18 4 -16 2 7 -9z"/>
<path d="M3716 2538 c3 -5 10 -6 15 -3 13 9 11 12 -6 12 -8 0 -12 -4 -9 -9z"/>
<path d="M3553 2533 c9 -2 25 -2 35 0 9 3 1 5 -18 5 -19 0 -27 -2 -17 -5z"/>
<path d="M3393 2523 c26 -2 67 -2 90 0 23 2 2 3 -48 3 -49 0 -68 -1 -42 -3z"/>
<path d="M3350 2346 c0 -2 7 -7 16 -10 8 -3 12 -2 9 4 -6 10 -25 14 -25 6z"/>
<path d="M1585 2330 c-7 -11 25 -11 70 0 27 7 25 8 -17 9 -26 0 -50 -3 -53 -9z"/>
<path d="M1545 2320 c-3 -5 -1 -10 4 -10 6 0 11 5 11 10 0 6 -2 10 -4 10 -3 0
-8 -4 -11 -10z"/>
<path d="M3310 2320 c0 -5 5 -10 10 -10 6 0 10 5 10 10 0 6 -4 10 -10 10 -5 0
-10 -4 -10 -10z"/>
<path d="M3588 2313 c6 -2 18 -2 25 0 6 3 1 5 -13 5 -14 0 -19 -2 -12 -5z"/>
<path d="M1478 2303 c6 -2 18 -2 25 0 6 3 1 5 -13 5 -14 0 -19 -2 -12 -5z"/>
<path d="M3497 2293 c18 -2 50 -2 70 0 21 2 7 4 -32 4 -38 0 -55 -2 -38 -4z"/>
<path d="M3648 2293 c17 -2 47 -2 65 0 17 2 3 4 -33 4 -36 0 -50 -2 -32 -4z"/>
<path d="M1648 2283 c6 -2 18 -2 25 0 6 3 1 5 -13 5 -14 0 -19 -2 -12 -5z"/>
<path d="M1508 2273 c23 -2 59 -2 80 0 20 2 1 4 -43 4 -44 0 -61 -2 -37 -4z"/>
<path d="M3362 2259 c10 -5 42 -12 70 -14 l53 -4 -50 13 c-27 8 -59 14 -70 15
-18 0 -18 0 -3 -10z"/>
<path d="M3505 2240 c-29 -10 3 -17 45 -10 l35 6 -31 5 c-17 3 -40 2 -49 -1z"/>
<path d="M1703 2163 c15 -2 39 -2 55 0 15 2 2 4 -28 4 -30 0 -43 -2 -27 -4z"/>
<path d="M3618 2113 c12 -2 32 -2 45 0 12 2 2 4 -23 4 -25 0 -35 -2 -22 -4z"/>
<path d="M1690 1995 c-14 -8 -20 -15 -15 -16 6 -1 -3 -5 -20 -9 l-30 -8 33 -1
c21 -1 32 4 32 12 0 8 10 19 23 25 12 6 18 11 12 11 -5 0 -21 -6 -35 -14z"/>
<path d="M1685 1910 c-33 -10 -51 -18 -40 -19 11 0 45 8 75 19 72 24 43 24
-35 0z"/>
<path d="M1470 1840 c-8 -5 -10 -10 -5 -10 6 0 17 5 25 10 8 5 11 10 5 10 -5
0 -17 -5 -25 -10z"/>
<path d="M1510 1830 c-18 -12 -2 -12 25 0 13 6 15 9 5 9 -8 0 -22 -4 -30 -9z"/>
<path d="M1420 1804 c-22 -8 -28 -13 -15 -13 11 0 31 6 45 14 31 17 17 17 -30
-1z"/>
<path d="M1740 1750 c-20 -6 -21 -8 -5 -8 11 0 31 4 45 8 20 6 21 8 5 8 -11 0
-31 -4 -45 -8z"/>
<path d="M1578 1743 c7 -3 16 -2 19 1 4 3 -2 6 -13 5 -11 0 -14 -3 -6 -6z"/>
<path d="M1678 1733 c7 -3 16 -2 19 1 4 3 -2 6 -13 5 -11 0 -14 -3 -6 -6z"/>
<path d="M1500 1722 c0 -4 9 -8 19 -8 11 0 17 4 15 8 -3 4 -12 8 -20 8 -8 0
-14 -4 -14 -8z"/>
<path d="M1578 1723 c12 -2 30 -2 40 0 9 3 -1 5 -23 4 -22 0 -30 -2 -17 -4z"/>
<path d="M1592 1658 c-7 -7 -12 -16 -12 -21 0 -5 7 -1 16 8 9 9 14 18 12 20
-2 3 -10 -1 -16 -7z"/>
<path d="M1780 1550 c-25 -16 -42 -30 -37 -30 8 0 87 51 87 56 0 7 -4 5 -50
-26z"/>
<path d="M1758 1563 c7 -3 16 -2 19 1 4 3 -2 6 -13 5 -11 0 -14 -3 -6 -6z"/>
<path d="M1695 1500 c-3 -5 -2 -10 4 -10 5 0 13 5 16 10 3 6 2 10 -4 10 -5 0
-13 -4 -16 -10z"/>
<path d="M3412 1484 c10 -10 20 -16 22 -13 3 3 -5 11 -17 18 -21 13 -21 12 -5
-5z"/>
<path d="M1479 1403 c-13 -16 -12 -17 4 -4 9 7 17 15 17 17 0 8 -8 3 -21 -13z"/>
<path d="M1545 1410 c-3 -5 -2 -10 4 -10 5 0 13 5 16 10 3 6 2 10 -4 10 -5 0
-13 -4 -16 -10z"/>
<path d="M1765 1270 c-3 -6 1 -7 9 -4 18 7 21 14 7 14 -6 0 -13 -4 -16 -10z"/>
<path d="M3482 1085 c15 -16 29 -27 31 -24 3 2 -10 15 -27 28 l-31 24 27 -28z"/>
<path d="M3290 310 c0 -11 4 -20 9 -20 5 0 7 9 4 20 -3 11 -7 20 -9 20 -2 0
-4 -9 -4 -20z"/>
<path d="M3270 263 c0 -13 5 -23 10 -23 13 0 13 11 0 30 -8 12 -10 11 -10 -7z"/>
</g>
</svg>
