<?xml version="1.0" standalone="no"?>
<!DOCTYPE svg PUBLIC "-//W3C//DTD SVG 20010904//EN"
 "http://www.w3.org/TR/2001/REC-SVG-20010904/DTD/svg10.dtd">
<svg version="1.0" xmlns="http://www.w3.org/2000/svg"
 width="150pt" height="150pt" viewBox="10 10 720 300"
 preserveAspectRatio="xMidYMid meet">

<g transform="translate(0.000000,347.000000) scale(0.100000,-0.100000)"
fill="#DEFCFC" stroke="none">
<path d="M5698 2524 c6 -103 -10 -173 -49 -210 -34 -32 -40 -28 -50 29 -5 33
-7 24 -8 -48 -2 -49 -5 -121 -7 -158 -6 -72 19 -182 38 -171 5 3 8 0 6 -8 -3
-15 37 -60 46 -51 3 4 6 -3 6 -15 0 -12 4 -22 10 -22 5 0 29 -37 52 -82 39
-79 42 -89 47 -193 5 -96 7 -104 14 -64 4 25 5 53 1 62 -3 10 -1 17 5 17 6 0
11 13 11 28 0 38 -21 142 -29 142 -3 0 -6 13 -7 29 -1 15 -13 44 -27 63 -15
19 -27 40 -27 45 0 11 -29 27 -43 24 -5 -1 -5 3 -2 9 4 6 1 19 -7 28 -47 56
-57 156 -22 223 19 38 32 37 49 -3 l14 -33 1 48 c0 45 1 48 23 41 34 -10 45
-22 53 -57 3 -18 12 -35 18 -39 8 -6 7 -8 -2 -8 -8 0 -10 -8 -6 -24 7 -30 -19
-82 -46 -91 -44 -14 -84 40 -61 84 10 17 9 20 -4 15 -19 -8 -27 -39 -23 -90 2
-28 7 -38 18 -36 8 2 12 0 8 -4 -4 -4 7 -18 24 -31 29 -21 33 -22 39 -6 5 15
6 15 12 0 4 -11 -1 -18 -14 -22 -19 -6 -19 -7 1 -36 36 -49 71 -168 79 -261 3
-48 4 -88 0 -88 -4 0 -9 -19 -12 -42 -5 -47 -34 -135 -51 -157 -5 -7 -11 -20
-12 -28 -3 -20 -25 -44 -35 -37 -5 3 -9 1 -9 -5 0 -6 -24 12 -54 40 -105 98
-138 223 -85 324 14 28 25 56 23 63 -1 7 0 8 3 2 2 -5 10 -7 16 -3 28 18 48
12 67 -20 26 -41 34 -86 26 -140 -5 -34 -13 -47 -36 -61 -30 -17 -30 -17 -55
10 -14 15 -25 35 -25 45 0 11 -5 19 -11 19 -15 0 -7 -76 12 -116 8 -16 27 -35
42 -42 15 -7 27 -19 27 -26 0 -17 38 -51 47 -43 3 4 1 7 -5 7 -21 0 -13 39 18
82 17 23 28 48 26 55 -3 7 -1 15 4 18 15 9 12 119 -2 134 -10 11 -10 13 0 7
18 -11 15 12 -13 79 -14 33 -25 65 -25 70 0 12 -86 114 -112 133 -10 7 -18 19
-18 26 0 13 -31 46 -43 46 -15 0 -5 -44 29 -120 38 -87 38 -83 -10 -135 -28
-31 -70 -128 -84 -195 -11 -51 -5 -185 9 -213 14 -26 14 -23 11 43 -5 80 7 91
32 29 20 -49 66 -109 84 -109 8 0 12 -6 9 -12 -2 -7 4 -23 15 -34 l20 -22 -46
-31 c-24 -17 -50 -31 -56 -31 -6 0 -8 -5 -5 -10 8 -13 68 -3 106 16 25 12 27
12 33 -9 4 -12 9 -62 13 -110 3 -48 10 -90 15 -93 4 -3 8 53 8 123 l0 129 39
37 c22 20 41 37 44 37 2 0 3 -16 0 -35 -2 -19 -2 -35 1 -35 7 0 35 102 41 152
3 25 12 51 18 57 10 8 13 -3 15 -46 1 -31 5 -59 9 -62 14 -14 -6 261 -27 359
-21 96 -64 202 -102 248 -11 13 -10 14 2 11 18 -6 75 -109 90 -162 7 -23 15
-35 22 -31 7 4 8 3 4 -4 -4 -6 -2 -40 5 -74 23 -121 28 -124 23 -13 -3 61 -10
128 -15 150 -14 55 -51 158 -60 169 -4 5 -5 15 -2 22 4 11 12 8 35 -11 40 -34
58 -32 25 3 -32 33 -48 82 -41 120 3 15 7 54 9 87 2 33 6 78 9 100 l6 40 -16
-34 -15 -34 -28 27 c-15 14 -30 26 -34 26 -3 0 -11 -15 -17 -32 l-10 -33 5 37
c5 29 2 37 -12 40 -12 2 -18 14 -19 43 -4 91 -14 168 -23 179 -5 6 -11 20 -13
31 -3 11 -3 -16 0 -61z m-63 -1055 c11 -17 -1 -21 -15 -4 -8 9 -8 15 -2 15 6
0 14 -5 17 -11z"/>
<path d="M1030 2205 c0 -8 -5 -15 -11 -15 -13 0 -1 -42 15 -52 6 -4 1 -6 -12
-5 -12 0 -22 8 -22 16 0 10 -10 5 -30 -14 -16 -16 -30 -33 -30 -38 0 -5 -26
-48 -57 -95 -74 -109 -71 -104 -77 -124 -3 -10 -10 -18 -15 -18 -12 0 -25 56
-15 71 4 7 8 70 8 141 l1 128 -111 0 -112 0 -4 -40 c-2 -22 -1 -40 3 -40 3 0
4 -17 1 -37 -2 -21 -4 -78 -4 -128 2 -176 -3 -396 -9 -432 -4 -26 2 -73 10
-69 5 3 11 -3 14 -14 6 -22 -8 -28 -16 -7 -4 8 -6 7 -6 -3 -1 -9 6 -25 14 -37
13 -19 25 -21 120 -22 82 -1 105 1 105 12 0 8 -3 17 -7 21 -4 4 -6 36 -4 72 2
56 9 73 44 129 23 36 47 65 52 65 17 0 54 -67 65 -117 6 -26 19 -59 29 -73 10
-14 24 -41 31 -61 13 -36 13 -37 84 -42 39 -3 103 -3 141 1 l70 7 -32 18 c-37
20 -45 42 -12 34 19 -5 20 -4 5 16 -9 12 -21 33 -28 47 -73 161 -164 346 -184
374 -12 17 -10 23 16 53 17 19 30 42 30 52 0 10 7 24 15 31 8 7 15 17 15 22 0
17 45 70 73 85 16 8 26 20 24 26 -2 7 2 20 11 30 10 12 11 17 3 17 -7 0 -9 5
-6 10 3 6 -4 10 -17 10 -17 0 -19 -3 -9 -9 9 -6 10 -11 2 -15 -6 -4 -11 -4
-12 1 0 4 -5 -1 -10 -12 -8 -17 -9 -16 -6 8 3 15 1 27 -2 28 -109 10 -141 9
-141 -6z m27 -28 c0 -8 -6 -14 -14 -14 -7 0 -13 6 -13 14 0 7 6 13 13 13 8 0
14 -6 14 -13z m37 -19 c7 -30 -9 -40 -16 -10 -4 16 1 47 7 40 1 -2 5 -15 9
-30z m40 -3 c3 -9 0 -15 -9 -15 -8 0 -15 7 -15 15 0 8 4 15 9 15 5 0 11 -7 15
-15z m-194 -494 c0 -16 -14 -20 -27 -10 -19 17 -16 28 7 22 11 -3 20 -9 20
-12z"/>
<path d="M2421 2204 c-18 -8 -46 -14 -61 -14 -21 0 -44 -16 -92 -62 -114 -112
-151 -189 -150 -308 0 -84 19 -206 37 -240 20 -39 45 -61 59 -53 5 4 6 1 3 -4
-4 -6 19 -30 51 -54 31 -23 59 -46 62 -49 6 -8 135 -37 195 -44 77 -10 247 55
278 105 7 11 16 19 22 19 11 1 55 65 55 81 0 5 5 9 10 9 12 0 54 91 63 137 3
18 2 35 -3 38 -6 3 -10 13 -10 21 0 9 5 12 11 8 7 -4 9 0 6 12 -15 52 -30 111
-32 131 -8 60 -20 85 -69 134 -91 93 -144 129 -195 133 -14 1 -31 5 -37 8 -20
13 -169 7 -203 -8z m234 -220 c14 -9 25 -21 25 -26 0 -5 8 -22 18 -36 58 -85
50 -191 -19 -257 -71 -67 -190 -89 -259 -48 -26 15 -90 115 -90 139 0 8 -7 14
-15 14 -17 0 -20 16 -5 25 6 3 10 18 10 32 0 51 37 96 103 126 34 15 69 32 77
37 26 15 128 11 155 -6z"/>
<path d="M5555 2194 c-10 -16 -18 -53 -21 -97 -4 -69 -3 -73 23 -91 26 -19 26
-19 18 0 -14 32 -18 170 -6 193 16 29 7 26 -14 -5z"/>
<path d="M6095 2212 c-2 -2 -38 -4 -79 -3 l-76 1 0 -96 0 -96 43 2 c23 2 77 2
120 1 l77 -1 0 -120 c0 -78 4 -120 11 -120 5 0 8 -4 5 -8 -3 -5 -8 -93 -11
-197 -5 -170 -4 -187 11 -181 8 3 22 6 31 6 12 0 12 2 -1 16 -9 8 -13 21 -9
27 5 8 8 8 11 -1 2 -7 8 -10 13 -6 8 5 13 -9 10 -28 0 -5 6 -8 15 -8 10 0 14
6 11 14 -4 9 2 17 12 21 13 4 17 12 14 25 -6 23 7 26 26 8 11 -11 12 -8 7 12
-6 20 -5 22 4 8 6 -9 16 -15 23 -12 8 2 13 -7 14 -28 1 -17 8 -35 15 -40 23
-14 -6 -8 -32 7 -32 18 -50 19 -50 1 0 -8 8 -14 18 -14 9 0 28 -2 42 -6 14 -3
30 -3 37 1 19 13 19 87 0 116 -20 31 -22 78 -5 95 10 10 10 15 -2 22 -8 5 -11
12 -7 16 4 4 15 0 25 -9 13 -13 14 -20 5 -25 -8 -5 -10 -17 -4 -37 l8 -30 6
39 c3 22 1 48 -5 59 -6 13 -8 43 -3 81 9 79 6 175 -6 197 -6 12 -5 19 4 22 8
3 3 14 -15 32 -22 21 -26 33 -21 54 6 27 38 61 56 61 6 0 0 -8 -11 -19 -22
-19 -31 -71 -11 -71 5 0 7 5 4 10 -3 6 5 10 18 10 14 0 27 7 31 15 3 8 13 15
21 15 9 0 14 -4 11 -9 -3 -5 28 -9 68 -10 l74 -1 -1 91 -2 92 -29 4 c-44 6
-76 -4 -70 -22 5 -11 2 -13 -9 -9 -9 3 -13 12 -10 20 5 13 -26 14 -211 12
-119 -1 -219 -4 -221 -6z m309 -37 c-4 -8 -7 -15 -9 -15 -2 0 -5 7 -9 15 -3 9
0 15 9 15 9 0 12 -6 9 -15z m36 -7 c0 -16 -3 -19 -11 -11 -6 6 -8 16 -5 22 11
17 16 13 16 -11z m38 -11 c5 -24 -15 -21 -21 4 -3 13 -1 19 6 16 7 -2 13 -11
15 -20z m-58 -27 c0 -5 -5 -10 -11 -10 -5 0 -7 5 -4 10 3 6 8 10 11 10 2 0 4
-4 4 -10z m-115 -80 c3 -5 -1 -10 -10 -10 -9 0 -13 5 -10 10 3 6 8 10 10 10 2
0 7 -4 10 -10z m-84 -517 c13 -16 12 -17 -3 -4 -10 7 -18 15 -18 17 0 8 8 3
21 -13z m-1 -67 c0 -2 -7 -9 -15 -16 -12 -10 -15 -10 -15 4 0 9 7 16 15 16 8
0 15 -2 15 -4z"/>
<path d="M1469 2202 l-117 -3 5 -102 c4 -94 6 -225 3 -237 -1 -3 -1 -32 0 -65
0 -33 3 -140 4 -238 2 -98 5 -179 7 -181 2 -1 34 0 72 3 37 4 67 3 67 -1 0
-10 50 -10 51 0 5 50 4 410 -1 450 -4 28 -3 52 0 52 11 0 27 -22 35 -50 4 -14
20 -43 35 -65 15 -22 31 -51 35 -64 4 -14 16 -34 27 -45 10 -11 32 -50 49 -85
37 -78 78 -133 92 -124 6 3 7 1 3 -5 -11 -18 26 -61 52 -62 13 0 20 4 17 10
-3 6 3 10 14 10 12 0 21 -4 21 -10 0 -6 27 -10 60 -10 l60 0 -5 213 c-5 254
-9 307 -25 317 -9 5 -9 9 -1 14 6 4 11 4 11 -1 0 -4 4 -1 9 6 12 19 8 120 -6
146 -5 11 -9 35 -7 53 1 28 -1 33 -17 29 -12 -3 -19 1 -21 15 -3 17 -12 21
-65 25 l-63 4 -2 -88 c-1 -48 -1 -149 1 -223 l3 -135 -19 25 c-11 14 -28 39
-37 57 -26 51 -77 123 -86 123 -5 0 -7 6 -4 14 3 9 -7 24 -25 37 -17 13 -31
29 -31 37 0 8 -9 16 -20 19 -22 6 -26 18 -10 28 26 16 0 86 -38 102 -9 5 -69
7 -133 5z"/>
<path d="M2998 2202 l-57 -3 1 -83 c1 -45 -2 -87 -5 -93 -4 -7 31 -11 110 -12
64 -1 118 -3 120 -5 2 -2 5 -143 6 -315 l2 -311 27 0 c16 0 28 5 28 12 0 9 3
9 12 0 16 -16 105 -16 111 1 3 8 9 7 19 -6 13 -17 15 -17 27 -3 7 8 10 20 6
26 -3 5 -2 10 4 10 7 0 8 17 4 48 -8 54 -8 73 -1 164 6 75 -2 87 -41 57 -35
-28 -48 -23 -17 6 18 16 35 24 46 20 17 -5 18 1 14 91 -3 53 -7 101 -10 106
-3 4 -1 8 3 8 5 0 7 15 5 33 -6 57 12 66 128 62 l100 -3 -1 94 c-1 59 -6 94
-13 96 -6 2 -59 3 -118 3 -84 -2 -110 -5 -123 -18 -21 -22 -28 -21 -23 1 4 16
-8 17 -151 17 -86 0 -182 -1 -213 -3z m617 -61 c-3 -6 -11 -8 -17 -5 -6 4 -5
9 3 15 16 10 23 4 14 -10z m-492 -8 c-3 -10 -10 -23 -15 -29 -9 -12 -1 -44 12
-44 4 0 11 -8 14 -17 5 -13 0 -11 -18 6 -29 27 -31 39 -14 76 13 28 31 35 21
8z m239 -357 c3 -28 1 -33 -11 -27 -19 11 -24 61 -6 61 7 0 15 -15 17 -34z"/>
<path d="M4246 2202 c-3 -3 -79 -5 -168 -6 l-163 -1 1 -110 c0 -60 2 -180 5
-265 2 -85 0 -179 -4 -207 -8 -45 -7 -53 7 -53 9 0 16 -7 16 -16 0 -9 -5 -12
-12 -8 -7 5 -8 3 -3 -6 4 -7 2 -16 -6 -21 -22 -13 -7 -18 31 -10 32 7 33 8 12
15 -12 4 -20 12 -16 17 3 6 12 8 19 5 7 -2 17 0 22 5 5 5 19 -1 35 -16 21 -19
28 -22 37 -11 6 7 7 16 3 20 -4 5 0 6 8 5 8 -2 32 9 52 24 32 25 37 35 40 75
3 46 3 47 36 44 22 -2 32 1 32 10 0 16 48 17 58 1 4 -6 64 -10 147 -10 l140
-1 3 93 2 92 -82 6 c-46 4 -141 4 -212 1 l-129 -6 7 23 c5 13 9 44 9 69 l2 44
90 -4 c50 -2 104 -3 120 -3 17 0 85 2 151 3 l122 3 6 46 c3 25 2 47 -3 49 -5
2 -6 12 -3 24 3 14 -5 29 -30 53 l-36 32 -170 0 c-94 1 -173 -2 -176 -5z m149
-22 c3 -5 1 -10 -4 -10 -6 0 -11 5 -11 10 0 6 2 10 4 10 3 0 8 -4 11 -10z
m-69 -466 c-30 -21 -44 -16 -17 7 13 11 27 17 30 13 3 -3 -3 -12 -13 -20z"/>
<path d="M4971 2190 c-7 -8 -9 -9 -6 -2 10 21 -43 14 -66 -9 -17 -17 -19 -23
-8 -30 8 -5 9 -9 4 -9 -6 0 -22 13 -37 30 -23 26 -31 29 -70 26 -23 -2 -48 -4
-55 -5 -6 -1 -11 -17 -11 -38 1 -21 0 -132 0 -248 -1 -353 1 -434 10 -429 4 3
8 0 8 -5 0 -6 -4 -11 -10 -11 -5 0 -10 -18 -10 -40 0 -35 3 -40 23 -41 12 0
32 -2 44 -5 12 -2 25 1 28 6 4 6 11 7 17 4 5 -3 121 -6 256 -5 179 2 249 5
254 14 5 8 8 9 8 1 0 -7 15 -14 34 -16 32 -4 35 -2 41 32 3 19 7 62 8 95 l2
60 -60 6 c-33 3 -136 5 -230 5 l-170 -2 -3 66 -3 67 90 -4 c78 -3 90 -1 94 15
4 15 5 15 6 -2 1 -17 7 -18 54 -12 28 3 72 6 97 6 l46 0 -1 90 c0 104 13 94
-130 89 -82 -3 -158 -3 -225 0 -24 1 -25 4 -25 64 l0 62 39 -3 c32 -3 38 -1
33 12 -4 9 -2 16 3 16 6 0 10 -6 10 -14 0 -10 35 -13 187 -10 192 2 203 5 188
42 -4 9 -6 45 -5 80 l1 63 -78 -2 c-43 -1 -84 -6 -90 -11 -9 -7 -13 -7 -13 -1
0 6 -36 11 -85 11 -53 0 -85 -3 -85 -10 0 -7 -4 -7 -12 0 -23 17 -85 19 -97 2z
m-167 -21 c-3 -5 -10 -7 -15 -3 -5 3 -7 10 -3 15 3 5 10 7 15 3 5 -3 7 -10 3
-15z m422 -1 c0 -12 -7 -23 -15 -26 -10 -3 -11 0 -5 9 5 8 9 17 10 22 3 14 4
17 8 17 2 0 3 -10 2 -22z m-366 -24 c0 -8 -5 -12 -10 -9 -6 4 -8 11 -5 16 9
14 15 11 15 -7z m-110 -48 c0 -2 -8 -10 -17 -17 -16 -13 -17 -12 -4 4 13 16
21 21 21 13z m220 -46 c0 -5 -5 -10 -11 -10 -5 0 -7 5 -4 10 3 6 8 10 11 10 2
0 4 -4 4 -10z"/>
<path d="M2030 2190 c0 -5 6 -13 14 -17 8 -4 16 -19 18 -33 l4 -25 8 27 c5 16
6 35 2 43 -6 16 -46 21 -46 5z"/>
<path d="M4860 2189 c0 -5 5 -7 10 -4 6 3 10 8 10 11 0 2 -4 4 -10 4 -5 0 -10
-5 -10 -11z"/>
<path d="M5586 1612 c-4 -13 -5 -26 -2 -29 10 -11 18 4 14 29 l-4 23 -8 -23z"/>
<path d="M4138 1563 c-1 -5 -25 -26 -53 -49 -56 -46 -103 -63 -116 -42 -7 10
-9 9 -9 -5 0 -17 -1 -17 -27 0 l-26 18 7 -35 c3 -19 11 -37 17 -38 6 -3 5 -10
-3 -20 -7 -9 -8 -13 -2 -9 6 3 28 1 48 -5 31 -10 39 -9 47 3 6 10 9 10 9 2 0
-9 20 -13 65 -13 l65 0 -2 100 c-1 87 -8 119 -20 93z"/>
<path d="M5781 1464 c0 -11 3 -14 6 -6 3 7 2 16 -1 19 -3 4 -6 -2 -5 -13z"/>
<path d="M6345 1440 c3 -5 8 -10 11 -10 2 0 4 5 4 10 0 6 -5 10 -11 10 -5 0
-7 -4 -4 -10z"/>
</g>
</svg>
