<?xml version="1.0" standalone="no"?>
<!DOCTYPE svg PUBLIC "-//W3C//DTD SVG 20010904//EN"
 "http://www.w3.org/TR/2001/REC-SVG-20010904/DTD/svg10.dtd">
<svg version="1.0" xmlns="http://www.w3.org/2000/svg"
 width="300pt" height="150pt" viewBox="0 0 512.000000 341.000000"
 preserveAspectRatio="xMidYMid meet">

<g transform="translate(0.000000,341.000000) scale(0.100000,-0.100000)"
fill="#fff" stroke="none">
<path d="M4284 2261 c9 -59 -10 -141 -41 -173 -28 -29 -38 -27 -46 7 -3 11 -5
-2 -6 -30 -1 -27 -4 -84 -7 -126 -5 -64 -2 -85 16 -127 12 -28 35 -62 51 -76
16 -14 46 -59 66 -98 37 -72 38 -75 38 -185 0 -104 1 -110 13 -75 7 20 12 48
11 62 -1 14 2 33 6 42 11 26 -10 131 -38 193 -14 29 -41 70 -61 92 -36 41 -66
107 -66 147 0 11 9 40 20 64 20 45 34 47 51 8 8 -17 9 -13 5 17 -4 31 -2 37
14 37 32 0 70 -56 70 -104 0 -49 -30 -96 -60 -96 -26 0 -51 38 -44 69 4 20 3
23 -5 11 -19 -27 -13 -87 11 -110 21 -19 33 -24 51 -21 5 1 6 -3 3 -8 -3 -5
12 -25 34 -45 22 -20 35 -36 30 -36 -6 0 -1 -18 10 -40 20 -38 44 -129 54
-200 2 -19 3 10 0 65 -4 105 -12 147 -46 233 -22 57 -19 74 9 50 32 -27 50
-34 31 -12 -32 37 -48 88 -38 125 5 19 9 50 8 69 0 19 2 53 6 75 3 22 3 33 0
25 -16 -38 -26 -41 -50 -19 -13 12 -27 20 -30 16 -21 -21 -43 60 -53 196 0 9
-6 17 -12 17 -8 0 -9 -13 -5 -39z"/>
<path d="M1695 2000 c-128 -16 -150 -26 -216 -98 -96 -106 -104 -126 -103
-264 2 -120 16 -181 52 -221 12 -13 17 -15 24 -5 5 9 8 8 8 -5 0 -67 220 -152
331 -128 69 15 172 70 165 88 -3 8 -1 11 4 8 6 -3 10 -1 10 4 0 6 4 10 9 9 14
-4 100 131 106 166 9 54 -9 223 -29 260 -18 36 -48 69 -104 115 -54 44 -124
77 -130 60 -2 -5 -10 -2 -19 6 -15 16 -16 16 -108 5z m52 -45 c-4 -8 -12 -15
-19 -14 -10 0 -10 2 0 6 6 2 12 12 12 21 0 8 3 13 6 9 4 -3 4 -13 1 -22z m203
-48 c0 -8 -7 -14 -15 -14 -11 0 -12 4 -4 14 6 7 13 13 15 13 2 0 4 -6 4 -13z
m-115 -105 c12 -9 34 -43 49 -74 24 -49 27 -64 21 -107 -9 -63 -48 -111 -117
-141 -79 -34 -159 -15 -192 46 -6 10 -15 22 -19 25 -4 3 -12 19 -16 35 -5 16
-13 28 -20 27 -14 -4 -15 23 -1 32 6 3 10 15 10 26 0 55 52 98 170 142 32 12
96 6 115 -11z m55 -422 c0 -5 -5 -10 -11 -10 -5 0 -7 5 -4 10 3 6 8 10 11 10
2 0 4 -4 4 -10z m-150 -10 c0 -5 -4 -10 -10 -10 -5 0 -10 5 -10 10 0 6 5 10
10 10 6 0 10 -4 10 -10z"/>
<path d="M423 1985 c-7 -8 -10 -22 -6 -31 5 -13 3 -16 -10 -11 -17 7 -41 -22
-97 -116 -19 -32 -42 -66 -51 -76 -9 -10 -20 -27 -23 -39 -18 -56 -25 -11 -19
128 l6 150 -100 0 -100 0 -1 -41 c-1 -23 3 -48 8 -55 8 -8 8 -14 0 -19 -15
-10 -13 -205 3 -205 8 0 8 -3 2 -8 -6 -4 -11 -26 -11 -48 -1 -23 -4 -54 -8
-69 -5 -19 -3 -25 5 -20 8 6 8 2 0 -12 -9 -17 -9 -43 -2 -156 1 -14 5 -16 20
-8 14 8 20 7 24 -4 4 -9 1 -12 -9 -8 -17 6 -19 -13 -1 -21 6 -3 2 -3 -10 0
-20 5 -22 3 -14 -18 8 -21 15 -23 100 -26 75 -2 91 0 91 12 0 8 -5 18 -10 21
-8 5 -8 11 0 20 6 7 8 30 5 51 -5 33 0 47 29 89 20 30 30 52 24 56 -7 4 -6 9
1 13 6 4 11 5 11 3 0 -2 17 -1 39 3 32 6 38 4 36 -9 -1 -9 -11 -16 -24 -15
-18 0 -19 -1 -7 -15 7 -9 16 -29 20 -46 4 -16 21 -58 37 -93 16 -34 29 -66 29
-71 0 -13 128 -22 190 -13 55 8 55 9 28 22 -30 14 -37 30 -13 30 15 0 7 18
-125 282 -52 103 -57 118 -43 129 8 7 25 36 38 65 12 28 40 68 61 90 43 42 69
84 53 84 -6 0 -7 5 -4 10 3 6 -1 10 -9 10 -10 0 -13 -6 -9 -17 4 -10 2 -14 -5
-10 -6 4 -13 -1 -16 -10 -3 -10 -4 -6 -2 10 3 27 3 27 -58 27 -39 -1 -65 -6
-73 -15z m27 -15 c0 -5 -4 -10 -10 -10 -5 0 -10 5 -10 10 0 6 5 10 10 10 6 0
10 -4 10 -10z m40 -32 c0 -5 -5 -8 -11 -8 -5 0 -7 5 -4 10 3 6 1 10 -5 10 -6
0 -8 5 -4 11 6 11 23 -6 24 -23z m30 12 c0 -5 -2 -10 -4 -10 -3 0 -8 5 -11 10
-3 6 -1 10 4 10 6 0 11 -4 11 -10z m-378 -530 c4 -24 2 -27 -12 -20 -32 17
-43 38 -28 54 17 18 35 4 40 -34z m-27 -99 c-7 -6 -35 27 -35 41 0 7 9 2 20
-12 10 -14 17 -26 15 -29z m56 26 c-13 -13 -26 -3 -16 12 3 6 11 8 17 5 6 -4
6 -10 -1 -17z m-81 -37 c0 -5 -5 -10 -11 -10 -5 0 -7 5 -4 10 3 6 8 10 11 10
2 0 4 -4 4 -10z"/>
<path d="M110 1439 c0 -5 5 -7 10 -4 6 3 10 8 10 11 0 2 -4 4 -10 4 -5 0 -10
-5 -10 -11z"/>
<path d="M810 1992 l-96 -3 4 -297 c2 -163 3 -324 3 -357 l0 -60 84 -1 c71 -1
84 1 83 15 -2 97 4 421 8 421 3 0 14 -19 24 -42 11 -24 31 -61 44 -83 29 -49
109 -190 130 -228 9 -16 20 -25 26 -22 6 4 9 3 8 -2 -9 -32 53 -72 65 -40 4
10 7 10 18 0 7 -7 35 -13 61 -13 l49 0 -6 188 c-7 219 -9 245 -20 262 -4 7 -2
16 5 20 12 7 11 43 -3 183 -1 9 -7 17 -13 17 -7 0 -14 7 -16 16 -2 12 -17 18
-55 21 l-53 4 -2 -78 c-1 -43 0 -131 1 -195 2 -65 1 -118 -3 -118 -3 0 -15 19
-27 43 -12 23 -32 56 -45 73 -13 17 -24 34 -24 39 0 8 -61 86 -93 117 -14 15
-15 22 -5 37 9 15 8 24 -5 45 -25 37 -41 41 -147 38z"/>
<path d="M2535 1992 c-22 -1 -51 -8 -64 -15 -19 -9 -25 -9 -28 1 -4 9 -49 12
-182 12 l-178 0 0 -80 c-1 -80 0 -80 26 -79 14 0 59 0 99 -1 l72 -1 1 -37 c0
-20 1 -144 2 -274 2 -238 2 -238 24 -238 12 0 24 8 26 18 4 16 5 16 6 0 1 -14
10 -18 35 -18 19 0 41 -3 50 -6 11 -4 16 0 16 12 0 17 1 16 15 -2 12 -15 16
-16 24 -5 4 7 9 130 9 272 1 143 4 264 7 269 3 6 49 10 101 10 l94 0 0 50 c0
48 -6 56 -35 50 -5 -1 -6 2 -2 7 5 4 14 8 20 8 17 0 22 45 5 46 -73 3 -109 4
-143 1z m-289 -71 c-1 -16 -4 -27 -8 -24 -15 9 -8 -21 10 -40 17 -20 17 -20
-10 -2 -29 18 -35 43 -18 76 15 28 27 23 26 -10z m373 -18 c0 -25 -1 -26 -9
-8 -12 27 -12 35 0 35 6 0 10 -12 9 -27z m-176 -266 c3 -8 1 -20 -4 -28 -5 -8
-9 -12 -10 -9 0 3 -2 15 -5 28 -4 24 10 31 19 9z m36 -70 c-2 -1 -26 -20 -54
-41 l-50 -38 42 41 c23 23 48 41 54 41 7 0 10 -1 8 -3z m-87 -169 c-7 -7 -12
-8 -12 -2 0 6 3 14 7 17 3 4 9 5 12 2 2 -3 -1 -11 -7 -17z m29 -65 c13 -16 12
-17 -3 -4 -10 7 -18 15 -18 17 0 8 8 3 21 -13z"/>
<path d="M3035 1990 c-2 -3 -18 -5 -34 -4 -17 1 -31 -3 -31 -8 0 -7 -5 -6 -14
1 -9 8 -48 11 -112 9 l-99 -3 -2 -145 c0 -80 3 -174 7 -209 6 -40 5 -83 -2
-118 -9 -42 -8 -59 2 -79 10 -18 16 -21 22 -12 6 10 8 10 8 1 0 -7 5 -13 11
-13 6 0 8 7 5 16 -4 10 6 6 25 -10 31 -27 57 -30 51 -7 -1 7 1 10 6 7 5 -3 23
7 41 22 25 21 33 36 35 67 2 35 5 40 26 41 49 3 70 15 71 43 l1 26 7 -29 6
-28 19 21 c11 12 24 21 29 21 6 0 0 -11 -13 -25 -13 -14 -22 -26 -19 -26 2 -1
54 -3 115 -5 l111 -2 6 76 c3 42 3 79 1 82 -3 3 -85 5 -182 6 -147 1 -176 3
-173 15 3 8 4 32 3 54 l-2 41 206 2 c114 0 209 3 212 6 2 3 5 30 5 61 0 46 -5
59 -26 81 -26 26 -30 26 -172 29 -80 1 -147 -1 -150 -5z m-35 -60 c0 -5 -4
-10 -10 -10 -5 0 -10 5 -10 10 0 6 5 10 10 10 6 0 10 -4 10 -10z m59 -4 c9
-10 8 -15 -2 -19 -8 -3 -13 3 -14 14 -2 23 1 24 16 5z"/>
<path d="M4499 1992 c-1 -4 -3 -41 -4 -83 l-2 -76 103 3 104 3 2 -112 c2 -62
3 -146 3 -189 1 -72 17 -128 37 -128 4 0 8 -5 8 -12 0 -6 -11 -1 -25 12 l-25
23 0 -70 0 -71 44 1 c24 1 42 5 40 9 -3 4 2 13 9 20 8 7 12 20 9 30 -5 19 13
25 23 8 4 -7 12 -7 25 0 23 12 40 13 21 1 -12 -8 -12 -13 3 -35 9 -14 22 -26
28 -26 6 0 3 10 -8 22 -10 12 -14 18 -7 15 6 -4 14 -3 18 3 3 5 0 10 -7 10
-10 0 -10 2 1 9 11 7 11 13 -3 32 -18 26 -21 74 -6 84 6 3 10 -2 10 -12 0 -15
2 -16 10 -3 7 11 4 17 -10 24 -22 10 -28 31 -7 23 12 -5 15 21 15 158 0 93 -3
115 -21 136 -21 24 -21 27 3 64 l20 30 -5 -40 c-3 -22 -3 -34 1 -27 3 6 14 12
24 12 10 0 22 5 25 10 3 6 13 10 21 10 8 0 13 -4 10 -9 -4 -5 20 -9 55 -8 l61
2 2 75 1 75 -47 3 c-42 3 -47 1 -42 -15 5 -17 5 -17 -9 0 -13 16 -37 17 -261
17 -135 -1 -247 -4 -247 -8z m558 -8 c-3 -3 -12 -4 -19 -1 -8 3 -5 6 6 6 11 1
17 -2 13 -5z m-163 -20 c5 -14 4 -15 -9 -4 -17 14 -19 20 -6 20 5 0 12 -7 15
-16z m40 -43 c-6 -6 -11 1 -18 29 l-7 25 15 -25 c8 -14 12 -27 10 -29z m26 34
c0 -8 -4 -15 -10 -15 -5 0 -10 7 -10 15 0 8 5 15 10 15 6 0 10 -7 10 -15z
m-20 -60 c-7 -9 -15 -13 -19 -10 -3 3 1 10 9 15 21 14 24 12 10 -5z m-133 -41
c-3 -3 -12 -4 -19 -1 -8 3 -5 6 6 6 11 1 17 -2 13 -5z m38 -334 c3 -5 1 -10
-4 -10 -6 0 -11 5 -11 10 0 6 2 10 4 10 3 0 8 -4 11 -10z m-8 -137 c1 -24 0
-25 -6 -8 -7 17 -6 35 2 35 2 0 3 -12 4 -27z m-102 -43 c4 -11 11 -18 16 -15
5 4 9 1 9 -4 0 -16 -20 -13 -26 4 -4 8 -10 12 -15 9 -5 -3 -9 2 -9 10 0 23 17
20 25 -4z"/>
<path d="M1295 1980 c-3 -6 1 -13 9 -16 9 -3 16 -16 17 -28 l0 -21 11 22 c6
12 8 29 5 37 -7 18 -33 21 -42 6z"/>
<path d="M3457 1982 c-14 -3 -17 -10 -12 -32 3 -15 2 -30 -2 -33 -5 -3 -7 -83
-6 -179 1 -95 2 -237 3 -315 1 -139 2 -143 23 -144 12 -1 147 -2 299 -3 l276
-1 7 30 c8 37 8 126 0 134 -4 3 -91 6 -195 6 l-188 0 -6 35 c-14 86 -27 80
163 80 l169 0 -1 81 -2 80 -135 -1 c-215 -3 -195 -9 -197 55 l-1 55 35 0 c19
0 32 4 28 9 -3 5 -1 12 5 16 5 3 10 -1 10 -10 0 -13 21 -15 159 -14 123 0 161
3 165 14 2 7 2 16 -2 20 -4 4 -5 33 -4 66 l4 60 -69 -2 c-37 -1 -74 -6 -80
-11 -9 -7 -13 -7 -13 0 0 14 -133 12 -142 -2 -6 -8 -10 -8 -15 0 -5 6 -36 12
-69 13 -50 1 -63 -2 -70 -16 -4 -10 -6 -21 -6 -25 3 -15 -15 -8 -33 12 -15 17
-16 20 -3 15 9 -4 19 -1 23 5 7 11 -67 12 -118 2z m423 -19 c-1 -18 -18 -35
-24 -24 -4 6 -2 11 4 11 6 0 8 5 5 10 -3 6 -1 10 4 10 6 0 11 -3 11 -7z m-320
-23 c0 -5 -2 -10 -4 -10 -3 0 -8 5 -11 10 -3 6 -1 10 4 10 6 0 11 -4 11 -10z
m374 -14 c-8 -20 -24 -21 -24 0 0 8 5 12 10 9 6 -3 10 -1 10 6 0 7 2 10 5 7 3
-3 3 -13 -1 -22z m33 -8 c-3 -8 -6 -5 -6 6 -1 11 2 17 5 13 3 -3 4 -12 1 -19z
m-497 -22 c0 -2 -7 -6 -15 -10 -8 -3 -15 -1 -15 4 0 6 7 10 15 10 8 0 15 -2
15 -4z m480 -16 c0 -5 -4 -10 -10 -10 -5 0 -10 5 -10 10 0 6 5 10 10 10 6 0
10 -4 10 -10z m-132 -25 c-3 -3 -9 2 -12 12 -6 14 -5 15 5 6 7 -7 10 -15 7
-18z m-167 -3 c-7 -2 -18 1 -23 6 -8 8 -4 9 13 5 13 -4 18 -8 10 -11z m-44
-99 c-3 -10 -5 -4 -5 12 0 17 2 24 5 18 2 -7 2 -21 0 -30z m-10 -95 c-3 -8 -6
-5 -6 6 -1 11 2 17 5 13 3 -3 4 -12 1 -19z m27 -144 c3 -8 2 -12 -4 -9 -6 3
-10 10 -10 16 0 14 7 11 14 -7z"/>
<path d="M4146 1949 c-8 -44 -8 -121 2 -116 4 3 7 -14 7 -36 0 -24 12 -67 28
-101 l28 -60 -30 -30 c-33 -36 -61 -87 -61 -114 0 -10 -5 -23 -11 -29 -16 -16
-23 -150 -11 -193 10 -35 10 -35 11 18 1 54 14 70 25 29 8 -33 65 -109 76
-102 6 3 10 -1 10 -10 0 -8 5 -24 12 -34 14 -24 -2 -47 -47 -68 l-30 -14 40 5
c22 2 49 7 61 11 18 6 22 2 28 -25 3 -18 6 -59 6 -91 0 -32 5 -61 10 -64 11
-7 14 32 12 142 -2 69 -1 72 33 106 20 20 38 31 41 25 9 -15 24 12 24 45 0 27
25 87 36 87 3 0 3 -3 1 -7 -3 -5 -1 -26 4 -48 14 -67 -1 151 -17 245 -16 91
-54 188 -86 217 -17 15 -16 10 6 -33 52 -104 64 -257 29 -354 -56 -150 -49
-138 -83 -143 -18 -3 -33 7 -64 42 -92 107 -103 228 -28 314 34 38 77 6 89
-66 9 -56 -4 -102 -32 -117 -33 -17 -51 -2 -69 59 l-15 46 0 -53 c-1 -65 8
-83 73 -147 28 -27 45 -43 39 -35 -19 21 -16 48 7 60 28 15 43 83 37 175 -6
98 -37 167 -109 242 -55 56 -62 76 -62 186 -1 71 -9 87 -20 36z m78 -595 c3
-8 2 -12 -4 -9 -6 3 -10 10 -10 16 0 14 7 11 14 -7z"/>
<path d="M2883 1394 c-46 -40 -54 -44 -74 -34 -14 8 -19 8 -15 1 5 -7 1 -9 -8
-5 -9 4 -16 1 -16 -6 0 -10 -3 -10 -15 0 -13 10 -15 9 -15 -9 0 -12 7 -24 15
-27 11 -5 13 -10 5 -19 -12 -15 21 -21 122 -24 l67 -2 0 85 c-1 48 -4 86 -8
86 -3 -1 -29 -21 -58 -46z"/>
<path d="M2744 1389 c-3 -6 -3 -13 0 -16 3 -4 6 -1 6 5 0 6 6 9 14 6 8 -3 16
-1 19 3 3 5 -3 9 -13 10 -11 1 -22 -3 -26 -8z"/>
<path d="M4816 1323 c-11 -11 -6 -25 7 -20 6 2 26 -2 42 -10 28 -13 29 -13 10
2 -30 25 -52 35 -59 28z"/>
</g>
</svg>
