<?xml version="1.0" standalone="no"?>
<!DOCTYPE svg PUBLIC "-//W3C//DTD SVG 20010904//EN"
 "http://www.w3.org/TR/2001/REC-SVG-20010904/DTD/svg10.dtd">
<svg version="1.0" xmlns="http://www.w3.org/2000/svg"
 width="60pt" height="60pt" viewBox="0 0 619.000000 403.000000"
 preserveAspectRatio="xMidYMid meet">

<g transform="translate(0.000000,403.000000) scale(0.100000,-0.100000)"
fill="#F90716" stroke="none">
<path d="M2390 3999 c0 -4 5 -31 11 -60 5 -30 14 -78 20 -106 46 -260 107
-587 114 -615 6 -23 2 -29 -42 -54 -122 -71 -320 -239 -374 -319 -16 -23 -29
-33 -39 -29 -22 9 -149 56 -387 145 -29 10 -77 28 -105 38 -29 11 -91 34 -138
51 -125 47 -130 47 -75 3 200 -163 413 -341 454 -380 13 -12 46 -40 73 -60 55
-43 55 -38 15 -148 -38 -104 -59 -215 -64 -350 l-6 -121 -41 -12 c-22 -7 -75
-26 -116 -42 -41 -16 -133 -50 -205 -75 -71 -25 -150 -55 -175 -65 -25 -10
-90 -35 -145 -55 -55 -21 -101 -38 -102 -39 -1 0 187 0 416 2 l418 3 16 -43
c10 -24 17 -47 17 -50 0 -16 67 -149 113 -223 27 -44 71 -106 98 -137 27 -31
49 -59 49 -61 0 -9 -352 -621 -383 -667 -35 -51 -32 -50 92 55 46 38 103 86
126 105 137 114 229 192 301 257 l82 73 63 -38 c135 -80 302 -141 434 -157 30
-4 57 -11 60 -15 3 -5 12 -46 20 -92 44 -256 108 -628 113 -663 l6 -40 7 40
c4 22 11 69 17 105 6 36 20 119 32 185 12 66 26 145 30 175 24 150 47 278 53
287 4 6 33 14 64 18 124 15 369 108 463 175 l28 20 88 -78 c48 -42 110 -95
138 -118 28 -22 123 -103 211 -178 88 -76 168 -141 177 -147 10 -5 2 15 -22
53 -35 57 -289 495 -349 603 l-24 43 42 48 c82 94 194 292 234 414 l15 45 412
5 c378 5 408 6 364 19 -45 14 -142 50 -189 71 -11 5 -135 50 -276 101 l-256
92 -6 121 c-7 130 -32 266 -67 362 -35 95 -35 95 16 134 26 19 81 65 123 101
42 36 160 134 264 218 103 84 187 155 187 157 0 3 -8 1 -17 -5 -10 -5 -52 -20
-93 -34 -41 -14 -113 -40 -160 -57 -47 -18 -146 -53 -220 -80 -74 -26 -166
-60 -205 -74 l-70 -25 -25 32 c-46 59 -112 127 -179 181 -77 63 -194 142 -223
151 -22 8 -22 0 7 160 36 190 114 650 111 652 -1 2 -37 -59 -80 -135 -43 -75
-91 -159 -107 -187 -16 -27 -71 -124 -123 -215 -61 -108 -98 -164 -107 -162
-131 33 -320 39 -475 16 -89 -13 -108 -13 -115 -2 -5 7 -63 108 -130 223 -66
116 -135 235 -153 265 -18 30 -54 91 -79 135 -26 44 -47 77 -47 74z m274 -618
c37 -62 66 -114 64 -115 -2 -1 -27 -12 -55 -24 l-53 -21 -5 22 c-9 37 -55 291
-55 302 0 11 11 -5 104 -164z m981 142 c-4 -16 -15 -77 -25 -138 -10 -60 -21
-122 -25 -137 l-7 -26 -51 21 c-29 11 -53 21 -55 22 -4 3 159 285 165 285 3 0
2 -12 -2 -27z m-342 -247 c43 -8 80 -16 82 -18 2 -2 -16 -37 -39 -78 -93 -163
-228 -395 -234 -402 -4 -4 -49 66 -100 155 -51 89 -97 169 -102 177 -89 145
-91 149 -67 155 121 27 338 32 460 11z m-480 -168 c43 -73 113 -194 157 -268
44 -74 80 -141 80 -149 0 -7 -23 -54 -51 -102 -36 -64 -56 -89 -70 -89 -11 0
-61 16 -113 36 l-94 36 -11 71 c-7 40 -16 95 -21 122 -14 75 -45 247 -61 335
-17 97 -19 91 41 116 30 13 57 23 60 24 3 0 40 -60 83 -132z m728 99 l36 -15
-24 -138 c-13 -77 -28 -161 -32 -189 -35 -214 -46 -272 -54 -282 -5 -7 -23
-17 -41 -22 -17 -5 -62 -21 -101 -35 -82 -30 -73 -36 -142 92 l-42 77 59 100
c76 131 162 280 190 330 66 120 61 113 89 105 14 -4 42 -14 62 -23z m244 -131
c89 -60 285 -245 285 -269 0 -7 -19 -18 -42 -25 -45 -13 -95 -31 -213 -77 -38
-15 -112 -42 -164 -61 l-93 -33 7 47 c3 26 20 121 37 212 17 91 35 193 40 227
12 73 2 75 143 -21z m-1241 42 c10 -49 66 -345 76 -408 5 -30 12 -67 15 -82
l6 -26 -93 34 c-51 19 -102 38 -113 43 -32 15 -257 98 -308 115 -17 5 -14 12
23 56 23 27 72 77 108 111 68 62 247 189 268 189 6 0 15 -15 18 -32z m-699
-299 c60 -22 128 -47 151 -56 l41 -15 -29 -54 -30 -55 -47 43 c-25 24 -84 73
-130 111 -46 37 -80 67 -75 67 5 0 58 -18 119 -41z m2610 32 c-3 -6 -45 -43
-93 -84 -48 -40 -100 -85 -116 -100 -33 -31 -33 -31 -70 34 l-26 47 102 36
c57 21 123 46 148 56 52 21 63 24 55 11z m-2250 -166 c17 -7 55 -22 85 -33 30
-11 91 -34 135 -50 44 -17 114 -43 156 -57 l75 -26 18 -100 c11 -57 15 -104
10 -108 -5 -4 -55 -24 -110 -43 l-102 -36 -139 117 c-77 64 -181 149 -232 190
-50 41 -91 81 -91 88 0 12 34 77 52 100 9 11 49 0 143 -42z m1960 -20 c24 -49
24 -50 6 -65 -11 -8 -107 -87 -215 -175 -108 -88 -207 -168 -219 -177 -21 -17
-25 -17 -112 13 -135 46 -125 31 -104 150 9 55 21 105 26 109 4 4 28 15 53 23
134 46 501 185 509 192 8 9 29 -17 56 -70z m-1037 -95 l23 -40 -51 0 -51 0 23
40 c13 22 25 40 28 40 3 0 15 -18 28 -40z m-989 -164 c178 -147 245 -206 239
-210 -5 -4 -107 -43 -238 -90 -69 -24 -156 -56 -195 -70 -38 -14 -71 -26 -72
-26 -9 0 -1 170 12 245 20 126 68 285 85 285 5 0 80 -60 169 -134z m2112 67
c31 -100 38 -129 54 -228 15 -92 20 -235 9 -235 -7 0 -336 118 -456 163 l-57
22 22 23 c12 13 76 67 142 120 66 53 148 120 183 149 34 29 67 53 72 53 5 0
19 -30 31 -67z m-1066 21 c68 -11 166 -64 221 -118 95 -96 145 -247 123 -376
-37 -216 -221 -379 -429 -380 -72 0 -186 36 -250 80 -104 71 -177 199 -187
329 -18 235 144 436 378 471 53 8 64 7 144 -6z m262 -59 c-6 -25 -13 -45 -16
-45 -8 1 -74 61 -69 64 11 8 84 32 89 30 4 -2 2 -24 -4 -49z m-650 30 l37 -16
-35 -29 c-19 -16 -37 -29 -40 -30 -4 0 -9 20 -11 45 -4 50 -2 51 49 30z m-153
-312 c-3 -27 -7 -49 -9 -51 -3 -4 -74 52 -75 59 0 6 66 36 83 38 5 1 5 -20 1
-46z m959 29 l37 -17 -36 -29 c-40 -32 -49 -28 -57 27 -7 42 -1 44 56 19z
m277 -102 c14 -5 77 -27 140 -50 63 -23 155 -56 203 -74 l88 -31 -6 -40 c-3
-22 -8 -52 -11 -67 l-6 -28 -312 0 -313 0 -30 48 c-55 86 -85 142 -81 152 1 5
41 41 88 79 l85 68 65 -24 c36 -14 76 -29 90 -33z m-1328 -21 c49 -39 88 -74
86 -78 -16 -35 -91 -161 -101 -169 -7 -6 -137 -11 -325 -14 -355 -5 -319 -14
-324 82 -3 43 -2 45 32 56 19 7 73 27 120 44 47 17 128 47 180 65 52 19 124
45 160 59 36 13 69 25 74 25 4 1 48 -31 98 -70z m-689 -231 l6 -38 -166 0
c-92 0 -164 2 -161 5 5 5 110 46 168 65 14 5 50 17 80 28 l55 21 6 -22 c3 -12
8 -39 12 -59z m2660 19 c75 -28 137 -53 137 -57 0 -6 -83 -6 -288 -1 -49 1
-52 3 -48 24 3 12 8 39 11 60 7 45 -10 47 188 -26z m-1844 -35 c-41 -4 -45 2
-24 34 l17 26 19 -28 19 -29 -31 -3z m862 21 c7 -16 15 -31 17 -35 2 -5 -15
-8 -37 -8 -47 0 -47 1 -24 41 21 36 26 36 44 2z m-1061 -118 c0 -5 -268 -476
-275 -483 -6 -6 -79 79 -122 143 -58 87 -107 182 -137 264 l-25 70 92 3 c220
7 467 9 467 3z m320 -20 c5 -14 14 -56 20 -93 6 -37 13 -74 15 -83 6 -18 -92
-105 -436 -390 l-46 -38 -45 38 -46 38 135 234 c75 129 147 253 160 277 l25
42 104 0 c103 0 105 0 114 -25z m821 -3 c9 -15 57 -97 107 -182 50 -85 114
-195 142 -244 58 -99 58 -100 -3 -149 l-36 -30 -118 99 c-65 55 -154 131 -198
169 -44 39 -99 86 -123 106 l-43 36 16 88 c8 48 15 91 15 96 0 4 7 15 16 23
12 12 37 16 112 16 95 0 97 -1 113 -28z m637 14 c28 -28 -197 -432 -261 -467
-10 -6 -33 25 -89 124 -42 73 -106 183 -143 246 l-66 114 276 -6 c152 -3 279
-8 283 -11z m-1312 -82 c30 -8 30 -14 -5 -41 l-29 -23 -10 41 c-9 35 -8 40 5
35 8 -3 26 -9 39 -12z m349 -16 c-11 -49 -14 -50 -46 -28 -37 27 -37 35 4 48
48 15 49 15 42 -20z m-110 -80 c46 -39 83 -74 80 -77 -2 -4 -15 -78 -29 -166
-15 -88 -31 -180 -35 -205 -5 -25 -15 -79 -21 -120 -21 -132 -12 -120 -84
-120 l-63 0 -23 138 c-12 75 -26 160 -31 187 -4 28 -17 104 -28 170 -12 66
-21 123 -21 126 0 9 153 139 163 139 4 0 45 -32 92 -72z m-325 -154 c0 -14 4
-44 9 -67 5 -23 15 -73 21 -112 7 -38 23 -125 36 -193 13 -68 24 -130 24 -139
0 -16 -30 -14 -135 9 -96 21 -385 147 -385 167 0 4 30 32 67 62 80 65 276 233
318 271 37 35 45 35 45 2z m635 -108 c77 -67 169 -143 202 -171 34 -27 62 -52
62 -55 1 -10 -118 -71 -215 -111 -95 -38 -177 -62 -261 -74 -40 -6 -43 -5 -43
17 0 12 5 39 10 58 9 32 63 338 77 432 3 23 10 35 16 31 6 -4 74 -61 152 -127z
m-1204 -167 l38 -30 -67 -57 c-37 -32 -91 -77 -121 -102 l-54 -44 18 34 c24
48 137 230 143 230 2 0 21 -14 43 -31z m1706 -51 c28 -46 65 -110 83 -143 30
-54 30 -58 9 -39 -13 12 -37 32 -54 46 -16 14 -63 54 -104 89 l-73 63 36 33
c19 18 40 33 45 33 4 0 31 -37 58 -82z m-847 -255 c-1 -28 -47 -294 -53 -299
-2 -3 -10 30 -17 73 -24 151 -29 178 -36 211 l-6 32 56 0 c47 0 56 -3 56 -17z"/>
</g>
</svg>
