<?xml version="1.0" standalone="no"?>
<!DOCTYPE svg PUBLIC "-//W3C//DTD SVG 20010904//EN"
 "http://www.w3.org/TR/2001/REC-SVG-20010904/DTD/svg10.dtd">
<svg version="1.0" xmlns="http://www.w3.org/2000/svg"
 width="60pt" height="60pt" viewBox="0 0 401.000000 431.000000"
 preserveAspectRatio="xMidYMid meet">

<g transform="translate(0.000000,431.000000) scale(0.100000,-0.100000)"
fill="#F90716" stroke="none">
<path d="M1870 4303 c-362 -34 -637 -123 -914 -295 -166 -103 -348 -264 -467
-413 -58 -72 -169 -233 -169 -244 0 -3 -14 -14 -31 -23 -26 -15 -30 -22 -24
-46 4 -20 -3 -48 -24 -95 -32 -71 -81 -219 -101 -304 -11 -47 -15 -53 -48 -64
-51 -16 -63 -28 -53 -48 5 -9 12 -56 16 -105 4 -53 14 -104 25 -125 13 -27 19
-67 23 -157 l4 -122 -40 -5 c-42 -6 -74 -28 -63 -45 3 -5 26 -15 51 -21 44
-11 45 -12 45 -50 0 -38 -1 -39 -45 -45 -43 -7 -45 -8 -45 -42 0 -38 24 -94
41 -94 6 0 7 -6 3 -12 -4 -7 -3 -10 1 -5 5 4 16 0 25 -8 11 -10 32 -14 62 -12
l46 3 43 -105 c24 -58 45 -108 47 -112 1 -3 -18 -9 -43 -11 -25 -3 -52 -12
-61 -19 -15 -12 -14 -15 6 -31 12 -10 30 -18 40 -18 39 0 47 -9 41 -48 -6 -33
-10 -37 -49 -45 -40 -8 -42 -10 -42 -44 0 -40 34 -103 56 -103 8 0 14 -4 14
-10 0 -13 110 -13 130 0 8 5 11 10 6 10 -5 0 0 10 11 22 11 13 25 31 30 41 8
16 15 11 52 -38 24 -31 72 -87 107 -124 35 -38 64 -71 64 -75 0 -3 -18 -6 -40
-6 -22 0 -57 -7 -77 -15 -29 -12 -33 -18 -23 -30 6 -8 30 -18 53 -22 39 -8 42
-11 45 -46 3 -41 -6 -49 -59 -51 -28 -1 -29 -3 -29 -49 0 -37 5 -53 24 -72 13
-13 21 -26 18 -29 -3 -3 2 -6 11 -6 10 0 17 -4 17 -10 0 -16 109 -12 126 5 9
8 12 15 8 15 -4 0 3 12 17 26 20 21 24 38 27 100 2 41 9 74 14 74 6 0 27 -13
47 -29 60 -47 202 -137 281 -178 l75 -38 -75 -6 c-84 -7 -110 -15 -110 -35 0
-12 56 -34 88 -34 13 0 17 -57 4 -77 -4 -6 -24 -14 -45 -18 -35 -7 -37 -9 -37
-46 0 -42 18 -89 33 -89 6 0 7 -3 4 -7 -4 -3 5 -12 19 -20 36 -18 121 -17 140
2 12 11 12 15 2 15 -7 0 -3 7 9 15 29 20 43 73 43 162 0 96 9 101 117 65 l81
-28 -100 -247 -101 -247 -313 0 -314 0 0 -130 0 -130 1405 0 1405 0 0 130 0
130 -327 2 -327 3 -96 245 -96 245 87 31 c47 17 91 34 97 38 5 3 15 -1 22 -9
6 -8 32 -17 56 -21 l44 -6 0 -44 c0 -48 -9 -56 -59 -58 -23 -1 -28 -6 -29 -32
-3 -38 9 -71 37 -104 18 -20 33 -25 86 -28 50 -3 68 -1 80 12 9 9 14 16 10 16
-4 0 3 12 14 26 18 23 21 41 21 126 0 78 3 100 15 104 51 20 -25 44 -139 44
l-91 0 90 46 c126 65 301 181 363 241 16 16 58 17 67 3 4 -6 4 -28 0 -50 -6
-36 -11 -41 -46 -50 -37 -10 -39 -13 -39 -48 0 -37 19 -75 48 -100 29 -22 167
-13 163 12 -1 3 7 18 16 33 13 20 19 52 21 123 2 52 8 99 13 105 5 5 9 12 9
17 0 11 -70 28 -117 28 -24 0 -43 3 -43 8 0 4 27 33 59 65 32 32 78 85 102
117 24 33 47 59 50 60 4 0 9 -13 12 -30 4 -16 16 -39 27 -50 18 -18 31 -21 95
-19 41 2 72 5 69 8 -2 2 6 15 17 28 24 25 37 86 38 174 1 30 6 60 12 66 6 6 8
16 5 22 -8 13 -71 31 -109 31 l-27 0 28 57 c16 32 37 79 47 106 17 46 19 47
61 47 23 0 46 5 49 11 4 6 13 8 21 5 8 -3 14 -1 14 4 0 6 9 19 19 29 20 20 28
64 34 193 3 62 1 67 -21 77 -12 6 -34 11 -48 11 -25 0 -26 2 -20 48 3 26 8 88
11 137 4 50 10 104 15 120 5 17 10 72 13 123 5 92 4 93 -22 107 -22 11 -29 25
-39 77 -18 90 -69 252 -103 327 -16 35 -29 67 -29 72 0 15 -132 230 -183 299
-327 434 -833 711 -1390 760 -106 9 -240 11 -317 3z m280 -12 c69 -6 48 -8
-105 -8 -107 0 -172 3 -150 7 53 10 151 10 255 1z m-482 -26 c-6 -7 -298 -85
-313 -84 -22 1 46 23 170 55 134 34 152 38 143 29z m538 -1 l90 -7 -4 -33 c-4
-31 -7 -34 -36 -34 -37 0 -96 -34 -96 -55 0 -12 -18 -15 -102 -17 l-103 -2
110 -5 110 -6 3 -72 3 -73 -163 -2 -163 -2 162 -6 c159 -5 162 -5 182 -31 11
-15 17 -29 14 -33 -3 -3 0 -6 8 -6 12 0 9 -33 -18 -192 -17 -106 -32 -194 -32
-195 -1 -2 -65 -3 -144 -3 l-143 0 -36 207 c-35 205 -36 208 -17 232 14 17 19
39 18 80 -1 31 -3 48 -6 39 -4 -16 -7 -17 -34 -3 -16 9 -29 19 -29 23 0 10 79
45 120 53 35 6 35 6 5 8 -21 1 -33 8 -40 24 -6 14 -27 28 -55 37 -25 8 -46 15
-47 15 -2 1 -6 16 -9 33 l-6 32 184 0 c102 0 225 -3 274 -6z m294 -29 c96 -24
263 -79 290 -97 20 -12 19 -12 -235 63 -268 78 -291 92 -55 34z m-760 11 c0
-8 3 -21 6 -30 5 -13 -1 -16 -32 -16 -48 0 -104 -32 -104 -59 0 -11 5 -23 10
-26 21 -13 9 -25 -35 -36 -25 -6 -44 -14 -41 -16 2 -3 30 2 61 11 30 9 60 14
65 11 19 -12 10 -35 -15 -41 -24 -6 -26 -10 -23 -58 3 -48 2 -52 -27 -63 -29
-12 -28 -12 13 -6 34 5 42 3 42 -11 0 -9 7 -16 15 -16 9 0 12 -6 9 -15 -5 -12
3 -15 39 -15 35 0 47 -4 51 -17 7 -23 57 -309 61 -348 2 -16 8 -50 14 -75 15
-63 14 -78 -6 -83 -15 -4 -14 -5 3 -6 18 -1 23 -11 32 -68 7 -38 25 -141 41
-231 26 -149 27 -163 12 -172 -14 -7 -41 35 -170 267 -120 215 -150 277 -140
284 11 7 9 9 -6 9 -16 1 -46 48 -137 213 l-117 212 32 12 32 12 -37 -5 c-37
-6 -39 -5 -57 37 -20 43 -20 44 -1 74 16 25 33 33 110 54 50 13 89 26 86 28
-2 2 -46 -7 -97 -21 -79 -22 -95 -24 -108 -12 -9 7 -29 18 -46 23 -26 8 -74
67 -64 78 8 7 483 133 507 134 13 1 22 -5 22 -13z m842 -66 l248 -73 -23 -41
c-16 -29 -30 -42 -52 -46 -16 -4 -39 -11 -50 -17 -16 -8 -53 0 -168 35 -135
42 -146 47 -132 62 33 37 3 75 -67 87 -21 3 -38 11 -38 17 0 27 14 57 24 53 6
-2 122 -37 258 -77z m-1371 -88 l16 -28 -60 -11 c-73 -14 -108 -43 -89 -73 6
-11 12 -39 12 -62 l-1 -43 -108 -67 c-60 -38 -113 -68 -119 -68 -6 0 -35 22
-63 49 l-53 50 82 52 c45 28 79 55 77 60 -3 4 0 11 6 15 8 4 9 3 5 -4 -14 -22
8 -12 125 63 65 41 123 75 129 75 5 0 10 5 10 10 0 19 15 10 31 -18z m1837
-122 c90 -56 165 -100 168 -98 2 3 -66 49 -153 103 -169 105 -228 149 -125 94
98 -53 287 -183 287 -197 0 -8 17 -24 37 -36 l37 -22 -47 -46 c-79 -76 -66
-78 -240 35 -155 101 -155 101 -126 113 27 12 29 11 35 -14 l7 -27 1 28 c0 16
6 38 12 49 16 30 -13 54 -83 70 l-57 13 20 33 c20 30 23 32 43 19 11 -8 94
-60 184 -117z m-818 85 c0 -8 -9 -19 -20 -25 -18 -10 -20 -8 -20 25 0 33 2 35
20 25 11 -6 20 -17 20 -25z m308 -26 c110 -34 142 -47 142 -61 0 -9 5 -20 10
-23 13 -8 13 -71 -1 -96 -8 -16 -17 -19 -42 -15 -30 6 -30 5 -7 -4 13 -6 26
-13 28 -14 2 -2 -112 -220 -253 -484 l-256 -480 -38 15 -37 14 48 287 c26 158
50 303 53 322 3 19 17 108 32 198 l26 162 43 0 c33 0 44 4 49 19 3 11 15 23
26 26 27 9 52 69 44 105 -5 23 -14 30 -58 42 l-52 15 35 11 c42 13 31 15 208
-39z m-805 34 c-7 -2 -19 -2 -25 0 -7 3 -2 5 12 5 14 0 19 -2 13 -5z m-733
-48 c0 -2 -10 -9 -22 -15 -22 -11 -22 -10 -4 4 21 17 26 19 26 11z m136 -80
c19 -15 19 -15 0 -30 -29 -22 -36 -19 -36 15 0 34 7 37 36 15z m170 -17 c3
-12 13 -28 20 -36 16 -16 18 -32 4 -32 -5 0 -10 7 -10 16 0 8 -16 22 -35 30
-41 17 -47 44 -11 44 17 0 27 -7 32 -22z m-106 2 c0 -5 -7 -10 -16 -10 -8 0
-12 5 -9 10 3 6 10 10 16 10 5 0 9 -4 9 -10z m35 0 c3 -5 2 -10 -4 -10 -5 0
-13 5 -16 10 -3 6 -2 10 4 10 5 0 13 -4 16 -10z m1489 -18 c-5 -15 -4 -15 9 1
12 14 16 15 20 3 5 -12 -20 -46 -34 -46 -2 0 -5 16 -7 36 -1 20 2 33 8 29 5
-3 7 -13 4 -23z m86 -7 c0 -8 -9 -15 -20 -15 -13 0 -18 5 -14 15 4 8 12 15 20
15 8 0 14 -7 14 -15z m52 -6 c18 -12 25 -18 15 -15 -10 3 -27 6 -38 6 -10 0
-19 7 -19 15 0 19 3 19 42 -6z m-1768 -63 c4 -19 13 -39 21 -46 20 -17 19 -40
-2 -57 -14 -11 -11 -11 9 1 23 13 27 13 32 1 4 -11 21 -15 56 -15 46 0 50 2
50 24 0 16 7 27 20 31 11 3 20 12 20 18 0 19 22 -18 120 -201 51 -95 95 -171
97 -168 3 3 -18 47 -46 99 -28 52 -51 98 -51 103 0 4 15 -5 33 -21 17 -17 8
-5 -20 25 -48 51 -53 60 -55 105 -1 40 -2 43 -5 15 l-5 -34 -27 49 c-28 51
-30 85 -5 85 8 0 20 -12 27 -27 6 -16 14 -30 17 -33 10 -8 120 -210 120 -219
0 -5 7 -14 16 -22 13 -10 15 -29 12 -95 -2 -46 -2 -81 1 -78 2 2 16 -17 31
-43 l26 -48 -25 -23 -26 -23 28 17 c15 9 29 15 31 13 9 -12 226 -419 226 -424
0 -4 -78 66 -172 156 -95 89 -177 166 -183 171 -6 6 -1 17 15 30 l25 20 -29
-17 -29 -17 -51 50 c-28 28 -135 128 -237 224 l-187 173 22 19 c21 18 21 18
-5 3 -26 -15 -27 -15 -73 32 l-47 48 103 66 c57 36 106 66 109 66 4 1 10 -14
13 -33z m720 -18 c3 -29 6 -71 7 -93 0 -28 3 -34 8 -21 9 23 32 -114 24 -144
-3 -11 0 -20 6 -20 6 0 11 -18 11 -44 0 -23 5 -57 11 -74 7 -20 7 -37 1 -48
-8 -14 -11 -5 -17 37 -4 30 -9 63 -12 74 -2 11 -8 52 -12 90 -5 39 -13 81 -19
95 -9 24 -20 87 -27 163 -5 57 11 44 19 -15z m1232 -39 c78 -52 103 -74 95
-82 -6 -6 -11 -19 -11 -28 0 -10 -13 -28 -30 -41 -16 -13 -60 -54 -97 -91 -38
-38 -121 -119 -186 -179 l-117 -110 -43 26 c-28 18 -34 20 -18 6 13 -11 31
-25 40 -30 13 -8 9 -17 -30 -56 l-47 -47 -38 28 -39 27 33 -29 33 -29 -128
-125 c-70 -69 -154 -149 -185 -178 -53 -49 -57 -51 -67 -32 -9 17 12 62 135
296 128 240 148 274 162 263 13 -11 14 -11 3 7 -10 17 1 45 90 214 87 166 104
192 114 177 53 -71 46 -67 106 -64 50 3 62 -1 110 -33 81 -53 115 -74 104 -62
-5 6 -45 34 -87 62 -43 28 -78 56 -78 61 0 5 8 11 18 15 22 6 42 45 42 80 0
14 2 25 5 25 3 0 53 -32 111 -71z m-2247 4 c2 -2 -21 -3 -53 -3 l-57 0 22 31
21 30 32 -28 c17 -15 33 -29 35 -30z m1901 27 c0 -18 -30 -70 -40 -70 -6 0
-10 -7 -10 -15 0 -21 -72 -165 -81 -160 -3 3 -17 -22 -30 -55 -13 -32 -27 -56
-31 -54 -4 3 -8 -3 -8 -12 0 -22 -67 -155 -86 -170 -8 -6 -14 -15 -14 -20 0
-20 -153 -313 -161 -308 -5 3 -6 -2 -3 -10 3 -9 2 -16 -4 -16 -5 0 -17 -18
-26 -41 -9 -22 -21 -37 -26 -34 -11 7 85 205 99 205 4 0 19 27 32 59 13 33 27
57 31 55 4 -3 8 2 8 10 0 28 81 177 92 170 6 -4 9 -1 6 7 -3 8 2 21 11 29 9 8
17 23 19 33 5 27 111 237 120 237 5 0 19 25 31 55 13 30 26 55 31 55 4 0 10
14 14 30 5 28 26 43 26 20z m772 -197 c90 -109 167 -203 171 -209 8 -14 -143
-89 -153 -77 -71 82 -110 138 -106 151 4 15 10 176 7 209 -2 20 -55 42 -110
44 l-52 3 38 38 c20 21 38 38 39 38 2 0 76 -89 166 -197z m23 16 c70 -83 140
-179 132 -179 -4 0 -215 251 -251 299 -42 56 47 -34 119 -120z m-2845 46 c37
-19 39 -42 5 -51 -21 -5 -25 -12 -25 -46 0 -22 4 -47 10 -57 7 -15 -3 -32 -51
-89 l-61 -71 -70 35 -70 35 27 29 c16 17 24 33 20 41 -5 7 -4 10 2 6 6 -4 44
33 85 81 125 147 110 142 -27 -9 -64 -71 -47 -46 40 59 54 65 71 80 77 67 5
-8 22 -22 38 -30z m264 -4 l37 -38 -37 -22 -37 -22 -30 31 c-28 28 -55 42 -42
20 3 -5 -1 -10 -9 -10 -9 0 -16 4 -16 10 0 5 -7 6 -17 3 -11 -4 -14 -3 -9 6 4
6 15 10 24 7 12 -4 89 38 97 53 1 1 18 -16 39 -38z m-174 -27 c0 -2 -9 -4 -21
-4 -11 0 -18 4 -14 10 5 8 35 3 35 -6z m2438 -24 c7 0 12 -4 12 -8 0 -11 -63
-57 -73 -54 -5 1 -6 -2 -3 -7 3 -5 -15 -28 -41 -50 -35 -31 -49 -38 -55 -29
-7 10 -8 9 -5 -2 4 -15 -36 -60 -54 -60 -5 0 -8 -4 -6 -9 3 -13 -172 -173
-183 -166 -6 3 -10 0 -10 -9 0 -8 -16 -24 -36 -36 -19 -12 -33 -25 -30 -28 8
-8 -24 -42 -40 -42 -7 0 -14 6 -17 13 -3 9 -9 8 -22 -5 -17 -16 -17 -17 3 -11
12 3 22 1 22 -4 0 -16 -109 -115 -119 -109 -5 3 -11 -3 -14 -14 -3 -10 -20
-28 -38 -39 -19 -12 -34 -24 -34 -29 0 -10 -145 -147 -172 -160 -16 -9 -22 -9
-26 2 -3 8 0 20 8 26 10 8 14 8 18 -2 3 -7 6 -3 6 9 1 14 14 31 35 45 18 13
33 26 32 30 -2 15 182 178 187 166 3 -7 6 -3 6 10 1 14 13 30 34 42 17 11 28
20 22 20 -5 0 20 27 55 59 53 48 68 57 80 48 13 -10 13 -10 3 4 -11 13 -7 21
21 48 24 23 35 29 39 19 3 -7 6 -3 6 10 1 14 10 27 26 34 13 6 22 14 20 18 -3
4 14 25 38 45 23 21 77 71 119 113 70 67 80 73 95 61 16 -13 17 -12 4 4 -12
16 -11 21 14 47 26 27 30 28 45 15 9 -8 22 -15 28 -15z m202 -21 c0 -35 -2
-40 -17 -34 -10 4 -31 10 -47 14 -36 8 -47 31 -14 31 13 0 34 7 48 14 14 8 26
14 28 15 1 1 2 -17 2 -40z m-2381 -6 c20 -21 85 -82 144 -136 l107 -98 0 -57
-1 -57 -20 25 c-12 14 -24 25 -28 25 -4 0 -46 36 -94 80 -63 57 -87 86 -88
105 -1 17 -3 19 -6 7 -4 -15 -15 -9 -64 34 -32 28 -59 55 -59 59 0 7 56 46 69
49 2 1 20 -16 40 -36z m2221 2 c0 -15 -38 -40 -47 -31 -7 7 26 46 39 46 4 0 8
-7 8 -15z m40 -6 c0 -5 -7 -9 -15 -9 -15 0 -20 12 -9 23 8 8 24 -1 24 -14z
m-2158 -227 c97 -90 178 -167 180 -170 2 -4 20 -20 41 -36 l39 -28 -28 -32
-29 -31 29 27 30 27 85 -79 c47 -43 127 -117 176 -164 l90 -87 -50 24 c-204
98 -857 414 -927 449 l-87 43 51 63 c36 43 59 62 75 62 18 0 23 5 23 28 0 16
8 32 19 39 22 14 54 73 40 73 -5 0 -9 5 -9 11 0 14 27 -10 252 -219z m2058
176 c0 -16 -3 -19 -11 -11 -6 6 -8 16 -5 22 11 17 16 13 16 -11z m-12 -20 c7
-7 12 -19 12 -28 0 -9 9 -26 19 -37 11 -12 17 -24 14 -27 -4 -3 1 -6 11 -6 9
0 14 -4 11 -10 -3 -5 1 -10 9 -10 8 0 42 -33 75 -74 l60 -73 -207 -98 c-114
-54 -222 -105 -239 -113 -30 -14 -34 -14 -55 4 l-23 19 19 -22 c18 -22 18 -22
-32 -46 -38 -18 -54 -22 -63 -13 -9 8 -10 8 -5 -2 6 -9 -43 -37 -171 -98 -258
-125 -330 -157 -313 -140 8 8 98 91 200 185 l185 169 30 -26 c30 -27 30 -27 7
-1 -12 14 -22 30 -22 35 0 6 17 25 39 42 30 24 41 28 52 19 11 -10 11 -9 1 4
-10 14 15 41 175 188 103 94 190 171 193 171 3 0 11 -5 18 -12z m-1570 -106
c-8 -9 -7 -11 3 -7 9 3 24 -13 42 -45 15 -28 27 -52 27 -55 0 -11 -25 -4 -44
13 -21 17 -21 17 -3 -4 9 -11 14 -24 10 -27 -3 -4 0 -7 8 -7 24 0 84 -69 127
-145 78 -138 122 -225 122 -241 0 -8 4 -13 9 -10 5 3 12 -2 15 -11 8 -20 -29
-62 -43 -48 -10 12 -121 215 -121 223 0 3 17 -10 38 -28 25 -24 21 -17 -13 20
-28 30 -57 66 -64 80 -62 106 -121 222 -121 235 0 8 -5 15 -11 15 -6 0 -8 7
-5 16 3 8 2 12 -4 9 -6 -4 -10 16 -10 52 l0 58 24 -40 c18 -29 22 -43 14 -53z
m-913 68 c-3 -5 1 -10 9 -10 9 0 16 -9 16 -20 0 -15 7 -20 26 -20 l25 0 -20
-27 c-11 -16 -33 -43 -49 -61 l-28 -34 -49 23 c-28 13 -52 25 -54 26 -6 4 111
133 121 133 5 0 6 -4 3 -10z m1501 -17 c-3 -16 -8 -45 -12 -65 -3 -21 -11 -38
-18 -38 -8 0 -8 -2 0 -8 8 -5 1 -67 -22 -212 -45 -275 -37 -250 -84 -250 -22
0 -40 3 -40 6 0 3 -22 134 -50 290 -27 156 -50 288 -50 294 0 6 53 10 141 10
l141 0 -6 -27z m1267 -80 l56 -68 -60 -28 c-33 -15 -63 -25 -68 -23 -4 3 -29
32 -55 65 -42 54 -45 61 -26 61 12 0 35 14 52 30 16 17 33 30 38 30 4 0 33
-30 63 -67z m-2976 0 c35 -16 63 -35 64 -43 0 -10 2 -11 6 -3 3 9 30 0 86 -29
45 -23 84 -44 87 -47 3 -3 11 -7 18 -9 7 -1 76 -32 153 -69 92 -44 135 -69
127 -75 -9 -5 -4 -8 14 -8 15 0 75 -23 134 -50 104 -49 107 -51 89 -69 -9 -11
-27 -22 -39 -24 -11 -2 -1 -5 24 -5 28 0 38 2 27 7 -17 6 -18 8 -3 20 14 12
23 11 58 -5 39 -17 40 -19 17 -25 -19 -5 -14 -7 19 -8 l42 -1 0 -55 c0 -30 -3
-55 -6 -55 -3 0 -46 19 -95 41 -78 37 -87 44 -77 58 11 14 11 14 -3 4 -8 -7
-25 -9 -38 -6 -18 5 -21 11 -17 32 3 14 3 21 0 15 -8 -17 -82 0 -164 39 -41
19 -140 66 -220 104 -80 38 -155 73 -168 78 l-22 10 31 40 31 40 -35 -38 c-35
-38 -35 -38 -66 -22 -35 18 -38 30 -15 56 9 10 14 25 10 34 -8 23 -68 45 -121
45 -49 0 -50 1 -35 31 14 24 13 24 87 -8z m3218 -39 c8 -20 15 -37 15 -38 0 0
-26 -1 -57 -1 -32 0 -73 -3 -90 -7 -54 -12 -38 9 35 46 37 19 70 35 74 35 4 1
15 -15 23 -35z m-1765 -69 c0 -22 7 -69 15 -105 30 -132 54 -274 48 -283 -11
-18 -24 35 -30 121 -3 46 -9 78 -13 72 -7 -11 -41 212 -39 255 l0 20 9 -20 c5
-11 9 -38 10 -60z m-605 25 c-4 8 23 -15 61 -53 55 -54 66 -69 54 -77 -9 -5
-19 -5 -26 1 -8 7 -11 5 -10 -7 2 -27 -19 -27 -53 2 -27 22 -30 29 -19 43 10
13 10 14 -2 4 -11 -10 -17 -9 -32 4 -13 12 -18 30 -18 72 l1 56 25 -30 c15
-16 23 -23 19 -15z m2415 -3 c0 -16 -18 3 -23 25 -6 22 -5 22 8 4 8 -11 15
-24 15 -29z m-220 -3 c0 -3 -4 -14 -10 -24 -7 -13 -6 -21 5 -30 25 -20 17 -40
-21 -56 -36 -15 -37 -15 -65 18 -15 18 -28 37 -29 41 0 4 24 19 53 32 53 25
67 29 67 19z m-1830 -19 c20 -24 6 -28 -15 -5 -10 11 -13 20 -8 20 6 0 16 -7
23 -15z m-1373 -45 c-6 -17 -15 -30 -19 -30 -4 0 -8 -9 -8 -19 0 -22 -87 -251
-101 -266 -15 -16 -11 10 21 109 38 117 68 186 81 186 6 0 7 4 4 10 -8 13 13
52 25 45 4 -3 3 -19 -3 -35z m161 15 c6 -3 12 -11 12 -20 0 -20 -54 -20 -74 1
-9 8 -16 11 -16 6 0 -5 -9 -12 -21 -15 -15 -4 -19 -2 -15 8 3 8 -2 18 -10 23
-15 8 97 5 124 -3z m-141 -37 c-15 -9 -19 -4 -11 16 5 14 9 15 15 5 5 -8 3
-17 -4 -21z m3083 -5 l31 -38 -44 -20 c-24 -11 -68 -31 -98 -44 -29 -14 -100
-46 -157 -73 -112 -52 -117 -54 -106 -35 4 6 -4 2 -17 -9 -13 -12 -57 -37 -98
-56 l-74 -35 -21 21 c-12 12 -20 20 -19 17 2 -2 -3 -11 -10 -20 -10 -14 -10
-14 4 -4 9 7 19 10 22 6 16 -16 4 -32 -35 -48 -79 -32 -75 -31 -58 -9 14 18
14 18 -2 5 -10 -7 -15 -17 -12 -22 3 -5 -4 -9 -15 -9 -11 0 -23 -5 -26 -10 -4
-6 -11 -8 -16 -5 -5 4 -9 2 -9 -3 0 -10 -228 -117 -235 -110 -3 3 19 24 50 47
30 23 55 44 55 47 0 3 -27 -16 -60 -41 -33 -26 -58 -50 -55 -55 3 -4 -2 -11
-11 -14 -10 -4 -13 -2 -7 6 4 7 -6 3 -21 -10 -17 -13 -43 -22 -62 -22 -31 0
-34 3 -34 28 0 22 7 32 34 45 26 12 36 13 40 4 3 -8 5 -7 5 3 1 9 52 39 128
75 153 73 148 71 138 54 -5 -7 7 -1 26 13 50 38 138 80 151 72 6 -4 8 -3 5 3
-4 6 15 20 43 31 59 24 65 12 18 -30 l-33 -29 36 25 c20 14 39 23 42 20 3 -4
4 5 2 18 -4 19 1 28 21 37 15 6 29 9 32 6 3 -3 16 5 29 17 13 12 23 18 23 14
0 -4 6 -2 13 4 12 11 254 130 263 130 3 0 2 -6 -2 -12 -4 -7 5 -2 19 11 15 14
27 21 27 17 0 -4 7 0 16 8 22 23 29 20 64 -21z m-2877 11 l34 -16 -34 -81
c-18 -44 -32 -82 -30 -84 3 -2 19 32 37 77 18 44 36 80 40 80 4 0 121 -54 260
-120 186 -88 259 -118 276 -114 14 4 24 2 24 -5 0 -6 -8 -8 -17 -5 -14 5 -15
4 -4 -4 8 -6 11 -18 7 -33 -7 -23 -6 -23 6 -3 13 20 18 18 256 -94 133 -63
241 -116 239 -118 -1 -2 -125 15 -274 38 -232 35 -270 43 -266 57 4 14 3 14
-5 1 -12 -16 14 -19 -453 51 l-277 42 27 66 c21 50 33 67 49 69 12 2 22 7 22
12 0 5 14 23 30 40 27 27 30 37 29 88 0 31 -3 51 -6 44 -2 -6 -9 -10 -13 -7
-8 5 -3 35 6 35 2 0 19 -7 37 -16z m3246 -16 c50 -125 83 -230 86 -275 l3 -51
-80 -12 c-45 -6 -84 -8 -88 -3 -3 4 -16 32 -28 61 -16 41 -18 52 -7 52 7 0 17
9 20 20 3 11 11 20 16 20 5 0 18 9 29 20 15 15 20 33 20 78 0 31 -4 51 -8 45
-6 -10 -16 -10 -43 -1 -18 6 -40 12 -46 14 -23 6 -14 33 12 39 76 16 65 28
130 -137 32 -82 61 -146 63 -140 1 5 -22 72 -53 148 -30 76 -55 142 -55 146 0
19 17 5 29 -24z m-165 6 c23 -9 20 -44 -4 -44 -13 0 -18 5 -14 15 6 13 -6 20
-28 16 -5 0 -8 4 -8 9 0 11 30 13 54 4z m-57 -56 c-20 -13 -27 -9 -27 15 0 34
12 41 26 15 9 -17 9 -25 1 -30z m-37 -23 c0 -54 15 -105 32 -105 4 0 8 -7 8
-16 0 -8 4 -12 10 -9 5 3 7 0 4 -9 -4 -11 4 -15 32 -18 36 -3 39 -6 60 -58 25
-62 23 -64 -42 -73 -36 -4 -44 -2 -53 17 -11 21 -11 21 -5 -1 3 -13 2 -23 -3
-23 -4 0 -120 -15 -258 -34 -137 -19 -272 -37 -300 -41 -27 -4 -173 -24 -323
-44 -150 -20 -269 -34 -265 -30 5 4 120 58 256 120 204 92 251 110 259 98 8
-11 9 -11 5 2 -4 12 8 23 43 39 27 13 47 27 44 31 -3 5 1 6 8 4 7 -3 103 36
212 86 109 50 199 89 200 87 2 -2 8 -12 15 -23 10 -18 11 -17 5 7 -4 19 -1 29
13 37 36 21 43 13 43 -44z m-2005 -7 c26 -28 62 -63 79 -77 18 -15 85 -75 149
-136 l115 -109 -14 -28 c-19 -37 -30 -35 -72 10 -20 20 -32 30 -27 22 12 -20
-200 176 -237 220 -17 19 -27 28 -23 20 4 -8 -16 8 -45 36 -31 31 -50 56 -45
63 5 9 11 9 23 -1 13 -11 14 -11 8 1 -9 13 8 31 30 31 7 0 33 -23 59 -52z
m-1205 -53 c-2 0 5 -10 15 -22 11 -13 31 -23 46 -23 l27 0 -26 -66 -26 -66
-71 7 c-38 4 -72 8 -74 11 -2 2 14 51 35 109 l39 105 20 -27 c11 -15 18 -28
15 -28z m1292 -231 c105 -53 128 -68 129 -87 1 -21 1 -21 8 2 l7 24 37 -32
c40 -36 53 -87 20 -78 -10 3 -39 8 -65 12 -44 6 -306 123 -283 126 6 1 -3 4
-20 8 -29 6 -30 9 -33 63 l-3 57 38 -15 c21 -9 95 -45 165 -80z m-1440 24 c-8
-8 -9 -4 -5 13 4 13 8 18 11 10 2 -7 -1 -18 -6 -23z m164 15 c8 -3 14 -19 14
-38 l0 -33 -30 14 c-16 9 -55 18 -85 21 -30 3 -55 8 -55 10 0 2 5 14 11 25 10
18 17 20 71 14 32 -4 66 -10 74 -13z m72 -9 c22 -5 29 -11 26 -23 -4 -13 -3
-12 6 2 6 10 19 16 28 13 9 -2 33 -7 53 -10 23 -4 40 -14 48 -29 l11 -22 -6
23 c-5 20 -3 21 19 13 14 -6 27 -7 30 -5 9 9 338 -46 368 -61 31 -17 52 -20
29 -5 -12 8 -11 10 7 10 42 0 53 -11 54 -54 1 -23 4 -31 6 -18 2 12 9 20 14
16 6 -3 5 3 -2 14 -7 12 -11 24 -8 27 3 3 56 -2 118 -12 100 -15 111 -19 112
-37 1 -17 2 -18 6 -3 5 20 24 20 232 -12 74 -12 136 -21 137 -21 2 0 4 -22 4
-49 0 -45 -2 -50 -22 -50 -13 0 -31 -1 -40 -1 -10 -1 -81 9 -158 21 -138 21
-140 22 -141 48 -2 23 -2 24 -6 4 -5 -27 -9 -27 -43 -8 -33 19 -52 18 -20 -1
19 -11 21 -14 5 -10 -11 2 -40 7 -65 11 -91 13 -99 15 -93 33 5 15 4 15 -8 1
-12 -13 -25 -14 -76 -6 -55 8 -63 12 -64 30 -1 18 -2 18 -6 4 -5 -21 -43 -19
-223 13 -101 18 -171 30 -348 56 -38 6 -43 10 -38 28 3 12 6 33 6 49 0 29 2
30 48 21z m3482 -39 l0 -35 -59 0 c-33 0 -71 -4 -85 -10 -22 -8 -25 -6 -29 18
-4 26 -4 25 -6 -4 -1 -39 -20 -55 -65 -59 -20 -2 -43 -6 -53 -9 -10 -3 -56 -8
-102 -11 -47 -3 -88 -8 -92 -11 -7 -4 -269 -43 -292 -44 -5 0 -6 10 -3 23 6
22 6 22 -5 1 -12 -24 -20 -26 -219 -54 -103 -14 -136 -16 -142 -7 -6 9 -8 9
-8 1 0 -7 -15 -14 -32 -17 -18 -2 -85 -12 -148 -22 -73 -11 -137 -14 -175 -10
-123 13 -132 23 -53 60 49 23 53 23 60 7 6 -16 7 -15 7 1 1 16 6 17 34 12 17
-4 28 -4 24 1 -10 11 294 52 348 48 25 -2 35 0 26 5 -9 6 2 10 35 13 37 4 53
1 63 -11 12 -14 13 -14 8 2 -4 9 -3 17 2 17 5 0 23 3 40 6 31 6 31 6 31 -35 0
-33 4 -41 18 -40 10 0 12 3 5 6 -7 2 -13 20 -13 38 0 31 3 35 38 41 20 4 63 8
94 8 32 1 52 3 45 5 -6 3 60 15 148 27 88 12 161 20 163 19 2 -1 -7 -19 -19
-39 -11 -20 -19 -36 -16 -36 3 0 16 18 28 40 13 22 26 40 30 40 3 0 20 3 37 6
27 6 31 3 42 -31 7 -20 14 -34 16 -32 3 2 0 17 -6 32 -14 36 -7 40 83 50 71 8
175 21 190 24 4 0 7 -15 7 -34z m-3547 -140 l3 -70 2 73 c2 65 4 72 22 72 12
0 24 -10 30 -22 7 -18 9 -19 9 -5 1 21 -4 21 101 2 47 -8 186 -31 310 -50 300
-47 280 -42 281 -73 l2 -27 4 28 c3 20 9 27 21 23 9 -2 109 -19 222 -36 113
-17 212 -34 220 -37 13 -5 -412 -71 -467 -72 -20 -1 -22 5 -26 57 l-3 57 -2
-60 -2 -61 -317 -43 c-175 -23 -328 -45 -340 -48 -21 -5 -23 -1 -25 33 l-1 39
-4 -37 c-2 -21 -8 -38 -13 -38 -5 0 -15 -3 -24 -6 -13 -5 -16 1 -18 27 l-1 34
-4 -31 c-4 -35 -7 -36 -123 -49 l-55 -7 3 71 4 71 54 0 c43 0 54 3 54 16 0 9
11 27 25 40 20 19 25 33 25 74 0 27 -3 49 -7 48 -20 -4 -89 16 -99 28 -10 13
-12 12 -18 -1 -9 -23 -26 -18 -26 9 0 22 5 24 68 30 37 4 74 11 82 16 23 14
29 1 33 -75z m-222 65 c18 0 9 -59 -10 -70 -30 -15 -31 -14 -31 36 0 38 3 45
16 40 9 -3 20 -6 25 -6z m3589 -46 c6 -14 10 -56 10 -94 0 -59 3 -71 20 -80
11 -6 20 -18 20 -26 0 -9 5 -12 12 -8 8 5 9 0 6 -14 -6 -21 -3 -22 52 -22 52
0 60 3 66 23 8 21 8 21 15 -8 4 -16 7 -59 8 -94 l1 -64 -37 7 c-21 4 -59 9
-85 13 -40 5 -48 9 -49 27 -1 18 -2 19 -6 2 -5 -19 -10 -19 -98 -3 -11 2 -156
26 -322 53 l-303 49 -2 35 -1 35 -4 -32 c-4 -27 -9 -33 -29 -33 -23 0 -24 2
-24 80 0 57 4 80 13 80 6 0 141 18 299 40 158 21 313 42 345 46 32 3 60 8 62
10 11 10 22 2 31 -22z m62 -18 c14 -20 8 -33 -17 -44 -24 -11 -25 -11 -25 28
0 33 3 38 18 33 9 -4 20 -11 24 -17z m188 -11 c0 -19 -4 -35 -10 -35 -5 0 -10
16 -10 35 0 19 5 35 10 35 6 0 10 -16 10 -35z m-30 -12 c0 -7 -4 -13 -10 -13
-5 0 -10 12 -10 28 0 21 2 24 10 12 5 -8 10 -21 10 -27z m-30 12 c0 -18 -50
-21 -51 -2 0 10 -2 10 -6 0 -7 -18 -40 -16 -40 2 0 11 12 15 49 15 36 0 48 -4
48 -15z m-2117 -45 c57 -25 71 -40 40 -41 -10 0 -39 -4 -65 -8 l-48 -8 0 44
c0 25 4 43 8 41 5 -1 34 -14 65 -28z m45 16 c2 -3 2 -9 1 -15 -2 -5 -20 0 -39
10 l-35 20 34 -6 c19 -3 36 -7 39 -9z m1118 -163 c-2 -3 -108 12 -235 33 -126
21 -228 41 -225 44 3 3 108 19 232 35 l227 31 3 -69 c2 -38 1 -72 -2 -74z
m-1086 78 c14 -28 -11 -33 -90 -17 l-65 13 40 7 c22 4 47 9 55 11 36 7 50 4
60 -14z m463 9 c43 -1 16 -16 -40 -23 -40 -5 -42 -4 -32 15 6 12 17 17 26 14
8 -3 29 -6 46 -6z m-693 -31 c-12 -9 -11 -9 5 -4 40 15 59 11 66 -15 l7 -25 1
24 c1 21 4 23 32 17 17 -3 40 -6 50 -6 36 0 19 -17 -48 -48 -53 -24 -100 -35
-213 -51 -80 -11 -157 -20 -172 -19 -27 0 -28 3 -28 48 l0 48 88 12 c48 7 107
16 132 20 25 4 56 8 70 9 20 1 22 -1 10 -10z m939 -10 c69 -11 136 -25 148
-31 12 -6 29 -8 37 -5 9 4 16 2 16 -4 0 -6 4 -7 10 -4 5 3 46 1 90 -6 l80 -12
1 -51 c1 -28 4 -41 6 -28 3 15 11 22 29 22 16 0 24 5 23 18 0 10 -3 12 -6 5
-8 -21 -43 -15 -43 7 0 24 12 25 105 5 39 -9 90 -18 115 -20 25 -3 113 -16
195 -31 83 -14 166 -27 185 -30 91 -11 90 -10 90 -69 0 -39 -4 -53 -12 -50 -7
2 -46 9 -86 15 l-73 12 16 26 16 27 -23 -26 -23 -26 -170 28 c-93 16 -190 31
-215 34 -59 8 -83 15 -92 29 -5 7 -8 8 -8 0 0 -12 -24 -10 -145 11 -44 8 -161
26 -260 41 -132 21 -173 30 -155 36 23 7 22 7 -5 4 -21 -3 -53 8 -105 34 l-75
38 35 6 c71 12 86 13 129 15 23 0 100 -8 170 -20z m-2432 -81 c-2 -18 -4 -6
-4 27 0 33 2 48 4 33 2 -15 2 -42 0 -60z m1750 61 c35 -13 20 -24 -47 -33 -25
-4 -58 -9 -75 -12 -24 -4 -19 1 25 25 64 35 60 34 97 20z m460 -56 c-6 -5
-132 19 -141 28 -5 5 -4 14 3 23 11 13 21 11 76 -16 36 -18 63 -33 62 -35z
m-1029 -49 c-7 -6 -202 -33 -207 -29 -4 5 -9 33 -10 68 -1 10 -6 15 -11 12 -6
-4 -8 -15 -5 -24 3 -12 -2 -22 -17 -29 l-23 -12 23 6 c15 4 22 1 22 -10 0 -18
-27 -27 -72 -24 -19 1 -39 -2 -46 -6 -7 -4 -12 -2 -12 4 0 7 -5 6 -14 -2 -8
-9 -68 -21 -149 -32 -74 -9 -146 -20 -158 -22 -18 -4 -15 0 11 15 46 27 30 27
-22 0 -40 -21 -42 -21 -56 -3 -13 18 -14 18 -8 -2 6 -20 0 -21 -94 -34 -56 -7
-103 -10 -105 -8 -3 3 -11 25 -19 50 -13 45 -13 46 10 51 22 4 24 1 26 -42 l2
-46 3 46 4 47 47 6 c26 4 59 9 75 12 21 4 27 2 28 -13 1 -16 2 -16 6 -1 5 19
8 20 183 43 63 9 126 18 138 21 16 3 21 1 17 -7 -6 -8 -2 -8 14 0 12 7 25 9
30 6 5 -3 11 -1 13 4 1 6 35 13 73 16 39 3 106 12 150 20 100 18 116 18 95 5
-23 -15 2 -11 30 5 l25 13 3 -50 c2 -28 2 -52 0 -54z m2622 74 c0 -25 -3 -29
-10 -18 -13 20 -13 50 0 50 6 0 10 -15 10 -32z m-1990 -3 c0 -5 -76 -45 -86
-45 -4 0 1 9 10 19 16 17 27 22 69 30 4 0 7 -1 7 -4z m-115 -45 c-21 -21 -51
-44 -66 -49 -25 -9 -28 -7 -32 17 -4 25 -4 25 -6 -4 -1 -35 -23 -48 -76 -46
-26 1 -27 0 -7 -6 19 -6 -2 -19 -123 -79 -82 -41 -159 -74 -178 -74 -18 -1
-24 -3 -14 -6 13 -3 0 -13 -43 -34 -34 -16 -67 -26 -72 -22 -6 3 -8 2 -5 -4 8
-13 -181 -103 -219 -104 -20 -1 -23 -3 -10 -6 13 -3 -28 -28 -125 -74 -135
-66 -144 -69 -157 -52 -13 17 -14 16 -7 -4 5 -20 -3 -27 -79 -65 l-86 -43 125
-175 c68 -95 122 -176 120 -178 -2 -3 -14 6 -25 19 l-21 24 17 -28 17 -28 -59
-60 c-32 -32 -61 -59 -64 -59 -3 0 -47 60 -98 134 -82 120 -92 139 -92 179 0
28 6 49 15 57 19 16 4 37 -28 42 -18 3 -12 9 31 31 28 15 52 24 52 20 0 -5 14
-24 32 -43 l30 -35 -24 35 c-13 19 -27 43 -31 52 -5 14 -14 12 -72 -19 -76
-40 -111 -39 -137 5 l-17 28 84 42 84 41 16 -21 c8 -13 15 -28 15 -34 0 -7 7
-14 15 -18 20 -7 19 -4 -6 39 -12 20 -20 37 -18 39 9 9 171 87 174 84 1 -2 7
-12 14 -23 11 -18 12 -17 6 8 -4 22 -2 27 15 27 11 0 20 4 20 10 0 5 15 7 33
5 25 -4 26 -3 8 3 -21 6 -4 17 115 74 173 83 193 91 224 90 20 -1 22 1 7 7
-17 6 -16 8 8 19 14 7 31 10 36 7 5 -4 9 -2 9 4 0 13 209 113 221 105 5 -3 9
-1 9 5 0 12 37 25 70 24 24 -1 24 -1 1 4 -18 4 2 17 98 63 99 48 138 62 214
73 50 8 94 15 97 16 2 0 -13 -17 -35 -39z m415 -7 l35 -35 -62 31 c-65 32 -85
59 -35 46 15 -3 43 -22 62 -42z m-280 29 c0 -12 -358 -347 -370 -347 -6 0 -10
-3 -10 -8 0 -4 -41 -48 -92 -97 -84 -81 -119 -102 -103 -63 4 13 3 14 -9 4
-11 -9 -16 -9 -21 -1 -8 13 83 112 95 105 4 -3 18 11 31 30 l24 35 6 -33 6
-32 2 35 c1 31 15 49 109 143 59 59 111 105 114 101 4 -3 15 7 25 22 l18 28 6
-29 c6 -29 7 -28 8 8 1 37 3 38 74 71 79 38 87 40 87 28z m385 -14 c11 -1 31
-11 45 -22 16 -14 20 -15 11 -4 -7 10 53 -14 138 -54 133 -63 150 -74 146 -92
-6 -20 -5 -20 6 -2 10 17 15 15 57 -25 26 -24 36 -32 23 -16 -31 34 -24 34 52
-4 76 -38 71 -33 63 -65 l-7 -27 -37 34 -37 34 31 -35 c17 -19 31 -42 31 -52
0 -13 -21 -6 -103 35 -76 38 -101 55 -97 66 4 14 3 14 -6 1 -8 -12 -16 -9 -48
20 -20 19 -31 27 -24 18 7 -10 10 -18 7 -18 -4 0 -69 31 -144 69 -95 49 -150
84 -180 114 l-44 45 49 -10 c26 -5 57 -10 68 -10z m-176 -46 l22 -47 -36 37
c-19 21 -35 44 -35 53 0 27 26 4 49 -43z m-764 -68 c-245 -118 -269 -128 -260
-114 3 5 3 21 -1 35 -5 20 -9 23 -15 13 -12 -19 -11 -30 2 -22 8 4 9 -1 4 -17
-4 -13 -8 -25 -10 -27 -6 -7 -632 -304 -648 -307 -13 -3 -16 2 -14 18 2 12 -1
8 -6 -9 -9 -27 -22 -37 -90 -68 -44 -20 -81 -35 -82 -34 -1 2 -12 42 -25 90
-21 81 -21 90 -7 120 8 18 18 71 22 118 4 60 12 92 25 108 25 31 45 28 58 -10
l11 -33 -5 35 c-4 26 -3 31 5 20 9 -13 11 -13 11 1 0 13 57 24 338 63 185 26
347 49 360 51 19 3 22 0 17 -18 -6 -21 -6 -21 6 -2 7 11 13 22 15 24 3 4 446
68 484 70 13 0 -75 -47 -195 -105z m825 71 c31 -16 50 -32 50 -43 0 -14 2 -14
9 -3 7 11 35 -10 125 -94 65 -61 113 -112 109 -119 -3 -6 -3 -8 1 -4 12 10 45
-23 39 -41 -3 -11 -2 -12 4 -4 6 9 30 -8 83 -62 61 -62 71 -76 61 -89 -11 -13
-17 -12 -47 6 -19 11 -34 17 -34 14 0 -3 14 -13 30 -21 17 -9 28 -20 25 -25
-3 -6 1 -7 9 -4 8 3 17 12 20 20 3 8 9 14 14 14 15 0 92 -71 87 -80 -3 -5 4
-12 16 -15 13 -4 18 -12 15 -21 -3 -9 -1 -12 4 -9 12 7 252 -214 244 -226 -2
-4 5 -10 16 -14 24 -8 25 -22 4 -55 -13 -22 -12 -21 8 2 l24 28 68 -69 69 -69
-26 -26 c-14 -14 -21 -28 -16 -31 5 -4 12 1 15 10 4 8 15 20 26 26 18 10 28 3
78 -46 l58 -58 -29 -24 c-16 -14 -33 -23 -38 -21 -5 1 -92 82 -193 178 -101
97 -209 200 -240 229 -32 30 -55 59 -51 65 3 6 3 8 -1 4 -14 -12 -49 29 -42
49 6 14 4 15 -5 6 -9 -9 -23 -3 -60 29 -27 23 -49 44 -49 48 0 3 9 16 20 28
24 25 24 29 5 29 -8 0 -12 -3 -10 -7 2 -4 -2 -15 -9 -26 -13 -17 -17 -15 -70
35 -30 30 -52 59 -49 65 3 6 3 8 -1 4 -4 -3 -20 3 -34 15 -42 34 -255 241
-254 247 0 3 -6 9 -14 13 -46 26 -6 -19 166 -183 l190 -183 -32 -29 -33 -29
36 25 c35 25 37 25 52 8 13 -15 14 -21 4 -32 -10 -12 -9 -12 5 -1 15 11 47
-15 270 -229 139 -132 254 -244 255 -248 2 -6 -316 -243 -335 -250 -13 -4
-334 616 -326 629 4 7 3 9 -4 5 -6 -3 -15 2 -21 11 -8 15 -3 24 27 51 l37 34
-38 -28 c-21 -15 -39 -25 -41 -23 -2 2 -58 108 -124 234 -93 176 -120 236
-115 254 4 15 2 22 -4 18 -6 -4 -17 1 -26 11 -18 21 -70 122 -62 122 3 0 28
-11 55 -25z m480 -15 c113 -17 212 -34 220 -37 8 -3 18 -5 23 -5 4 1 7 -4 7
-10 0 -9 2 -10 8 -2 6 11 72 2 512 -69 19 -3 59 -9 88 -13 29 -4 60 -13 68
-21 8 -8 14 -10 14 -4 0 20 31 11 40 -11 7 -18 9 -19 9 -5 1 10 9 17 21 17 14
0 20 -6 18 -17 -4 -20 35 -43 75 -43 25 0 27 -3 27 -40 0 -37 -2 -40 -40 -50
-38 -10 -40 -13 -40 -49 0 -24 8 -48 21 -65 l21 -26 -23 -75 c-25 -86 -20 -84
-121 -34 -40 20 -56 33 -54 46 2 10 1 12 -1 6 -7 -21 -34 -15 -40 8 -4 12 -8
16 -13 10 -8 -13 -620 282 -620 299 0 6 -4 8 -10 5 -5 -3 -10 -1 -10 5 0 6 -4
9 -9 6 -5 -3 -109 44 -232 104 -123 61 -210 108 -194 106 17 -2 122 -18 235
-36z m-965 -327 c-98 -180 -180 -332 -182 -336 -3 -4 -17 -1 -31 8 l-27 16 24
-20 23 -21 -157 -293 c-87 -160 -161 -296 -166 -301 -4 -5 -91 53 -194 130
l-186 139 60 58 c49 47 59 62 51 75 -8 15 -9 15 -10 -3 0 -11 -25 -42 -58 -71
l-58 -52 -24 20 -24 20 74 68 c62 56 76 65 83 51 5 -11 6 -10 3 7 -3 18 15 40
96 115 55 50 103 91 108 90 4 -1 14 4 20 12 7 8 10 15 7 15 -3 0 5 11 19 25
30 30 31 30 37 8 2 -10 3 -6 1 8 -4 35 55 96 75 77 10 -11 11 -10 6 3 -3 9 1
21 9 28 12 10 20 9 41 -5 l26 -17 -42 -43 c-23 -24 -45 -43 -48 -42 -3 1 -64
-56 -134 -125 -71 -70 -132 -125 -135 -124 -4 1 -8 -1 -10 -5 -1 -4 -14 -19
-28 -33 -14 -15 -24 -29 -20 -32 3 -3 87 72 186 167 124 119 185 170 195 166
10 -3 13 -2 9 5 -3 6 4 21 16 34 l23 24 36 -26 36 -25 -33 28 -33 29 253 241
c139 133 255 240 256 238 2 -1 -76 -150 -173 -331z m189 289 c-4 -18 -10 -29
-15 -26 -5 3 -9 -4 -9 -16 0 -12 -19 -52 -43 -88 -24 -37 -42 -73 -39 -81 3
-8 0 -11 -6 -7 -6 3 -14 1 -18 -5 -5 -8 -3 -9 6 -4 8 5 11 3 8 -6 -3 -8 -11
-13 -17 -11 -7 1 -10 -2 -6 -8 4 -6 -13 -45 -36 -88 -23 -42 -49 -90 -57 -107
-8 -16 -28 -49 -43 -71 -16 -23 -25 -44 -22 -47 3 -4 -2 -9 -11 -13 -9 -3 -14
-10 -11 -14 6 -10 -15 -60 -26 -60 -4 0 -7 9 -6 20 1 11 4 20 7 20 4 0 7 6 7
13 0 16 122 241 165 305 16 23 26 42 23 42 -7 0 115 232 125 240 4 3 11 15 15
28 10 33 16 21 9 -16z m-1606 -25 c8 -27 11 -51 8 -55 -6 -5 -176 15 -183 22
-2 1 -6 16 -9 33 l-6 30 74 10 c40 6 80 10 88 9 8 -1 20 -21 28 -49z m1867
-26 c-5 -22 -4 -23 4 -6 6 12 10 15 10 6 1 -8 4 -11 8 -8 9 10 174 -305 168
-321 -3 -7 -1 -10 5 -7 5 3 14 -12 21 -34 7 -22 15 -38 19 -36 3 2 19 -21 34
-52 19 -39 24 -59 17 -66 -8 -8 -11 -7 -11 3 0 9 -4 8 -14 -5 -13 -18 -17 -13
-52 55 -21 41 -37 78 -36 83 1 4 -2 7 -6 7 -5 0 -14 18 -21 40 -6 22 -16 40
-21 40 -10 0 -130 226 -130 246 0 8 -4 14 -8 14 -12 0 -29 41 -38 87 l-7 38
31 -29 c24 -22 30 -35 27 -55z m-512 1 c-39 -37 -142 -134 -228 -216 l-156
-150 -25 30 -26 29 22 -33 c22 -33 22 -34 4 -51 -11 -10 -126 -120 -257 -246
-131 -125 -239 -226 -241 -224 -33 43 -227 321 -231 331 -3 9 94 61 311 166
272 132 318 151 332 140 15 -11 15 -11 4 3 -10 14 -10 18 5 23 12 5 27 -4 51
-31 l34 -38 -26 36 c-14 20 -26 39 -26 43 0 7 498 254 515 255 6 0 -22 -30
-62 -67z m2018 48 c22 0 24 -21 8 -69 -8 -23 -17 -31 -35 -31 -22 0 -24 4 -24
56 0 47 3 55 16 50 9 -3 24 -6 35 -6z m-846 -270 c-3 -6 0 -7 8 -4 11 4 625
-292 646 -312 2 -1 -6 -16 -18 -32 -11 -16 -18 -32 -14 -36 3 -3 1 -6 -5 -6
-16 0 -130 -172 -125 -188 3 -7 -1 -11 -9 -10 -8 2 -12 -4 -10 -15 2 -10 -3
-16 -10 -15 -8 2 -12 -4 -10 -15 2 -14 -1 -17 -12 -10 -31 17 -521 499 -520
510 1 7 -3 10 -8 7 -5 -3 -64 48 -131 113 -67 65 -158 154 -202 197 l-80 77
253 -126 c139 -69 250 -130 247 -135z m978 248 c42 -6 77 -15 77 -19 0 -4 -4
-19 -9 -32 -8 -20 -19 -25 -68 -31 -58 -7 -114 -8 -120 -2 -8 7 22 96 32 96 5
0 45 -5 88 -12z m-1967 -264 c-24 -104 -52 -224 -61 -266 -9 -43 -20 -78 -24
-78 -3 0 -7 -19 -7 -43 -3 -82 -62 -283 -139 -472 -43 -104 -81 -194 -86 -199
-4 -4 -66 11 -138 35 l-130 44 154 290 c84 160 157 295 162 300 5 6 15 25 22
43 7 17 21 32 30 32 11 0 12 3 4 8 -8 5 20 65 88 192 54 102 97 191 94 198 -3
7 0 10 5 7 5 -3 22 19 37 49 15 31 28 54 30 52 2 -1 -17 -88 -41 -192z m130
118 c-12 -12 -18 8 -10 35 l8 28 4 -28 c2 -16 1 -31 -2 -35z m310 -192 c65
-124 119 -227 119 -230 0 -3 9 -18 19 -33 10 -15 16 -30 13 -34 -4 -3 0 -11 7
-17 8 -6 105 -180 214 -386 l200 -375 -141 -48 c-78 -26 -146 -47 -152 -47 -5
0 -20 26 -31 59 l-22 59 59 17 c33 10 57 20 55 23 -3 2 -28 -4 -56 -13 -38
-12 -55 -14 -63 -6 -6 6 -9 12 -6 14 2 3 62 23 132 47 71 23 127 44 124 46 -2
2 -57 -14 -122 -36 -66 -22 -124 -40 -131 -40 -13 0 -164 390 -164 424 0 12
-4 26 -9 32 -17 16 -50 184 -37 184 7 0 6 3 -2 9 -8 4 -41 132 -78 297 -64
288 -70 322 -55 294 4 -8 61 -116 127 -240z m-2042 173 c-8 -58 -7 -57 -38
-49 -15 4 -28 17 -35 37 -15 44 -14 47 17 52 66 10 64 11 56 -40z m-89 1 c8
-44 -1 -56 -15 -20 -12 33 -13 56 -1 56 5 0 12 -16 16 -36z m2872 -44 c5 0 37
-29 73 -63 58 -55 60 -56 15 -9 l-50 54 228 -113 c141 -71 227 -119 228 -129
0 -9 2 -11 5 -3 6 14 34 6 34 -11 0 -6 -9 -22 -20 -36 -11 -14 -20 -29 -20
-35 0 -5 12 8 27 30 14 22 27 41 29 43 1 2 36 -14 78 -35 l75 -38 -20 -32
c-16 -25 -28 -33 -50 -33 -42 0 -149 56 -149 78 0 13 -2 14 -9 4 -6 -11 -26
-5 -90 27 -45 23 -79 46 -76 51 3 5 0 7 -8 4 -13 -5 -337 150 -337 161 0 4 5
16 11 28 9 19 7 18 -10 -3 l-20 -25 -43 40 c-23 22 -32 27 -18 12 l25 -29 -37
18 c-42 20 -43 21 -26 61 6 15 10 34 9 41 -1 8 26 -1 68 -23 39 -19 74 -35 78
-35z m952 28 c-4 -63 -5 -63 -60 -59 l-51 3 7 37 c8 43 3 37 45 49 59 17 62
16 59 -30z m-118 -19 c-6 -24 -9 -28 -10 -12 -1 24 9 56 16 50 2 -3 0 -20 -6
-38z m-1885 -15 c-3 -26 -6 -75 -6 -110 0 -62 -1 -64 -25 -64 -21 0 -25 4 -21
23 3 12 10 56 16 97 14 92 16 100 31 100 8 0 10 -14 5 -46z m87 -121 c4 -31 2
-53 -3 -53 -6 0 -10 26 -10 57 0 68 5 67 13 -4z m-1838 -89 c21 -74 13 -79
-14 -8 -24 64 -24 64 -12 64 5 0 17 -25 26 -56z m3564 -13 c-6 -18 -13 -30
-15 -28 -2 2 1 18 7 36 6 18 13 30 15 28 2 -2 -1 -18 -7 -36z m-1819 -21 l0
-50 -34 0 -33 0 8 43 c4 23 8 45 9 50 0 4 11 7 25 7 23 0 25 -3 25 -50z m105
13 c11 -63 11 -67 -7 -71 -16 -3 -18 4 -18 52 0 64 16 75 25 19z m-107 -190
l3 -93 -46 0 c-43 0 -45 1 -45 30 0 19 6 33 16 37 11 4 12 8 4 13 -7 5 -9 24
-4 59 7 51 7 52 38 49 l31 -3 3 -92z m126 70 c2 -16 8 -50 11 -78 3 -27 8 -58
11 -67 4 -15 -1 -18 -30 -18 l-36 0 0 95 c0 87 2 95 19 95 13 0 21 -9 25 -27z
m439 -90 c26 -54 47 -104 47 -112 0 -8 3 -11 7 -8 7 8 146 -250 146 -270 0 -7
3 -13 7 -13 6 0 90 -152 90 -164 0 -4 -10 -11 -22 -17 -22 -9 -22 -9 3 -4 36
7 43 -4 16 -25 -22 -18 -22 -18 -69 68 -26 48 -46 93 -43 100 3 7 1 10 -5 7
-5 -3 -14 12 -21 34 -7 22 -15 39 -18 37 -4 -3 -38 57 -76 132 -39 75 -73 139
-76 142 -4 3 -12 24 -19 47 -7 23 -16 41 -19 38 -10 -5 -55 84 -47 92 4 4 11
1 16 -7 8 -13 10 -12 10 3 0 41 29 10 73 -80z m1042 49 l40 -20 -27 -11 c-16
-6 -28 -13 -28 -17 0 -12 34 -33 53 -34 9 0 17 -3 17 -6 0 -6 -154 -233 -198
-291 l-24 -33 -58 51 c-42 36 -57 57 -56 74 0 13 6 23 11 22 6 -1 9 6 9 15 -1
10 3 16 10 15 6 -1 11 6 11 15 0 9 4 20 9 25 5 5 6 2 1 -6 -6 -10 -4 -12 4 -7
7 5 10 14 7 22 -3 7 0 16 6 20 7 5 8 2 3 -6 -6 -9 -4 -11 4 -6 7 5 10 14 7 22
-3 7 0 16 6 20 7 5 8 2 3 -6 -6 -9 -4 -11 4 -6 7 5 10 14 7 22 -3 7 0 16 6 20
7 5 8 2 3 -7 -8 -12 -6 -12 8 0 20 16 23 36 5 25 -8 -4 -10 -3 -5 2 5 5 14 9
20 9 5 0 12 6 15 14 3 9 0 11 -9 6 -8 -5 -11 -4 -6 1 5 5 14 9 20 9 7 0 12 8
12 17 0 9 4 20 9 25 5 5 6 2 1 -6 -6 -10 -4 -12 4 -7 7 5 10 14 7 21 -11 30
29 29 89 -3z m-2012 -29 c4 -3 -2 -20 -12 -37 -10 -17 -30 -53 -45 -79 -14
-26 -34 -59 -43 -74 -10 -14 -18 -32 -19 -38 -2 -15 -182 -355 -194 -369 -5
-4 -13 -5 -20 -1 -11 7 65 160 122 242 16 24 26 43 23 43 -7 0 26 63 123 238
45 80 52 89 65 75z m-1153 -68 c0 -29 -8 -32 -26 -7 -19 24 -17 32 6 32 15 0
20 -7 20 -25z m3419 -25 c-2 -27 -5 -54 -8 -58 -3 -5 -31 -4 -63 2 l-58 10 0
37 0 36 63 10 c34 6 63 11 65 12 2 0 2 -21 1 -49z m-3486 -1 l28 -42 -32 7
c-17 3 -38 6 -45 6 -9 0 -14 12 -14 35 0 49 29 47 63 -6z m37 6 c31 -50 19
-65 -13 -16 -29 44 -32 51 -18 51 5 0 19 -16 31 -35z m3217 -73 c-70 -101
-148 -198 -111 -136 43 69 168 243 172 239 3 -3 -25 -49 -61 -103z m76 45 c-5
-31 -10 -37 -29 -37 l-24 0 26 40 c15 22 28 39 30 37 2 -2 1 -20 -3 -40z
m-1703 -40 l0 -54 -56 -15 -57 -16 7 51 c3 29 6 60 6 70 0 14 9 17 50 17 l50
0 0 -53z m159 -9 c6 -34 9 -63 8 -64 -1 -2 -21 6 -45 16 -40 18 -42 21 -42 65
0 45 0 45 34 45 34 0 34 0 45 -62z m-1648 -70 c78 -112 90 -134 49 -88 -80 89
-138 180 -116 180 2 0 32 -41 67 -92z m1489 -62 l0 -34 -67 -4 c-38 -3 -69 -4
-70 -3 -1 0 0 18 4 38 l6 37 63 0 64 0 0 -34z m174 18 c17 -43 8 -54 -44 -54
l-50 0 0 35 c0 35 0 35 44 35 31 0 46 -5 50 -16z m-1356 -10 c18 -12 21 -19
11 -30 -9 -12 -14 -10 -30 10 -31 39 -21 49 19 20z m-21 -31 c13 -19 9 -24
-45 -71 -56 -49 -60 -51 -81 -35 l-23 15 58 59 c32 33 63 58 68 56 5 -2 15
-12 23 -24z m430 -287 c-8 -23 -40 -4 -216 128 -146 110 -180 140 -171 151 9
11 48 -14 201 -127 104 -78 188 -146 186 -152z m2072 201 c28 -26 51 -50 51
-52 0 -2 -18 -9 -41 -15 -27 -8 -39 -16 -36 -25 4 -8 -30 -40 -89 -85 -52 -40
-93 -75 -90 -77 3 -3 42 24 88 59 98 76 129 94 73 43 -47 -43 -196 -146 -176
-122 23 29 2 19 -58 -27 l-58 -45 -36 68 -37 68 45 32 c24 17 47 37 51 43 4 6
-14 -5 -41 -25 -26 -20 -53 -37 -58 -37 -16 0 -11 4 172 139 100 74 169 118
176 113 7 -4 36 -29 64 -55z m-2280 -89 l189 -142 -23 -45 c-49 -95 -31 -98
-217 38 -130 95 -165 126 -161 140 3 14 -4 21 -28 30 -17 6 -40 11 -50 11 -11
0 -19 4 -19 9 0 11 99 101 111 101 5 0 94 -64 198 -142z m968 -75 l-2 -198
-103 -3 -104 -3 6 28 c3 15 15 84 26 153 11 69 25 146 31 173 l11 47 69 0 68
0 -2 -197z m239 117 c20 -45 41 -122 54 -195 11 -66 23 -132 26 -147 l6 -28
-105 0 c-96 0 -105 2 -110 20 -5 19 0 20 96 22 l102 2 -98 3 c-65 3 -99 8
-102 16 -2 7 -5 97 -8 200 l-4 188 55 -3 56 -3 32 -75z m-432 -164 c-13 -76
-25 -141 -28 -143 -3 -3 -20 0 -40 7 l-35 11 19 42 c10 23 32 74 50 112 18 39
36 81 41 94 18 47 17 14 -7 -123z m1727 6 c-6 -2 -9 -7 -6 -12 4 -7 -75 -3
-102 5 -8 3 -13 21 -13 44 l0 39 63 9 62 8 3 -45 c2 -25 -1 -46 -7 -48z
m-2756 23 c0 -39 -3 -49 -15 -46 -8 1 -35 6 -60 10 -26 4 -45 11 -44 19 1 6 2
23 3 36 1 21 7 25 39 29 75 8 77 7 77 -48z m173 -49 c67 -48 122 -90 122 -93
0 -2 -6 -1 -12 3 -113 68 -258 173 -258 186 0 12 4 9 148 -96z m327 13 c0 -7
-8 -15 -17 -17 -18 -3 -25 18 -11 32 10 10 28 1 28 -15z m1076 -129 c6 -40 5
-56 -4 -62 -9 -5 -17 17 -29 80 -9 48 -17 96 -17 107 1 33 40 -65 50 -125z
m-914 89 c115 -38 142 -56 113 -74 -5 -3 -10 -13 -10 -20 0 -8 -11 -39 -24
-69 l-24 -54 -139 40 c-76 23 -140 43 -142 45 -7 6 58 133 68 133 5 0 28 -7
51 -15 24 -8 45 -13 47 -11 2 2 -18 12 -46 21 -49 16 -59 24 -44 38 11 11 23
9 150 -34z m1492 -30 c18 -33 31 -62 30 -63 -2 -2 -14 -6 -26 -10 -18 -6 -26
2 -53 49 -26 45 -30 59 -20 70 21 26 34 17 69 -46z m-1704 -30 c-25 -49 -39
-67 -50 -63 -20 8 -20 8 20 80 24 43 40 61 50 58 11 -5 7 -20 -20 -75z m516
-41 c28 -8 38 -16 35 -27 -3 -9 -10 -49 -16 -88 -7 -40 -15 -73 -19 -73 -9 0
-115 31 -119 35 -2 1 10 28 25 60 26 53 30 56 58 51 29 -5 30 -5 5 7 -14 6
-26 12 -28 13 -4 2 10 34 15 34 3 0 23 -5 44 -12z m636 -30 c-3 -8 -6 -5 -6 6
-1 11 2 17 5 13 3 -3 4 -12 1 -19z m-377 -8 c0 -19 -7 -20 -110 -20 -60 0
-110 2 -110 4 0 31 15 36 116 36 97 0 104 -1 104 -20z m415 -66 c14 -31 25
-58 25 -59 0 -6 -40 -12 -44 -7 -8 13 -18 122 -12 122 3 0 17 -25 31 -56z
m413 45 c-31 -18 -211 -80 -216 -74 -8 8 -4 10 108 48 108 37 138 44 108 26z
m-458 -18 c0 -10 3 -39 6 -65 5 -36 4 -46 -8 -46 -10 0 -17 19 -24 60 -6 33
-8 63 -5 65 11 12 31 3 31 -14z m-374 -37 c-3 -26 -6 -54 -6 -63 0 -14 -17
-16 -116 -17 l-116 -1 7 36 c3 20 8 48 11 64 l6 27 110 0 111 0 -7 -46z m328
29 c3 -10 8 -39 11 -65 l7 -47 -116 2 -116 2 0 63 0 62 104 0 c91 0 105 -2
110 -17z m-916 -19 c46 -14 82 -28 79 -31 -6 -6 -98 20 -148 41 -52 23 -25 19
69 -10z m1662 -60 l0 -57 -37 7 c-21 3 -50 6 -65 6 -25 0 -27 3 -24 33 2 17 4
37 5 44 1 7 22 13 54 16 28 2 55 4 60 5 4 1 7 -23 7 -54z m-1802 -11 c-2 -46
-6 -57 -18 -54 -8 2 -33 6 -55 9 -52 5 -59 13 -51 56 7 34 8 35 59 39 29 2 56
4 60 5 4 1 7 -24 5 -55z m369 1 c-3 -3 -12 -4 -19 -1 -8 3 -5 6 6 6 11 1 17
-2 13 -5z m58 -29 c78 -14 186 -25 236 -25 l59 0 0 -165 0 -165 66 0 67 0 -8
165 -7 165 49 0 c42 0 243 23 283 32 7 2 19 -12 27 -31 13 -30 13 -33 -2 -27
-29 11 -172 8 -209 -4 -51 -17 -44 -40 14 -48 47 -5 50 -9 48 -59 -3 -46 -4
-48 -40 -56 -35 -8 -38 -12 -38 -44 0 -44 32 -99 63 -107 35 -9 120 -7 137 4
8 5 11 10 6 10 -5 0 1 11 14 25 21 22 25 38 30 128 l6 102 17 -35 c9 -19 43
-97 76 -172 l59 -138 -620 0 c-586 0 -620 1 -614 18 4 9 48 113 99 230 l91
213 36 -6 c19 -4 44 -9 55 -10z m262 -12 c-20 -2 -52 -2 -70 0 -17 2 0 4 38 4
39 0 53 -2 32 -4z m241 0 c-15 -2 -42 -2 -60 0 -18 2 -6 4 27 4 33 0 48 -2 33
-4z m280 -149 c-3 -55 -3 -55 -32 -50 -16 3 -44 6 -62 6 -34 0 -34 1 -34 45
l0 44 58 4 c31 2 61 4 65 5 4 1 6 -23 5 -54z"/>
<path d="M1548 3903 c7 -3 16 -2 19 1 4 3 -2 6 -13 5 -11 0 -14 -3 -6 -6z"/>
<path d="M1485 3890 c-13 -5 -14 -9 -5 -9 8 0 24 4 35 9 13 5 14 9 5 9 -8 0
-24 -4 -35 -9z"/>
<path d="M1438 3873 c7 -3 16 -2 19 1 4 3 -2 6 -13 5 -11 0 -14 -3 -6 -6z"/>
<path d="M1758 3453 c7 -3 16 -2 19 1 4 3 -2 6 -13 5 -11 0 -14 -3 -6 -6z"/>
<path d="M1798 3323 c7 -3 16 -2 19 1 4 3 -2 6 -13 5 -11 0 -14 -3 -6 -6z"/>
<path d="M1688 3293 c7 -3 16 -2 19 1 4 3 -2 6 -13 5 -11 0 -14 -3 -6 -6z"/>
<path d="M2490 3875 c19 -7 42 -13 50 -13 8 0 -1 6 -20 13 -19 7 -42 13 -50
13 -8 0 1 -6 20 -13z"/>
<path d="M2198 3323 c7 -3 16 -2 19 1 4 3 -2 6 -13 5 -11 0 -14 -3 -6 -6z"/>
<path d="M1053 3689 c-35 -22 -46 -37 -15 -20 22 13 58 40 52 41 -3 0 -20 -10
-37 -21z"/>
<path d="M1443 3319 c-35 -22 -46 -37 -15 -20 22 13 58 40 52 41 -3 0 -20 -10
-37 -21z"/>
<path d="M2394 2894 c-18 -14 -18 -15 4 -4 12 6 22 13 22 15 0 8 -5 6 -26 -11z"/>
<path d="M1002 3530 c0 -14 2 -19 5 -12 2 6 2 18 0 25 -3 6 -5 1 -5 -13z"/>
<path d="M1160 3345 c17 -25 33 -45 36 -45 3 0 -9 20 -26 45 -17 25 -33 45
-36 45 -3 0 9 -20 26 -45z"/>
<path d="M1249 3133 l-24 -28 28 24 c25 23 32 31 24 31 -2 0 -14 -12 -28 -27z"/>
<path d="M1199 3073 l-24 -28 28 24 c25 23 32 31 24 31 -2 0 -14 -12 -28 -27z"/>
<path d="M1284 3028 l-19 -23 23 19 c21 18 27 26 19 26 -2 0 -12 -10 -23 -22z"/>
<path d="M2785 3120 c10 -11 20 -20 23 -20 3 0 -3 9 -13 20 -10 11 -20 20 -23
20 -3 0 3 -9 13 -20z"/>
<path d="M2810 3086 c0 -2 8 -10 18 -17 15 -13 16 -12 3 4 -13 16 -21 21 -21
13z"/>
<path d="M2725 3010 c10 -11 20 -20 23 -20 3 0 -3 9 -13 20 -10 11 -20 20 -23
20 -3 0 3 -9 13 -20z"/>
<path d="M712 3210 c0 -14 2 -19 5 -12 2 6 2 18 0 25 -3 6 -5 1 -5 -13z"/>
<path d="M721 3154 c0 -11 3 -14 6 -6 3 7 2 16 -1 19 -3 4 -6 -2 -5 -13z"/>
<path d="M848 3103 c18 -2 45 -2 60 0 15 2 0 4 -33 4 -33 0 -45 -2 -27 -4z"/>
<path d="M1052 3020 c0 -19 2 -27 5 -17 2 9 2 25 0 35 -3 9 -5 1 -5 -18z"/>
<path d="M1330 3234 c-8 -8 -9 -14 -3 -12 6 2 20 -8 33 -22 l22 -25 -21 31
c-11 17 -18 34 -14 38 3 3 4 6 1 6 -3 0 -11 -7 -18 -16z"/>
<path d="M3306 3175 c-9 -26 -7 -32 5 -12 6 10 9 21 6 23 -2 3 -7 -2 -11 -11z"/>
<path d="M3239 3153 c-13 -16 -12 -17 4 -4 16 13 21 21 13 21 -2 0 -10 -8 -17
-17z"/>
<path d="M3194 3118 l-19 -23 23 19 c12 11 22 21 22 23 0 8 -8 2 -26 -19z"/>
<path d="M3286 3125 c-9 -26 -7 -32 5 -12 6 10 9 21 6 23 -2 3 -7 -2 -11 -11z"/>
<path d="M3125 3064 l-40 -36 43 32 c36 27 49 40 40 40 -2 0 -21 -16 -43 -36z"/>
<path d="M3054 3008 l-19 -23 23 19 c21 18 27 26 19 26 -2 0 -12 -10 -23 -22z"/>
<path d="M2919 3003 c-13 -16 -12 -17 4 -4 16 13 21 21 13 21 -2 0 -10 -8 -17
-17z"/>
<path d="M2661 2874 c0 -11 3 -14 6 -6 3 7 2 16 -1 19 -3 4 -6 -2 -5 -13z"/>
<path d="M2749 2873 c-13 -16 -12 -17 4 -4 16 13 21 21 13 21 -2 0 -10 -8 -17
-17z"/>
<path d="M2569 2833 c-13 -16 -12 -17 4 -4 16 13 21 21 13 21 -2 0 -10 -8 -17
-17z"/>
<path d="M2529 2803 c-13 -16 -12 -17 4 -4 9 7 17 15 17 17 0 8 -8 3 -21 -13z"/>
<path d="M2321 2684 c0 -11 3 -14 6 -6 3 7 2 16 -1 19 -3 4 -6 -2 -5 -13z"/>
<path d="M476 2995 c-9 -26 -7 -32 5 -12 6 10 9 21 6 23 -2 3 -7 -2 -11 -11z"/>
<path d="M456 2945 c-9 -26 -7 -32 5 -12 6 10 9 21 6 23 -2 3 -7 -2 -11 -11z"/>
<path d="M436 2895 c-9 -26 -7 -32 5 -12 6 10 9 21 6 23 -2 3 -7 -2 -11 -11z"/>
<path d="M1166 2875 c-9 -26 -7 -32 5 -12 6 10 9 21 6 23 -2 3 -7 -2 -11 -11z"/>
<path d="M3460 3085 c0 -5 5 -17 10 -25 5 -8 10 -10 10 -5 0 6 -5 17 -10 25
-5 8 -10 11 -10 5z"/>
<path d="M3486 3020 c3 -14 11 -32 16 -40 6 -10 7 -7 2 10 -3 14 -11 32 -16
40 -6 10 -7 7 -2 -10z"/>
<path d="M3510 2955 c0 -5 5 -17 10 -25 5 -8 10 -10 10 -5 0 6 -5 17 -10 25
-5 8 -10 11 -10 5z"/>
<path d="M3530 2905 c0 -5 5 -17 10 -25 5 -8 10 -10 10 -5 0 6 -5 17 -10 25
-5 8 -10 11 -10 5z"/>
<path d="M2950 2815 c0 -5 5 -17 10 -25 5 -8 10 -10 10 -5 0 6 -5 17 -10 25
-5 8 -10 11 -10 5z"/>
<path d="M1440 3080 c12 -16 24 -30 26 -30 3 0 -4 14 -16 30 -12 17 -24 30
-26 30 -3 0 4 -13 16 -30z"/>
<path d="M1580 3010 c12 -16 24 -30 26 -30 3 0 -4 14 -16 30 -12 17 -24 30
-26 30 -3 0 4 -13 16 -30z"/>
<path d="M1650 2910 c12 -16 24 -30 26 -30 3 0 -4 14 -16 30 -12 17 -24 30
-26 30 -3 0 4 -13 16 -30z"/>
<path d="M1700 2836 c0 -2 8 -10 18 -17 15 -13 16 -12 3 4 -13 16 -21 21 -21
13z"/>
<path d="M1782 2795 c0 -16 2 -22 5 -12 2 9 2 23 0 30 -3 6 -5 -1 -5 -18z"/>
<path d="M1508 2783 c12 -2 30 -2 40 0 9 3 -1 5 -23 4 -22 0 -30 -2 -17 -4z"/>
<path d="M1618 2773 c12 -2 30 -2 40 0 9 3 -1 5 -23 4 -22 0 -30 -2 -17 -4z"/>
<path d="M396 2795 c-9 -26 -7 -32 5 -12 6 10 9 21 6 23 -2 3 -7 -2 -11 -11z"/>
<path d="M660 2780 c8 -5 20 -10 25 -10 6 0 3 5 -5 10 -8 5 -19 10 -25 10 -5
0 -3 -5 5 -10z"/>
<path d="M740 2745 c14 -8 30 -14 35 -14 6 0 -1 6 -15 14 -14 8 -29 14 -35 14
-5 0 1 -6 15 -14z"/>
<path d="M932 2740 c0 -14 2 -19 5 -12 2 6 2 18 0 25 -3 6 -5 1 -5 -13z"/>
<path d="M830 2705 c14 -8 30 -14 35 -14 6 0 -1 6 -15 14 -14 8 -29 14 -35 14
-5 0 1 -6 15 -14z"/>
<path d="M1100 2692 c0 -5 6 -9 13 -9 6 0 21 -4 32 -7 13 -5 12 -2 -5 8 -29
17 -40 20 -40 8z"/>
<path d="M1410 2670 c8 -5 20 -10 25 -10 6 0 3 5 -5 10 -8 5 -19 10 -25 10 -5
0 -3 -5 5 -10z"/>
<path d="M1510 2625 c14 -8 30 -14 35 -14 6 0 -1 6 -15 14 -14 8 -29 14 -35
14 -5 0 1 -6 15 -14z"/>
<path d="M1600 2585 c14 -8 30 -14 35 -14 6 0 -1 6 -15 14 -14 8 -29 14 -35
14 -5 0 1 -6 15 -14z"/>
<path d="M3208 2733 c7 -3 16 -2 19 1 4 3 -2 6 -13 5 -11 0 -14 -3 -6 -6z"/>
<path d="M3258 2723 c7 -3 16 -2 19 1 4 3 -2 6 -13 5 -11 0 -14 -3 -6 -6z"/>
<path d="M3298 2713 c7 -3 16 -2 19 1 4 3 -2 6 -13 5 -11 0 -14 -3 -6 -6z"/>
<path d="M3348 2703 c7 -3 16 -2 19 1 4 3 -2 6 -13 5 -11 0 -14 -3 -6 -6z"/>
<path d="M2838 2683 c7 -3 16 -2 19 1 4 3 -2 6 -13 5 -11 0 -14 -3 -6 -6z"/>
<path d="M2890 2673 c8 -4 20 -13 27 -22 10 -14 11 -13 6 7 -3 14 -13 22 -27
21 -15 0 -16 -2 -6 -6z"/>
<path d="M2938 2663 c6 -2 18 -2 25 0 6 3 1 5 -13 5 -14 0 -19 -2 -12 -5z"/>
<path d="M2458 2633 c7 -3 16 -2 19 1 4 3 -2 6 -13 5 -11 0 -14 -3 -6 -6z"/>
<path d="M2508 2623 c6 -2 18 -2 25 0 6 3 1 5 -13 5 -14 0 -19 -2 -12 -5z"/>
<path d="M2558 2613 c6 -2 18 -2 25 0 6 3 1 5 -13 5 -14 0 -19 -2 -12 -5z"/>
<path d="M2608 2603 c6 -2 18 -2 25 0 6 3 1 5 -13 5 -14 0 -19 -2 -12 -5z"/>
<path d="M374 2575 c0 -49 1 -71 3 -48 2 23 2 64 0 90 -2 26 -3 8 -3 -42z"/>
<path d="M313 2520 c0 -47 2 -66 4 -42 2 23 2 61 0 85 -2 23 -4 4 -4 -43z"/>
<path d="M1072 2515 c0 -16 2 -22 5 -12 2 9 2 23 0 30 -3 6 -5 -1 -5 -18z"/>
<path d="M3613 2615 c0 -38 2 -53 4 -32 2 20 2 52 0 70 -2 17 -4 1 -4 -38z"/>
<path d="M3623 2445 c0 -38 2 -53 4 -32 2 20 2 52 0 70 -2 17 -4 1 -4 -38z"/>
<path d="M3713 2445 c0 -38 2 -53 4 -32 2 20 2 52 0 70 -2 17 -4 1 -4 -38z"/>
<path d="M1520 2490 c-8 -5 -10 -10 -5 -10 6 0 17 5 25 10 8 5 11 10 5 10 -5
0 -17 -5 -25 -10z"/>
<path d="M1430 2450 c-8 -5 -10 -10 -5 -10 6 0 17 5 25 10 8 5 11 10 5 10 -5
0 -17 -5 -25 -10z"/>
<path d="M2351 2474 c0 -11 3 -14 6 -6 3 7 2 16 -1 19 -3 4 -6 -2 -5 -13z"/>
<path d="M2623 2473 c9 -2 25 -2 35 0 9 3 1 5 -18 5 -19 0 -27 -2 -17 -5z"/>
<path d="M2543 2463 c9 -2 23 -2 30 0 6 3 -1 5 -18 5 -16 0 -22 -2 -12 -5z"/>
<path d="M2463 2453 c9 -2 23 -2 30 0 6 3 -1 5 -18 5 -16 0 -22 -2 -12 -5z"/>
<path d="M3033 2413 c9 -2 23 -2 30 0 6 3 -1 5 -18 5 -16 0 -22 -2 -12 -5z"/>
<path d="M2873 2393 c9 -2 25 -2 35 0 9 3 1 5 -18 5 -19 0 -27 -2 -17 -5z"/>
<path d="M3105 2370 c-9 -16 -13 -30 -11 -30 3 0 12 14 21 30 9 17 13 30 11
30 -3 0 -12 -13 -21 -30z"/>
<path d="M2793 2383 c9 -2 23 -2 30 0 6 3 -1 5 -18 5 -16 0 -22 -2 -12 -5z"/>
<path d="M3423 2353 c9 -2 25 -2 35 0 9 3 1 5 -18 5 -19 0 -27 -2 -17 -5z"/>
<path d="M3333 2343 c9 -2 25 -2 35 0 9 3 1 5 -18 5 -19 0 -27 -2 -17 -5z"/>
<path d="M3243 2333 c9 -2 25 -2 35 0 9 3 1 5 -18 5 -19 0 -27 -2 -17 -5z"/>
<path d="M3153 2323 c9 -2 25 -2 35 0 9 3 1 5 -18 5 -19 0 -27 -2 -17 -5z"/>
<path d="M1140 2435 c-14 -8 -20 -14 -15 -14 6 0 21 6 35 14 14 8 21 14 15 14
-5 0 -21 -6 -35 -14z"/>
<path d="M800 2400 c-19 -11 -30 -19 -25 -19 6 0 26 8 45 19 19 11 31 19 25
19 -5 0 -26 -8 -45 -19z"/>
<path d="M921 2394 c0 -11 3 -14 6 -6 3 7 2 16 -1 19 -3 4 -6 -2 -5 -13z"/>
<path d="M1558 2323 c6 -2 18 -2 25 0 6 3 1 5 -13 5 -14 0 -19 -2 -12 -5z"/>
<path d="M1493 2313 c9 -2 23 -2 30 0 6 3 -1 5 -18 5 -16 0 -22 -2 -12 -5z"/>
<path d="M1372 2220 c0 -14 2 -19 5 -12 2 6 2 18 0 25 -3 6 -5 1 -5 -13z"/>
<path d="M1155 2160 c3 -5 -1 -10 -10 -10 -9 0 -13 -5 -10 -10 5 -8 11 -8 19
-1 9 7 17 7 26 -2 8 -6 6 -2 -4 11 -19 22 -32 30 -21 12z"/>
<path d="M1248 2163 c6 -2 18 -2 25 0 6 3 1 5 -13 5 -14 0 -19 -2 -12 -5z"/>
<path d="M1198 2153 c7 -3 16 -2 19 1 4 3 -2 6 -13 5 -11 0 -14 -3 -6 -6z"/>
<path d="M898 1993 c6 -2 18 -2 25 0 6 3 1 5 -13 5 -14 0 -19 -2 -12 -5z"/>
<path d="M848 1983 c7 -3 16 -2 19 1 4 3 -2 6 -13 5 -11 0 -14 -3 -6 -6z"/>
<path d="M788 1973 c6 -2 18 -2 25 0 6 3 1 5 -13 5 -14 0 -19 -2 -12 -5z"/>
<path d="M580 1630 c12 -16 24 -30 26 -30 3 0 -4 14 -16 30 -12 17 -24 30 -26
30 -3 0 4 -13 16 -30z"/>
<path d="M630 1560 c12 -16 24 -30 26 -30 3 0 -4 14 -16 30 -12 17 -24 30 -26
30 -3 0 4 -13 16 -30z"/>
<path d="M680 1490 c12 -16 24 -30 26 -30 3 0 -4 14 -16 30 -12 17 -24 30 -26
30 -3 0 4 -13 16 -30z"/>
<path d="M1709 2283 c-13 -16 -12 -17 4 -4 9 7 17 15 17 17 0 8 -8 3 -21 -13z"/>
<path d="M1679 2243 c-13 -16 -12 -17 4 -4 9 7 17 15 17 17 0 8 -8 3 -21 -13z"/>
<path d="M1649 2203 c-13 -16 -12 -17 4 -4 9 7 17 15 17 17 0 8 -8 3 -21 -13z"/>
<path d="M1619 2163 c-13 -16 -12 -17 4 -4 9 7 17 15 17 17 0 8 -8 3 -21 -13z"/>
<path d="M1589 2123 c-13 -16 -12 -17 4 -4 9 7 17 15 17 17 0 8 -8 3 -21 -13z"/>
<path d="M1419 2003 c-13 -16 -12 -17 4 -4 9 7 17 15 17 17 0 8 -8 3 -21 -13z"/>
<path d="M1389 1963 c-13 -16 -12 -17 4 -4 9 7 17 15 17 17 0 8 -8 3 -21 -13z"/>
<path d="M2321 2384 c0 -11 3 -14 6 -6 3 7 2 16 -1 19 -3 4 -6 -2 -5 -13z"/>
<path d="M2440 2355 c19 -19 36 -35 39 -35 3 0 -10 16 -29 35 -19 19 -36 35
-39 35 -3 0 10 -16 29 -35z"/>
<path d="M2490 2317 c0 -2 15 -16 33 -33 l32 -29 -29 33 c-28 30 -36 37 -36
29z"/>
<path d="M1096 2305 c-9 -26 -7 -32 5 -12 6 10 9 21 6 23 -2 3 -7 -2 -11 -11z"/>
<path d="M1106 2275 c-9 -26 -7 -32 5 -12 6 10 9 21 6 23 -2 3 -7 -2 -11 -11z"/>
<path d="M371 2194 c0 -11 3 -14 6 -6 3 7 2 16 -1 19 -3 4 -6 -2 -5 -13z"/>
<path d="M361 2160 c0 -8 4 -24 9 -35 5 -13 9 -14 9 -5 0 8 -4 24 -9 35 -5 13
-9 14 -9 5z"/>
<path d="M391 2124 c0 -11 3 -14 6 -6 3 7 2 16 -1 19 -3 4 -6 -2 -5 -13z"/>
<path d="M381 2090 c0 -8 4 -24 8 -35 7 -17 9 -16 15 9 4 16 5 31 1 34 -3 3
-5 -3 -6 -14 0 -18 -1 -18 -9 1 -5 13 -9 14 -9 5z"/>
<path d="M401 2020 c0 -8 4 -24 8 -35 7 -17 9 -16 15 9 4 16 5 31 1 34 -3 3
-5 -3 -6 -14 0 -18 -1 -18 -9 1 -5 13 -9 14 -9 5z"/>
<path d="M426 1966 c-3 -13 -2 -35 3 -48 6 -13 10 -18 10 -11 1 6 4 20 7 30 5
15 4 16 -6 3 -9 -12 -10 -8 -5 18 8 37 0 44 -9 8z"/>
<path d="M2261 2304 c0 -11 3 -14 6 -6 3 7 2 16 -1 19 -3 4 -6 -2 -5 -13z"/>
<path d="M2750 1876 c0 -3 9 -10 20 -16 11 -6 20 -8 20 -6 0 3 -9 10 -20 16
-11 6 -20 8 -20 6z"/>
<path d="M2615 1784 l-30 -26 33 22 c17 12 32 23 32 26 0 7 -4 5 -35 -22z"/>
<path d="M2559 1743 c-13 -16 -12 -17 4 -4 9 7 17 15 17 17 0 8 -8 3 -21 -13z"/>
<path d="M2870 1696 c0 -3 9 -10 20 -16 11 -6 20 -8 20 -6 0 3 -9 10 -20 16
-11 6 -20 8 -20 6z"/>
<path d="M2960 1646 c0 -3 9 -10 20 -16 11 -6 20 -8 20 -6 0 3 -9 10 -20 16
-11 6 -20 8 -20 6z"/>
<path d="M3030 1606 c0 -3 9 -10 20 -16 11 -6 20 -8 20 -6 0 3 -9 10 -20 16
-11 6 -20 8 -20 6z"/>
<path d="M2901 2224 c0 -11 3 -14 6 -6 3 7 2 16 -1 19 -3 4 -6 -2 -5 -13z"/>
<path d="M2921 2214 c0 -11 3 -14 6 -6 3 7 2 16 -1 19 -3 4 -6 -2 -5 -13z"/>
<path d="M3616 2164 c-4 -14 -5 -28 -3 -31 3 -2 8 8 11 23 4 14 5 28 3 31 -3
2 -8 -8 -11 -23z"/>
<path d="M3636 2034 c-20 -75 -35 -138 -33 -140 2 -2 21 57 41 132 20 75 35
138 33 140 -2 2 -21 -57 -41 -132z"/>
<path d="M3601 2104 c0 -11 3 -14 6 -6 3 7 2 16 -1 19 -3 4 -6 -2 -5 -13z"/>
<path d="M3591 2064 c0 -11 3 -14 6 -6 3 7 2 16 -1 19 -3 4 -6 -2 -5 -13z"/>
<path d="M3576 2014 c-4 -14 -5 -28 -3 -31 3 -2 8 8 11 23 4 14 5 28 3 31 -3
2 -8 -8 -11 -23z"/>
<path d="M3561 1954 c0 -11 3 -14 6 -6 3 7 2 16 -1 19 -3 4 -6 -2 -5 -13z"/>
<path d="M3551 1914 c0 -11 3 -14 6 -6 3 7 2 16 -1 19 -3 4 -6 -2 -5 -13z"/>
<path d="M1329 1883 c-8 -10 -21 -27 -29 -37 -14 -18 -14 -18 7 -5 12 7 20 15
18 18 -3 2 2 13 12 23 9 10 14 18 11 18 -3 0 -11 -8 -19 -17z"/>
<path d="M1470 1836 c0 -2 8 -10 18 -17 15 -13 16 -12 3 4 -13 16 -21 21 -21
13z"/>
<path d="M1540 1781 c0 -5 7 -12 16 -15 14 -5 15 -4 4 9 -14 17 -20 19 -20 6z"/>
<path d="M1430 1776 c0 -2 8 -10 18 -17 15 -13 16 -12 3 4 -13 16 -21 21 -21
13z"/>
<path d="M1119 1713 c-13 -16 -12 -17 4 -4 9 7 17 15 17 17 0 8 -8 3 -21 -13z"/>
<path d="M1089 1673 c-13 -16 -12 -17 4 -4 16 13 21 21 13 21 -2 0 -10 -8 -17
-17z"/>
<path d="M1059 1633 c-13 -16 -12 -17 4 -4 9 7 17 15 17 17 0 8 -8 3 -21 -13z"/>
<path d="M1029 1593 c-13 -16 -12 -17 4 -4 9 7 17 15 17 17 0 8 -8 3 -21 -13z"/>
<path d="M1210 2006 c0 -2 8 -10 18 -17 15 -13 16 -12 3 4 -13 16 -21 21 -21
13z"/>
<path d="M1290 1980 c12 -16 24 -30 26 -30 3 0 -4 14 -16 30 -12 17 -24 30
-26 30 -3 0 4 -13 16 -30z"/>
<path d="M2779 2008 c-24 -29 -36 -47 -26 -39 20 16 81 91 74 91 -2 0 -24 -24
-48 -52z"/>
<path d="M2799 1993 c-13 -16 -12 -17 4 -4 16 13 21 21 13 21 -2 0 -10 -8 -17
-17z"/>
<path d="M3225 1930 c27 -27 51 -50 54 -50 3 0 -17 23 -44 50 -27 28 -51 50
-54 50 -3 0 17 -22 44 -50z"/>
<path d="M3364 1888 l-19 -23 23 19 c21 18 27 26 19 26 -2 0 -12 -10 -23 -22z"/>
<path d="M3521 1804 c0 -11 3 -14 6 -6 3 7 2 16 -1 19 -3 4 -6 -2 -5 -13z"/>
<path d="M2471 1705 c0 -5 4 -19 8 -29 7 -19 8 -19 13 2 4 12 2 20 -2 17 -5
-3 -11 1 -13 7 -3 7 -5 9 -6 3z"/>
<path d="M2545 1589 c-4 -6 -5 -12 -2 -15 2 -3 7 2 10 11 7 17 1 20 -8 4z"/>
<path d="M2620 1455 c0 -5 5 -17 10 -25 5 -8 10 -10 10 -5 0 6 -5 17 -10 25
-5 8 -10 11 -10 5z"/>
<path d="M1321 1224 c0 -11 3 -14 6 -6 3 7 2 16 -1 19 -3 4 -6 -2 -5 -13z"/>
<path d="M3093 1235 c-62 -47 -113 -88 -113 -90 0 -3 52 34 115 81 100 75 123
95 113 94 -2 0 -54 -39 -115 -85z"/>
<path d="M1603 649 c-18 -5 -33 -14 -33 -20 0 -13 44 -29 81 -29 31 0 35 -10
23 -69 -5 -26 -13 -33 -45 -41 -36 -10 -39 -14 -39 -46 0 -49 32 -104 59 -104
6 0 11 -4 11 -10 0 -5 25 -10 56 -10 52 0 76 10 84 35 1 6 10 21 19 34 10 16
17 55 19 120 3 68 8 98 18 104 24 14 16 26 -23 36 -46 13 -186 13 -230 0z
m226 -104 l-2 -55 -51 6 c-75 8 -76 9 -76 53 0 43 1 44 88 49 l43 3 -2 -56z"/>
</g>
</svg>
